<mxfile host="Electron" agent="Mozilla/5.0 (Macintosh; Intel Mac OS X 10_15_7) AppleWebKit/537.36 (KHTML, like Gecko) draw.io/26.1.1 Chrome/132.0.6834.210 Electron/34.3.3 Safari/537.36" version="26.1.1">
  <diagram name="Page-1" id="FIdvAEBdq0ceYR5y_GAV">
    <mxGraphModel dx="1916" dy="1651" grid="1" gridSize="10" guides="1" tooltips="1" connect="1" arrows="1" fold="1" page="1" pageScale="1" pageWidth="827" pageHeight="1169" math="0" shadow="0">
      <root>
        <mxCell id="0" />
        <mxCell id="1" parent="0" />
        <mxCell id="92DLrKIu1NGl1QOKlz4K-1" value="" style="shape=image;verticalLabelPosition=bottom;labelBackgroundColor=none;verticalAlign=top;aspect=fixed;imageAspect=0;editableCssRules=.*;image=data:image/svg+xml,PHN2ZyB4bWxucz0iaHR0cDovL3d3dy53My5vcmcvMjAwMC9zdmciIHZpZXdCb3g9IjAgMCA2Mi4zNjIyIDYyLjM2MjIiIHZlcnNpb249IjEuMSIgaWQ9IkViZW5lXzIiPiYjeGE7ICAmI3hhOyAgPGRlZnM+JiN4YTsgICAgPHN0eWxlPiYjeGE7ICAgICAgLnN0MCB7JiN4YTsgICAgICAgIGZpbGw6ICNmZmY7JiN4YTsgICAgICB9JiN4YTsmI3hhOyAgICAgIC5zdDEgeyYjeGE7ICAgICAgICBmaWxsOiAjZGEyOTFjOyYjeGE7ICAgICAgfSYjeGE7ICAgIDwvc3R5bGU+JiN4YTsgIDwvZGVmcz4mI3hhOyAgPHBhdGggZD0iTTMxLjMxNDksNjIuMzYyMkMxMy40ODI4LDYyLjM2MjIsMCw0Ny41OTA1LDAsMzEuMzE0OCwwLDEyLjYzMjksMTUuNTU3MSwwLDMxLjA4MDcsMGMxOC42MDE2LDAsMzEuMjgxNSwxNS4zMzk5LDMxLjI4MTUsMzAuOTQ3MiwwLDE5LjA0OTUtMTUuNjU3NSwzMS40MTUtMzEuMDQ3MywzMS40MTVoMFoiIGNsYXNzPSJzdDEiLz4mI3hhOyAgPHBvbHlnb24gcG9pbnRzPSIzMS4xODI1IDQyLjUxOTcgMjguNzk2IDQyLjUxOTcgMzEuMTgyNSAzOC40MjQxIDMxLjE4MjUgMzQuMzkzMSAyNi40NzQxIDQyLjQ4NzQgMjQuMTg0MyA0Mi40ODc0IDMxLjE4MjUgMzAuMjk3NSAzMS4xODI1IDI2LjIzNDIgMjEuNzk3OSA0Mi40ODc0IDE5LjQ0MzYgNDIuNDg3NCAzMS4xODI1IDIyLjI2NzYgMzEuMTgyNSAxOC4xNzIgMTcuMTIxNyA0Mi40ODc0IDE0Ljc2NzUgNDIuNDg3NCAzMS4xODI1IDE0LjE3MzIgNDcuNTMzMSA0Mi41MTk3IDMxLjE4MjUgNDIuNTE5NyIgY2xhc3M9InN0MCIvPiYjeGE7PC9zdmc+;rounded=0;" parent="1" vertex="1">
          <mxGeometry x="210.75" y="758" width="62" height="62" as="geometry" />
        </mxCell>
        <mxCell id="92DLrKIu1NGl1QOKlz4K-2" value="" style="shape=image;verticalLabelPosition=bottom;labelBackgroundColor=none;verticalAlign=top;aspect=fixed;imageAspect=0;editableCssRules=.*;image=data:image/svg+xml,PHN2ZyB4bWxucz0iaHR0cDovL3d3dy53My5vcmcvMjAwMC9zdmciIHZpZXdCb3g9IjAgMCA2Mi4zNjIyIDYyLjM2MjIiIHZlcnNpb249IjEuMSIgaWQ9IkViZW5lXzIiPiYjeGE7ICAmI3hhOyAgPGRlZnM+JiN4YTsgICAgPHN0eWxlPiYjeGE7ICAgICAgLnN0MCB7JiN4YTsgICAgICAgIGZpbGw6ICNmZmY7JiN4YTsgICAgICB9JiN4YTsmI3hhOyAgICAgIC5zdDEgeyYjeGE7ICAgICAgICBmaWxsOiAjZGEyOTFjOyYjeGE7ICAgICAgfSYjeGE7ICAgIDwvc3R5bGU+JiN4YTsgIDwvZGVmcz4mI3hhOyAgPHBhdGggZD0iTTMxLjMxNDksNjIuMzYyMkMxMy40ODI4LDYyLjM2MjIsMCw0Ny41OTA1LDAsMzEuMzE0OCwwLDEyLjYzMjksMTUuNTU3MSwwLDMxLjA4MDcsMGMxOC42MDE2LDAsMzEuMjgxNSwxNS4zMzk5LDMxLjI4MTUsMzAuOTQ3MiwwLDE5LjA0OTUtMTUuNjU3NSwzMS40MTUtMzEuMDQ3MywzMS40MTVoMFoiIGNsYXNzPSJzdDEiLz4mI3hhOyAgPGc+JiN4YTsgICAgPHBhdGggZD0iTTQyLjMyNDIsNDIuODUwNWgtMjIuMjg2MWMtMi43NDA3LDAtNC45NzAyLTIuMjI5NS00Ljk3MDItNC45NzA3di0xNS45NzQ2YzAtMi43NDA3LDIuMjI5NS00Ljk3MDIsNC45NzAyLTQuOTcwMmgyMi4yODYxYzIuNzQwMiwwLDQuOTY5NywyLjIyOTUsNC45Njk3LDQuOTcwMnYxNS45NzQ2YzAsMi43NDEyLTIuMjI5NSw0Ljk3MDctNC45Njk3LDQuOTcwN1pNMjAuMDM4MSwxOC45MzQ5Yy0xLjYzNzcsMC0yLjk3MDIsMS4zMzI1LTIuOTcwMiwyLjk3MDJ2MTUuOTc0NmMwLDEuNjM3NywxLjMzMjUsMi45NzA3LDIuOTcwMiwyLjk3MDdoMjIuMjg2MWMxLjYzNzcsMCwyLjk2OTctMS4zMzMsMi45Njk3LTIuOTcwN3YtMTUuOTc0NmMwLTEuNjM3Ny0xLjMzMi0yLjk3MDItMi45Njk3LTIuOTcwMmgtMjIuMjg2MVoiIGNsYXNzPSJzdDAiLz4mI3hhOyAgICA8cGF0aCBkPSJNMzYuMjg2MSw0Ni44NDQ2aC0xMC4yMWMtLjU1MjIsMC0xLS40NDczLTEtMXMuNDQ3OC0xLDEtMWgxMC4yMWMuNTUyNywwLDEsLjQ0NzMsMSwxcy0uNDQ3MywxLTEsMVoiIGNsYXNzPSJzdDAiLz4mI3hhOyAgPC9nPiYjeGE7PC9zdmc+;rounded=0;" parent="1" vertex="1">
          <mxGeometry x="50.75" y="40" width="62" height="62" as="geometry" />
        </mxCell>
        <mxCell id="92DLrKIu1NGl1QOKlz4K-3" value="" style="shape=image;verticalLabelPosition=bottom;labelBackgroundColor=none;verticalAlign=top;aspect=fixed;imageAspect=0;editableCssRules=.*;image=data:image/svg+xml,PHN2ZyB4bWxucz0iaHR0cDovL3d3dy53My5vcmcvMjAwMC9zdmciIHZpZXdCb3g9IjAgMCA2Mi4zNjIyIDYyLjM2MjIiIHZlcnNpb249IjEuMSIgaWQ9IkViZW5lXzIiPiYjeGE7ICAmI3hhOyAgPGRlZnM+JiN4YTsgICAgPHN0eWxlPiYjeGE7ICAgICAgLnN0MCB7JiN4YTsgICAgICAgIGZpbGw6ICNmZmY7JiN4YTsgICAgICB9JiN4YTsmI3hhOyAgICAgIC5zdDEgeyYjeGE7ICAgICAgICBmaWxsOiAjZGEyOTFjOyYjeGE7ICAgICAgfSYjeGE7JiN4YTsgICAgICAuc3QyIHsmI3hhOyAgICAgICAgZGlzcGxheTogbm9uZTsmI3hhOyAgICAgIH0mI3hhOyAgICA8L3N0eWxlPiYjeGE7ICA8L2RlZnM+JiN4YTsgIDxwYXRoIGQ9Ik0zMS4zMTQ5LDYyLjM2MjJDMTMuNDgyOCw2Mi4zNjIyLDAsNDcuNTkwNSwwLDMxLjMxNDgsMCwxMi42MzI5LDE1LjU1NzEsMCwzMS4wODA3LDBjMTguNjAxNiwwLDMxLjI4MTUsMTUuMzM5OSwzMS4yODE1LDMwLjk0NzIsMCwxOS4wNDk1LTE1LjY1NzUsMzEuNDE1LTMxLjA0NzMsMzEuNDE1aDBaIiBjbGFzcz0ic3QxIi8+JiN4YTsgIDxnPiYjeGE7ICAgIDxnPiYjeGE7ICAgICAgPGc+JiN4YTsgICAgICAgIDxwYXRoIGQ9Ik0yNC4wMDU5LDQ2LjczODNjLS4yMDMxLDAtLjQ5OS0uMDI1NC0uNzU1NC0uMTQ1NWwtNS40Nzc1LTIuNTU0N2MtLjMzMDYtLjE1NDMtLjUyNDktLjQzODUtLjUxOTUtLjc1OTguMDAzOS0uMjE3OC4xMDU1LS42MjMuNzM5My0uODkwNi4zMDEzLS4xMjcuNjU5Ny0uMTk2MywxLjAxMDMtLjE5NjMuMjAyMSwwLC40OTY2LjAyNTQuNzUyOS4xNDM2bDUuNDc4NSwyLjU1NTdjLjMzMTUuMTU1My41MjU0LjQzOTUuNTE5NS43NjE3LS4wMDM5LjIxNjgtLjEwNTUuNjIyMS0uNzM5My44ODk2LS4zMDA4LjEyNy0uNjU4Ny4xOTYzLTEuMDA4OC4xOTYzWiIgY2xhc3M9InN0MCIvPiYjeGE7ICAgICAgICA8cGF0aCBkPSJNMTkuMDAyMyw0Mi43ODY2Yy4xOTUxLDAsLjM3NDIuMDI5MS41MDI0LjA4ODlsNS40Nzg0LDIuNTU0NmMuMjk4MS4xMzkuMjA4NC4zOTE0LS4yMDAzLjU2MzctLjIzMjkuMDk4Mi0uNTE5Mi4xNDkyLS43Nzc1LjE0OTItLjE5NTEsMC0uMzc0Mi0uMDI5MS0uNTAyNC0uMDg4OWwtNS40Nzg0LTIuNTU0NmMtLjI5ODEtLjEzOS0uMjA4NC0uMzkxNC4yMDAzLS41NjM3LjIzMjktLjA5ODIuNTE5Mi0uMTQ5Mi43Nzc1LS4xNDkyTTE5LjAwMjQsNDEuNTk2NmgwYy0uNDI4NCwwLS44Njg3LjA4NjItMS4yMzk4LjI0MjYtLjk3OTkuNDEzMS0xLjA5ODMsMS4xMzU2LTEuMTAzOCwxLjQyNzEtLjAxMDQuNTU2MS4zMjAyLDEuMDU4Ny44NjI4LDEuMzExN2w1LjQ3ODQsMi41NTQ2Yy4yODUxLjEzMjkuNjIzMy4yMDA0LDEuMDA1My4yMDA0LjQyODMsMCwuODY4Ni0uMDg2MiwxLjIzOTgtLjI0MjYuOTc5OS0uNDEzMSwxLjA5ODMtMS4xMzU2LDEuMTAzOC0xLjQyNzEuMDEwNC0uNTU2MS0uMzIwMi0xLjA1ODctLjg2MjgtMS4zMTE3bC01LjQ3ODQtMi41NTQ2Yy0uMjg1MS0uMTMyOS0uNjIzMy0uMjAwNC0xLjAwNTItLjIwMDRoMFoiIGNsYXNzPSJzdDEiLz4mI3hhOyAgICAgIDwvZz4mI3hhOyAgICAgIDxnPiYjeGE7ICAgICAgICA8cGF0aCBkPSJNMzEuNzgzNyw0Ny40ODI0Yy0uNDY1MywwLS45MTQ2LS4xMDA2LTEuMzM1OS0uMjk2OWwtMTQuMDMzNy02LjU0MzljLS4zOTQtLjE4MzYtLjYyNC0uNTUyNy0uNjE2Mi0uOTg2My4wMDgzLS40MzQ2LjI1Mi0uNzk0OS42NTIzLS45NjM5bDE0LjM1NzktNi4wNTM3Yy4zMzk4LS4xNDI2LjY5ODctLjIxNDgsMS4wNjc0LS4yMTQ4LjM5ODksMCwuODAwMy4wODg5LDEuMTYwNi4yNTY4bDE0LjIwMDIsNi42MjIxYy4zOTM2LjE4MzYuNjI0LjU1MTguNjE2Mi45ODYzcy0uMjUyLjc5NDktLjY1MjMuOTYzOWwtMTQuMTg4NSw1Ljk4MjRjLS4zOTA2LjE2NDEtLjgwMzcuMjQ4LTEuMjI4LjI0OFoiIGNsYXNzPSJzdDEiLz4mI3hhOyAgICAgICAgPHBhdGggZD0iTTMxLjg3NTksMzMuMDE3NmgwYy4zMTY1LDAsLjYyMjYuMDY3OS45MDk2LjIwMTdsMTQuMTk5OCw2LjYyMTVjLjI0Mi4xMTI5LjI3NDYuMzIyLjI3MjQuNDM2Ni0uMDAyMS4xMTQ2LS4wNDI1LjMyMjMtLjI4ODUuNDI2MWwtMTQuMTg4OCw1Ljk4MTljLS4zMTczLjEzMzgtLjY1MjguMjAxNi0uOTk3MS4yMDE2LS4zNzc2LDAtLjc0MjYtLjA4MDktMS4wODQ4LS4yNDA1bC0xNC4wMzMyLTYuNTQzOGMtLjI0Mi0uMTEyOS0uMjc0Ni0uMzIyLS4yNzI0LS40MzY2LjAwMjEtLjExNDYuMDQyNS0uMzIyMy4yODg1LS40MjYxbDE0LjM1ODEtNi4wNTMzYy4yNjYxLS4xMTIyLjU0NzUtLjE2OTEuODM2NC0uMTY5MU0zMS44NzU3LDMxLjgyNzZjLS40NDEyLDAtLjg4My4wODc0LTEuMjk4NS4yNjI1bC0xNC4zNTgxLDYuMDUzM2MtMS4zMjc4LjU1OTgtMS4zNjI3LDIuNDI4Ny0uMDU2NywzLjAzNzdsMTQuMDMzMiw2LjU0MzhjLjUwMjcuMjM0NCwxLjA0NDkuMzUyLDEuNTg3Ny4zNTIuNDk1OSwwLC45OTI0LS4wOTgyLDEuNDU5NC0uMjk1MWwxNC4xODg4LTUuOTgxOWMxLjMyNzgtLjU1OTgsMS4zNjI3LTIuNDI4Ny4wNTY3LTMuMDM3N2wtMTQuMTk5OC02LjYyMTVjLS40NDczLS4yMDg2LS45Mjk3LS4zMTMyLTEuNDEyNy0uMzEzMmgwWiIgY2xhc3M9InN0MSIvPiYjeGE7ICAgICAgPC9nPiYjeGE7ICAgICAgPHBhdGggZD0iTTMxLjg3NTksMzEuODg2OGMuMzA3NywwLC42MDUyLjA2Ni44ODQyLjE5NjFsMTQuMTk5OCw2LjYyMTVjLjIxMTMuMDk4NS4yMzk3LjI4MS4yMzc4LjM4MTEtLjAwMTkuMS0uMDM3MS4yODE0LS4yNTE5LjM3MTlsLTE0LjE4ODcsNS45ODE5Yy0uMzA5OS4xMzA2LS42Mzc1LjE5NjktLjk3MzguMTk2OS0uMzY4OCwwLS43MjUyLS4wNzktMS4wNTk0LS4yMzQ5bC0xNC4wMzMyLTYuNTQzOGMtLjIxMTItLjA5ODUtLjIzOTctLjI4MTEtLjIzNzgtLjM4MTEuMDAxOS0uMS4wMzcxLS4yODE0LjI1MTktLjM3MTlsMTQuMzU4MS02LjA1MzNjLjI1ODYtLjEwOS41MzIyLS4xNjQzLjgxMzEtLjE2NDRNMzEuODc1NywzMC42MzY4Yy0uNDQxMiwwLS44ODMuMDg3NC0xLjI5ODUuMjYyNWwtMTQuMzU4MSw2LjA1MzNjLTEuMzI3OC41NTk4LTEuMzYyNywyLjQyODctLjA1NjcsMy4wMzc3bDE0LjAzMzIsNi41NDM4Yy41MDI3LjIzNDQsMS4wNDQ5LjM1MiwxLjU4NzcuMzUyLjQ5NTksMCwuOTkyNC0uMDk4MiwxLjQ1OTQtLjI5NTFsMTQuMTg4OC01Ljk4MTljMS4zMjc4LS41NTk4LDEuMzYyNy0yLjQyODcuMDU2Ny0zLjAzNzdsLTE0LjE5OTgtNi42MjE1Yy0uNDQ3My0uMjA4Ni0uOTI5Ny0uMzEzMi0xLjQxMjctLjMxMzJoMFoiIGNsYXNzPSJzdDAiLz4mI3hhOyAgICAgIDxnIGNsYXNzPSJzdDIiPiYjeGE7ICAgICAgICA8cGF0aCBkPSJNMzAuOTQxNiw0NC4zNzU1bC0xMi4xODc5LTUuNjgzM2MtLjI2NTMtLjEyMzctLjI1ODItLjUwMzMuMDExNS0uNjE3bDEyLjQ1NjYtNS4yNTE2Yy40MDI2LS4xNjk3Ljg1ODEtLjE2MTIsMS4yNTQxLjAyMzRsMTIuMzA3Nyw1LjczOTJjLjI2NTMuMTIzNy4yNTgyLjUwMzMtLjAxMTUuNjE3bC0xMi4zMzQ4LDUuMjAwM2MtLjQ4MDEuMjAyNC0xLjAyMzQuMTkyMy0xLjQ5NTYtLjAyNzlaIiBjbGFzcz0ic3QwIi8+JiN4YTsgICAgICA8L2c+JiN4YTsgICAgPC9nPiYjeGE7ICAgIDxnPiYjeGE7ICAgICAgPGc+JiN4YTsgICAgICAgIDxwYXRoIGQ9Ik0yMy42Njg1LDM3Ljk2Yy0uMjAyNiwwLS40OTc2LS4wMjQ0LS43NTM5LS4xNDQ1bC01LjQ3OS0yLjU1NDdjLS4zMzExLS4xNTQzLS41MjU0LS40Mzg1LS41MTktLjc2MDcuMDAzOS0uMjE3OC4xMDU1LS42MjMuNzQwNy0uODkwNi4yOTc5LS4xMjYuNjU2Mi0uMTk1MywxLjAwNzMtLjE5NTMuMjAyMSwwLC40OTcxLjAyNDQuNzUzOS4xNDM2bDUuNDc5LDIuNTU1N2MuMzMxMS4xNTQzLjUyNTQuNDM4NS41MTkuNzYwNy0uMDAzOS4yMTc4LS4xMDU1LjYyMy0uNzQwNy44OTA2LS4yOTc5LjEyNi0uNjU2Mi4xOTUzLTEuMDA3My4xOTUzWiIgY2xhc3M9InN0MCIvPiYjeGE7ICAgICAgICA8cGF0aCBkPSJNMTguNjY1LDM0LjAwOWMuMTk1MSwwLC4zNzQyLjAyOTEuNTAyNC4wODg5bDUuNDc4NCwyLjU1NDZjLjI5ODEuMTM5LjIwODQuMzkxNC0uMjAwMy41NjM3LS4yMzI5LjA5ODItLjUxOTIuMTQ5Mi0uNzc3NS4xNDkyLS4xOTUxLDAtLjM3NDItLjAyOTEtLjUwMjQtLjA4ODlsLTUuNDc4NC0yLjU1NDZjLS4yOTgxLS4xMzktLjIwODQtLjM5MTQuMjAwMy0uNTYzNy4yMzI5LS4wOTgyLjUxOTItLjE0OTIuNzc3NS0uMTQ5Mk0xOC42NjUxLDMyLjgxOWgwYy0uNDI4NCwwLS44Njg3LjA4NjItMS4yMzk4LjI0MjYtLjk3OTkuNDEzMS0xLjA5ODMsMS4xMzU2LTEuMTAzOCwxLjQyNzEtLjAxMDQuNTU2MS4zMjAyLDEuMDU4Ny44NjI4LDEuMzExN2w1LjQ3ODQsMi41NTQ2Yy4yODUxLjEzMjkuNjIzMy4yMDA0LDEuMDA1My4yMDA0LjQyODMsMCwuODY4Ni0uMDg2MiwxLjIzOTgtLjI0MjYuOTc5OS0uNDEzMiwxLjA5ODMtMS4xMzU2LDEuMTAzOC0xLjQyNzEuMDEwNC0uNTU2MS0uMzIwMi0xLjA1ODctLjg2MjgtMS4zMTE3bC01LjQ3ODQtMi41NTQ2Yy0uMjg1MS0uMTMyOS0uNjIzMy0uMjAwNC0xLjAwNTItLjIwMDRoMFoiIGNsYXNzPSJzdDEiLz4mI3hhOyAgICAgIDwvZz4mI3hhOyAgICAgIDxnPiYjeGE7ICAgICAgICA8cGF0aCBkPSJNMzEuNDQ2MywzOC43MDQxYy0uNDY0OCwwLS45MTQ2LS4wOTk2LTEuMzM2NC0uMjk1OWwtMTQuMDMzMi02LjU0MzljLS4zOTM2LS4xODM2LS42MjQtLjU1MjctLjYxNTctLjk4NjguMDA3OC0uNDM0Ni4yNTItLjc5NDQuNjUyMy0uOTYzNGwxNC4zNTc0LTYuMDUzMmMuMzM5OC0uMTQzMS42OTkyLS4yMTU4LDEuMDY3OS0uMjE1OC40MDM4LDAsLjc5NDQuMDg2NCwxLjE2MDYuMjU3M2wxNC4yMDAyLDYuNjIxMWMuMzkzNi4xODQxLjYyNC41NTMyLjYxNjIuOTg3OC0uMDA4OC40MzQxLS4yNTI5Ljc5NDQtLjY1MzMuOTYzNGwtMTQuMTg4NSw1Ljk4MTRjLS4zOTA2LjE2NS0uODAzMi4yNDgtMS4yMjc1LjI0OFoiIGNsYXNzPSJzdDEiLz4mI3hhOyAgICAgICAgPHBhdGggZD0iTTMxLjUzODYsMjQuMjM5OWgwYy4zMTY2LDAsLjYyMjYuMDY3OS45MDk2LjIwMTdsMTQuMTk5OCw2LjYyMTVjLjI0Mi4xMTI5LjI3NDYuMzIyLjI3MjQuNDM2Ni0uMDAyMS4xMTQ2LS4wNDI1LjMyMjQtLjI4ODUuNDI2MWwtMTQuMTg4OCw1Ljk4MTljLS4zMTczLjEzMzgtLjY1MjguMjAxNi0uOTk3MS4yMDE2LS4zNzc2LDAtLjc0MjYtLjA4MDktMS4wODQ4LS4yNDA1bC0xNC4wMzMyLTYuNTQzOGMtLjI0Mi0uMTEyOS0uMjc0Ni0uMzIyLS4yNzI0LS40MzY2LjAwMjEtLjExNDYuMDQyNS0uMzIyNC4yODg1LS40MjYxbDE0LjM1ODEtNi4wNTMzYy4yNjYxLS4xMTIyLjU0NzUtLjE2OTEuODM2NC0uMTY5MU0zMS41Mzg0LDIzLjA0OTljLS40NDEyLDAtLjg4My4wODc0LTEuMjk4NS4yNjI1bC0xNC4zNTgxLDYuMDUzM2MtMS4zMjc4LjU1OTgtMS4zNjI3LDIuNDI4Ny0uMDU2NywzLjAzNzdsMTQuMDMzMiw2LjU0MzhjLjUwMjcuMjM0NCwxLjA0NDkuMzUyLDEuNTg3Ny4zNTIuNDk1OSwwLC45OTI0LS4wOTgyLDEuNDU5NC0uMjk1MWwxNC4xODg4LTUuOTgxOWMxLjMyNzgtLjU1OTgsMS4zNjI3LTIuNDI4Ny4wNTY3LTMuMDM3N2wtMTQuMTk5OC02LjYyMTVjLS40NDczLS4yMDg2LS45Mjk3LS4zMTMyLTEuNDEyNy0uMzEzMmgwWiIgY2xhc3M9InN0MSIvPiYjeGE7ICAgICAgPC9nPiYjeGE7ICAgICAgPHBhdGggZD0iTTMxLjUzODYsMjMuMTA5MmMuMzA3NywwLC42MDUyLjA2Ni44ODQyLjE5NjFsMTQuMTk5OCw2LjYyMTVjLjIxMTMuMDk4NS4yMzk3LjI4MS4yMzc4LjM4MTEtLjAwMTkuMS0uMDM3MS4yODE0LS4yNTE5LjM3MTlsLTE0LjE4ODgsNS45ODE5Yy0uMzA5OS4xMzA2LS42Mzc1LjE5NjktLjk3MzguMTk2OS0uMzY4OCwwLS43MjUyLS4wNzktMS4wNTk0LS4yMzQ5bC0xNC4wMzMyLTYuNTQzOGMtLjIxMTItLjA5ODUtLjIzOTctLjI4MS0uMjM3OC0uMzgxMS4wMDE5LS4xLjAzNzEtLjI4MTQuMjUxOS0uMzcxOWwxNC4zNTgxLTYuMDUzM2MuMjU4Ni0uMTA5LjUzMjItLjE2NDMuODEzMS0uMTY0NE0zMS41Mzg0LDIxLjg1OTJjLS40NDEyLDAtLjg4My4wODc0LTEuMjk4NS4yNjI1bC0xNC4zNTgxLDYuMDUzM2MtMS4zMjc4LjU1OTgtMS4zNjI3LDIuNDI4Ny0uMDU2NywzLjAzNzdsMTQuMDMzMiw2LjU0MzhjLjUwMjcuMjM0NCwxLjA0NDkuMzUyLDEuNTg3Ny4zNTIuNDk1OSwwLC45OTI0LS4wOTgyLDEuNDU5NC0uMjk1MWwxNC4xODg4LTUuOTgxOWMxLjMyNzgtLjU1OTgsMS4zNjI3LTIuNDI4Ny4wNTY3LTMuMDM3N2wtMTQuMTk5OC02LjYyMTVjLS40NDczLS4yMDg2LS45Mjk3LS4zMTMyLTEuNDEyNy0uMzEzMmgwWiIgY2xhc3M9InN0MCIvPiYjeGE7ICAgICAgPGcgY2xhc3M9InN0MiI+JiN4YTsgICAgICAgIDxwYXRoIGQ9Ik0zMC41NDc2LDM1LjY1NDVsLTEyLjE4NzktNS42ODMzYy0uMjY1My0uMTIzNy0uMjU4Mi0uNTAzMy4wMTE1LS42MTdsMTIuNDU2Ni01LjI1MTZjLjQwMjYtLjE2OTcuODU4MS0uMTYxMiwxLjI1NDEuMDIzNGwxMi4zMDc3LDUuNzM5MmMuMjY1My4xMjM3LjI1ODIuNTAzMy0uMDExNS42MTdsLTEyLjMzNDgsNS4yMDAzYy0uNDgwMS4yMDI0LTEuMDIzNC4xOTIzLTEuNDk1Ni0uMDI3OVoiIGNsYXNzPSJzdDAiLz4mI3hhOyAgICAgIDwvZz4mI3hhOyAgICA8L2c+JiN4YTsgICAgPGc+JiN4YTsgICAgICA8Zz4mI3hhOyAgICAgICAgPHBhdGggZD0iTTIzLjMzMDYsMjkuMTgyNmMtLjIwMjEsMC0uNDk3MS0uMDI0OS0uNzUzNC0uMTQ0bC01LjQ3OS0yLjU1NTJjLS4zMzE1LS4xNTQ4LS41MjU0LS40Mzk1LS41MTktLjc2MTIuMDAzOS0uMjE3OC4xMDU1LS42MjI2LjczOTctLjg5MDEuMjk5OC0uMTI2LjY1NzctLjE5NTgsMS4wMDgzLS4xOTU4LjIwMjYsMCwuNDk4NS4wMjU0Ljc1NDkuMTQ1bDUuNDc4LDIuNTU0N2MuMzMxMS4xNTM4LjUyNDkuNDM4NS41MTkuNzYwNy0uMDAzOS4yMTczLS4xMDU1LjYyMjYtLjczOTcuODkwMS0uMjk5OC4xMjY1LS42NTgyLjE5NTgtMS4wMDg4LjE5NThaIiBjbGFzcz0ic3QwIi8+JiN4YTsgICAgICAgIDxwYXRoIGQ9Ik0xOC4zMjc3LDI1LjIzMTNjLjE5NTEsMCwuMzc0Mi4wMjkxLjUwMjQuMDg4OWw1LjQ3ODQsMi41NTQ2Yy4yOTgxLjEzOS4yMDg0LjM5MTQtLjIwMDMuNTYzNy0uMjMyOS4wOTgyLS41MTkyLjE0OTItLjc3NzUuMTQ5Mi0uMTk1MSwwLS4zNzQyLS4wMjkxLS41MDI0LS4wODg5bC01LjQ3ODQtMi41NTQ2Yy0uMjk4MS0uMTM5LS4yMDg0LS4zOTE0LjIwMDMtLjU2MzcuMjMyOS0uMDk4Mi41MTkyLS4xNDkyLjc3NzUtLjE0OTJNMTguMzI3OCwyNC4wNDEzaDBjLS40Mjg0LDAtLjg2ODcuMDg2Mi0xLjIzOTguMjQyNi0uOTc5OS40MTMxLTEuMDk4MywxLjEzNTYtMS4xMDM4LDEuNDI3MS0uMDEwNC41NTYxLjMyMDIsMS4wNTg3Ljg2MjgsMS4zMTE3bDUuNDc4NCwyLjU1NDZjLjI4NTEuMTMyOS42MjMzLjIwMDQsMS4wMDUzLjIwMDQuNDI4MywwLC44Njg2LS4wODYyLDEuMjM5OC0uMjQyNy45Nzk5LS40MTMxLDEuMDk4My0xLjEzNTYsMS4xMDM4LTEuNDI3MS4wMTA0LS41NTYxLS4zMjAyLTEuMDU4Ny0uODYyOC0xLjMxMTdsLTUuNDc4NC0yLjU1NDZjLS4yODUxLS4xMzI5LS42MjMzLS4yMDA0LTEuMDA1Mi0uMjAwNGgwWiIgY2xhc3M9InN0MSIvPiYjeGE7ICAgICAgPC9nPiYjeGE7ICAgICAgPGc+JiN4YTsgICAgICAgIDxwYXRoIGQ9Ik0zMS4xMDg5LDI5LjkyNjNjLS40NjUzLDAtLjkxNS0uMDk5Ni0xLjMzNjQtLjI5NTlsLTE0LjAzMzItNi41NDM1Yy0uMzk0LS4xODM2LS42MjQtLjU1MjctLjYxNTctLjk4NjguMDA3OC0uNDM0Ni4yNTItLjc5NDkuNjUxOS0uOTYzNGwxNC4zNTc5LTYuMDUzN2MuMzM5OC0uMTQzMS42OTg3LS4yMTU4LDEuMDY3NC0uMjE1OC4zOTg0LDAsLjgwMDMuMDg5NCwxLjE2MDYuMjU3M2wxNC4yMDEyLDYuNjIxNmMuMzkzNi4xODQxLjYyNC41NTI3LjYxNTIuOTg3OC0uMDA3OC40MzQxLS4yNTIuNzkzOS0uNjUyMy45NjI0bC0xNC4xODg1LDUuOTgxOWMtLjM5MDYuMTY0Ni0uODA0Mi4yNDgtMS4yMjguMjQ4WiIgY2xhc3M9InN0MSIvPiYjeGE7ICAgICAgICA8cGF0aCBkPSJNMzEuMjAxMywxNS40NjIzaDBjLjMxNjUsMCwuNjIyNi4wNjc5LjkwOTYuMjAxN2wxNC4xOTk4LDYuNjIxNWMuMjQyLjExMjkuMjc0Ni4zMjIuMjcyNC40MzY2LS4wMDIxLjExNDYtLjA0MjUuMzIyNC0uMjg4NS40MjYxbC0xNC4xODg4LDUuOTgxOWMtLjMxNzMuMTMzOC0uNjUyOC4yMDE2LS45OTcxLjIwMTYtLjM3NzYsMC0uNzQyNi0uMDgwOS0xLjA4NDgtLjI0MDVsLTE0LjAzMzItNi41NDM4Yy0uMjQyLS4xMTI5LS4yNzQ2LS4zMjItLjI3MjQtLjQzNjYuMDAyMS0uMTE0Ni4wNDI1LS4zMjI0LjI4ODUtLjQyNjFsMTQuMzU4MS02LjA1MzNjLjI2NjEtLjExMjIuNTQ3NS0uMTY5MS44MzY0LS4xNjkxTTMxLjIwMTEsMTQuMjcyM2MtLjQ0MTIsMC0uODgzLjA4NzQtMS4yOTg1LjI2MjVsLTE0LjM1ODEsNi4wNTMzYy0xLjMyNzguNTU5OC0xLjM2MjcsMi40Mjg3LS4wNTY3LDMuMDM3N2wxNC4wMzMyLDYuNTQzOGMuNTAyNy4yMzQ0LDEuMDQ0OS4zNTIsMS41ODc3LjM1Mi40OTU5LDAsLjk5MjQtLjA5ODIsMS40NTk0LS4yOTUxbDE0LjE4ODgtNS45ODE5YzEuMzI3OC0uNTU5OCwxLjM2MjctMi40Mjg3LjA1NjctMy4wMzc3bC0xNC4xOTk4LTYuNjIxNWMtLjQ0NzMtLjIwODYtLjkyOTctLjMxMzItMS40MTI3LS4zMTMyaDBaIiBjbGFzcz0ic3QxIi8+JiN4YTsgICAgICA8L2c+JiN4YTsgICAgICA8cGF0aCBkPSJNMzEuMjAxMywxNC4zMzE2Yy4zMDc3LDAsLjYwNTIuMDY2Ljg4NDIuMTk2MWwxNC4xOTk4LDYuNjIxNWMuMjExMy4wOTg1LjIzOTcuMjgxLjIzNzguMzgxMS0uMDAxOS4xLS4wMzcxLjI4MTQtLjI1MTkuMzcxOWwtMTQuMTg4OCw1Ljk4MTljLS4zMDk5LjEzMDYtLjYzNzUuMTk2OS0uOTczOC4xOTY5LS4zNjg4LDAtLjcyNTItLjA3OS0xLjA1OTQtLjIzNDlsLTE0LjAzMzItNi41NDM4Yy0uMjExMi0uMDk4NS0uMjM5Ny0uMjgxLS4yMzc4LS4zODExLjAwMTktLjEuMDM3MS0uMjgxNC4yNTE5LS4zNzE5bDE0LjM1ODEtNi4wNTMzYy4yNTg2LS4xMDkuNTMyMi0uMTY0My44MTMxLS4xNjQ0TTMxLjIwMTEsMTMuMDgxNmMtLjQ0MTIsMC0uODgzLjA4NzQtMS4yOTg1LjI2MjVsLTE0LjM1ODEsNi4wNTMzYy0xLjMyNzguNTU5OC0xLjM2MjcsMi40Mjg3LS4wNTY3LDMuMDM3N2wxNC4wMzMyLDYuNTQzOGMuNTAyNy4yMzQ0LDEuMDQ0OS4zNTIsMS41ODc3LjM1Mi40OTU5LDAsLjk5MjQtLjA5ODIsMS40NTk0LS4yOTUxbDE0LjE4ODgtNS45ODE5YzEuMzI3OC0uNTU5OCwxLjM2MjctMi40Mjg3LjA1NjctMy4wMzc3bC0xNC4xOTk4LTYuNjIxNWMtLjQ0NzMtLjIwODYtLjkyOTctLjMxMzItMS40MTI3LS4zMTMyaDBaIiBjbGFzcz0ic3QwIi8+JiN4YTsgICAgICA8ZyBjbGFzcz0ic3QyIj4mI3hhOyAgICAgICAgPHBhdGggZD0iTTMwLjI2NjksMjYuODc2OWwtMTIuMTg3OS01LjY4MzNjLS4yNjUzLS4xMjM3LS4yNTgyLS41MDMzLjAxMTUtLjYxN2wxMi40NTY2LTUuMjUxNmMuNDAyNi0uMTY5Ny44NTgxLS4xNjEyLDEuMjU0MS4wMjM0bDEyLjMwNzcsNS43MzkyYy4yNjUzLjEyMzcuMjU4Mi41MDMzLS4wMTE1LjYxN2wtMTIuMzM0OCw1LjIwMDNjLS40ODAxLjIwMjQtMS4wMjM0LjE5MjMtMS40OTU2LS4wMjc5WiIgY2xhc3M9InN0MCIvPiYjeGE7ICAgICAgPC9nPiYjeGE7ICAgIDwvZz4mI3hhOyAgPC9nPiYjeGE7PC9zdmc+;rounded=0;" parent="1" vertex="1">
          <mxGeometry x="130.75" y="40" width="62" height="62" as="geometry" />
        </mxCell>
        <mxCell id="92DLrKIu1NGl1QOKlz4K-4" value="" style="shape=image;verticalLabelPosition=bottom;labelBackgroundColor=none;verticalAlign=top;aspect=fixed;imageAspect=0;editableCssRules=.*;image=data:image/svg+xml,PHN2ZyB4bWxucz0iaHR0cDovL3d3dy53My5vcmcvMjAwMC9zdmciIHZpZXdCb3g9IjAgMCA2Mi4zNjIyIDYyLjM2MjIiIHZlcnNpb249IjEuMSIgaWQ9IkViZW5lXzIiPiYjeGE7ICAmI3hhOyAgPGRlZnM+JiN4YTsgICAgPHN0eWxlPiYjeGE7ICAgICAgLnN0MCB7JiN4YTsgICAgICAgIGZpbGw6ICNmZmY7JiN4YTsgICAgICB9JiN4YTsmI3hhOyAgICAgIC5zdDEgeyYjeGE7ICAgICAgICBmaWxsOiAjZGEyOTFjOyYjeGE7ICAgICAgfSYjeGE7ICAgIDwvc3R5bGU+JiN4YTsgIDwvZGVmcz4mI3hhOyAgPHBhdGggZD0iTTMxLjMxNDksNjIuMzYyMkMxMy40ODI4LDYyLjM2MjIsMCw0Ny41OTA0LDAsMzEuMzE0OCwwLDEyLjYzMjksMTUuNTU3MSwwLDMxLjA4MDcsMCw0OS42ODIzLDAsNjIuMzYyMiwxNS4zMzk5LDYyLjM2MjIsMzAuOTQ3MmMwLDE5LjA0OTUtMTUuNjU3NSwzMS40MTUtMzEuMDQ3MywzMS40MTVoMFoiIGNsYXNzPSJzdDEiLz4mI3hhOyAgPHBhdGggZD0iTTM4Ljc4MTIsNTAuNTk5OWgtMTUuMjAwMmMtMS4xNDI2LDAtMi4yMTM5LS41MTE3LTIuOTM5OS0xLjQwMjNsLTkuNDgyNC0xMS44ODg3Yy0uNzIzNi0uOTIxOS0uOTg0NC0yLjA4ODktLjcyMTItMy4yMWwzLjM5MDEtMTQuODA5NmMuMjI2Ni0xLjEwMTYuOTkxMi0yLjA2NTksMi4wNDE1LTIuNTU4MWwxMy42NzUzLTYuNTg1NGMxLjAwNzMtLjQ4ODMsMi4yMjY2LS40OTA3LDMuMjY0Mi0uMDA0NGwxMy42OTM0LDYuNTk0MmMxLjAxMjcuNDkwMiwxLjc3MDUsMS40NDI0LDIuMDMxMiwyLjU0NzlsMy4zOTE2LDE0LjgyMDNjLjI2MTcsMS4xMTgyLjAwMSwyLjI4NDItLjcxNTgsMy4xOTgybC05LjQ4MTQsMTEuODg3N2MtLjczMzQuODk5NC0xLjgwNDcsMS40MTAyLTIuOTQ2MywxLjQxMDJaTTMxLjE3NDgsMTEuNzc2MWMtLjI2MzcsMC0uNTI1NC4wNTY2LS43NjA3LjE3MDRsLTEzLjY4NjUsNi41OTA4Yy0uNDkxMi4yMzA1LS44NDEzLjY2ODUtLjk0NTgsMS4xNzY4bC0zLjM5NiwxNC44MzU5Yy0uMTI1LjUzMjIsMCwxLjA4My4zNDEzLDEuNTE2Nmw5LjQ3MTIsMTEuODc1Yy4zMzg0LjQxNi44NDQyLjY1ODIsMS4zODI4LjY1ODJoMTUuMjAwMmMuNTM4MSwwLDEuMDQzOS0uMjQzMiwxLjM4ODctLjY2Nmw5LjQ2OTctMTEuODczYy4zMzU5LS40Mjc3LjQ2MDktLjk3ODUuMzM2OS0xLjUwNDlsLS4wMDEtLjAwNTktMy4zOTA2LTE0LjgxNDVjLS4xMjIxLS41MTk1LS40Nzg1LS45Njk3LS45NTIxLTEuMTk5MmwtMTMuNjgzMS02LjU4ODljLS4yNDMyLS4xMTM4LS41MTAzLS4xNzE0LS43NzQ5LS4xNzE0WiIgY2xhc3M9InN0MCIvPiYjeGE7ICA8cGF0aCBkPSJNMzYuMzMzLDQzLjIzNjZoLS4wMTA3bC0xLjI4OTEtLjAxMzdjLS40Njg4LS4wMDM5LS45MTMxLS4yNTY4LTEuMTU3Mi0uNjYwMmwtMS44MTY0LTMuMDE2NmMtLjM3NS0uNjc5Ny0xLjM5NS0uNjU4Mi0xLjc0MjctLjAyMjVsLTEuODUxMSwzLjAyNDRjLS4yNDcxLjQwNDMtLjY3ODIuNjQ4NC0xLjE1MjguNjU0M2wtMS4yOTEuMDEyN2MtLjQyNDguMDEwNy0uODM1OS0uMTkzNC0xLjA5NzctLjUzMjJsLS43OTg4LTEuMDM0MmMtLjI5MDUtLjM3Ni0uMzY1Mi0uODY2Mi0uMjAwMi0xLjMxMTVsMS4yMTczLTMuMjk3OWMuMTU1My0uMzY0My4xMDYtLjczMjQtLjEyMDYtMS4wMTY2LS4yMjcxLS4yODQyLS41Nzk2LS40MTExLS45Mzg1LS4zNDk2bC0zLjUxNjEuNDU1MWMtLjQ3MjcuMDU5Ni0uOTM0Ni0uMTIyMS0xLjIzNTgtLjQ5MTJsLS44MjA4LTEuMDAzOWMtLjI3MTUtLjMzMi0uMzcyMS0uNzc4My0uMjY5NS0xLjE5NDNsLjMxNDUtMS4yNzE1Yy4xMTQzLS40NTkuNDQ5Ny0uODIxOC44OTg0LS45NzA3bDMuMzM1OS0xLjEwNTVjLjM4MDQtLjExMTguNjQyNi0uMzkxNi43MjE3LS43NTM5LjA3NjctLjM1MDYtLjAzNTItLjY4Ny0uMzA3MS0uOTIzM2wtMi41NTAzLTIuNDU0NmMtLjM0NDctLjMzMy0uNDg5My0uODA5Ni0uMzg4Mi0xLjI3NjRsLjI3MzQtMS4yNjM3Yy4wODk4LS40MTUuMzczNS0uNzcwNS43NTgzLS45NTA3bDEuMTczMy0uNTQ3NGMuNDI2OC0uMTk4Ny45MzgtLjE2MjEsMS4zMzI1LjA5NzdsMi45MTg1LDEuOTI3MmMuMzExNS4yMjEyLjY4MTIuMjUzNCwxLjAwODMuMDk3Mi4zMzY5LS4xNTk3LjU1MjctLjQ3OC41Nzc2LS44NTE2bC4zMzg0LTMuNTIxYy4wNDQ0LS40Njc4LjMzNDUtLjg4NzcuNzU1OS0xLjA5NjJsMS4xNjIxLS41NzQyYy4zODA0LS4xODc1LjgzMjUtLjE4OCwxLjIxMjktLjAwMDVsMS4xNjMxLjU3NTJjLjQyMDkuMjA3NS43MS42Mjc5Ljc1NDksMS4wOTY3bC4zMzc5LDMuNTAxYy4wMjA1LjM5ODQuMjE5Ny43MDMxLjU1MDguODY0Ny4zMzMuMTY0Ni43MTQ4LjEzMzgsMS4wMjE1LS4wODE1bDIuOTU4LTEuOTIyNGMuNDAwNC0uMjU4OC44OTU1LS4yOTIsMS4zMjUyLS4wOTMzbDEuMTc1OC41NDg4Yy4zODQ4LjE4MDIuNjY4LjUzNTIuNzU4OC45NDk3bC4yNzQ0LDEuMjY1MWMuMTAwNi40NjY4LS4wNDM5Ljk0MzgtLjM4NzcsMS4yNzU5bC0yLjUyODMsMi40MzM2Yy0uMjk0OS4yNTczLS40MDkyLjYwODktLjMyODEuOTYxOS4wODExLjM1ODkuMzM4OS42MzA5LjY4ODUuNzI3MWwzLjM2NjIsMS4xMTUyYy40NDkyLjE0ODQuNzg1Mi41MTE3Ljg5ODQuOTcwN2wuMzEzNSwxLjI2NjFjLjEwMzUuNDE5OS4wMDEuODcwMS0uMjczNCwxLjIwMzFsLS44Mzk4LDEuMDA4OGMtLjMwMjcuMzY0My0uNzY2Ni41NDM5LTEuMjI5NS40ODM0bC0zLjQ4NjMtLjQ1MDJjLS4zOTA2LS4wNjU0LS43NS4wNzEzLS45Nzg1LjM2MjMtLjIyMTcuMjgzMi0uMjY3Ni42MzY3LS4xMjUuOTY5N2wxLjIyOTUsMy4zMjYyYy4xNjUuNDQ2My4wODk4LjkzNjUtLjIwMTIsMS4zMTI1bC0uNzk4OCwxLjAzMzJjLS4yNTc4LjMzNS0uNjYyMS41MzMyLTEuMDg0LjUzMzJaTTMxLjE4MTIsMzcuNzY2OWMuODMxNSwwLDEuNTY0OS40MzI2LDEuOTYxNCwxLjE1NzJsMS44MDI3LDIuOTkyMmMuMDIwNS4wMzQyLjA1OTYuMDU2Ni4wOTk2LjA1NjZsMS4yODkxLjAxMzdjLS4wMDI5LS4wMTA3LjA3MDMtLjAxNjYuMDk0Ny0uMDQ2OWwuNzk4OC0xLjAzNDJjLjAyNTQtLjAzMzIuMDMxMi0uMDc2Mi4wMTY2LS4xMTUybC0xLjIxNjgtMy4yOTU5Yy0uMzExNS0uNzI1Ni0uMjAzMS0xLjU2MDUuMzAxOC0yLjIwNDEuNTA3OC0uNjQ1NSwxLjMyODEtLjk2NjgsMi4xNDQ1LS44MjcxbDMuNDY0OC40NDYzYy4wMzkxLjAwODguMDgxMS0uMDEwNy4xMDc0LS4wNDJsLjgzNzktMS4wMDY4Yy4wMjM0LS4wMjgzLjAzMjItLjA2ODQuMDIyNS0uMTA2NGwtLjMxMjUtMS4yNjU2Yy0uMDA5OC0uMDQtLjAzOTEtLjA3MTgtLjA3ODEtLjA4NDVsLTMuMzM1OS0xLjEwNmMtLjc1ODgtLjIwOC0xLjM2MzMtLjg0MjMtMS41NDU5LTEuNjQ2LS4xODM2LS44MDk2LjA3OTEtMS42MTcyLjcwNDEtMi4xNjA2bDIuNTAzOS0yLjQxMTZjLjAyOTMtLjAyODguMDQzLS4wNzAzLjAzNDItLjExMTNsLS4yNzQ0LTEuMjYzN2MtLjAwNzgtLjAzNjEtLjAzMjItLjA2NjktLjA2NjQtLjA4MzVsLTEuMTc0OC0uNTQ3OWMtLjAzNzEtLjAxNjYtLjA4Mi0uMDEyNy0uMTE2Mi4wMDg4bC0yLjkzOTUsMS45MDkyYy0uNjY4LjQ2NzgtMS41MjI1LjUzNjEtMi4yNzA1LjE2ODUtLjc0MDItLjM2MjgtMS4yMDctMS4wNzE4LTEuMjQ3MS0xLjg5NjVsLS4zMzU5LTMuNDcyN2MtLjAwMzktLjA0MTUtLjAyODMtLjA3NzYtLjA2NDUtLjA5NTJsLTEuMTYyNi0uNTc1MmMtLjAzMzItLjAxNTYtLjA3MjMtLjAxNjEtLjEwNjQuMDAwNWwtMS4xNjE2LjU3NDJjLS4wMzY2LjAxODEtLjA2MTUuMDU0Ny0uMDY1NC4wOTQ3bC0uMzM2OSwzLjUwMjljLS4wNTMyLjgxMzUtLjUzNTIsMS41MjM0LTEuMjg4MSwxLjg4MDQtLjc0MzIuMzUzLTEuNTg1NC4yNzgzLTIuMjUxLS4xOTY4bC0yLjg5ODktMS45MTQxYy0uMDMzMi0uMDIyLS4wNzc2LS4wMjQ5LS4xMTYyLS4wMDgzbC0xLjE3MjQuNTQ2OWMtLjAzMzcuMDE1Ni0uMDU4MS4wNDY0LS4wNjU5LjA4M2wtLjI3MzQsMS4yNjQyYy0uMDA4OC4wNDA1LjAwMzkuMDgyLjAzNDIuMTExM2wyLjUyNjQsMi40MzI2Yy41OTQ3LjUxNjEuODU5NCwxLjMxMzUuNjg0NiwyLjExMjMtLjE3NTguODAzNy0uNzc3MywxLjQ0NzMtMS41NzAzLDEuNjc5N2wtMy4zMTQ5LDEuMDk5MWMtLjAzOTEuMDEyNy0uMDY4NC4wNDQ5LS4wNzg2LjA4NWwtLjMxNCwxLjI3MDVjLS4wMDkzLjAzNjEtLjAwMDUuMDc0Mi4wMjM0LjEwMzVsLjgyMTMsMS4wMDM5Yy4wMjY0LjAzMTIuMDY2NC4wNDk4LjEwNjkuMDQybDMuNDgzOS0uNDQ5MmMuNzgwOC0uMTQyNiwxLjU5NjcuMTY0MSwyLjEwODQuODA0Ny41MTA3LjYzOTYuNjI3NCwxLjUwNTkuMzA0MiwyLjI1ODhsLTEuMjA1NiwzLjI2ODZjLS4wMTQyLjAzODEtLjAwNzguMDgyLjAxNzEuMTE0M2wuNzk4OCwxLjAzNDJjLjAyMjkuMDI4My4wNTY2LjA0ODguMDk0Mi4wNDU5bDEuMjkxNS0uMDEyN2MuMDQxLDAsLjA3ODYtLjAyMTUuMTAwMS0uMDU2NmwxLjgzNTktMi45OThjLjM4MTMtLjY5ODIsMS4xMTQzLTEuMTMwOSwxLjk0NTgtMS4xMzA5WiIgY2xhc3M9InN0MCIvPiYjeGE7PC9zdmc+;rounded=0;" parent="1" vertex="1">
          <mxGeometry x="208.75" y="40" width="62" height="62" as="geometry" />
        </mxCell>
        <mxCell id="92DLrKIu1NGl1QOKlz4K-5" value="" style="shape=image;verticalLabelPosition=bottom;labelBackgroundColor=none;verticalAlign=top;aspect=fixed;imageAspect=0;editableCssRules=.*;image=data:image/svg+xml,PHN2ZyB4bWxucz0iaHR0cDovL3d3dy53My5vcmcvMjAwMC9zdmciIHZpZXdCb3g9IjAgMCA2Mi4zNjIyIDYyLjM2MjIiIHZlcnNpb249IjEuMSI+JiN4YTsgICYjeGE7ICA8ZGVmcz4mI3hhOyAgICA8c3R5bGU+JiN4YTsgICAgICAuc3QwIHsmI3hhOyAgICAgICAgZmlsbDogI2ZmZjsmI3hhOyAgICAgIH0mI3hhOyYjeGE7ICAgICAgLnN0MSB7JiN4YTsgICAgICAgIGZpbGw6ICNkYTI5MWM7JiN4YTsgICAgICB9JiN4YTsgICAgPC9zdHlsZT4mI3hhOyAgPC9kZWZzPiYjeGE7ICA8ZyBpZD0iRWJlbmVfMyI+JiN4YTsgICAgPHBhdGggZD0iTTMxLjMxNDksNjIuMzYyMkMxMy40ODI4LDYyLjM2MjIsMCw0Ny41OTA1LDAsMzEuMzE0OCwwLDEyLjYzMjksMTUuNTU3MSwwLDMxLjA4MDcsMGMxOC42MDE2LDAsMzEuMjgxNSwxNS4zMzk5LDMxLjI4MTUsMzAuOTQ3MiwwLDE5LjA0OTUtMTUuNjU3NSwzMS40MTUtMzEuMDQ3MywzMS40MTVoMFoiIGNsYXNzPSJzdDEiLz4mI3hhOyAgPC9nPiYjeGE7ICA8ZyBpZD0iRWJlbmVfMiI+JiN4YTsgICAgPHBhdGggZD0iTTQ1Ljc1NTgsMTkuMzEyYzAtNC44NDk2LTExLjE1NjItNS4yMjY2LTE0LjU3NTItNS4yMjY2cy0xNC41NzQyLjM3Ny0xNC41NzQyLDUuMjI2NmMwLC4xODA1LjAyMDEuMzUyOC4wNS41MjExbDMuNTgyOCwyMy4yMTI4cy4wNDY5LjMxMTUuMTA4NC40ODU0Yy4wNDU5LjEzMzguMDk1Ny4yMzQ0LjEzMTguMzAxOCwxLjM4NDgsMi43MzA1LDcuOTM5NSwzLjAyNjQsMTAuNzAxMiwzLjAyNjRzOS4zMTc0LS4yOTU5LDEwLjcwMjEtMy4wMjY0Yy4wMzYxLS4wNjc0LjE2NjktLjM5Mi4yNDQtLjgxNTguMDc0Ni0uNDA5MiwzLjM1ODktMjEuNzQ0MSwzLjU4NDEtMjMuMjA2OS4wMjczLS4xNjExLjA0NDktLjMyNjEuMDQ0OS0uNDk4M1pNMzEuMTgwNiwxNi4wODU1YzcuODcxMSwwLDEyLjU3NTIsMS42NDA2LDEyLjU3NTIsMy4yMjY2LDAsLjUzLS41MzY3LDEuMDY0Ni0xLjUzMDUsMS41NDM1LTEuNzE1My0xLjAyMTUtNS42Njc3LTIuMDIwNS0xMS4wNDA4LTIuMDIwNS01LjUyMDMsMC05LjIxNywxLjA4MzctMTAuODk4MywyLjA5MDItMS4wOS0uNDk2My0xLjY3OTgtMS4wNTc0LTEuNjc5OC0xLjYxMzIsMC0xLjU4NTksNC43MDMxLTMuMjI2NiwxMi41NzQyLTMuMjI2NlpNNDAuNTk4LDIxLjQ2NDFjLTIuMTYzNy42Mzc2LTUuMzY3MSwxLjA3MzUtOS40MTc0LDEuMDczNS0zLjk1NDQsMC03LjEwNzUtLjQxNDMtOS4yNjgxLTEuMDI3MywxLjcwNDEtLjY5MDIsNC43NjY4LTEuNDI1Miw5LjI3Mi0xLjQyNTIsNC40MTk5LDAsNy42NDY3LjY5NzQsOS40MTM1LDEuMzc5MVpNNDAuMTczNCw0Mi43MzUzYy0uMDI0Ny4wOTkzLS4wMzQ4LjExMTQtLjA3MTkuMTg3Ni0uMzc5OS43NzgzLTMuMDcwMywxLjkzNjUtOC45MjA5LDEuOTM2NXMtOC44MTY2LTEuMzI1MS04Ljk0MzQtMS45ODA1YzAsMC0uMDExMi0uMDc1LS4wMjIyLS4xNDM2LS4wMDg1LS4wNTI5LTIuMTMzMy0xMy44MTk5LTMuMTEyNC0yMC4xNjM1LDMuNDkzMywxLjc3ODQsOS42ODI0LDEuOTY1OCwxMi4wNzc5LDEuOTY1OCwyLjM5NjcsMCw4LjU5MTYtLjE4NzYsMTIuMDg0Mi0xLjk2ODZsLTMuMDkxNCwyMC4xNjYzWiIgY2xhc3M9InN0MCIvPiYjeGE7ICA8L2c+JiN4YTs8L3N2Zz4=;rounded=0;" parent="1" vertex="1">
          <mxGeometry x="290.75" y="40" width="62" height="62" as="geometry" />
        </mxCell>
        <mxCell id="92DLrKIu1NGl1QOKlz4K-6" value="" style="shape=image;verticalLabelPosition=bottom;labelBackgroundColor=none;verticalAlign=top;aspect=fixed;imageAspect=0;editableCssRules=.*;image=data:image/svg+xml,PHN2ZyB4bWxucz0iaHR0cDovL3d3dy53My5vcmcvMjAwMC9zdmciIHZpZXdCb3g9IjAgMCA2Mi4zNjIyIDYyLjM2MjIiIHZlcnNpb249IjEuMSI+JiN4YTsgICYjeGE7ICA8ZGVmcz4mI3hhOyAgICA8c3R5bGU+JiN4YTsgICAgICAuc3QwIHsmI3hhOyAgICAgICAgZmlsbDogI2ZmZjsmI3hhOyAgICAgIH0mI3hhOyYjeGE7ICAgICAgLnN0MSB7JiN4YTsgICAgICAgIGZpbGw6ICNkYTI5MWM7JiN4YTsgICAgICB9JiN4YTsgICAgPC9zdHlsZT4mI3hhOyAgPC9kZWZzPiYjeGE7ICA8ZyBpZD0iRWJlbmVfMyI+JiN4YTsgICAgPHBhdGggZD0iTTMxLjM3NzUsNjIuMzYwOUMxMy41NDU0LDYyLjM2MDkuMDYyNiw0Ny41ODkyLjA2MjYsMzEuMzEzNS4wNjI2LDEyLjYzMTYsMTUuNjE5Ny0uMDAxMywzMS4xNDMzLS4wMDEzLDQ5Ljc0NDktLjAwMTMsNjIuNDI0OCwxNS4zMzg2LDYyLjQyNDgsMzAuOTQ1OWMwLDE5LjA0OTUtMTUuNjU3NSwzMS40MTUtMzEuMDQ3MywzMS40MTVoMFoiIGNsYXNzPSJzdDEiLz4mI3hhOyAgPC9nPiYjeGE7ICA8ZyBpZD0iRWJlbmVfMiI+JiN4YTsgICAgPHBhdGggZD0iTTQ0Ljk1NzEsMTkuNzM4MmwtMTEuOTMwNy00LjY3NzJjLTEuMTQ4NC0uNDU2MS0yLjQxOC0uNDU1Ni0zLjU2ODQtLjAwMTVsLTExLjkzMjYsNC42Nzg3Yy0uMDA5OC4wMDM5LS4wMTk1LjAwNzgtLjAyOTMuMDEyMi0xLjI1LjUzNjYtMi4wMzcxLDEuNzYxNy0yLjAwNDksMy4wOTgxdjE1LjIyNjFjLS4wMzAzLDEuMzYzMy43NTg4LDIuNTg3OSwyLjAzOTEsMy4xMzE4bDExLjkzMjYsNC42ODA3Yy41NzUyLjIyNTYsMS4xNzg3LjMzODksMS43ODMyLjMzODlzMS4yMDgtLjExMzMsMS43ODMyLS4zMzg5bDExLjk2MDktNC42OTI0YzEuMjUxLS41MzYxLDIuMDM4MS0xLjc2MDcsMi4wMDU5LTMuMDk3N3YtMTUuMjI1NmMuMDMwMy0xLjM2MjMtLjc1ODgtMi41ODc5LTIuMDM5MS0zLjEzMzNaTTMwLjE5MTQsMTYuOTIwM2MuNjc2OC0uMjY4MSwxLjQyMjktLjI2NzYsMi4xMDE2LjAwMTVsMTEuMzc0NSw0LjQ1OS0xMi40MjQyLDQuODEzNS0xMi40MjYtNC44MTQxLDExLjM3NDItNC40NTk4Wk0xOC4yODcxLDM5LjM1NTljLS40OTYxLS4yMTA5LS44MDg2LS42OTYzLS43OTU5LTEuMjU4OHYtMTQuNjcyNGwxMi41NTkyLDQuODY1N3YxNS42NzkzbC0xMS43NjMzLTQuNjEzOFpNNDQuMjMxNSwzOS4zNDUxbC0xMS43OTU1LDQuNjI2OXYtMTUuNjgxNmwxMi41NjAyLTQuODY2MXYxNC42OTYyYy4wMTI3LjUzOTEtLjI5ODgsMS4wMjQ0LS43NjQ2LDEuMjI0NloiIGNsYXNzPSJzdDAiLz4mI3hhOyAgPC9nPiYjeGE7PC9zdmc+;rounded=0;" parent="1" vertex="1">
          <mxGeometry x="370.75" y="40" width="62" height="62" as="geometry" />
        </mxCell>
        <mxCell id="92DLrKIu1NGl1QOKlz4K-7" value="" style="shape=image;verticalLabelPosition=bottom;labelBackgroundColor=none;verticalAlign=top;aspect=fixed;imageAspect=0;editableCssRules=.*;image=data:image/svg+xml,PHN2ZyB4bWxucz0iaHR0cDovL3d3dy53My5vcmcvMjAwMC9zdmciIHZpZXdCb3g9IjAgMCA2Mi4zNjIyIDYyLjM2MjIiIHZlcnNpb249IjEuMSIgaWQ9IkViZW5lXzIiPiYjeGE7ICAmI3hhOyAgPGRlZnM+JiN4YTsgICAgPHN0eWxlPiYjeGE7ICAgICAgLnN0MCB7JiN4YTsgICAgICAgIGZpbGw6ICNmZmY7JiN4YTsgICAgICB9JiN4YTsmI3hhOyAgICAgIC5zdDEgeyYjeGE7ICAgICAgICBmaWxsOiAjZGEyOTFjOyYjeGE7ICAgICAgfSYjeGE7ICAgIDwvc3R5bGU+JiN4YTsgIDwvZGVmcz4mI3hhOyAgPHBhdGggZD0iTTMxLjMxNDksNjIuMzYyMkMxMy40ODI4LDYyLjM2MjIsMCw0Ny41OTA1LDAsMzEuMzE0OCwwLDEyLjYzMjksMTUuNTU3MSwwLDMxLjA4MDcsMGMxOC42MDE2LDAsMzEuMjgxNSwxNS4zMzk5LDMxLjI4MTUsMzAuOTQ3MiwwLDE5LjA0OTUtMTUuNjU3NSwzMS40MTUtMzEuMDQ3MywzMS40MTVoMFoiIGNsYXNzPSJzdDEiLz4mI3hhOyAgPHBhdGggZD0iTTE5LjEzMzMsNDEuMTQ3NWMtLjM1OTQsMC0zLjQyNTMtLjA2MzUtNS41MDU5LTIuMTEyMy0xLjI0MTctMS4yMjM2LTEuODcxNi0yLjg3NC0xLjg3MTYtNC45MDUzLDAtLjI1OTguMDE0Mi0uNTE5NS4wNDM1LS43NzgzLjAyODMtLjI1NjguMDcxMy0uNTEyNy4xMjg0LS43NjY2LjA1NzYtLjI1NDkuMTI4OS0uNTA0OS4yMTM0LS43NS4wODUtLjI0NjEuMTgzNi0uNDg2My4yOTU0LS43MjEyLjExMTMtLjIzNDkuMjM1OC0uNDYyOS4zNzMtLjY4NDYuMTM2Mi0uMjE5Ny4yODU2LS40MzM2LjQ0NzMtLjYzODcuMTU5Ny0uMjAzMS4zMzExLS4zOTg0LjUxMzctLjU4NC4xODEyLS4xODQ2LjM3My0uMzU4OS41NzUyLS41MjM0LjIwMTctLjE2NDEuNDExNi0uMzE2NC42MzA0LS40NTcuMjE3My0uMTQwNi40NDM4LS4yNjg2LjY3NjgtLjM4NDMuMjMzNC0uMTE1Ny40NzIyLS4yMTgzLjcxNjMtLjMwNzEuMjQzMi0uMDg4NC40OTEyLS4xNjM2Ljc0NDEtLjIyNTEuMjUyLS4wNjE1LjUwNzMtLjEwODQuNzY1Ni0uMTQxMS4yNTczLS4wMzMyLjUxNzEtLjA1MTguNzc3My0uMDU1Ny4xNDk0LS4wMDEuMzAxMy4wMDA1LjQ1MTcuMDA3My4wNDU5LS4zMTQuMTA0NS0uNjI2LjE3NDMtLjkzNDEuMTQ3LS42NTA0LjM1MTEtMS4yOTY5LjYwNi0xLjkyMDkuMjU0NC0uNjIyMS41NjItMS4yMjY2LjkxNDYtMS43OTY0LjM1MDYtLjU2ODguNzUyOS0xLjExNDMsMS4xOTU4LTEuNjIwNi40NDA5LS41MDQ0LjkyNzItLjk3NTYsMS40NDU4LTEuNDAxOS41MjA1LS40MjY4LDEuMDc4MS0uODEyLDEuNjU3Ny0xLjE0NS41ODItLjMzNSwxLjE5NTMtLjYyMywxLjgyMjgtLjg1Ni42Mjg5LS4yMzQ0LDEuMjgxMi0uNDE3NSwxLjkzNzUtLjU0NDQuNjU4Ny0uMTI3LDEuMzMxNS0uMjAwNywyLjAwMDUtLjIxNzguNjY1NS0uMDIxLDEuMzQ1Mi4wMjEsMi4wMDkzLjExNDcuNjYyMS4wOTI4LDEuMzIzMi4yNDIyLDEuOTYzOS40NDQzLjYzODcuMjAxMiwxLjI2NjYuNDU3LDEuODYzMy43NjEyLjU5NDcuMzAxOCwxLjE3MTkuNjU3NywxLjcxMzksMS4wNTc2LjUzODEuMzk3OSwxLjA0NzkuODQzOCwxLjUxNTYsMS4zMjUyLjQ2NDguNDc5NS44OTQ1LDEuMDAyOSwxLjI3ODMsMS41NTY2LjI1ODguMzc1NS40OTguNzY4MS43MTU4LDEuMTcyNC4wODMuMDAyOS4xNjYuMDA2OC4yNDkuMDEyMi4zMDM3LjAxOS42MDI1LjA1MjcuOTAxNC4xMDIxLjI5NjkuMDQ4OC41OTE4LjExMzMuODgyOC4xOTE5LjI5My4wNzk2LjU4MTEuMTcyOS44NjMzLjI4MTIuMjc5My4xMDY0LjU1NTcuMjI4LjgyNTIuMzYzOC4yNzA1LjEzNjIuNTMzMi4yODQ3Ljc4NzEuNDQ2OC4yNTU5LjE2MjEuNTAyLjMzNjQuNzM5My41MjM5LjIzNjMuMTg2LjQ2MzkuMzg0My42ODE2LjU5NDJzLjQyMzguNDI5Mi42MTkxLjY2MDJjLjE5NTMuMjMxOS4zNzc5LjQ3MTIuNTQ4OC43MTg4LjE3MjkuMjUxLjMzMTEuNTA3OC40NzY2Ljc3MzQuMTQzNi4yNjMyLjI3NTQuNTM0Mi4zOTM2LjgxMi4xMTgyLjI3OTMuMjIxNy41NjI1LjMxMDUuODQ5Ni4wODk4LjI5Mi4xNjUuNTgzNS4yMjQ2Ljg3ODkuMDYwNS4yOTY0LjEwNjQuNTk2Mi4xMzU3Ljg5NzkuMDI5My4yOTk4LjA0NDkuNjAwNi4wNDQ5LjkwMTksMCw2LjIzMzQtNC41NTI3LDkuMDIzNC05LjA2NTQsOS4wMjM0aC0yMi40MDc3Wk0xOC43NzEsMjkuMTExOGMtLjAyNzMsMC0uMDU0Ny4wMDA1LS4wODIuMDAxLS4xODc1LjAwMjktLjM3MjEuMDE1Ni0uNTU1Ny4wMzkxLS4xODQ2LjAyMzktLjM2NjcuMDU3MS0uNTQ2OS4xMDExLS4xODEyLjA0MzktLjM1ODkuMDk3Ny0uNTMzMi4xNjExLS4xNzUzLjA2NC0uMzQ1Ny4xMzcyLS41MTE3LjIxOTItLjE2NTUuMDgyLS4zMjY3LjE3MzgtLjQ4MjQuMjczOS0uMTU3Mi4xMDExLS4zMDc2LjIxMDQtLjQ1MTcuMzI3Ni0uMTQzNi4xMTY3LS4yODA4LjI0MTItLjQxMDYuMzc0LS4xMzEzLjEzMzMtLjI1MzkuMjcyNS0uMzY4Mi40MTg1LS4xMTYyLjE0Ny0uMjIxNy4yOTgzLS4zMTg4LjQ1NTYtLjA5OTEuMTU5Mi0uMTg3NS4zMjE4LS4yNjcxLjQ4OTMtLjA4MDEuMTY4NS0uMTUwNC4zNDAzLS4yMTA5LjUxNjEtLjA2MS4xNzU4LS4xMTE4LjM1NTUtLjE1MzMuNTM3MS0uMDQuMTc4Ny0uMDcxMy4zNjIzLS4wOTEzLjU0NjktLjAyMS4xODY1LS4wMzEyLjM3MjEtLjAzMTIuNTU3NiwwLDEuNDcwNy40MjU4LDIuNjM4NywxLjI2NjEsMy40NzE3LDEuNTY0OSwxLjU1MDgsNC4xNDAxLDEuNTQ4OCw0LjEzMDQsMS41NDU5aDIyLjM4ODdjMS4xNzk3LDAsNy4wNjU0LS4zMzg5LDcuMDY1NC03LjAyMzQsMC0uMjM1OC0uMDExNy0uNDcxMi0uMDM1Mi0uNzA1Ni0uMDIzNC0uMjMzNC0uMDU3Ni0uNDY0OC0uMTA0NS0uNjk0My0uMDQ3OS0uMjMyNC0uMTA1NS0uNDYwNC0uMTc1OC0uNjg2LS4wNjkzLS4yMjE3LS4xNDk0LS40NDM0LS4yNDEyLS42NjA2LS4wOTE4LS4yMTQ4LS4xOTQzLS40MjcyLS4zMDc2LS42MzM4LS4xMTMzLS4yMDctLjIzNjMtLjQwNjItLjM2OTEtLjU5OTYtLjEzMjgtLjE5MzgtLjI3NjQtLjM4MTMtLjQyODctLjU2MTUtLjE1MDQtLjE3NzItLjMxMTUtLjM0ODYtLjQ4MDUtLjUxMTdzLS4zNDU3LS4zMTc0LS41MzAzLS40NjI5Yy0uMTg1NS0uMTQ2LS4zNzctLjI4MTItLjU3NDItLjQwNzItLjE5OTItLjEyNi0uNDAzMy0uMjQyMi0uNjEzMy0uMzQ3Ny0uMjA5LS4xMDUtLjQyMjktLjE5OTItLjY0MjYtLjI4MjctLjIyMDctLjA4NTQtLjQ0NDMtLjE1NzItLjY2OTktLjIxODgtLjIyNTYtLjA2MDUtLjQ1NDEtLjExMDQtLjY4NTUtLjE0ODQtLjIzMzQtLjAzODYtLjQ2NTgtLjA2NDktLjcwMTItLjA3OTYtLjIzMTQtLjAxNTEtLjQ2NDgtLjAxODEtLjcwMjEtLjAwODMtLjQwNjIuMDE2MS0uNzcxNS0uMjEwOS0uOTQyNC0uNTczNy0uMjQwMi0uNTA5OC0uNTIzNC0xLjAwMTUtLjg0MDgtMS40NjE0LS4zMjAzLS40NjI0LS42ODA3LS45MDA5LTEuMDY4NC0xLjMwMTgtLjM5MDYtLjQwMjMtLjgxNzQtLjc3NTktMS4yNjc2LTEuMTA4NC0uNDUzMS0uMzM0LS45MzU1LS42MzEzLTEuNDMyNi0uODgzOC0uNDk5LS4yNTQ0LTEuMDIzNC0uNDY4My0xLjU1NzYtLjYzNjItLjUzNjEtLjE2ODktMS4wODc5LS4yOTM5LTEuNjQwNi0uMzcxNi0uNTU1Ny0uMDc3Ni0xLjEyMjEtLjExMDQtMS42ODA3LS4wOTYyLS41NTg2LjAxNDYtMS4xMjE2LjA3NjItMS42NzI5LjE4MjYtLjU0NzkuMTA1NS0xLjA5MjMuMjU4OC0xLjYxOTEuNDU1MS0uNTI0NC4xOTQ4LTEuMDM2Ni40MzU1LTEuNTIzNC43MTUzLS40ODQ0LjI3ODMtLjk1MDIuNjAwNi0xLjM4NTMuOTU3LS40MzM2LjM1Ni0uODQwMy43NTA1LTEuMjA5LDEuMTcyNC0uMzcwNi40MjMzLS43MDY1Ljg3OTQtMSwxLjM1NDUtLjI5NDkuNDc3NS0uNTUyMi45ODI5LS43NjUxLDEuNTAyOS0uMjEyOS41MjE1LS4zODMzLDEuMDYyNS0uNTA2OCwxLjYwNjQtLjEyNC41NDc0LS4yMDM2LDEuMTA4OS0uMjM2MywxLjY2OTktLjAxNzEuMjkwNS0uMTYwMi41NTkxLS4zOTE2LjczNTgtLjIzMS4xNzc3LS41Mjc4LjI0NTYtLjgxMy4xODQxLS4xODE2LS4wMzgxLS4zNjUyLS4wNjU5LS41NTAzLS4wODQtLjE1NTMtLjAxNDYtLjMxMjUtLjAyMjUtLjQ3MDItLjAyMjVaIiBjbGFzcz0ic3QwIi8+JiN4YTs8L3N2Zz4=;rounded=0;" parent="1" vertex="1">
          <mxGeometry x="51" y="520" width="62" height="62" as="geometry" />
        </mxCell>
        <mxCell id="92DLrKIu1NGl1QOKlz4K-8" value="" style="shape=image;verticalLabelPosition=bottom;labelBackgroundColor=none;verticalAlign=top;aspect=fixed;imageAspect=0;editableCssRules=.*;image=data:image/svg+xml,PHN2ZyB4bWxucz0iaHR0cDovL3d3dy53My5vcmcvMjAwMC9zdmciIHZpZXdCb3g9IjAgMCA2Mi4zNjIyIDYyLjM2MjIiIHZlcnNpb249IjEuMSIgaWQ9IkViZW5lXzQiPiYjeGE7ICAmI3hhOyAgPGRlZnM+JiN4YTsgICAgPHN0eWxlPiYjeGE7ICAgICAgLnN0MCB7JiN4YTsgICAgICAgIGZpbGw6ICNmZmY7JiN4YTsgICAgICB9JiN4YTsmI3hhOyAgICAgIC5zdDEgeyYjeGE7ICAgICAgICBmaWxsOiAjZGEyOTFjOyYjeGE7ICAgICAgfSYjeGE7ICAgIDwvc3R5bGU+JiN4YTsgIDwvZGVmcz4mI3hhOyAgPHBhdGggZD0iTTMxLjMxNDksNjIuMzYyMkMxMy40ODI4LDYyLjM2MjIsMCw0Ny41OTA1LDAsMzEuMzE0OCwwLDEyLjYzMjksMTUuNTU3MSwwLDMxLjA4MDcsMGMxOC42MDE2LDAsMzEuMjgxNSwxNS4zMzk5LDMxLjI4MTUsMzAuOTQ3MiwwLDE5LjA0OTUtMTUuNjU3NSwzMS40MTUtMzEuMDQ3MywzMS40MTVoMFoiIGNsYXNzPSJzdDEiLz4mI3hhOyAgPHBhdGggZD0iTTQ2Ljg2NzIsNDIuOTIwNWgtMjMuNTMyNmMtLjU1MjMsMC0xLS40NDczLTEtMSwwLTUuMTY2MiwzLjE4NTctOS44MDUsNy44MzE4LTExLjc2Ni0xLjcwOS0xLjQzMTItMi43MzY0LTMuNTYyMS0yLjczNjQtNS44NzU3LDAtMi4wNjk5LjgxMi00LjAwOTksMi4yODYyLTUuNDYzMSwxLjQ3MzctMS40NTMyLDMuNDItMi4yNDgxLDUuNDk3OC0yLjIwNzEsNC4wOTA1LjA1OTYsNy40ODAyLDMuNDM1Nyw3LjU1NjQsNy41MjYxLjA0MywyLjM3NDYtLjk4NTQsNC41NjA3LTIuNzMzNSw2LjAyMDcsNC42NDU3LDEuOTYyLDcuODMwNCw2LjU5OTgsNy44MzA0LDExLjc2NTEsMCwuNTUyOC0uNDQ3MywxLTEsMVpNMjQuNzEzNCw0MC45MjA1aDIwLjc3NTZjLjE3NTYsMCwuMzE2OC0uMTU2LjI5NDgtLjMzMDItLjU2MzEtNC40Mzk4LTMuODk5NS04LjE4ODYtOC4zNDU1LTkuMTczMS0uNDI2OC0uMDk0Ny0uNzQyMi0uNDU0MS0uNzgwMy0uODg5Mi0uMDM4MS0uNDM0My4yMDk2LS44NDMyLjYxMjQtMS4wMTA5LjcyNTgtLjMwMjIsMS4zOTk1LS43MzYsMS45MTc0LTEuMzI3NSwzLjcxMjYtNC4yNDA4LjI4NzQtOS41MTg5LTQuMDAzLTkuNTgxLTEuNTQzNS0uMDIwNS0yLjk3NTIuNTU2Ny00LjA2NDYsMS42MzE0LTEuODM2NiwxLjgxMDMtMi4yODI0LDQuNjQyNS0uODA5NCw3LjIzNDguNTY3NC45OTg1LDEuNTgyNiwxLjU4OTcsMi42MzU0LDIuMDQ4Ni4zOTM1LjE3MTUuNjM0NS41NzU3LjU5NjksMS4wMDQ1LS4wMzgxLjQzNTEtLjM1NC43OTQ1LS43Nzk4Ljg4OTItNC40NDYuOTg0NS03Ljc4Miw0LjczMzMtOC4zNDQ2LDkuMTczMS0uMDIyMS4xNzQyLjExOTIuMzMwMi4yOTQ4LjMzMDJaIiBjbGFzcz0ic3QwIi8+JiN4YTsgIDxnPiYjeGE7ICAgIDxwYXRoIGQ9Ik0yMS44MDg3LDM0LjU0NTJoLTQuMzg4M2MtMS42MTI5LDAtMi45MjU0LTEuMzEyNS0yLjkyNTQtMi45MjU5di03LjQzNDhjMC0xLjYxMzMsMS4zMTI1LTIuOTI1OSwyLjkyNTQtMi45MjU5aDcuMjUyN2MuMzQ1MiwwLC42MjUuMjc5OC42MjUuNjI1cy0uMjc5OC42MjUtLjYyNS42MjVoLTcuMjUyN2MtLjkyMzksMC0xLjY3NTQuNzUyLTEuNjc1NCwxLjY3NTh2Ny40MzQ4YzAsLjkyMzkuNzUxNSwxLjY3NTgsMS42NzU0LDEuNjc1OGg0LjM4ODNjLjM0NTIsMCwuNjI1LjI4MDMuNjI1LjYyNXMtLjI3OTguNjI1LS42MjUuNjI1WiIgY2xhc3M9InN0MCIvPiYjeGE7ICAgIDxwYXRoIGQ9Ik0yMC41NDk5LDM3Ljk3OTloLTEuNjI5Yy0uMzQ1MiwwLS42MjUtLjI4MDMtLjYyNS0uNjI1cy4yNzk4LS42MjUuNjI1LS42MjVoMS42MjljLjM0NTIsMCwuNjI1LjI4MDMuNjI1LjYyNXMtLjI3OTguNjI1LS42MjUuNjI1WiIgY2xhc3M9InN0MCIvPiYjeGE7ICA8L2c+JiN4YTs8L3N2Zz4=;rounded=0;" parent="1" vertex="1">
          <mxGeometry x="130.75" y="400" width="62" height="62" as="geometry" />
        </mxCell>
        <mxCell id="92DLrKIu1NGl1QOKlz4K-9" value="" style="shape=image;verticalLabelPosition=bottom;labelBackgroundColor=none;verticalAlign=top;aspect=fixed;imageAspect=0;editableCssRules=.*;image=data:image/svg+xml,PHN2ZyB4bWxucz0iaHR0cDovL3d3dy53My5vcmcvMjAwMC9zdmciIHZpZXdCb3g9IjAgMCA2Mi4zNjIyIDYyLjM2MjIiIHZlcnNpb249IjEuMSIgaWQ9IkViZW5lXzIiPiYjeGE7ICAmI3hhOyAgPGRlZnM+JiN4YTsgICAgPHN0eWxlPiYjeGE7ICAgICAgLnN0MCB7JiN4YTsgICAgICAgIGZpbGw6ICNmZmY7JiN4YTsgICAgICB9JiN4YTsmI3hhOyAgICAgIC5zdDEgeyYjeGE7ICAgICAgICBmaWxsOiAjZGEyOTFjOyYjeGE7ICAgICAgfSYjeGE7ICAgIDwvc3R5bGU+JiN4YTsgIDwvZGVmcz4mI3hhOyAgPHBhdGggZD0iTTMxLjMxNDksNjIuMzYyMkMxMy40ODI4LDYyLjM2MjIsMCw0Ny41OTA1LDAsMzEuMzE0OCwwLDEyLjYzMjksMTUuNTU3MSwwLDMxLjA4MDcsMGMxOC42MDE2LDAsMzEuMjgxNSwxNS4zMzk5LDMxLjI4MTUsMzAuOTQ3MiwwLDE5LjA0OTUtMTUuNjU3NSwzMS40MTUtMzEuMDQ3MywzMS40MTVoMFoiIGNsYXNzPSJzdDEiLz4mI3hhOyAgPGc+JiN4YTsgICAgPHBhdGggZD0iTTM5LjY1NCw0Mi45MjAxaC0yMy41MzE3Yy0uNTUyMiwwLTEtLjQ0NzMtMS0xLDAtNS4xNjYsMy4xODU1LTkuODA0Nyw3LjgzMTUtMTEuNzY1Ni0xLjcwOS0xLjQzMTItMi43MzYzLTMuNTYyLTIuNzM2My01Ljg3NTUsMC0yLjA2OTguODEyLTQuMDA5OCwyLjI4NjEtNS40NjI5LDEuNDczNi0xLjQ1MzEsMy40MTgtMi4yNDgsNS40OTc2LTIuMjA3LDQuMDkwMy4wNTk2LDcuNDgsMy40MzU1LDcuNTU2Miw3LjUyNTkuMDQzLDIuMzc0NS0uOTg1NCw0LjU2MDUtMi43MzM0LDYuMDIwNSw0LjY0NTUsMS45NjE5LDcuODMwMSw2LjU5OTYsNy44MzAxLDExLjc2NDYsMCwuNTUyNy0uNDQ3MywxLTEsMVpNMTcuNDg2NCw0MC45MjAxaDIwLjgwMzljLjE2NzgsMCwuMzAyOS0uMTQ5Mi4yODItLjMxNTctLjU1NzYtNC40NDYtMy44OTY0LTguMjAxNi04LjM0Ny05LjE4NzItLjQyNjgtLjA5NDctLjc0MjItLjQ1NDYtLjc4MDMtLjg4OTItLjAzODEtLjQzNDMuMjA5Ni0uODQzMS42MTI0LTEuMDEwOC43MjU4LS4zMDIxLDEuMzk5NS0uNzM2LDEuOTE3My0xLjMyNzUsMy43MTI1LTQuMjQwNy4yODc0LTkuNTE4Ni00LjAwMjktOS41ODA2LTEuNTIyNS0uMDIwNS0yLjk3NDYuNTU2Ni00LjA2NDUsMS42MzEzLTEuODM2NSwxLjgxMDItMi4yODIzLDQuNjQyMy0uODA5Myw3LjIzNDYuNTY3NC45OTg1LDEuNTgyNSwxLjU4OTYsMi42MzUzLDIuMDQ4Ni4zOTM1LjE3MTUuNjM0NS41NzU2LjU5NjksMS4wMDQ1LS4wMzgxLjQzNDYtLjM1NC43OTQ0LS43Nzk4Ljg4OTItNC40NTA3Ljk4NTUtNy43ODksNC43NDEyLTguMzQ2MSw5LjE4NzItLjAyMDkuMTY2NS4xMTQyLjMxNTcuMjgyLjMxNTdaIiBjbGFzcz0ic3QwIi8+JiN4YTsgICAgPHBhdGggZD0iTTQ2LjYxNDksMzcuOTYzaC0yLjcxODhjLS4zNDQ3LDAtLjYyNS0uMjgwMy0uNjI1LS42MjVzLjI4MDMtLjYyNS42MjUtLjYyNWgxLjc0MTRjLjE3MDcsMCwuMzA5My0uMTUyOC4yODUzLS4zMjE4LS4zOTUxLTIuNzgxOC0yLjUwMS01LjExODUtNS4yOTYyLTUuNzM3OC0uMjY2Ni0uMDU5MS0uNDYzOS0uMjg0Mi0uNDg4My0uNTU1Ny0uMDIzNC0uMjcxNS4xMzE4LS41MjczLjM4MzgtLjYzMTgsMS4zNTQ1LS41NjI1LDIuMjMwNS0xLjg3MywyLjIzMDUtMy4zMzg5LDAtMS45OTI3LTEuNjIxMS0zLjYxMzgtMy42MTQzLTMuNjEzOC0uMjA1MSwwLS40MDYyLjAxNzYtLjYwMDYuMDUxOC0uMzM1LjA1OTEtLjY2MzEtLjE2NzUtLjcyMjctLjUwODMtLjA1OTYtLjMzOTguMTY4LS42NjM2LjUwNzgtLjcyMzEuMjY3Ni0uMDQ2OS41NDItLjA3MDMuODE1NC0uMDcwMywyLjY4MjYsMCw0Ljg2NDMsMi4xODE2LDQuODY0Myw0Ljg2MzgsMCwxLjQ3MzEtLjY1NzIsMi44MjkxLTEuNzQ5LDMuNzM3MywyLjk2NDQsMS4yNDMzLDQuOTk2NCw0LjIwNDIsNC45ODYzLDcuNDk4Mi0uMDAxLjMzNTItLjI4OTguNjAwNC0uNjI1LjYwMDRaIiBjbGFzcz0ic3QwIi8+JiN4YTsgIDwvZz4mI3hhOzwvc3ZnPg==;rounded=0;" parent="1" vertex="1">
          <mxGeometry x="213.75" y="400" width="62" height="62" as="geometry" />
        </mxCell>
        <mxCell id="92DLrKIu1NGl1QOKlz4K-10" value="" style="shape=image;verticalLabelPosition=bottom;labelBackgroundColor=none;verticalAlign=top;aspect=fixed;imageAspect=0;editableCssRules=.*;image=data:image/svg+xml,PHN2ZyB4bWxucz0iaHR0cDovL3d3dy53My5vcmcvMjAwMC9zdmciIHZpZXdCb3g9IjAgMCA2Mi4zNjIyIDYyLjM2MjIiIHZlcnNpb249IjEuMSIgaWQ9IkViZW5lXzIiPiYjeGE7ICAmI3hhOyAgPGRlZnM+JiN4YTsgICAgPHN0eWxlPiYjeGE7ICAgICAgLnN0MCB7JiN4YTsgICAgICAgIGZpbGw6ICNmZmY7JiN4YTsgICAgICB9JiN4YTsmI3hhOyAgICAgIC5zdDEgeyYjeGE7ICAgICAgICBmaWxsOiAjZGEyOTFjOyYjeGE7ICAgICAgfSYjeGE7ICAgIDwvc3R5bGU+JiN4YTsgIDwvZGVmcz4mI3hhOyAgPHBhdGggZD0iTTMxLjMxNDksNjIuMzYyMkMxMy40ODI4LDYyLjM2MjIsMCw0Ny41OTA1LDAsMzEuMzE0OCwwLDEyLjYzMjksMTUuNTU3MSwwLDMxLjA4MDcsMGMxOC42MDE2LDAsMzEuMjgxNSwxNS4zMzk5LDMxLjI4MTUsMzAuOTQ3MiwwLDE5LjA0OTUtMTUuNjU3NSwzMS40MTUtMzEuMDQ3MywzMS40MTVoMFoiIGNsYXNzPSJzdDEiLz4mI3hhOyAgPGc+JiN4YTsgICAgPGc+JiN4YTsgICAgICA8cGF0aCBkPSJNNDIuOTAzNCwzNi4wMTk1aC05LjkwMTRjLS41NTI3LDAtMS0uNDQ3My0xLTFzLjQ0NzMtMSwxLTFoOC40NTkxYy4xODE5LDAsLjMyNTktLjE2OC4yOTM4LS4zNDcxLS43MDE4LTMuOTE1My0zLjcwMDktNi43ODAyLTguMjU5Ni03Ljc5MDEtLjQyNjgtLjA5NDctLjc0MjItLjQ1NDYtLjc4MDMtLjg4OTItLjAzNzgtLjQzMDkuMjA1Ny0uODM2OC42MDMtMS4wMDY5LDEuMDM0Ni0uNDQzLDIuMDI1OS0xLjAyMywyLjU5MDctMS45OTY1LDIuNzYxOC00Ljc2MDQtMS4xNDI2LTkuNjY4Ny01LjgwODYtOC44MjAyLTIuMTM2Mi4zODg1LTMuOTEyOSwyLjAzNzEtNC40MzYsNC4xNDQ0LS43MDU3LDIuODQyNi43NjM3LDUuNjA2MywzLjMyMzgsNi42NjguNDAyOC4xNjc1LjY1MDkuNTc2Ny42MTI4LDEuMDExMnMtLjM1MzUuNzk0NC0uNzc5OC44ODkyYy0zLjkzOC44NzIxLTYuNTIxNSwyLjc4NTYtNy42Nzk3LDUuNjg3NS0uMjA0Ni41MTIyLS43ODUyLjc2NTEtMS4yOTkzLjU1ODEtLjUxMzItLjIwNDYtLjc2MjctLjc4NjYtLjU1ODEtMS4yOTkzLDEuMTc2My0yLjk0NzgsMy40ODQ5LTUuMDQ3OSw2Ljg3Ny02LjI2MjctMi4wNC0xLjc0NjEtMy4wODI3LTQuNDk5Ny0yLjUyMzYtNy4zNTQzLjU5NDMtMy4wMzQ0LDMuMDY1NS01LjQ2NTUsNi4xMDg5LTYuMDExNiw0Ljg0NzItLjg2OTcsOS4wODIxLDIuODUxNyw5LjA4MjEsNy41NDM2LDAsMi4yOTU5LTEuMDExNyw0LjQxMjEtMi42OTczLDUuODQyOCw0LjY2MzEsMS43Nzk4LDcuNTgxMSw1LjYwNjksNy43NzE1LDEwLjM5MzEuMDEwNy4yNzI1LS4wODk4LjUzNzEtLjI3ODMuNzMzNC0uMTg4NS4xOTUzLS40NDgyLjMwNjYtLjcyMDcuMzA2NloiIGNsYXNzPSJzdDAiLz4mI3hhOyAgICAgIDxwYXRoIGQ9Ik0yMy40OTA4LDQ4Ljc4MjJjLTEuMTE3NywwLTIuMjI1Ni0uMjcxNS0zLjI0NDEtLjgwNzYtMS42NjctLjg3Ny0yLjg4NTctMi4zNTQ1LTMuNDMyMS00LjE1OTItLjU0NzQtMS44MDc2LS4zMDEzLTMuODExNS42NzQ4LTUuNDk3MS45Nzg1LTEuNjkwNCwyLjU5ODEtMi45MDQzLDQuNDQ0OC0zLjMzMTEsMy4zNjkxLS43NzQ0LDYuODExLDEuMDQ3OSw4LjA2NjksNC4yNTQ5aDExLjM5MTZjLjYzNTEsMCwxLjI0NDIuMjUxOSwxLjY5MzcuNzAwNWwuNDc1My40NzQzYy43NjEuNzU5NS43NjE3LDEuOTkyMi4wMDE0LDIuNzUyNWwtLjUyMS41MjFjLS40MTk2LjQxOTYtLjk4ODYuNjU1My0xLjU4Mi42NTUzaC0uMzU4NWwtMS4xMTM0LDEuMTEzNGMtLjA2MDQuMDYwNC0uMTU4Mi4wNjA0LS4yMTg2LDBsLTEuMTEzNC0xLjExMzRoLS4xMjVsLTEuMTIxNSwxLjEyMjRjLS4wNTUzLjA1NTMtLjE0NS4wNTU0LS4yMDAzLDBsLTEuMTIyNS0xLjEyMjVoLS4xMjVsLTEuMTE3LDEuMTE4N2MtLjA1NzMuMDU3NC0uMTUwMy4wNTc1LS4yMDc3LjAwMDJsLTEuMDc5Ny0xLjA3NzktLjA5OTItLjA0MS0zLjQ1OC4wMDFjLS43NzIsMS45Njg4LTIuMzYyOCwzLjQ2LTQuMzg0OCw0LjEwMzUtLjY5ODIuMjIxNy0xLjQxMzYuMzMyLTIuMTI1LjMzMlpNMjMuNDk4NiwzNi4wNTg2Yy0uNDI0OCwwLS44NTQ1LjA0NzktMS4yODMyLjE0NzUtMS41MTAzLjM0ODYtMi44Mzg5LDEuMzQ2Ny0zLjY0NDUsMi43MzgzLS44MDMyLDEuMzg3Ny0xLjAwNzMsMy4wMzEyLS41NjAxLDQuNTA5OC40NDg3LDEuNDgxNCwxLjQ0OTIsMi42OTQzLDIuODE3OSwzLjQxNDEsMS4zNjg3LjcyMDcsMi45MzQxLjg1OTQsNC40MDgyLjM5MDYsMS42OTYzLS41MzkxLDMuMDIyOS0xLjgwNTcsMy42NDAxLTMuNDczNi4xNTE0LS40MTExLjU0NDQtLjY4ODUuOTc3NS0uNjg4NWwzLjYwNjQtLjAwMWMuMzcxMSwwLC43MTk3LjE0NDUuOTgxNC40MDgybC4yOTY5LjI5NjkuNzA1MS0uNzA1MWgxLjE2MDJsLjcwNTEuNzA1MS43MDQxLS43MDUxaDEuMTYwMmwuNzA1MS43MDUxLjcwNTEtLjcwNTFoLjg3NWMuMjYzNywwLC41MTE3LS4xMDI1LjY5ODItLjI5bC41MjA1LS41MjA1Yy4yNzE1LS4yNzA1LjI3MTUtLjcxMTksMC0uOTg0NGwtLjQ3MjctLjQ3MTdjLS4yMTY4LS4yMTc4LS41MDQ5LS4zMzY5LS44MTI1LS4zMzY5aC0xMS41Mzc2Yy0uNDMzMSwwLS44MjY3LS4yNzczLS45Nzg1LS42OTA0LS44NDQyLTIuMjg0Mi0zLjAyNzgtMy43NDMyLTUuMzc3OS0zLjc0MzJaIiBjbGFzcz0ic3QwIi8+JiN4YTsgICAgPC9nPiYjeGE7ICAgIDxwYXRoIGQ9Ik0yMi41NTYyLDQyLjgwODRjLS41NjAzLjU2MDMtMS40Njg4LjU2MDMtMi4wMjksMHMtLjU2MDMtMS40Njg4LDAtMi4wMjkxLDEuNDY4Ny0uNTYwMywyLjAyOSwwYy41NjAzLjU2MDMuNTYwMywxLjQ2ODgsMCwyLjAyOTFaIiBjbGFzcz0ic3QwIi8+JiN4YTsgIDwvZz4mI3hhOzwvc3ZnPg==;rounded=0;" parent="1" vertex="1">
          <mxGeometry x="290.75" y="400" width="62" height="62" as="geometry" />
        </mxCell>
        <mxCell id="92DLrKIu1NGl1QOKlz4K-11" value="" style="shape=image;verticalLabelPosition=bottom;labelBackgroundColor=none;verticalAlign=top;aspect=fixed;imageAspect=0;editableCssRules=.*;image=data:image/svg+xml,PHN2ZyB4bWxucz0iaHR0cDovL3d3dy53My5vcmcvMjAwMC9zdmciIHZpZXdCb3g9IjAgMCA2Mi4zNjIyIDYyLjM2MjIiIHZlcnNpb249IjEuMSIgaWQ9IkViZW5lXzIiPiYjeGE7ICAmI3hhOyAgPGRlZnM+JiN4YTsgICAgPHN0eWxlPiYjeGE7ICAgICAgLnN0MCB7JiN4YTsgICAgICAgIGZpbGw6ICNmZmY7JiN4YTsgICAgICB9JiN4YTsmI3hhOyAgICAgIC5zdDEgeyYjeGE7ICAgICAgICBmaWxsOiAjZGEyOTFjOyYjeGE7ICAgICAgfSYjeGE7ICAgIDwvc3R5bGU+JiN4YTsgIDwvZGVmcz4mI3hhOyAgPHBhdGggZD0iTTMxLjMxNDksNjIuMzYyMkMxMy40ODI4LDYyLjM2MjIsMCw0Ny41OTA1LDAsMzEuMzE0OCwwLDEyLjYzMjksMTUuNTU3MSwwLDMxLjA4MDcsMGMxOC42MDE2LDAsMzEuMjgxNSwxNS4zMzk5LDMxLjI4MTUsMzAuOTQ3MiwwLDE5LjA0OTUtMTUuNjU3NSwzMS40MTUtMzEuMDQ3MywzMS40MTVoMFoiIGNsYXNzPSJzdDEiLz4mI3hhOyAgPHBhdGggZD0iTTMxLjE4MTIsNDkuODc3OWMtMTAuMzA5NiwwLTE4LjY5NzMtOC4zODc3LTE4LjY5NzMtMTguNjk2OFMyMC44NzE2LDEyLjQ4MzksMzEuMTgxMiwxMi40ODM5czE4LjY5NjgsOC4zODc3LDE4LjY5NjgsMTguNjk3My04LjM4NzcsMTguNjk2OC0xOC42OTY4LDE4LjY5NjhaTTMxLjE4MTIsMTQuNDQ0OGMtOS4yMjg1LDAtMTYuNzM2Myw3LjUwNzgtMTYuNzM2MywxNi43MzYzczcuNTA3OCwxNi43MzU4LDE2LjczNjMsMTYuNzM1OCwxNi43MzU4LTcuNTA3OCwxNi43MzU4LTE2LjczNTgtNy41MDc4LTE2LjczNjMtMTYuNzM1OC0xNi43MzYzWiIgY2xhc3M9InN0MCIvPiYjeGE7ICA8Zz4mI3hhOyAgICA8cGF0aCBkPSJNMjAuOTEyMSwyOS4wNDc0bC0xLjQ1NTYuMzMzLS40NTY1LTEuODUwMSwyLjUyODgtLjcxNThoMS43Mzk3djguNjk3M2gtMi4zNTY0di02LjQ2NDRaIiBjbGFzcz0ic3QwIi8+JiN4YTsgICAgPHBhdGggZD0iTTI4LjAzMDMsMzUuNjg0NmMtLjY0MTYsMC0xLjIwNTEtLjA5MjgtMS42ODk5LS4yNzkzLS40ODU0LS4xODY1LS45MjUzLS40MzY1LTEuMzIwMy0uNzUxbDEuMTIyNi0xLjY1OTJjLjI5NjQuMjM4My41OTIzLjQxMzEuODg4Mi41MjQ0LjI5NjQuMTExMy42MTcyLjE2Ni45NjI0LjE2Ni40OTM3LDAsLjg3NC0uMTU5MiwxLjE0MTEtLjQ3NzVzLjQyOTctLjc1NDkuNDg3My0xLjMxMWMtLjIyMjcuMjE0NC0uNDg2OC4zODQzLS43OTE1LjUxMjItLjMwNTIuMTI3OS0uNjUxOS4xOTE0LTEuMDM5MS4xOTE0LS40MjA0LDAtLjgwODEtLjA2MzUtMS4xNjI2LS4xOTE0LS4zNTUtLjEyNzktLjY2MTYtLjMwODYtLjkyMTQtLjU0M3MtLjQ2MTktLjUyLS42MDYtLjg1NzRjLS4xNDQ1LS4zMzY5LS4yMTY4LS43MTUzLS4yMTY4LTEuMTM0OHYtLjAyNDRjMC0uNDc3MS4wODY0LS45MDg3LjI1OTMtMS4yOTU0cy40MTMxLS43MTc4LjcyMTctLjk5MzIuNjcyNC0uNDg3MywxLjA5MTgtLjYzNTMuODc2LS4yMjIyLDEuMzY5MS0uMjIyMmMuNjI1LDAsMS4xNDExLjA4NjQsMS41NDgzLjI1OTMuNDA3Mi4xNzI0Ljc3NDkuNDIzMywxLjEwNC43NTI0LjMxMjUuMzEyNS41NjM1LjcyMzYuNzUyNCwxLjIzMzQuMTg5OS41MTAzLjI4MzcsMS4xNjQxLjI4MzcsMS45NjE0di4wMjQ5YzAsLjcwNzUtLjA4NTksMS4zNTMtLjI1NzMsMS45MzctLjE3MjQuNTg0LS40MjU4LDEuMDgzLS43NjEyLDEuNDk5LS4zMzU0LjQxNS0uNzUxLjczNzMtMS4yNDcxLjk2NzgtLjQ5NjYuMjMwNS0xLjA2OTMuMzQ1Ny0xLjcxODguMzQ1N1pNMjguNDQzNCwzMC44ODU3Yy4zODA0LDAsLjY3NzctLjEwOTQuODkyNi0uMzI4Ni4yMTUzLS4yMTkyLjMyMjgtLjQ4NTguMzIyOC0uODAwM3YtLjAyNDRjMC0uMzM4OS0uMTExOC0uNjIwMS0uMzM1LS44NDM4LS4yMjMxLS4yMjMxLS41MjQ5LS4zMzQ1LS45MDQ4LS4zMzQ1LS4zODA0LDAtLjY3ODIuMTA5NC0uODkzMS4zMjg2cy0uMzIyMy40OTgtLjMyMjMuODM2OXYuMDI0OWMwLC4zMzExLjExMTMuNjAzNS4zMzQ1LjgxODQuMjIzNi4yMTUzLjUyNDkuMzIyOC45MDUzLjMyMjhaIiBjbGFzcz0ic3QwIi8+JiN4YTsgICAgPHBhdGggZD0iTTMyLjgwNDcsMzMuNzEwOWwzLjIzMjQtMi40Njc4Yy40MDIzLS4zMTIuNjg4NS0uNTgzNS44NTY0LS44MTQuMTY4OS0uMjMuMjUyOS0uNDc3MS4yNTI5LS43NDAyLDAtLjI3MTUtLjA4NzktLjQ4NTQtLjI2NDYtLjY0MTYtLjE3NjgtLjE1NTgtLjQwOTItLjIzNDQtLjY5NzMtLjIzNDRzLS41NjE1LjA4ODQtLjgyMDMuMjY1MWMtLjI1ODguMTc3Mi0uNTU3Ni40NTktLjg5NDUuODQ1MmwtMS42MTYyLTEuMzQ0N2MuMjMwNS0uMjk1OS40NjQ4LS41NTkxLjcwMzEtLjc4OTYuMjM5My0uMjMuNDk2MS0uNDIzMy43NzE1LS41Nzk2cy41ODAxLS4yNzU0LjkxMzEtLjM1NzljLjMzMy0uMDgyLjcwOS0uMTIzLDEuMTI4OS0uMTIzLjQ2ODgsMCwuODk4NC4wNjc5LDEuMjg5MS4yMDMxLjM5MDYuMTM1Ny43MjU2LjMyMzIsMS4wMDQ5LjU2MTUuMjc5My4yMzg4LjQ5OC41MjgzLjY1NDMuODY5NnMuMjM0NC43MTM5LjIzNDQsMS4xMTY3di4wMjQ0YzAsLjM0NTctLjA0My42NTM4LS4xMjk5LjkyNTMtLjA4NTkuMjcxNS0uMjE1OC41MjQ0LS4zODg3Ljc1ODhzLS4zODE4LjQ1ODUtLjYyODkuNjcyNC0uNTMwMy40MzY1LS44NTE2LjY2NmwtMS40ODA1LDEuMDM2MWgzLjU2NTR2MS45NDkyaC02LjgzNHYtMS44MDA4WiIgY2xhc3M9InN0MCIvPiYjeGE7ICAgIDxwYXRoIGQ9Ik00MC44NzIxLDMzLjEwNjRoMi40NDI0djIuNDA1M2gtMi40NDI0di0yLjQwNTNaIiBjbGFzcz0ic3QwIi8+JiN4YTsgIDwvZz4mI3hhOzwvc3ZnPg==;rounded=0;" parent="1" vertex="1">
          <mxGeometry x="531.75" y="280" width="62" height="62" as="geometry" />
        </mxCell>
        <mxCell id="92DLrKIu1NGl1QOKlz4K-12" value="" style="shape=image;verticalLabelPosition=bottom;labelBackgroundColor=none;verticalAlign=top;aspect=fixed;imageAspect=0;editableCssRules=.*;image=data:image/svg+xml,PHN2ZyB4bWxucz0iaHR0cDovL3d3dy53My5vcmcvMjAwMC9zdmciIHZpZXdCb3g9IjAgMCA2Mi4zNjIyIDYyLjM2MjIiIHZlcnNpb249IjEuMSIgaWQ9IkViZW5lXzIiPiYjeGE7ICAmI3hhOyAgPGRlZnM+JiN4YTsgICAgPHN0eWxlPiYjeGE7ICAgICAgLnN0MCB7JiN4YTsgICAgICAgIGZpbGw6ICNmZmY7JiN4YTsgICAgICB9JiN4YTsmI3hhOyAgICAgIC5zdDEgeyYjeGE7ICAgICAgICBmaWxsOiAjZGEyOTFjOyYjeGE7ICAgICAgfSYjeGE7ICAgIDwvc3R5bGU+JiN4YTsgIDwvZGVmcz4mI3hhOyAgPHBhdGggZD0iTTMxLjMxNDksNjIuMzYyMkMxMy40ODI4LDYyLjM2MjIsMCw0Ny41OTA1LDAsMzEuMzE0OCwwLDEyLjYzMjksMTUuNTU3MSwwLDMxLjA4MDcsMGMxOC42MDE2LDAsMzEuMjgxNSwxNS4zMzk5LDMxLjI4MTUsMzAuOTQ3MiwwLDE5LjA0OTUtMTUuNjU3NSwzMS40MTUtMzEuMDQ3MywzMS40MTVoMFoiIGNsYXNzPSJzdDEiLz4mI3hhOyAgPHBhdGggZD0iTTQ4LjcxMDQsNDIuNTk2NGwuMDI1Niw0LjY2MDYtNC44MTQ5LTQuODE1NWMyLjYwNzktMy4wMjk3LDQuMTk2MS02Ljk2MDgsNC4xOTYxLTExLjI2MjMsMC00LjMxNDYtMS41OTgzLTguMjU1Ni00LjIyMDEtMTEuMjg4OWw0Ljc4NS00Ljc4NTYtLjAyNTYsNC42NjAxLDEuOTY3OC0xLjk2NzYtLjAyMDktNi4wMzE0LTYuMDI2Mi0uMDE0OS0xLjk2NjksMS45Njc1LDQuNjU5LS4wMjYyLTQuNzY3Myw0Ljc2NzJjLTMuMDgxOC0yLjgzMzMtNy4xNzgtNC41Nzk1LTExLjY4NDMtNC41Nzk1LTkuNTM5MSwwLTE3LjI5OTMsNy43NjAzLTE3LjI5OTMsMTcuMjk5M3M3Ljc2MDMsMTcuMjk5MywxNy4yOTkzLDE3LjI5OTNjNC41MTkzLDAsOC42MjY1LTEuNzU2MywxMS43MTEyLTQuNjA0Mmw0Ljc5NDMsNC43OTQzLTQuNjU5MS0uMDI1MywxLjk2NjgsMS45NjgsNi4wMzE3LS4wMjEzLjAxNTQtNi4wMjU1LTEuOTY3OC0xLjk2ODFaTTE1LjUxODYsMzEuMTc5MmMwLTguNDM2LDYuODYzMy0xNS4yOTkzLDE1LjI5OTMtMTUuMjk5M3MxNS4yOTkzLDYuODYzMywxNS4yOTkzLDE1LjI5OTMtNi44NjMzLDE1LjI5OTMtMTUuMjk5MywxNS4yOTkzLTE1LjI5OTMtNi44NjMzLTE1LjI5OTMtMTUuMjk5M1oiIGNsYXNzPSJzdDAiLz4mI3hhOyAgPGc+JiN4YTsgICAgPHBhdGggZD0iTTIwLjkwNzYsMjkuMDQ0OWwtMS40NTU2LjMzMy0uNDU2NS0xLjg1MDEsMi41Mjg4LS43MTU4aDEuNzM5N3Y4LjY5NzNoLTIuMzU2NHYtNi40NjQ0WiIgY2xhc3M9InN0MCIvPiYjeGE7ICAgIDxwYXRoIGQ9Ik0yOC4wMjU4LDM1LjY4MjFjLS42NDE2LDAtMS4yMDUxLS4wOTI4LTEuNjg5OS0uMjc5My0uNDg1NC0uMTg2NS0uOTI1My0uNDM2NS0xLjMyMDMtLjc1MWwxLjEyMjYtMS42NTkyYy4yOTY0LjIzODMuNTkyMy40MTMxLjg4ODIuNTI0NC4yOTY0LjExMTMuNjE3Mi4xNjYuOTYyNC4xNjYuNDkzNywwLC44NzQtLjE1OTIsMS4xNDExLS40Nzc1cy40Mjk3LS43NTQ5LjQ4NzMtMS4zMTFjLS4yMjI3LjIxNDQtLjQ4NjguMzg0My0uNzkxNS41MTIyLS4zMDUyLjEyNzktLjY1MTkuMTkxNC0xLjAzOTEuMTkxNC0uNDIwNCwwLS44MDgxLS4wNjM1LTEuMTYyNi0uMTkxNC0uMzU1LS4xMjc5LS42NjE2LS4zMDg2LS45MjE0LS41NDNzLS40NjE5LS41Mi0uNjA2LS44NTc0Yy0uMTQ0NS0uMzM2OS0uMjE2OC0uNzE1My0uMjE2OC0xLjEzNDh2LS4wMjQ0YzAtLjQ3NzEuMDg2NC0uOTA4Ny4yNTkzLTEuMjk1NHMuNDEzMS0uNzE3OC43MjE3LS45OTMyLjY3MjQtLjQ4NzMsMS4wOTE4LS42MzUzLjg3Ni0uMjIyMiwxLjM2OTEtLjIyMjJjLjYyNSwwLDEuMTQxMS4wODY0LDEuNTQ4My4yNTkzLjQwNzIuMTcyNC43NzQ5LjQyMzMsMS4xMDQuNzUyNC4zMTI1LjMxMjUuNTYzNS43MjM2Ljc1MjQsMS4yMzM0LjE4OTkuNTEwMy4yODM3LDEuMTY0MS4yODM3LDEuOTYxNHYuMDI0OWMwLC43MDc1LS4wODU5LDEuMzUzLS4yNTczLDEuOTM3LS4xNzI0LjU4NC0uNDI1OCwxLjA4My0uNzYxMiwxLjQ5OS0uMzM1NC40MTUtLjc1MS43MzczLTEuMjQ3MS45Njc4LS40OTY2LjIzMDUtMS4wNjkzLjM0NTctMS43MTg4LjM0NTdaTTI4LjQzODksMzAuODgzM2MuMzgwNCwwLC42Nzc3LS4xMDk0Ljg5MjYtLjMyODYuMjE1My0uMjE5Mi4zMjI4LS40ODU4LjMyMjgtLjgwMDN2LS4wMjQ0YzAtLjMzODktLjExMTgtLjYyMDEtLjMzNS0uODQzOC0uMjIzMS0uMjIzMS0uNTI0OS0uMzM0NS0uOTA0OC0uMzM0NS0uMzgwNCwwLS42NzgyLjEwOTQtLjg5MzEuMzI4NnMtLjMyMjMuNDk4LS4zMjIzLjgzNjl2LjAyNDljMCwuMzMxMS4xMTEzLjYwMzUuMzM0NS44MTg0LjIyMzYuMjE1My41MjQ5LjMyMjguOTA1My4zMjI4WiIgY2xhc3M9InN0MCIvPiYjeGE7ICAgIDxwYXRoIGQ9Ik0zMi44MDAyLDMzLjcwODVsMy4yMzI0LTIuNDY3OGMuNDAyMy0uMzEyLjY4ODUtLjU4MzUuODU2NC0uODE0LjE2ODktLjIzLjI1MjktLjQ3NzEuMjUyOS0uNzQwMiwwLS4yNzE1LS4wODc5LS40ODU0LS4yNjQ2LS42NDE2LS4xNzY4LS4xNTU4LS40MDkyLS4yMzQ0LS42OTczLS4yMzQ0cy0uNTYxNS4wODg0LS44MjAzLjI2NTFjLS4yNTg4LjE3NzItLjU1NzYuNDU5LS44OTQ1Ljg0NTJsLTEuNjE2Mi0xLjM0NDdjLjIzMDUtLjI5NTkuNDY0OC0uNTU5MS43MDMxLS43ODk2LjIzOTMtLjIzLjQ5NjEtLjQyMzMuNzcxNS0uNTc5NnMuNTgwMS0uMjc1NC45MTMxLS4zNTc5Yy4zMzMtLjA4Mi43MDktLjEyMywxLjEyODktLjEyMy40Njg4LDAsLjg5ODQuMDY3OSwxLjI4OTEuMjAzMS4zOTA2LjEzNTcuNzI1Ni4zMjMyLDEuMDA0OS41NjE1LjI3OTMuMjM4OC40OTguNTI4My42NTQzLjg2OTZzLjIzNDQuNzEzOS4yMzQ0LDEuMTE2N3YuMDI0NGMwLC4zNDU3LS4wNDMuNjUzOC0uMTI5OS45MjUzLS4wODU5LjI3MTUtLjIxNTguNTI0NC0uMzg4Ny43NTg4cy0uMzgxOC40NTg1LS42Mjg5LjY3MjQtLjUzMDMuNDM2NS0uODUxNi42NjZsLTEuNDgwNSwxLjAzNjFoMy41NjU0djEuOTQ5MmgtNi44MzR2LTEuODAwOFoiIGNsYXNzPSJzdDAiLz4mI3hhOyAgICA8cGF0aCBkPSJNNDAuODY3NiwzMy4xMDRoMi40NDI0djIuNDA1M2gtMi40NDI0di0yLjQwNTNaIiBjbGFzcz0ic3QwIi8+JiN4YTsgIDwvZz4mI3hhOzwvc3ZnPg==;rounded=0;" parent="1" vertex="1">
          <mxGeometry x="452.25" y="280" width="62" height="62" as="geometry" />
        </mxCell>
        <mxCell id="92DLrKIu1NGl1QOKlz4K-13" value="" style="shape=image;verticalLabelPosition=bottom;labelBackgroundColor=none;verticalAlign=top;aspect=fixed;imageAspect=0;editableCssRules=.*;image=data:image/svg+xml,PHN2ZyB4bWxucz0iaHR0cDovL3d3dy53My5vcmcvMjAwMC9zdmciIHZpZXdCb3g9IjAgMCA2Mi4zNjIyIDYyLjM2MjIiIHZlcnNpb249IjEuMSIgaWQ9IkViZW5lXzIiPiYjeGE7ICAmI3hhOyAgPGRlZnM+JiN4YTsgICAgPHN0eWxlPiYjeGE7ICAgICAgLnN0MCB7JiN4YTsgICAgICAgIGZpbGw6ICNmZmY7JiN4YTsgICAgICB9JiN4YTsmI3hhOyAgICAgIC5zdDEgeyYjeGE7ICAgICAgICBmaWxsOiAjZGEyOTFjOyYjeGE7ICAgICAgfSYjeGE7ICAgIDwvc3R5bGU+JiN4YTsgIDwvZGVmcz4mI3hhOyAgPHBhdGggZD0iTTMxLjMxNDksNjIuMzYyMkMxMy40ODI4LDYyLjM2MjIsMCw0Ny41OTA1LDAsMzEuMzE0OCwwLDEyLjYzMjksMTUuNTU3MSwwLDMxLjA4MDcsMGMxOC42MDE2LDAsMzEuMjgxNSwxNS4zMzk5LDMxLjI4MTUsMzAuOTQ3MiwwLDE5LjA0OTUtMTUuNjU3NSwzMS40MTUtMzEuMDQ3MywzMS40MTVoMFoiIGNsYXNzPSJzdDEiLz4mI3hhOyAgPHBhdGggZD0iTTUyLjM2MTgsMjYuOTAwNmwtMi43ODIuMDA2NiwzLjMyMDMsMy4yNjg1LTYuODE3LjAxNzhjLS4yMjMtMy45MjcxLTEuNzUwNS03LjUwMzgtNC4xNzAyLTEwLjMwMzJsNC43ODUtNC43ODU2LS4wMjU2LDQuNjYwMSwxLjk2NzgtMS45Njc2LS4wMjA5LTYuMDMxNC02LjAyNjEtLjAxNDktMS45NjY5LDEuOTY3NSw0LjY1OS0uMDI2Mi00Ljc2NzMsNC43NjcyYy0zLjA4MTgtMi44MzMzLTcuMTc4LTQuNTc5NS0xMS42ODQzLTQuNTc5NS05LjUzOTEsMC0xNy4yOTkzLDcuNzYwMy0xNy4yOTkzLDE3LjI5OTNzNy43NjAzLDE3LjI5OTMsMTcuMjk5MywxNy4yOTkzYzQuNTE5MywwLDguNjI2NS0xLjc1NjMsMTEuNzExMi00LjYwNDJsNC43OTQzLDQuNzk0My00LjY1OTEtLjAyNTMsMS45NjY4LDEuOTY4LDYuMDMxNy0uMDIxMy4wMTU0LTYuMDI1NS0xLjk2NzgtMS45NjgxLjAyNTYsNC42NjA2LTQuODE0OS00LjgxNTVjMi40MDA3LTIuNzg5LDMuOTE3Mi02LjM0Niw0LjE0NDgtMTAuMjQ5OGw2LjgyMjktLjAxODQtMy4zMDYsMy4yODQ0LDIuNzgyNy0uMDA1OSw0LjI0MDYtNC4yODktNC4yNjAxLTQuMjYyM1pNMjguODMzNiw0Ni40Nzg1Yy04LjQzNiwwLTE1LjI5OTMtNi44NjMzLTE1LjI5OTMtMTUuMjk5M3M2Ljg2MzMtMTUuMjk5MywxNS4yOTkzLTE1LjI5OTMsMTUuMjk5Myw2Ljg2MzMsMTUuMjk5MywxNS4yOTkzLTYuODYzMywxNS4yOTkzLTE1LjI5OTMsMTUuMjk5M1oiIGNsYXNzPSJzdDAiLz4mI3hhOzwvc3ZnPg==;rounded=0;" parent="1" vertex="1">
          <mxGeometry x="370.75" y="280" width="62" height="62" as="geometry" />
        </mxCell>
        <mxCell id="92DLrKIu1NGl1QOKlz4K-14" value="" style="shape=image;verticalLabelPosition=bottom;labelBackgroundColor=none;verticalAlign=top;aspect=fixed;imageAspect=0;editableCssRules=.*;image=data:image/svg+xml,PHN2ZyB4bWxucz0iaHR0cDovL3d3dy53My5vcmcvMjAwMC9zdmciIHZpZXdCb3g9IjAgMCA2Mi4zNjIyIDYyLjM2MjIiIHZlcnNpb249IjEuMSIgaWQ9IklDT04iPiYjeGE7ICAmI3hhOyAgPGRlZnM+JiN4YTsgICAgPHN0eWxlPiYjeGE7ICAgICAgLnN0MCB7JiN4YTsgICAgICAgIGZpbGw6ICNmZmY7JiN4YTsgICAgICB9JiN4YTsmI3hhOyAgICAgIC5zdDEgeyYjeGE7ICAgICAgICBmaWxsOiAjZGEyOTFjOyYjeGE7ICAgICAgfSYjeGE7ICAgIDwvc3R5bGU+JiN4YTsgIDwvZGVmcz4mI3hhOyAgPHBhdGggZD0iTTMxLjMxNDksNjIuMzYyMkMxMy40ODI4LDYyLjM2MjIsMCw0Ny41OTA0LDAsMzEuMzE0OCwwLDEyLjYzMjksMTUuNTU3MSwwLDMxLjA4MDcsMCw0OS42ODIzLDAsNjIuMzYyMiwxNS4zMzk5LDYyLjM2MjIsMzAuOTQ3MmMwLDE5LjA0OTUtMTUuNjU3NSwzMS40MTUtMzEuMDQ3MywzMS40MTVoMFoiIGNsYXNzPSJzdDEiLz4mI3hhOyAgPHBhdGggZD0iTTQ0LjIzMjgsMTkuODYyMWMtLjAwNjctMy4zOTAxLTUuNjE2MS01Ljk0NTYtMTMuMDU0MS01Ljk0NTZzLTEzLjA0NzksMi41NTU2LTEzLjA1NDYsNS45NDU3YzAsLjAwMTEtLjAwMDYuMDAyLS4wMDA2LjAwMzF2MjAuMzQ1N2MwLDMuODY2Miw2LjcyNjYsNS45NTIxLDEzLjA1NTIsNS45NTIxczEzLjA1NDctMi4wODU5LDEzLjA1NDctNS45NTIxdi0yMC4zNDU3YzAtLjAwMTEtLjAwMDYtLjAwMi0uMDAwNi0uMDAzMVpNMjAuMTIzNSwyOS43MTkyYzEuNzExNSwxLjA5MzQsNS4wNzQ3LDIuNDk5NSwxMS4wNTUyLDIuNDk5NSw1Ljk5MDMsMCw5LjM0OTgtMS40MTExLDExLjA1NDctMi41MDU2djUuMjM3MmMtMS4xMTA1LjkwMzMtNC4yNTE0LDIuODAyNi0xMS4wNTQ3LDIuODAyNi02Ljc3OTEsMC05LjkyOTgtMS44ODU4LTExLjA1NTItMi43OTM1di01LjI0MDJaTTQyLjIzMzQsMjguMTY2Yy0xLjExMDUuOTAzLTQuMjUxNCwyLjgwMjItMTEuMDU0NywyLjgwMjItNi43Nzk1LDAtOS45Mjk5LTEuODg1OS0xMS4wNTUyLTIuNzkzMnYtNS4wNjE2YzIuMjY5NywxLjY1MDYsNi4yODA5LDIuNzA2OCwxMS4wNTUyLDIuNzA2OHM4Ljc4NS0xLjA1NjIsMTEuMDU0Ny0yLjcwNjh2NS4wNTI1Wk0zMS4xNzg3LDE1LjkxNjVjNi44NDg2LDAsMTEuMDU0NywyLjMwMTgsMTEuMDU0NywzLjk1MTdzLTQuMjA2MSwzLjk1MjEtMTEuMDU0NywzLjk1MjEtMTEuMDU1Mi0yLjMwMTgtMTEuMDU1Mi0zLjk1MjEsNC4yMDU2LTMuOTUxNywxMS4wNTUyLTMuOTUxN1pNMzEuMTc4Nyw0NC4xNjMxYy02Ljg0OTYsMC0xMS4wNTUyLTIuMzAxOC0xMS4wNTUyLTMuOTUyMXYtMy43MDc1YzEuNzExNSwxLjA5MzQsNS4wNzQ3LDIuNDk5NSwxMS4wNTUyLDIuNDk5NSw1Ljk5MDMsMCw5LjM0OTgtMS40MTA4LDExLjA1NDctMi41MDU0djMuNzEzNGMwLDEuNjUwNC00LjIwNjEsMy45NTIxLTExLjA1NDcsMy45NTIxWiIgY2xhc3M9InN0MCIvPiYjeGE7PC9zdmc+;rounded=0;" parent="1" vertex="1">
          <mxGeometry x="52.75" y="160" width="62" height="62" as="geometry" />
        </mxCell>
        <mxCell id="92DLrKIu1NGl1QOKlz4K-15" value="" style="shape=image;verticalLabelPosition=bottom;labelBackgroundColor=none;verticalAlign=top;aspect=fixed;imageAspect=0;editableCssRules=.*;image=data:image/svg+xml,PHN2ZyB4bWxucz0iaHR0cDovL3d3dy53My5vcmcvMjAwMC9zdmciIHZpZXdCb3g9IjAgMCA2Mi4zNjIyIDYyLjM2MjIiIHZlcnNpb249IjEuMSIgaWQ9IkViZW5lXzIiPiYjeGE7ICAmI3hhOyAgPGRlZnM+JiN4YTsgICAgPHN0eWxlPiYjeGE7ICAgICAgLnN0MCB7JiN4YTsgICAgICAgIGZpbGw6ICNmZmY7JiN4YTsgICAgICB9JiN4YTsmI3hhOyAgICAgIC5zdDEgeyYjeGE7ICAgICAgICBmaWxsOiAjZGEyOTFjOyYjeGE7ICAgICAgfSYjeGE7ICAgIDwvc3R5bGU+JiN4YTsgIDwvZGVmcz4mI3hhOyAgPHBhdGggZD0iTTMxLjI0MjgsNjIuMzYyMkMxMy40MTA3LDYyLjM2MjItLjA3MjEsNDcuNTkwNS0uMDcyMSwzMS4zMTQ4LS4wNzIxLDEyLjYzMjksMTUuNDg1LDAsMzEuMDA4NiwwYzE4LjYwMTYsMCwzMS4yODE1LDE1LjMzOTksMzEuMjgxNSwzMC45NDcyLDAsMTkuMDQ5NS0xNS42NTc1LDMxLjQxNS0zMS4wNDczLDMxLjQxNWgwWiIgY2xhc3M9InN0MSIvPiYjeGE7ICA8cGF0aCBkPSJNNDIuMjY3Niw0NC4xMzE1aC0yMi4xNzI5Yy0yLjc5MzUsMC01LjA2NTQtMi4yNzI1LTUuMDY1NC01LjA2NTR2LTE1Ljc3MDVjMC0yLjc5MywyLjI3Mi01LjA2NDksNS4wNjU0LTUuMDY0OWgyMi4xNzI5YzIuNzkzLDAsNS4wNjU0LDIuMjcyLDUuMDY1NCw1LjA2NDl2MTUuNzcwNWMwLDIuNzkzLTIuMjcyNSw1LjA2NTQtNS4wNjU0LDUuMDY1NFpNMjAuMDk0NywyMC4yMDkyYy0xLjcwMjEsMC0zLjA4NjksMS4zODQ4LTMuMDg2OSwzLjA4NjR2MTUuNzcwNWMwLDEuNzAyMSwxLjM4NDgsMy4wODY5LDMuMDg2OSwzLjA4NjloMjIuMTcyOWMxLjcwMjEsMCwzLjA4NjktMS4zODQ4LDMuMDg2OS0zLjA4Njl2LTE1Ljc3MDVjMC0xLjcwMTctMS4zODQ4LTMuMDg2NC0zLjA4NjktMy4wODY0aC0yMi4xNzI5WiIgY2xhc3M9InN0MCIvPiYjeGE7ICA8cGF0aCBkPSJNMjEuMDkwOCwyOS4wOTM4Yy4wODM1LjA4MjUuMjE2My4wODExLjI5OTMsMGwyLjY5MDktMi42OTA5Yy4xNzQzLS4xNzQzLjE3MzgtLjQ1OCwwLS42MzIzbC0yLjY5MDktMi42OTA0Yy0uMDgzLS4wODI1LS4yMTU4LS4wODQtLjI5OTMsMGwtLjU3NjcuNTc2MmMtLjA0LjA0LS4wNjI1LjA5MzMtLjA2MjUuMTQ5OSwwLC4wNTYyLjAyMi4xMDk0LjA2Mi4xNDk0bDEuODY2MiwxLjg2NjJjLjE0NjUuMTQ2NS4xNDY1LjM4MzgsMCwuNTMwM2wtMS44NjYyLDEuODY2MmMtLjA0LjA0LS4wNjIuMDkzMy0uMDYyLjE0OTQsMCwuMDU2Ni4wMjI1LjEwOTkuMDYyLjE0OTRsLjU3NzEuNTc2N1oiIGNsYXNzPSJzdDAiLz4mI3hhOzwvc3ZnPg==;rounded=0;" parent="1" vertex="1">
          <mxGeometry x="50" y="400" width="62" height="62" as="geometry" />
        </mxCell>
        <mxCell id="92DLrKIu1NGl1QOKlz4K-16" value="" style="shape=image;verticalLabelPosition=bottom;labelBackgroundColor=none;verticalAlign=top;aspect=fixed;imageAspect=0;editableCssRules=.*;image=data:image/svg+xml,PHN2ZyB4bWxucz0iaHR0cDovL3d3dy53My5vcmcvMjAwMC9zdmciIHZpZXdCb3g9IjAgMCA2Mi4zNjIyIDYyLjM2MjIiIHZlcnNpb249IjEuMSI+JiN4YTsgICYjeGE7ICA8ZGVmcz4mI3hhOyAgICA8c3R5bGU+JiN4YTsgICAgICAuc3QwIHsmI3hhOyAgICAgICAgZmlsbDogI2ZmZjsmI3hhOyAgICAgIH0mI3hhOyYjeGE7ICAgICAgLnN0MSB7JiN4YTsgICAgICAgIGZpbGw6ICNkYTI5MWM7JiN4YTsgICAgICB9JiN4YTsgICAgPC9zdHlsZT4mI3hhOyAgPC9kZWZzPiYjeGE7ICA8ZyBpZD0iRWJlbmVfMiI+JiN4YTsgICAgPHBhdGggZD0iTTMxLjMxNDksNjIuMzYyMkMxMy40ODI4LDYyLjM2MjIsMCw0Ny41OTA1LDAsMzEuMzE0OCwwLDEyLjYzMjksMTUuNTU3MSwwLDMxLjA4MDcsMGMxOC42MDE2LDAsMzEuMjgxNSwxNS4zMzk5LDMxLjI4MTUsMzAuOTQ3MiwwLDE5LjA0OTUtMTUuNjU3NSwzMS40MTUtMzEuMDQ3MywzMS40MTVoMFoiIGNsYXNzPSJzdDEiLz4mI3hhOyAgPC9nPiYjeGE7ICA8ZyBpZD0iRWJlbmVfMyI+JiN4YTsgICAgPGc+JiN4YTsgICAgICA8cGF0aCBkPSJNMzMuMTc1NCwzNi4wMjkyaC0xNi4zMzM0Yy0xLjcwMjEsMC0zLjA4NjktMS4zODQ4LTMuMDg2OS0zLjA4Njl2LTE1Ljc3MDVjMC0xLjcwMTcsMS4zODQ4LTMuMDg2NCwzLjA4NjktMy4wODY0aDIyLjE3MjljMS43MDIxLDAsMy4wODY5LDEuMzg0OCwzLjA4NjksMy4wODY0djguMzMxN2gxLjk3ODV2LTguMzMxN2MwLTIuNzkzLTIuMjcyNS01LjA2NDktNS4wNjU0LTUuMDY0OWgtMjIuMTcyOWMtMi43OTM1LDAtNS4wNjU0LDIuMjcyLTUuMDY1NCw1LjA2NDl2MTUuNzcwNWMwLDIuNzkzLDIuMjcyLDUuMDY1NCw1LjA2NTQsNS4wNjU0aDE2LjMzMzR2LTEuOTc4NVoiIGNsYXNzPSJzdDAiLz4mI3hhOyAgICAgIDxwYXRoIGQ9Ik0zMy4xNzU1LDM5Ljk5ODloLTEwLjA0MzJjLS41NTI3LDAtMS4wMDEuNDQ4Mi0xLjAwMSwxLjAwMXMuNDQ4MiwxLjAwMSwxLjAwMSwxLjAwMWgxMC4wNDMydi0yLjAwMloiIGNsYXNzPSJzdDAiLz4mI3hhOyAgICAgIDxwYXRoIGQ9Ik0zNy42OTMxLDI3Ljg3NWMtMS4xNzk3LDAtMi4xMzg3Ljk1OTUtMi4xMzg3LDIuMTM4N3YxOC4xMDNjMCwxLjE3OTcuOTU5LDIuMTM4NywyLjEzODcsMi4xMzg3aDEwLjc1MjljMS4xNzk3LDAsMi4xMzk2LS45NTksMi4xMzk2LTIuMTM4N3YtMTguMTAzYzAtMS4xNzkyLS45Ni0yLjEzODctMi4xMzk2LTIuMTM4N2gtMTAuNzUyOVpNNDguNDQ2LDQ5LjAwNTRoLTEwLjc1MjljLS40OTAyLDAtLjg4ODctLjM5ODQtLjg4ODctLjg4ODd2LTE4LjEwM2MwLS40OTAyLjM5ODQtLjg4ODcuODg4Ny0uODg4N2gxMC43NTI5Yy40OTAyLDAsLjg4OTYuMzk4NC44ODk2Ljg4ODd2MTguMTAzYzAsLjQ5MDItLjM5OTQuODg4Ny0uODg5Ni44ODg3WiIgY2xhc3M9InN0MCIvPiYjeGE7ICAgICAgPHBhdGggZD0iTTQ1LjM2NzIsMzAuODgxOGMuMzQxOSwwLC42Mi4yNzgxLjYyLjYycy0uMjc4MS42Mi0uNjIuNjJoLTQuNTkzOGMtLjM0MTksMC0uNjItLjI3ODEtLjYyLS42MnMuMjc4MS0uNjIuNjItLjYyaDQuNTkzOCIgY2xhc3M9InN0MCIvPiYjeGE7ICAgICAgPHBhdGggZD0iTTQzLjA3MDMsNDYuMDQxMmMuMzUxNCwwLC42MzczLjI4NTkuNjM3My42Mzczcy0uMjg1OS42MzczLS42MzczLjYzNzMtLjYzNzMtLjI4NTktLjYzNzMtLjYzNzMuMjg1OS0uNjM3My42MzczLS42MzczIiBjbGFzcz0ic3QwIi8+JiN4YTsgICAgPC9nPiYjeGE7ICAgIDxnPiYjeGE7ICAgICAgPHBhdGggZD0iTTQyLjk1MjgsNDAuOTYyNGMtLjE2NywwLS4zMjMyLS4wNjQ1LS40NDE0LS4xODI2bC0xLjM0MTgtMS4zNDA4Yy0uMjQ0MS0uMjQ0MS0uMjQ0MS0uNjQwNi0uMDAxLS44ODM4LjI0NDEtLjI0NDEuNjQxNi0uMjQzMi44ODM4LS4wMDFsLjkwMDQuODk5NCwzLjc1MjktMy43NTFjLjExNTItLjExNzIuMjcxNS0uMTgxNi40Mzg1LS4xODI2aC4wMDJjLjE2OCwwLC4zMjUyLjA2NTQuNDQzNC4xODM2LjExNzIuMTE2Mi4xODI2LjI3MjUuMTgyNi40Mzk1LDAsLjE2OC0uMDY0NS4zMjYyLS4xODM2LjQ0NDNsLTQuMTk0Myw0LjE5MjRjLS4xMTYyLjExNzItLjI3MjUuMTgyNi0uNDQxNC4xODI2WiIgY2xhc3M9InN0MCIvPiYjeGE7ICAgICAgPHBhdGggZD0iTTQyLjk1MTksNDQuMDg1NGgwYy0yLjYyMTEtLjAwMS00Ljc1MjktMi4xMzM4LTQuNzUyOS00Ljc1NDlzMi4xMzI4LTQuNzUzOSw0Ljc1NTktNC43NTM5Yy43MjU2LDAsMS40NTUxLjE3MDksMi4xMTA0LjQ5NTEuMzAyNy4xNTA0LjQyNzcuNTE5NS4yNzkzLjgyMjMtLjA3MjMuMTQ3NS0uMTk3My4yNTc4LS4zNTI1LjMxMDUtLjE1NjIuMDUxOC0uMzIyMy4wNC0uNDcwNy0uMDMyMi0uNDg3My0uMjQwMi0xLjAyOTMtLjM2NzItMS41NjY0LS4zNjcyLTEuOTQ0MywwLTMuNTI3MywxLjU4Mi0zLjUyNzMsMy41MjU0czEuNTgxMSwzLjUyNjQsMy41MjQ0LDMuNTI3M2MxLjk0NDMsMCwzLjUyNzMtMS41ODIsMy41MjczLTMuNTI1NCwwLS4zMzg5LjI3NTQtLjYxNDMuNjE0My0uNjE0My4zMzc5LDAsLjYxMzMuMjc1NC42MTMzLjYxNDMsMCwyLjYyMTEtMi4xMzI4LDQuNzUyOS00Ljc1NDksNC43NTI5WiIgY2xhc3M9InN0MCIvPiYjeGE7ICAgIDwvZz4mI3hhOyAgICA8cGF0aCBkPSJNMjcuODUzNSwyNy4yNDA3Yy0uMTYwMiwwLS4zMTk4LS4wNjEtLjQ0MTktLjE4MzFsLTIuNDQyOS0yLjQ0MjljLS4yNDQxLS4yNDQxLS4yNDQxLS42Mzk2LDAtLjg4MzhzLjYzOTYtLjI0NDEuODgzOCwwbDIuMDAxLDIuMDAxLDUuNjY1LTUuNjY1NWMuMjQ0MS0uMjQ0MS42NDA2LS4yNDQxLjg4NDgsMCwuMjQzMi4yNDQxLjI0MzIuNjM5NiwwLC44ODM4bC02LjEwNzksNi4xMDc0Yy0uMTIyMS4xMjIxLS4yODE3LjE4MzEtLjQ0MTkuMTgzMVoiIGNsYXNzPSJzdDAiLz4mI3hhOyAgICA8cGF0aCBkPSJNMjcuODU0NSwzMS4yMTA1aC0uMDAyYy0xLjYzNTMsMC0zLjE3MjQtLjYzNzItNC4zMjg2LTEuNzkzOS0xLjE1NTgtMS4xNTYyLTEuNzkyNS0yLjY5MzQtMS43OTItNC4zMjg2cy42MzcyLTMuMTcyNCwxLjc5MzktNC4zMjg2YzEuMTU1OC0xLjE1NTMsMi42OTI5LTEuNzkyLDQuMzI3Ni0xLjc5MmguMDAxYy45Mzk1LjAwMDUsMS44Nzk5LjIyMTIsMi43MTk3LjYzNzcuMzA5MS4xNTM4LjQzNTUuNTI4OC4yODIyLjgzNzktLjE1NDMuMzA5MS0uNTI4OC40MzM2LS44Mzc5LjI4MjItLjY2ODUtLjMzMi0xLjQxNy0uNTA3My0yLjE2NDYtLjUwNzhoLS4wMDA1Yy0xLjMwMDgsMC0yLjUyMzkuNTA2My0zLjQ0NDMsMS40MjYzLS45MTk5LjkxOTktMS40MjcyLDIuMTQzMS0xLjQyNzIsMy40NDQzcy41MDYzLDIuNTI0OSwxLjQyNjMsMy40NDUzYy45MTk5LjkxOTksMi4xNDMxLDEuNDI3MiwzLjQ0NDMsMS40MjcyaC4wMDJjMS4zMDAzLDAsMi41MjM0LS41MDYzLDMuNDQzNC0xLjQyNTguOTE5OS0uOTE5OSwxLjQyNzctMi4xNDMxLDEuNDI3Ny0zLjQ0NDMsMC0uMzQ1Mi4yODAzLS42MjUuNjI1LS42MjVoMGMuMzQ1NywwLC42MjUuMjc5OC42MjUuNjI1LS4wMDEsMS42MzUzLS42Mzc3LDMuMTcyNC0xLjc5MzksNC4zMjgxcy0yLjY5MjksMS43OTItNC4zMjcxLDEuNzkyWiIgY2xhc3M9InN0MCIvPiYjeGE7ICA8L2c+JiN4YTs8L3N2Zz4=;rounded=0;" parent="1" vertex="1">
          <mxGeometry x="453.25" y="400" width="62" height="62" as="geometry" />
        </mxCell>
        <mxCell id="92DLrKIu1NGl1QOKlz4K-17" value="" style="shape=image;verticalLabelPosition=bottom;labelBackgroundColor=none;verticalAlign=top;aspect=fixed;imageAspect=0;editableCssRules=.*;image=data:image/svg+xml,PHN2ZyB4bWxucz0iaHR0cDovL3d3dy53My5vcmcvMjAwMC9zdmciIHZpZXdCb3g9IjAgMCA2Mi4zNjIyIDYyLjM2MjIiIHZlcnNpb249IjEuMSIgaWQ9IkViZW5lXzIiPiYjeGE7ICAmI3hhOyAgPGRlZnM+JiN4YTsgICAgPHN0eWxlPiYjeGE7ICAgICAgLnN0MCB7JiN4YTsgICAgICAgIGZpbGw6ICNmZmY7JiN4YTsgICAgICB9JiN4YTsmI3hhOyAgICAgIC5zdDEgeyYjeGE7ICAgICAgICBmaWxsOiAjZGEyOTFjOyYjeGE7ICAgICAgfSYjeGE7ICAgIDwvc3R5bGU+JiN4YTsgIDwvZGVmcz4mI3hhOyAgPHBhdGggZD0iTTMxLjMxNDksNjIuMzYyMkMxMy40ODI4LDYyLjM2MjIsMCw0Ny41OTA1LDAsMzEuMzE0OCwwLDEyLjYzMjksMTUuNTU3MSwwLDMxLjA4MDcsMGMxOC42MDE2LDAsMzEuMjgxNSwxNS4zMzk5LDMxLjI4MTUsMzAuOTQ3MiwwLDE5LjA0OTUtMTUuNjU3NSwzMS40MTUtMzEuMDQ3MywzMS40MTVoMFoiIGNsYXNzPSJzdDEiLz4mI3hhOyAgPGc+JiN4YTsgICAgPHBhdGggZD0iTTE5LjE4MTYsMzkuMTQzNmMtLjU1MjIsMC0xLS40NDczLTEtMXYtMTMuNjU1M2MwLS41NTIyLjQ0NzgtMSwxLTFzMSwuNDQ3OCwxLDF2MTMuNjU1M2MwLC41NTI3LS40NDc4LDEtMSwxWiIgY2xhc3M9InN0MCIvPiYjeGE7ICAgIDxwYXRoIGQ9Ik0yMy4xODE2LDM5LjE0MzZjLS41NTIyLDAtMS0uNDQ3My0xLTF2LTE1LjE5NDNjMC0uNTUyMi40NDc4LTEsMS0xczEsLjQ0NzgsMSwxdjE1LjE5NDNjMCwuNTUyNy0uNDQ3OCwxLTEsMVoiIGNsYXNzPSJzdDAiLz4mI3hhOyAgICA8cGF0aCBkPSJNMjcuMTgxNiwzOS4xNDM2Yy0uNTUyMiwwLTEtLjQ0NzMtMS0xdi0xNi43NTk4YzAtLjU1MjIuNDQ3OC0xLDEtMXMxLC40NDc4LDEsMXYxNi43NTk4YzAsLjU1MjctLjQ0NzgsMS0xLDFaIiBjbGFzcz0ic3QwIi8+JiN4YTsgICAgPHBhdGggZD0iTTMxLjE4MTYsMzkuMTQzNmMtLjU1MjIsMC0xLS40NDczLTEtMXYtMTUuMTg5NWMwLS41NTIyLjQ0NzgtMSwxLTFzMSwuNDQ3OCwxLDF2MTUuMTg5NWMwLC41NTI3LS40NDc4LDEtMSwxWiIgY2xhc3M9InN0MCIvPiYjeGE7ICAgIDxwYXRoIGQ9Ik0zNS4xODE2LDM5LjE0MzZjLS41NTI3LDAtMS0uNDQ3My0xLTF2LTEzLjY1NTNjMC0uNTUyMi40NDczLTEsMS0xczEsLjQ0NzgsMSwxdjEzLjY1NTNjMCwuNTUyNy0uNDQ3MywxLTEsMVoiIGNsYXNzPSJzdDAiLz4mI3hhOyAgICA8cGF0aCBkPSJNMzkuMTgxNiwzOS4xNDM2Yy0uNTUyNywwLTEtLjQ0NzMtMS0xdi0xMi4yMTYzYzAtLjU1MjIuNDQ3My0xLDEtMXMxLC40NDc4LDEsMXYxMi4yMTYzYzAsLjU1MjctLjQ0NzMsMS0xLDFaIiBjbGFzcz0ic3QwIi8+JiN4YTsgICAgPHBhdGggZD0iTTQzLjE4MTYsMzkuMTQzNmMtLjU1MjcsMC0xLS40NDczLTEtMXYtMTMuNjU1M2MwLS41NTIyLjQ0NzMtMSwxLTFzMSwuNDQ3OCwxLDF2MTMuNjU1M2MwLC41NTI3LS40NDczLDEtMSwxWiIgY2xhc3M9InN0MCIvPiYjeGE7ICAgIDxwYXRoIGQ9Ik00Ny4xODE2LDM5LjE0MzZjLS41NTI3LDAtMS0uNDQ3My0xLTF2LTE1LjE4OTVjMC0uNTUyMi40NDczLTEsMS0xczEsLjQ0NzgsMSwxdjE1LjE4OTVjMCwuNTUyNy0uNDQ3MywxLTEsMVoiIGNsYXNzPSJzdDAiLz4mI3hhOyAgICA8cGF0aCBkPSJNMTUuMTgwNywzOS4xNDM2Yy0uNTUyMiwwLTEtLjQ0NzMtMS0xdi0xMi4yMjAyYzAtLjU1MjIuNDQ3OC0xLDEtMXMxLC40NDc4LDEsMXYxMi4yMjAyYzAsLjU1MjctLjQ0NzgsMS0xLDFaIiBjbGFzcz0ic3QwIi8+JiN4YTsgIDwvZz4mI3hhOzwvc3ZnPg==;rounded=0;" parent="1" vertex="1">
          <mxGeometry x="129.75" y="640" width="62" height="62" as="geometry" />
        </mxCell>
        <mxCell id="92DLrKIu1NGl1QOKlz4K-18" value="" style="shape=image;verticalLabelPosition=bottom;labelBackgroundColor=none;verticalAlign=top;aspect=fixed;imageAspect=0;editableCssRules=.*;image=data:image/svg+xml,PHN2ZyB4bWxucz0iaHR0cDovL3d3dy53My5vcmcvMjAwMC9zdmciIHZpZXdCb3g9IjAgMCA2Mi4zNjIyIDYyLjM2MjIiIHZlcnNpb249IjEuMSIgaWQ9IkViZW5lXzIiPiYjeGE7ICAmI3hhOyAgPGRlZnM+JiN4YTsgICAgPHN0eWxlPiYjeGE7ICAgICAgLnN0MCB7JiN4YTsgICAgICAgIGZpbGw6ICNmZmY7JiN4YTsgICAgICB9JiN4YTsmI3hhOyAgICAgIC5zdDEgeyYjeGE7ICAgICAgICBmaWxsOiAjZGEyOTFjOyYjeGE7ICAgICAgfSYjeGE7ICAgIDwvc3R5bGU+JiN4YTsgIDwvZGVmcz4mI3hhOyAgPHBhdGggZD0iTTMxLjMxNDksNjIuMzYyMkMxMy40ODI4LDYyLjM2MjIsMCw0Ny41OTA1LDAsMzEuMzE0OCwwLDEyLjYzMjksMTUuNTU3MSwwLDMxLjA4MDcsMGMxOC42MDE2LDAsMzEuMjgxNSwxNS4zMzk5LDMxLjI4MTUsMzAuOTQ3MiwwLDE5LjA0OTUtMTUuNjU3NSwzMS40MTUtMzEuMDQ3MywzMS40MTVoMFoiIGNsYXNzPSJzdDEiLz4mI3hhOyAgPGc+JiN4YTsgICAgPHBhdGggZD0iTTQxLjAxMTYsMjIuNjY3Yy0uMTk2LS4xNC0uMzkyMS0uMTk2LS42MTYyLS4xOTYtLjMzNjEsMC0uNjQ0Mi4xNjgtLjg0MDIuNDIwMWwtMTAuMTEwNSwxMy43MjM0LTYuODMzNy01LjQ2MTRjLS4xOTYtLjE0LS40MjAxLS4yMjQxLS42NDQyLS4yMjQxLS4zMDgxLDAtLjYxNjIuMTQtLjgxMjIuMzkyMS0uMzY0MS40NDgxLS4yODAxLDEuMTIwMy4xNjgsMS40ODQ0bDcuNjczOSw2LjEzMzVjLjE5Ni4xNC40MjAxLjIyNDEuNjQ0Mi4yMjQxaC4xNGMuMjgwMS0uMDI4LjUzMjEtLjE5Ni43MDAyLS40MjAxbDEwLjc1NDctMTQuNTkxNmMuMTY4LS4yMjQxLjIyNDEtLjUwNDEuMTk2LS43ODQyLS4wNTYtLjMwODEtLjE5NjEtLjUzMjEtLjQyMDEtLjcwMDJaIiBjbGFzcz0ic3QwIi8+JiN4YTsgICAgPHBhdGggZD0iTTMxLjE4MTEsMTIuNDcyNGMtMTAuMzA2NiwwLTE4LjcwODcsOC40MDIxLTE4LjcwODcsMTguNzA4N3M4LjQwMjEsMTguNzA4NywxOC43MDg3LDE4LjcwODcsMTguNzA4Ny04LjQwMjEsMTguNzA4Ny0xOC43MDg3LTguNDAyMS0xOC43MDg3LTE4LjcwODctMTguNzA4N1pNMzEuMTgxMSw0Ny43ODkyYy05LjE1ODMsMC0xNi42MDgxLTcuNDQ5OS0xNi42MDgxLTE2LjYwODFzNy40NDk5LTE2LjYwODEsMTYuNjA4MS0xNi42MDgxLDE2LjYwODEsNy40NDk5LDE2LjYwODEsMTYuNjA4MS03LjQ0OTksMTYuNjA4MS0xNi42MDgxLDE2LjYwODFaIiBjbGFzcz0ic3QwIi8+JiN4YTsgIDwvZz4mI3hhOzwvc3ZnPg==;rounded=0;" parent="1" vertex="1">
          <mxGeometry x="130.75" y="758" width="62" height="62" as="geometry" />
        </mxCell>
        <mxCell id="92DLrKIu1NGl1QOKlz4K-19" value="" style="shape=image;verticalLabelPosition=bottom;labelBackgroundColor=none;verticalAlign=top;aspect=fixed;imageAspect=0;editableCssRules=.*;image=data:image/svg+xml,PHN2ZyB4bWxucz0iaHR0cDovL3d3dy53My5vcmcvMjAwMC9zdmciIHZpZXdCb3g9IjAgMCA2Mi4zNjIyIDYyLjM2MjIiIHZlcnNpb249IjEuMSIgaWQ9IkViZW5lXzIiPiYjeGE7ICAmI3hhOyAgPGRlZnM+JiN4YTsgICAgPHN0eWxlPiYjeGE7ICAgICAgLnN0MCB7JiN4YTsgICAgICAgIGZpbGw6ICNmZmY7JiN4YTsgICAgICB9JiN4YTsmI3hhOyAgICAgIC5zdDEgeyYjeGE7ICAgICAgICBmaWxsOiAjZGEyOTFjOyYjeGE7ICAgICAgfSYjeGE7ICAgIDwvc3R5bGU+JiN4YTsgIDwvZGVmcz4mI3hhOyAgPHBhdGggZD0iTTMxLjMxNDksNjIuMzYyMkMxMy40ODI4LDYyLjM2MjIsMCw0Ny41OTA1LDAsMzEuMzE0OCwwLDEyLjYzMjksMTUuNTU3MSwwLDMxLjA4MDcsMGMxOC42MDE2LDAsMzEuMjgxNSwxNS4zMzk5LDMxLjI4MTUsMzAuOTQ3MiwwLDE5LjA0OTUtMTUuNjU3NSwzMS40MTUtMzEuMDQ3MywzMS40MTVoMFoiIGNsYXNzPSJzdDEiLz4mI3hhOyAgPHBhdGggZD0iTTMxLjEzNTcsMTIuMzkzMWMtMTAuMzIwMywwLTE4LjcxNjMsOC4zOTYtMTguNzE2MywxOC43MTYzczguMzk2LDE4LjcxNjgsMTguNzE2MywxOC43MTY4LDE4LjcxNjgtOC4zOTY1LDE4LjcxNjgtMTguNzE2OC04LjM5NjUtMTguNzE2My0xOC43MTY4LTE4LjcxNjNaTTMxLjEzNTcsMTQuMzkzMWM0LjI3OTQsMCw4LjE3NTYsMS42MzAxLDExLjEzNTcsNC4yODQybC0yMy41Njc5LDIzLjU2NzljLTIuNjU0MS0yLjk2MDEtNC4yODQyLTYuODU2NC00LjI4NDItMTEuMTM1NywwLTkuMjE3Myw3LjQ5OS0xNi43MTYzLDE2LjcxNjMtMTYuNzE2M1pNMzEuMTM1Nyw0Ny44MjYyYy00LjIxOTYsMC04LjA2NzctMS41ODQtMTEuMDEyNS00LjE3MjVsMjMuNTU2OC0yMy41NTY4YzIuNTg4NiwyLjk0NDgsNC4xNzI1LDYuNzkyOSw0LjE3MjUsMTEuMDEyNSwwLDkuMjE3OC03LjQ5OSwxNi43MTY4LTE2LjcxNjgsMTYuNzE2OFoiIGNsYXNzPSJzdDAiLz4mI3hhOzwvc3ZnPg==;rounded=0;" parent="1" vertex="1">
          <mxGeometry x="50.75" y="758" width="62" height="62" as="geometry" />
        </mxCell>
        <mxCell id="92DLrKIu1NGl1QOKlz4K-20" value="&lt;font face=&quot;Roboto&quot;&gt;&lt;span style=&quot;font-size: 16px;&quot;&gt;quick&lt;/span&gt;&lt;/font&gt;" style="text;strokeColor=none;align=center;fillColor=none;html=1;verticalAlign=middle;whiteSpace=wrap;rounded=0;" parent="1" vertex="1">
          <mxGeometry x="359.75" y="710" width="80" height="30" as="geometry" />
        </mxCell>
        <mxCell id="92DLrKIu1NGl1QOKlz4K-21" value="&lt;font style=&quot;font-size: 16px;&quot; face=&quot;Roboto&quot;&gt;cli&lt;/font&gt;" style="text;strokeColor=none;align=center;fillColor=none;html=1;verticalAlign=middle;whiteSpace=wrap;rounded=0;" parent="1" vertex="1">
          <mxGeometry x="41" y="470" width="80" height="30" as="geometry" />
        </mxCell>
        <mxCell id="92DLrKIu1NGl1QOKlz4K-22" value="&lt;font style=&quot;font-size: 16px;&quot; face=&quot;Roboto&quot;&gt;vm&lt;/font&gt;" style="text;strokeColor=none;align=center;fillColor=none;html=1;verticalAlign=middle;whiteSpace=wrap;rounded=0;" parent="1" vertex="1">
          <mxGeometry x="40.75" y="110" width="80" height="30" as="geometry" />
        </mxCell>
        <mxCell id="92DLrKIu1NGl1QOKlz4K-23" value="&lt;font style=&quot;font-size: 16px;&quot; face=&quot;Roboto&quot;&gt;vmpool&lt;/font&gt;" style="text;strokeColor=none;align=center;fillColor=none;html=1;verticalAlign=middle;whiteSpace=wrap;rounded=0;" parent="1" vertex="1">
          <mxGeometry x="120.75" y="110" width="80" height="30" as="geometry" />
        </mxCell>
        <mxCell id="92DLrKIu1NGl1QOKlz4K-24" value="&lt;font style=&quot;font-size: 16px;&quot; face=&quot;Roboto&quot;&gt;sks&lt;/font&gt;" style="text;strokeColor=none;align=center;fillColor=none;html=1;verticalAlign=middle;whiteSpace=wrap;rounded=0;" parent="1" vertex="1">
          <mxGeometry x="200.75" y="110" width="80" height="30" as="geometry" />
        </mxCell>
        <mxCell id="92DLrKIu1NGl1QOKlz4K-25" value="&lt;font style=&quot;font-size: 16px;&quot; face=&quot;Roboto&quot;&gt;sos&lt;/font&gt;" style="text;strokeColor=none;align=center;fillColor=none;html=1;verticalAlign=middle;whiteSpace=wrap;rounded=0;" parent="1" vertex="1">
          <mxGeometry x="280.75" y="110" width="80" height="30" as="geometry" />
        </mxCell>
        <mxCell id="92DLrKIu1NGl1QOKlz4K-26" value="&lt;font style=&quot;font-size: 16px;&quot; face=&quot;Roboto&quot;&gt;block&lt;/font&gt;" style="text;strokeColor=none;align=center;fillColor=none;html=1;verticalAlign=middle;whiteSpace=wrap;rounded=0;" parent="1" vertex="1">
          <mxGeometry x="360.75" y="110" width="80" height="30" as="geometry" />
        </mxCell>
        <mxCell id="92DLrKIu1NGl1QOKlz4K-27" value="&lt;font face=&quot;Roboto&quot;&gt;&lt;span style=&quot;font-size: 16px;&quot;&gt;cloud&lt;/span&gt;&lt;/font&gt;" style="text;strokeColor=none;align=center;fillColor=none;html=1;verticalAlign=middle;whiteSpace=wrap;rounded=0;" parent="1" vertex="1">
          <mxGeometry x="41" y="590" width="80" height="30" as="geometry" />
        </mxCell>
        <mxCell id="92DLrKIu1NGl1QOKlz4K-31" value="&lt;font style=&quot;font-size: 16px;&quot; face=&quot;Roboto&quot;&gt;admin&lt;/font&gt;" style="text;strokeColor=none;align=center;fillColor=none;html=1;verticalAlign=middle;whiteSpace=wrap;rounded=0;" parent="1" vertex="1">
          <mxGeometry x="125.25" y="470" width="80" height="30" as="geometry" />
        </mxCell>
        <mxCell id="92DLrKIu1NGl1QOKlz4K-32" value="&lt;font style=&quot;font-size: 16px;&quot; face=&quot;Roboto&quot;&gt;user&lt;/font&gt;" style="text;strokeColor=none;align=center;fillColor=none;html=1;verticalAlign=middle;whiteSpace=wrap;rounded=0;" parent="1" vertex="1">
          <mxGeometry x="204.25" y="470" width="80" height="30" as="geometry" />
        </mxCell>
        <mxCell id="92DLrKIu1NGl1QOKlz4K-33" value="&lt;font style=&quot;font-size: 16px;&quot; face=&quot;Roboto&quot;&gt;iam&lt;/font&gt;" style="text;strokeColor=none;align=center;fillColor=none;html=1;verticalAlign=middle;whiteSpace=wrap;rounded=0;" parent="1" vertex="1">
          <mxGeometry x="284.25" y="470" width="80" height="30" as="geometry" />
        </mxCell>
        <mxCell id="92DLrKIu1NGl1QOKlz4K-34" value="&lt;font style=&quot;font-size: 16px;&quot; face=&quot;Roboto&quot;&gt;2fa&lt;/font&gt;" style="text;strokeColor=none;align=center;fillColor=none;html=1;verticalAlign=middle;whiteSpace=wrap;rounded=0;" parent="1" vertex="1">
          <mxGeometry x="442.75" y="470" width="80" height="30" as="geometry" />
        </mxCell>
        <mxCell id="92DLrKIu1NGl1QOKlz4K-35" value="&lt;font style=&quot;font-size: 16px;&quot; face=&quot;Roboto&quot;&gt;transfer&lt;/font&gt;" style="text;strokeColor=none;align=center;fillColor=none;html=1;verticalAlign=middle;whiteSpace=wrap;rounded=0;" parent="1" vertex="1">
          <mxGeometry x="121.75" y="710" width="80" height="30" as="geometry" />
        </mxCell>
        <mxCell id="92DLrKIu1NGl1QOKlz4K-36" value="&lt;font face=&quot;Roboto&quot;&gt;&lt;span style=&quot;font-size: 16px;&quot;&gt;check&lt;/span&gt;&lt;/font&gt;" style="text;strokeColor=none;align=center;fillColor=none;html=1;verticalAlign=middle;whiteSpace=wrap;rounded=0;" parent="1" vertex="1">
          <mxGeometry x="119.75" y="830" width="80" height="30" as="geometry" />
        </mxCell>
        <mxCell id="92DLrKIu1NGl1QOKlz4K-37" value="&lt;font style=&quot;font-size: 16px;&quot; face=&quot;Roboto&quot;&gt;stop&lt;/font&gt;" style="text;strokeColor=none;align=center;fillColor=none;html=1;verticalAlign=middle;whiteSpace=wrap;rounded=0;" parent="1" vertex="1">
          <mxGeometry x="41.75" y="830" width="80" height="30" as="geometry" />
        </mxCell>
        <mxCell id="92DLrKIu1NGl1QOKlz4K-38" value="&lt;font style=&quot;font-size: 16px;&quot; face=&quot;Roboto&quot;&gt;ip&lt;/font&gt;" style="text;strokeColor=none;align=center;fillColor=none;html=1;verticalAlign=middle;whiteSpace=wrap;rounded=0;" parent="1" vertex="1">
          <mxGeometry x="522.75" y="350" width="80" height="30" as="geometry" />
        </mxCell>
        <mxCell id="92DLrKIu1NGl1QOKlz4K-39" value="&lt;font style=&quot;font-size: 16px;&quot; face=&quot;Roboto&quot;&gt;eip&lt;/font&gt;" style="text;strokeColor=none;align=center;fillColor=none;html=1;verticalAlign=middle;whiteSpace=wrap;rounded=0;" parent="1" vertex="1">
          <mxGeometry x="442.75" y="350" width="80" height="30" as="geometry" />
        </mxCell>
        <mxCell id="92DLrKIu1NGl1QOKlz4K-40" value="&lt;font style=&quot;font-size: 16px;&quot; face=&quot;Roboto&quot;&gt;nlb&lt;/font&gt;" style="text;strokeColor=none;align=center;fillColor=none;html=1;verticalAlign=middle;whiteSpace=wrap;rounded=0;" parent="1" vertex="1">
          <mxGeometry x="362.75" y="350" width="80" height="30" as="geometry" />
        </mxCell>
        <mxCell id="92DLrKIu1NGl1QOKlz4K-41" value="&lt;font style=&quot;font-size: 16px;&quot; face=&quot;Roboto&quot;&gt;dbaas&lt;/font&gt;" style="text;strokeColor=none;align=center;fillColor=none;html=1;verticalAlign=middle;whiteSpace=wrap;rounded=0;" parent="1" vertex="1">
          <mxGeometry x="42.75" y="230" width="80" height="30" as="geometry" />
        </mxCell>
        <mxCell id="rqCqFIC3vXE1nPMB3eHS-1" value="" style="shape=image;verticalLabelPosition=bottom;labelBackgroundColor=default;verticalAlign=top;aspect=fixed;imageAspect=0;editableCssRules=.*;image=data:image/svg+xml,PHN2ZyB4bWxucz0iaHR0cDovL3d3dy53My5vcmcvMjAwMC9zdmciIHZpZXdCb3g9IjAgMCA2Mi4zNjIgNjIuMzYyIj48ZGVmcz48c3R5bGU+LnN0MHtmaWxsOiNmZmZ9PC9zdHlsZT48L2RlZnM+PGcgaWQ9IkViZW5lXzNfZmxhY2hfeDVGX3BmYWQiPjxwYXRoIHN0eWxlPSJmaWxsOiNkYTI5MWMiIGQ9Ik0zMS4zMTUgNjIuMzYyQzEzLjQ4MyA2Mi4zNjIgMCA0Ny41OSAwIDMxLjMxNSAwIDEyLjYzMyAxNS41NTcgMCAzMS4wOCAwYzE4LjYwMiAwIDMxLjI4MiAxNS4zNCAzMS4yODIgMzAuOTQ3IDAgMTkuMDUtMTUuNjU3IDMxLjQxNS0zMS4wNDcgMzEuNDE1Ii8+PHBhdGggY2xhc3M9InN0MCIgZD0iTTMxLjE4MSAxMy4xMThjLTkuOTYgMC0xOC4wNjMgOC4xMDMtMTguMDYzIDE4LjA2M1MyMS4yMiA0OS4yNDQgMzEuMTggNDkuMjQ0czE4LjA2My04LjEwMiAxOC4wNjMtMTguMDYzLTguMTAyLTE4LjA2My0xOC4wNjMtMTguMDYzbTAgMzQuMTI2Yy0uMDk1IDAtLjE4Ny0uMDEyLS4yODItLjAxNC0xLjE0Mi0xLjE5Ny0yLjgzMS0zLjM2LTQuMjAzLTYuMjYxaDguOTdjLTEuMzcxIDIuOTAyLTMuMDYgNS4wNjUtNC4yMDIgNi4yNi0uMDk1LjAwMi0uMTg3LjAxNS0uMjgzLjAxNW0tNS4zMzMtOC4yNzVhMjIuNyAyMi43IDAgMCAxLTEuMzgtNi43ODdoMTMuNDI3YTIyLjcgMjIuNyAwIDAgMS0xLjM4IDYuNzg3em0tMTAuNjgtNi43ODdoNy4yOTRhMjQuNiAyNC42IDAgMCAwIDEuMjYgNi43ODdoLTYuNThhMTUuOTQgMTUuOTQgMCAwIDEtMS45NzQtNi43ODdNMzEuMTggMTUuMTE4Yy4wOTUgMCAuMTg3LjAxMi4yODIuMDE0IDEuMTQyIDEuMTk2IDIuODMyIDMuMzYgNC4yMDQgNi4yNjJoLTguOTcxYzEuMzcyLTIuOTAzIDMuMDYxLTUuMDY2IDQuMjA0LTYuMjYyLjA5NC0uMDAyLjE4Ni0uMDE0LjI4MS0uMDE0bTUuMzMzIDguMjc2YTIyLjcgMjIuNyAwIDAgMSAxLjM4IDYuNzg3SDI0LjQ2OGEyMi43IDIyLjcgMCAwIDEgMS4zOC02Ljc4N3pNMjIuNDYxIDMwLjE4aC03LjI5M2ExNS45IDE1LjkgMCAwIDEgMS45NzUtNi43ODdoNi41ODJhMjQuNiAyNC42IDAgMCAwLTEuMjYzIDYuNzg3bTE3LjQzOSAyaDcuMjkzYTE1Ljk0IDE1Ljk0IDAgMCAxLTEuOTc0IDYuNzg4aC02LjU4YTI0LjYgMjQuNiAwIDAgMCAxLjI2LTYuNzg3bTAtMmEyNC42IDI0LjYgMCAwIDAtMS4yNTktNi43ODdoNi41NzhhMTUuOTQgMTUuOTQgMCAwIDEgMS45NzQgNi43ODd6bTMuOTg5LTguNzg3aC02LjAxNWEyNy4yIDI3LjIgMCAwIDAtMy41MDgtNS45NTdjMy44NTUuNzc5IDcuMjAzIDIuOTUxIDkuNTIzIDUuOTU3bS0xNS45LTUuOTU2YTI3LjMgMjcuMyAwIDAgMC0zLjUwNyA1Ljk1NmgtNi4wMWMyLjMyLTMuMDA0IDUuNjY0LTUuMTc2IDkuNTE3LTUuOTU2bS05LjUxNiAyNS41M2g2LjAxNGEyNy4yIDI3LjIgMCAwIDAgMy41MDkgNS45NTdjLTMuODU2LS43OC03LjIwMy0yLjk1MS05LjUyMy01Ljk1Nm0xNS44OTYgNS45NTZhMjcuMiAyNy4yIDAgMCAwIDMuNTA4LTUuOTU1aDYuMDEyYy0yLjMyIDMuMDA0LTUuNjY2IDUuMTc2LTkuNTIgNS45NTUiLz48L2c+PHBhdGggY2xhc3M9InN0MCIgZD0ibTE1LjAzIDEzLjYxIDMuMjMgMy4yMy0xLjQxIDEuNDEtMy4yMy0zLjIzLjAzIDQuNjYtMS45Ny0xLjk2LjAxLTYuMDMgNi4wNC0uMDIgMS45NiAxLjk3em0zMy42OCAyOS4wNy4wMyA0LjY2LTMuMjMtMy4yMy0xLjQxIDEuNDEgMy4yMyAzLjIzLTQuNjYtLjAzIDEuOTYgMS45NyA2LjA0LS4wMi4wMS02LjAzem0tMzMuNjggNi4wNiAzLjIzLTMuMjItMS40Mi0xLjQyLTMuMjIgMy4yMy4wMi00LjY2LTEuOTcgMS45Ny4wMiA2LjAzIDYuMDMuMDEgMS45Ny0xLjk2em0zMy42OS0yOS4wNS4wMy00LjY2LTMuMjMgMy4yMy0xLjQxLTEuNDIgMy4yMy0zLjIyLTQuNjYuMDIgMS45Ny0xLjk3IDYuMDIuMDIuMDIgNi4wM3oiIGlkPSJwZmVpbGUiLz48L3N2Zz4=;" parent="1" vertex="1">
          <mxGeometry x="132.75" y="280" width="62" height="62" as="geometry" />
        </mxCell>
        <mxCell id="rqCqFIC3vXE1nPMB3eHS-2" value="" style="shape=image;verticalLabelPosition=bottom;labelBackgroundColor=default;verticalAlign=top;aspect=fixed;imageAspect=0;editableCssRules=.*;image=data:image/svg+xml,PHN2ZyB4bWxucz0iaHR0cDovL3d3dy53My5vcmcvMjAwMC9zdmciIHZpZXdCb3g9IjAgMCA2Mi4zNjIgNjIuMzYyIj48cGF0aCBzdHlsZT0iZmlsbDojZGEyOTFjIiBkPSJNMzEuMzE1IDYyLjM2MkMxMy40ODMgNjIuMzYyIDAgNDcuNTkgMCAzMS4zMTUgMCAxMi42MzMgMTUuNTU3IDAgMzEuMDggMGMxOC42MDIgMCAzMS4yODIgMTUuMzQgMzEuMjgyIDMwLjk0NyAwIDE5LjA1LTE1LjY1NyAzMS40MTUtMzEuMDQ3IDMxLjQxNSIvPjxwYXRoIHN0eWxlPSJmaWxsOiNmZmYiIGQ9Ik0zMS4xODEgMTMuMTE4Yy05Ljk2IDAtMTguMDYzIDguMTAzLTE4LjA2MyAxOC4wNjNTMjEuMjIgNDkuMjQ0IDMxLjE4IDQ5LjI0NHMxOC4wNjMtOC4xMDIgMTguMDYzLTE4LjA2My04LjEwMi0xOC4wNjMtMTguMDYzLTE4LjA2M20wIDM0LjEyNmMtLjA5NSAwLS4xODctLjAxMi0uMjgyLS4wMTQtMS4xNDItMS4xOTctMi44MzEtMy4zNi00LjIwMy02LjI2MWg4Ljk3Yy0xLjM3MSAyLjkwMi0zLjA2IDUuMDY1LTQuMjAyIDYuMjYtLjA5NS4wMDItLjE4Ny4wMTUtLjI4My4wMTVtLTUuMzMzLTguMjc1YTIyLjcgMjIuNyAwIDAgMS0xLjM4LTYuNzg3aDEzLjQyN2EyMi43IDIyLjcgMCAwIDEtMS4zOCA2Ljc4N3ptLTEwLjY4LTYuNzg3aDcuMjk0YTI0LjYgMjQuNiAwIDAgMCAxLjI2IDYuNzg3aC02LjU4YTE1Ljk0IDE1Ljk0IDAgMCAxLTEuOTc0LTYuNzg3TTMxLjE4IDE1LjExOGMuMDk1IDAgLjE4Ny4wMTIuMjgyLjAxNCAxLjE0MiAxLjE5NiAyLjgzMiAzLjM2IDQuMjA0IDYuMjYyaC04Ljk3MWMxLjM3Mi0yLjkwMyAzLjA2MS01LjA2NiA0LjIwNC02LjI2Mi4wOTQtLjAwMi4xODYtLjAxNC4yODEtLjAxNG01LjMzMyA4LjI3NmEyMi43IDIyLjcgMCAwIDEgMS4zOCA2Ljc4N0gyNC40NjhhMjIuNyAyMi43IDAgMCAxIDEuMzgtNi43ODd6TTIyLjQ2MSAzMC4xOGgtNy4yOTNhMTUuOSAxNS45IDAgMCAxIDEuOTc1LTYuNzg3aDYuNTgyYTI0LjYgMjQuNiAwIDAgMC0xLjI2MyA2Ljc4N20xNy40MzkgMmg3LjI5M2ExNS45NCAxNS45NCAwIDAgMS0xLjk3NCA2Ljc4OGgtNi41OGEyNC42IDI0LjYgMCAwIDAgMS4yNi02Ljc4N20wLTJhMjQuNiAyNC42IDAgMCAwLTEuMjU5LTYuNzg3aDYuNTc4YTE1Ljk0IDE1Ljk0IDAgMCAxIDEuOTc0IDYuNzg3em0zLjk4OS04Ljc4N2gtNi4wMTVhMjcuMiAyNy4yIDAgMCAwLTMuNTA4LTUuOTU3YzMuODU1Ljc3OSA3LjIwMyAyLjk1MSA5LjUyMyA1Ljk1N20tMTUuOS01Ljk1NmEyNy4zIDI3LjMgMCAwIDAtMy41MDcgNS45NTZoLTYuMDFjMi4zMi0zLjAwNCA1LjY2NC01LjE3NiA5LjUxNy01Ljk1Nm0tOS41MTYgMjUuNTNoNi4wMTRhMjcuMiAyNy4yIDAgMCAwIDMuNTA5IDUuOTU3Yy0zLjg1Ni0uNzgtNy4yMDMtMi45NTEtOS41MjMtNS45NTZtMTUuODk2IDUuOTU2YTI3LjIgMjcuMiAwIDAgMCAzLjUwOC01Ljk1NWg2LjAxMmMtMi4zMiAzLjAwNC01LjY2NiA1LjE3Ni05LjUyIDUuOTU1Ii8+PC9zdmc+;" parent="1" vertex="1">
          <mxGeometry x="50" y="640" width="62" height="62" as="geometry" />
        </mxCell>
        <mxCell id="rqCqFIC3vXE1nPMB3eHS-3" value="" style="shape=image;verticalLabelPosition=bottom;labelBackgroundColor=default;verticalAlign=top;aspect=fixed;imageAspect=0;editableCssRules=.*;image=data:image/svg+xml,PHN2ZyB4bWxucz0iaHR0cDovL3d3dy53My5vcmcvMjAwMC9zdmciIHZpZXdCb3g9IjAgMCA2Mi4zNjIgNjIuMzYyIiB2ZXJzaW9uPSIxLjEiIGlkPSJFYmVuZV8zX3NwaXR6X2xpbmluZW4iPjxkZWZzPjxzdHlsZT4uc3Qwe2ZpbGw6I2ZmZn08L3N0eWxlPjwvZGVmcz48cGF0aCBzdHlsZT0iZmlsbDojZGEyOTFjIiBkPSJNMzEuMzE1IDYyLjM2MkMxMy40ODMgNjIuMzYyIDAgNDcuNTkgMCAzMS4zMTUgMCAxMi42MzMgMTUuNTU3IDAgMzEuMDggMGMxOC42MDIgMCAzMS4yODIgMTUuMzQgMzEuMjgyIDMwLjk0NyAwIDE5LjA1LTE1LjY1NyAzMS40MTUtMzEuMDQ3IDMxLjQxNSIvPjxwYXRoIGNsYXNzPSJzdDAiIGQ9Im0zMS4xNyA0Ny41MjUuMDA2LS4wMDZjLS40MDgtLjQwMy0yLjY4MS0yLjc2Mi00LjQ4LTYuNTVoLjU4OGExIDEgMCAxIDAgMC0yaC0xLjQzOWEyMi42IDIyLjYgMCAwIDEtMS4zNzctNi43ODdoMS4yNjNhMSAxIDAgMCAwIDAtMmgtMS4yNjhhMjIuNiAyMi42IDAgMCAxIDEuMzg0LTYuNzg5aDEwLjY2NWEyNCAyNCAwIDAgMSAuODQzIDIuNzk3IDEgMSAwIDEgMCAxLjk0Ny0uNDU1cS0uMTEyLS40ODQtLjI0Mi0uOTU0Yy0uMTMzLS40ODItLjI5LS45MzMtLjQ0My0xLjM4OGg2LjYwOGMuMzU5LjY0NC42ODEgMS4zMTMuOTUgMi4wMTNxLjE2NC40MjUuMzA1Ljg2MmExIDEgMCAwIDAgMS45MDQtLjYxMnEtLjE1OS0uNDkxLS4zNDMtLjk3Yy0yLjY2Ni02LjkyLTkuNDQyLTExLjU2OC0xNi44Ni0xMS41NjgtLjM5IDAtLjc3LjAzNC0xLjE1My4wNThsLS4wMDItLjAwMi0uMDAyLjAwMmMtOS40Mi42MDEtMTYuOTA2IDguNDM1LTE2LjkwNiAxOC4wMDVBMTguMDEgMTguMDEgMCAwIDAgMzAuNDMzIDQ5LjIzbC4wNC4wMDFhMSAxIDAgMCAwIDEtLjk1OSAxIDEgMCAwIDAtLjMwMi0uNzQ2Wm0tNy40MjctOC41NTZoLTYuNjE1YTE2IDE2IDAgMCAxLTEuOTYyLTYuNzg3aDcuMzAyYTI0LjMgMjQuMyAwIDAgMCAxLjI3NSA2Ljc4N20tMS4yOC04Ljc4OGgtNy4yOTVhMTUuOSAxNS45IDAgMCAxIDEuOTc1LTYuNzg3aDYuNThhMjQuNSAyNC41IDAgMCAwLTEuMjYgNi43ODdtNC4yMjEtOC43ODdjMS40NTYtMy4wNzYgMy4yMTgtNS4xOSA0LjAxMi02LjA1Mi4wNy0uMDc2LjEzMy0uMTQuMi0uMjEuMDk2LS4wMDIuMTg5LS4wMTQuMjg1LS4wMTQuMDkzIDAgLjE4NS4wMDkuMjc4LjAxLjExMy4xMTguMjIxLjIyNy4zNDIuMzYyLjgxNC45MDMgMi40NzIgMi45NiAzLjg2MyA1LjkwM3ptMTcuMjE3IDBoLTYuMDQ1YTI3LjcgMjcuNyAwIDAgMC0zLjQ5LTUuOTQxIDE2LjI0IDE2LjI0IDAgMCAxIDkuNTM2IDUuOTRtLTE1Ljg5Ni01Ljk1OGEyNy44IDI3LjggMCAwIDAtMy41MSA1Ljk1OGgtNi4wMjJjMi4zMjItMy4wMDggNS42NzMtNS4xOCA5LjUzMi01Ljk1OG0tOS41NyAyNS41MzNoNi4wN2EyOCAyOCAwIDAgMCAzLjUxNSA1Ljk0OSAxNS45NyAxNS45NyAwIDAgMS05LjU4Ni01Ljk1Ii8+PHBhdGggY2xhc3M9InN0MCIgZD0iTTQ4LjM0NCAzMi4yMzFhMy45MyAzLjkzIDAgMCAwLTIuNDM1LTEuODA3IDMuOTQgMy45NCAwIDAgMC00LjU5NSAyLjI4NmwtNC43MzEtMS4xODZhMy45MyAzLjkzIDAgMCAwLTIuOTcyLTQuMTg1IDMuOTMgMy45MyAwIDAgMC0zIC40NDMgMy45NCAzLjk0IDAgMCAwLTEuODA2IDIuNDM1IDMuOTY4IDMuOTY4IDAgMCAwIDMuODQxIDQuOTI3Yy4zMjMgMCAuNjM3LS4wNTMuOTQ0LS4xMjlsMS45MDQgNC41MDRhMy45MzUgMy45MzUgMCAwIDAtMS41NTUgNC44OSAzLjk0IDMuOTQgMCAwIDAgMi4xNiAyLjEyOWMuNDgxLjE5NS45ODUuMjkzIDEuNDg5LjI5My41MjMgMCAxLjA0Ny0uMTA1IDEuNTQzLS4zMTVhMy45MyAzLjkzIDAgMCAwIDIuMTI4LTIuMTYgMy45MyAzLjkzIDAgMCAwLS4wMjItMy4wMyAzLjk0IDMuOTQgMCAwIDAtNC41OTItMi4yOTRsLTEuOTA0LTQuNTA0YTMuOTQgMy45NCAwIDAgMCAxLjU0NS0xLjc5bDQuNzI0IDEuMTg2YTMuOTM0IDMuOTM0IDAgMCAwIDIuOTcyIDQuMTg2cS40ODQuMTIuOTcuMTJjLjcwOCAwIDEuNDA2LS4xOTIgMi4wMjktLjU2NWEzLjkzIDMuOTMgMCAwIDAgMS44MDctMi40MzUgMy45NCAzLjk0IDAgMCAwLS40NDQtMi45OTltLTEwLjc1NSA3LjkyM2EyLjcgMi43IDAgMCAxIDEuMDE5LjJjLjY3MS4yNzMgMS4xOTYuNzkgMS40NzggMS40NThhMi43IDIuNyAwIDAgMSAuMDE1IDIuMDc1IDIuNyAyLjcgMCAwIDEtMS40NTYgMS40NzcgMi43MTYgMi43MTYgMCAwIDEtMy41NTUtMS40NDEgMi43MTYgMi43MTYgMCAwIDEgMi40OTktMy43NjltLTIuMzEyLTguMzEzYTIuNzExIDIuNzExIDAgMSAxLTUuMjYtMS4zMiAyLjcgMi43IDAgMCAxIDEuMjM3LTEuNjY2IDIuNyAyLjcgMCAwIDEgMi4wNTItLjMwNCAyLjcgMi43IDAgMCAxIDEuNjY3IDEuMjM3Yy4zNzMuNjIxLjQ4MSAxLjM1LjMwNCAyLjA1M20xMi4yOTggMy4wODVhMi43IDIuNyAwIDAgMS0xLjIzNiAxLjY2NyAyLjY4IDIuNjggMCAwIDEtMi4wNTMuMzA0IDIuNyAyLjcgMCAwIDEtMS42NjctMS4yMzcgMi43IDIuNyAwIDAgMS0uMzA0LTIuMDUzIDIuNyAyLjcgMCAwIDEgMS4yMzctMS42NjcgMi43IDIuNyAwIDAgMSAyLjA1My0uMzAzYy43MDMuMTc2IDEuMjk0LjYxNSAxLjY2NyAxLjIzNnMuNDggMS4zNS4zMDMgMi4wNTMiLz48L3N2Zz4=;" parent="1" vertex="1">
          <mxGeometry x="52.75" y="280" width="62" height="62" as="geometry" />
        </mxCell>
        <mxCell id="rqCqFIC3vXE1nPMB3eHS-4" value="" style="shape=image;verticalLabelPosition=bottom;labelBackgroundColor=default;verticalAlign=top;aspect=fixed;imageAspect=0;editableCssRules=.*;image=data:image/svg+xml,PHN2ZyB4bWxucz0iaHR0cDovL3d3dy53My5vcmcvMjAwMC9zdmciIHZpZXdCb3g9IjAgMCA2Mi4zNjIgNjIuMzYyIiB2ZXJzaW9uPSIxLjEiIGlkPSJFYmVuZV8yIj48ZGVmcz48c3R5bGU+LnN0MHtmaWxsOiNmZmZ9PC9zdHlsZT48L2RlZnM+PHBhdGggc3R5bGU9ImZpbGw6I2RhMjkxYyIgZD0iTTMxLjMxNSA2Mi4zNjJDMTMuNDgzIDYyLjM2MiAwIDQ3LjU5IDAgMzEuMzE1IDAgMTIuNjMzIDE1LjU1NyAwIDMxLjA4IDBjMTguNjAyIDAgMzEuMjgyIDE1LjM0IDMxLjI4MiAzMC45NDcgMCAxOS4wNS0xNS42NTcgMzEuNDE1LTMxLjA0NyAzMS40MTUiLz48cGF0aCBjbGFzcz0ic3QwIiBkPSJNMzcuMzEgMzUuNTEzSDI1LjA1MmEyLjgxIDIuODEgMCAwIDEtMi44MDgtMi44MDl2LTguNzg2YTIuODEgMi44MSAwIDAgMSAyLjgwOC0yLjgwOUgzNy4zMWEyLjgxIDIuODEgMCAwIDEgMi44MDggMi44MDl2OC43ODZhMi44MSAyLjgxIDAgMCAxLTIuODA4IDIuODA5TTI1LjA1MiAyMi4zNTljLS44NiAwLTEuNTU4LjctMS41NTggMS41NTl2OC43ODZjMCAuODYuNjk5IDEuNTU5IDEuNTU4IDEuNTU5SDM3LjMxYy44NTkgMCAxLjU1OC0uNyAxLjU1OC0xLjU1OXYtOC43ODZjMC0uODYtLjctMS41NTktMS41NTktMS41NTl6TTMzLjk5IDM3LjcxaC01LjYxNmEuNjI1LjYyNSAwIDAgMSAwLTEuMjVoNS42MTVhLjYyNi42MjYgMCAwIDEgMCAxLjI1Ii8+PHBhdGggY2xhc3M9InN0MCIgZD0iTTMxLjIxIDUyLjY1NWMtMy4xMzcgMC0xNi41Mi05Ljg1LTE2LjUyLTIxLjM1IDAtNi40ODUuMjMtMTAuOTQ0LjQyMi0xMy41NDIuMTU3LTIuMTMzIDEuOTYxLTMuODA0IDQuMTA3LTMuODA0aDIzLjkyNWMyLjE0NSAwIDMuOTQ5IDEuNjcgNC4xMDYgMy44MDQuMTkyIDIuNjAyLjQyIDcuMDYzLjQyIDEzLjU0MiAwIDExLjUtMTMuMzM0IDIxLjM1LTE2LjQ2IDIxLjM1TTE5LjIyIDE1Ljk2YTIuMTIgMi4xMiAwIDAgMC0yLjExMiAxLjk1MWMtLjE5IDIuNTY1LS40MTYgNi45Ny0uNDE2IDEzLjM5NSAwIDEwLjY1NSAxMi44MjIgMTkuMjcxIDE0LjUyIDE5LjM1IDEuNjktLjA3OSAxNC40Ni04LjY5NyAxNC40Ni0xOS4zNSAwLTYuNDE4LS4yMjYtMTAuODI2LS40MTUtMTMuMzk1YTIuMTIgMi4xMiAwIDAgMC0yLjExMi0xLjk1MXoiLz48L3N2Zz4=;" parent="1" vertex="1">
          <mxGeometry x="448.75" y="40" width="62" height="62" as="geometry" />
        </mxCell>
        <mxCell id="rqCqFIC3vXE1nPMB3eHS-5" value="" style="shape=image;verticalLabelPosition=bottom;labelBackgroundColor=default;verticalAlign=top;aspect=fixed;imageAspect=0;editableCssRules=.*;image=data:image/svg+xml,PHN2ZyB4bWxucz0iaHR0cDovL3d3dy53My5vcmcvMjAwMC9zdmciIHZpZXdCb3g9IjAgMCA2Mi4zNjIgNjIuMzYyIiB2ZXJzaW9uPSIxLjEiIGlkPSJFYmVuZV8yIj48ZGVmcz48c3R5bGU+LnN0MHtmaWxsOiNmZmZ9PC9zdHlsZT48L2RlZnM+PHBhdGggc3R5bGU9ImZpbGw6I2RhMjkxYyIgZD0iTTMxLjMxNSA2Mi4zNjJDMTMuNDgzIDYyLjM2MiAwIDQ3LjU5IDAgMzEuMzE1IDAgMTIuNjMzIDE1LjU1NyAwIDMxLjA4IDBjMTguNjAyIDAgMzEuMjgyIDE1LjM0IDMxLjI4MiAzMC45NDcgMCAxOS4wNS0xNS42NTcgMzEuNDE1LTMxLjA0NyAzMS40MTUiLz48cGF0aCBjbGFzcz0ic3QwIiBkPSJNMzEuMjEgNTIuNjU1Yy0zLjEzNyAwLTE2LjUyLTkuODUtMTYuNTItMjEuMzUgMC02LjQ4NS4yMy0xMC45NDQuNDIyLTEzLjU0Mi4xNTctMi4xMzMgMS45NjEtMy44MDQgNC4xMDctMy44MDRoMjMuOTI1YzIuMTQ1IDAgMy45NDkgMS42NyA0LjEwNiAzLjgwNC4xOTIgMi42MDIuNDIgNy4wNjMuNDIgMTMuNTQyIDAgMTEuNS0xMy4zMzQgMjEuMzUtMTYuNDYgMjEuMzVNMTkuMjIgMTUuOTZhMi4xMiAyLjEyIDAgMCAwLTIuMTEyIDEuOTUxYy0uMTkgMi41NjUtLjQxNiA2Ljk3LS40MTYgMTMuMzk1IDAgMTAuNjU1IDEyLjgyMiAxOS4yNzEgMTQuNTIgMTkuMzUgMS42OS0uMDc5IDE0LjQ2LTguNjk3IDE0LjQ2LTE5LjM1IDAtNi40MTgtLjIyNi0xMC44MjYtLjQxNS0xMy4zOTVhMi4xMiAyLjEyIDAgMCAwLTIuMTEyLTEuOTUxeiIvPjxwYXRoIGNsYXNzPSJzdDAiIGQ9Ik0zMS4xODMgMjUuNzQ2Yy0uMzg0IDAtLjc0NS0uMTUtMS4wMTYtLjQyYTEuNDQgMS40NCAwIDAgMSAwLTIuMDMyYy4yNzEtLjI3MS42MzItLjQyIDEuMDE2LS40MnMuNzQ1LjE0OSAxLjAxNi40MmMuNTYuNTYuNTYgMS40NzIgMCAyLjAzMi0uMjcxLjI3LS42MzIuNDItMS4wMTYuNDIiLz48cGF0aCBjbGFzcz0ic3QwIiBkPSJNMzcuNTg3IDI0LjY2OGMtLjQwMi0xLjczOC0xLjU0My0zLjI2My0zLjEzNC00LjE4My0xLjU4Ni0uOTE4LTMuNDcxLTEuMTUxLTUuMTcyLS42MzRhNi41MiA2LjUyIDAgMCAwLTMuOTEzIDMuMjMgNi41NiA2LjU2IDAgMCAwLS43NiAzLjA1MWMwIC42NzUuMTA1IDEuMzQ3LjMxMiAyYTYuNTQgNi41NCAwIDAgMCAzLjgzNSA0LjExNXYzLjI0NGwtMS4wMzMgMS4wMzRhLjE4LjE4IDAgMCAwLS4wNTIuMTI3cS4wMDEuMDc0LjA1Mi4xMjVsMS4wMzQgMS4wMzN2LjA4M0wyNy43MiAzOC45M2MtLjAzNC4wMzMtLjA1MS4wNzctLjA1MS4xMjNzLjAxOC4wOS4wNS4xMjNsMS4wMzggMS4wMzZ2LjA4M2wtMS4wMjkgMS4wMjhhLjE4Ni4xODYgMCAwIDAgMCAuMjY0bDEuMDMgMS4wMjh2LjMxOGMwIC41Ny4yMjEgMS4xMDYuNjI0IDEuNTFsLjQ4Ny40ODZjLjM1Mi4zNTEuODE5LjU0NCAxLjMxNi41NDRzLjk2NC0uMTk0IDEuMzE2LS41NDZsLjQ0My0uNDQ0YTIuMyAyLjMgMCAwIDAgLjY2Ny0xLjYxM1YzMi4yNDhjMi45OS0xLjE4NyA0LjctNC40NCAzLjk3Ny03LjU4Wm0tNC41NTUgNi40NjFhMS4wMiAxLjAyIDAgMCAwLS42NzMuOTU0VjQyLjg3YzAgLjI3Ny0uMTA3LjUzNy0uMzAzLjczbC0uNDQuNDQzYS42MDcuNjA3IDAgMCAxLS44NjQgMGwtLjQ4Ni0uNDg3YS44Ny44NyAwIDAgMS0uMjYtLjYyM3YtLjgzNWwtLjY0MS0uNjQzLjYzLS42My4wMTItLjAxM3YtMS4xMThsLS42NDItLjY0MS42My0uNjMuMDEyLS4wMTN2LTEuMTE4bC0uNjQyLS42NDIuNjQyLS42NDEtLjAwMS0zLjkyN2MwLS40MjItLjI3LS44MDQtLjY3LS45NTJhNS4yOSA1LjI5IDAgMCAxLTMuMjI0LTMuMzc4IDUuMjggNS4yOCAwIDAgMSAuMzYzLTQuMDkgNS4zIDUuMyAwIDAgMSAzLjE2OC0yLjYxNWMxLjM3Mi0uNDEzIDIuODk2LS4yMjQgNC4xODQuNTIxIDEuMjkxLjc0NyAyLjIxOCAxLjk4IDIuNTQxIDMuMzgxLjA5MS4zOTIuMTM3Ljc5My4xMzcgMS4xOWE1LjM0IDUuMzQgMCAwIDEtMy40NzMgNC45OSIvPjwvc3ZnPg==;" parent="1" vertex="1">
          <mxGeometry x="371.75" y="400" width="62" height="62" as="geometry" />
        </mxCell>
        <mxCell id="rqCqFIC3vXE1nPMB3eHS-6" value="" style="shape=image;verticalLabelPosition=bottom;labelBackgroundColor=default;verticalAlign=top;aspect=fixed;imageAspect=0;editableCssRules=.*;image=data:image/svg+xml,PHN2ZyB4bWxucz0iaHR0cDovL3d3dy53My5vcmcvMjAwMC9zdmciIHZpZXdCb3g9IjAgMCA2Mi4zNjIgNjIuMzYyIiB2ZXJzaW9uPSIxLjEiIGlkPSJFYmVuZV82Ij48ZGVmcz48c3R5bGU+LnN0MHtmaWxsOiNmZmZ9PC9zdHlsZT48L2RlZnM+PHBhdGggc3R5bGU9ImZpbGw6I2RhMjkxYyIgZD0iTTMxLjMxNSA2Mi4zNjRDMTMuNDgzIDYyLjM2NCAwIDQ3LjU5MiAwIDMxLjMxNiAwIDEyLjYzNSAxNS41NTcuMDAyIDMxLjA4LjAwMmMxOC42MDIgMCAzMS4yODIgMTUuMzQgMzEuMjgyIDMwLjk0NyAwIDE5LjA1LTE1LjY1NyAzMS40MTUtMzEuMDQ3IDMxLjQxNSIgaWQ9IkhpbnRlcmdydW5kIi8+PGcgaWQ9IklDT04iPjxwYXRoIGNsYXNzPSJzdDAiIGQ9Ik00MC42MDYgMTUuNTc2Yy42MzggMCAxLjE2Ni4yOTggMS42MjQuOTA1YTkwIDkwIDAgMCAxIDMuMTY0IDQuNDcxYy42NC45NjYuODAzIDEuODc3LjUgMi43ODQtMS4wNiAzLjE2NS0zLjIwNCA1LjcyNS02LjM3NSA3LjYwOWExIDEgMCAwIDAtLjQ1OC42MTMgMSAxIDAgMCAwIC4xMDkuNzU4Yy4yNzEuNDU1LjkxLjYyMiAxLjM3LjM0OCAzLjU5NS0yLjEzNiA2LjAzNC01LjA2MSA3LjI1MS04LjY5NC40OTctMS40ODcuMjQ0LTMuMDUtLjczLTQuNTIzYTkyIDkyIDAgMCAwLTMuMjM2LTQuNTdjLTEuMjA3LTEuNjAxLTMuMDA4LTIuMDk2LTQuOTQ0LTEuMzU3bC0uMjQzLjA4OGE3IDcgMCAwIDAtLjg1Ny4zNTljLTEuMTIuNTkzLTIuMjU1LjY5NC0zLjkxNS4zNTEtMi43NS0uNTY4LTUuMzU3LS41MDctNy43NDQuMTgzLS4xNzQuMDQ5LS41NjguMTAyLTEuMjktLjA4NmEyNiAyNiAwIDAgMS0xLjYyMy0uNWMtLjc2NS0uMjUzLTEuNDktLjQ5My0yLjI0NC0uNjY0LTEuMjMtLjI4LTIuNDQuMjM1LTMuMzIgMS40MDZsLS45MDUgMS4xOTdjLS44NDUgMS4xMTItMS43MTggMi4yNjItMi41NDQgMy40NTEtMS4wNzggMS41NTMtMS4yOTYgMy4zNDMtLjYzIDUuMTc2IDEuMDg3IDIuOTg4IDMuMTY4IDUuNTY4IDYuMzYyIDcuODg3YS45OC45OCAwIDAgMCAuNzQ0LjE3OCAxIDEgMCAwIDAgLjY1My0uNCAxIDEgMCAwIDAgLjE3OC0uNzQ1IDEgMSAwIDAgMC0uNC0uNjUyYy0yLjktMi4xMDUtNC42OTgtNC4zMTQtNS42NTctNi45NTItLjQ0Ny0xLjIzLS4zMTgtMi4zMjYuMzkyLTMuMzUxLjc5OC0xLjE0OSAxLjY1Ny0yLjI3OSAyLjQ4Ni0zLjM3MWwuOTItMS4yMTdjLjQwMi0uNTM2LjgxNi0uNzU0IDEuMjY4LS42NTkuNjYzLjE1IDEuMzAzLjM2MiAxLjk4MS41ODcuNjIyLjIwNiAxLjIyMy40MDYgMS44MzYuNTY1LjkxLjIzNSAxLjcwMi4yNiAyLjM0OS4wNzEgMi4wNzMtLjYgNC4zNTUtLjY0OCA2Ljc4NS0uMTQ1IDEuNDE3LjI5MiAzLjI5NS40OTYgNS4yNTItLjU0MS4xNy0uMDkuMzUyLS4xNTYuNTM0LS4yMjJsLjM0Ny0uMTI3cS41NDYtLjIxIDEuMDEtLjIxWiIvPjxwYXRoIGNsYXNzPSJzdDAiIGQ9Ik0yNS40IDQwLjYzNGMtLjU5IDAtMS4wMTMuMTU4LTEuMzIxLjQ3OC0uNDMyLjQ1LS41MDMgMS4wNi0uMjE2IDEuODcyLjA2NC4yNzguMjIyLjcwMy42NzkgMS40MDMuOTQ3IDEuNDQ2IDIuNDkgMi4zMjUgNC4xMyAyLjM1MWguMDcxYzEuNTM4IDAgMi45Ni0uNzc0IDMuOTA0LTIuMTI0LjU2Ny0uODEuOTcxLTIuOCAxLjUxOS02LjE5LjA4NS0uNTMuMTU2LS45NjkuMjA3LTEuMjM0LjA5Mi0uNDY0LjQ2LS44ODguODE3LTEuMjk3LjE4OS0uMjIuMzY3LS40MjYuNTA3LS42MjdsLjA4LS4xMzRjLjM5OS0uNzcuNjY0LTEuNTIyLjgtMi4yNzguMDcxLS4zODcuMDY5LS43NjguMDY2LTEuMTA0YTkgOSAwIDAgMSAuMDE0LS43MjVsLjAxLS4xMmMuMDAzLS4wMTUuMjU5LTEuNDEyLjg3OC0yLjQ0IDEuMjUtMi4wNjkgMS4yODItMy41NzEgMS4xOS00LjI4M2wtLjAyLS4xNTMuMDkzLS4xMjJhMSAxIDAgMCAwIC4xNTEtLjkyMSAxLjAwNyAxLjAwNyAwIDAgMC0xLjI2Ni0uNjMxIDEuNTI2IDEuNTI2IDAgMCAwLS45NzQgMS45MThjLjAxOC4wNjIuMzE0IDEuMTcxLS44ODYgMy4xNTctLjgzNCAxLjM4Mi0xLjE0NyAzLjE0OC0xLjE2NiAzLjM2NmwtLjAxOC4yMTFjLS4wMS4yNzgtLjAwOC41MjMtLjAwNi43NTN2LjExOWEzIDMgMCAwIDEtLjAzNS42MTkgNiA2IDAgMCAxLS41NzIgMS42NDRjLS4xMS4xNTQtLjE5Ny4yNTUtLjI4OS4zNmwtLjA2Ny4wNzljLS40NTUuNTI0LTEuMDc0IDEuMjM2LTEuMjY4IDIuMjItLjA1NS4yODEtLjEzLjc0My0uMjIgMS4zMDQtLjUyOCAzLjI1OC0uODc3IDQuODU1LTEuMTcgNS4zNDEtLjc0MiAxLjA2My0xLjY2NSAxLjI4Ny0yLjMxIDEuMjkyLS45MS0uMDE0LTEuNzY3LS40Ny0yLjM1OC0xLjI1bC0uNjg3LS45MDggMS4wOTEuMzIxYy4xNjcuMDUuMzUyLjEwNS41NTguMTc0LjU0My4xNzYgMS4xMS4wMzMgMS41Mi0uMzggMS4xNC0xLjE1NCAxLjAzLTQuODA2Ljc3Ny01LjU0Ni0uNDgyLTEuNDA3LS45NDEtMS45NC0xLjU3Ni0yLjY3NmEyMyAyMyAwIDAgMS0uNjA3LS43MjJjLS40NjktLjU3My0uNDk0LTEuMjU4LS41MjQtMi4wNTItLjAxNi0uNDQ5LS4wMzItLjkwNC0uMTM3LTEuMzQ5bC0uMDI3LS4xNTJhNy41IDcuNSAwIDAgMC0xLjAwNi0yLjc2OWMtMS4wOTItMS44MDUtLjk0My0yLjg5LS45MDItMy4wOS4yNzktLjg0Ny0uMTU2LTEuNzE3LS45NTktMS45ODVhLjk4Ljk4IDAgMCAwLS43NjIuMDUyIDEgMSAwIDAgMC0uMzUxIDEuNWwuMDkzLjEyMy0uMDIuMTUyYy0uMDkyLjcxMi0uMDYgMi4yMTUgMS4xOSA0LjI4My41MDIuODMuNjg0IDEuNjAyLjc1IDIuMTAzbC4wNC4yMTRjLjA2NS4yMzEuMDc4LjU5Mi4wOTIuOTc0LjAzNi45NzUuMDc5IDIuMTY5Ljk3IDMuMjU2LjIzNi4yOTQuNDQyLjUzMi42MjUuNzQ1LjU5Ny42OTIuODYxLjk5OCAxLjIwMyAxLjk4OC4xMzIuNTgzLjA4NCAyLjA1Mi0uMDgzIDIuOWwtLjA3OC4zOTgtLjM5LS4xMWMtLjcxLS4xOTktMS4yODUtLjI5OS0xLjc1NC0uMjk5WiIvPjwvZz48cGF0aCBjbGFzcz0ic3QwIiBkPSJNNTEuODggMzguNDljLS4xMy0xLjkzLTMuNDgtMi45OC02LjY1LTIuOTgtMy4xNiAwLTYuNTEgMS4wNS02LjY0IDIuOTgtLjAxLjA0LS4wMS4wOC0uMDEuMTJ2MTAuMThjMCAyLjAxIDMuNDMgMy4xIDYuNjUgMy4xIDMuMjMgMCA2LjY2LTEuMDkgNi42Ni0zLjFWMzguNjFjMC0uMDQgMC0uMDgtLjAxLS4xMm0tMS4yNCAxMC4zYzAgLjc1LTIuMTEgMS44NS01LjQxIDEuODVzLTUuNC0xLjEtNS40LTEuODV2LTEuNDNjLjk3LjU0IDIuNjYgMS4xMyA1LjQgMS4xMyAyLjc3IDAgNC40NS0uNTggNS40MS0xLjEyem0wLTIuOTRjLS40Mi4zNi0xLjkgMS4zOS01LjQxIDEuMzktMy40OCAwLTQuOTctMS4wMS01LjQtMS4zOHYtMS44OWMuOTcuNTQgMi42NiAxLjEzIDUuNCAxLjEzIDIuNzcgMCA0LjQ1LS41OCA1LjQxLTEuMTJ6bTAtMy4zOWMtLjQyLjM2LTEuOSAxLjM5LTUuNDEgMS4zOS0zLjQ4IDAtNC45Ny0xLjAxLTUuNC0xLjM4di0yYzEuMjguODIgMy4zOCAxLjI1IDUuNCAxLjI1czQuMTMtLjQzIDUuNDEtMS4yNXptLTUuNDEtMS45OWMtMy4zIDAtNS40LTEuMS01LjQtMS44NiAwLS43NSAyLjEtMS44NSA1LjQtMS44NXM1LjQxIDEuMSA1LjQxIDEuODVjMCAuNzYtMi4xMSAxLjg2LTUuNDEgMS44NiIgaWQ9IlRvbm5lIi8+PC9zdmc+;" parent="1" vertex="1">
          <mxGeometry x="132.75" y="160" width="62" height="62" as="geometry" />
        </mxCell>
        <mxCell id="rqCqFIC3vXE1nPMB3eHS-7" value="" style="shape=image;verticalLabelPosition=bottom;labelBackgroundColor=default;verticalAlign=top;aspect=fixed;imageAspect=0;editableCssRules=.*;image=data:image/svg+xml,PHN2ZyB4bWxucz0iaHR0cDovL3d3dy53My5vcmcvMjAwMC9zdmciIHZpZXdCb3g9IjAgMCA2Mi4zNjIgNjIuMzYyIiB2ZXJzaW9uPSIxLjEiIGlkPSJFYmVuZV81Ij48ZGVmcz48c3R5bGU+LnN0MHtmaWxsOiNmZmZ9PC9zdHlsZT48L2RlZnM+PHBhdGggc3R5bGU9ImZpbGw6I2RhMjkxYyIgZD0iTTMxLjMxNSA2Mi4zNjJDMTMuNDgzIDYyLjM2MiAwIDQ3LjU5IDAgMzEuMzE1IDAgMTIuNjMzIDE1LjU1NyAwIDMxLjA4IDBjMTguNjAyIDAgMzEuMjgyIDE1LjM0IDMxLjI4MiAzMC45NDcgMCAxOS4wNS0xNS42NTcgMzEuNDE1LTMxLjA0NyAzMS40MTUiLz48cGF0aCBjbGFzcz0ic3QwIiBkPSJNNDMuOTY2IDEyLjM4Yy0uNDI3LS4wMjQtMS41MjUgMC0zLjM1NyAxLjI4NC0uNDkuMzQzLTEuMjYxLjc1NC0xLjc2Ni45NjUtLjI2OS4wODQtLjgxNS4xMzItMS45MTguMTc4LTEuNjU3LjA2Ni0zLjAwOC40Mi00LjI3MyAxLjExNi0zLjgxOCAyLjA5Ny02LjE0NCA3LjYxLTcuMTM4IDkuOTYzbC0uMjY1LjYyYy0uMDk3LjIxNi0uMjM0LjQyNC0uNTkyLjUyMS0zLjc5Ny4xNDktNy4zNyAxLjc5Mi05LjExOSAzLjI2Mi0uMTMuMTEtLjI0Ni4yNC0uMzYyLjM3NmExIDEgMCAwIDAtLjIyNSAxLjAyMyAxIDEgMCAwIDAgLjc5Ny42NmMuMzcyLjA1Ni42ODIuMDY1IDEuMDguMDczLjc0LjAxNCAxLjc1NS4wMzIgNC40My42MjJsLjM4My4wODUtLjEwMy4zOGMtLjU5NCAyLjE5Ny0zLjM1OSA3LjU2Mi01LjAzMiA4Ljk3MmExIDEgMCAwIDAtLjEyIDEuNDA4IDEuMDMgMS4wMyAwIDAgMCAxLjQwOS4xMjFjMi4wNzgtMS43NSA2LjM0OS05LjQ1IDUuODEtMTEuNzAyLS4xMjEtLjUxMi0uNDgtLjg4NS0uOTU2LS45OThhNTMgNTMgMCAwIDAtMi41ODctLjU0OWwtMS4zMDItLjIzOCAxLjIzNC0uNDhjMS4xMDQtLjQzIDIuODI3LS45NTQgNC43NjQtMS4wMDdhMSAxIDAgMCAwIC4xNjEtLjAxN2MxLS4xOSAxLjc0Ni0uNzc2IDIuMTU1LTEuNjkybC4yODMtLjY2MmMuOTEyLTIuMTYgMy4wNDctNy4yMjQgNi4yNi04Ljk5Ljk5NC0uNTQ3IDIuMDMzLS44MTUgMy4zNjctLjg2OSAxLjM0Mi0uMDUzIDIuMTEzLS4xMTcgMi41OTUtLjMxNy43NjItLjMxNyAxLjM4Ni0uNzggMS45MzYtMS4xODcuNjU1LS40ODUgMS4xMzItLjc4MyAxLjQyLS44ODYuMjEzLS4wNjkuMjk4LS4wNy40NTQtLjA0OS40NDQuMDYxLjc1LjY1Ny4yOTQgMS4xNjgtLjI5NS4zMjYtLjU1NS41OTYtLjgyNS44NzQtMS4wNzQgMS4xMTItMi4yOSAyLjM3LTMuMzQyIDMuOTktLjc1NiAxLjM4Mi0uOTc1IDEuNjktMS43ODYgMi41MTgtLjg2Ljg3OC0uNjIgMS45NTctLjM2NyAyLjY5Mi4xMzYuMzkzLjMwNi43NzcuNDc1IDEuMTYyLjM2Mi44Mi42NzYgMS41My42IDIuMjExLS4wMjMuMTQ0LS4wODQuMzg2LS4zNzIgMS4wNjJsLS4zMTcuNzQ4LS4zNjMtLjcyOGExMSAxMSAwIDAgMC0uNTMyLS45MzJsLS4wNTYtLjA5MWE0IDQgMCAwIDEtLjItLjM1IDEgMSAwIDAgMC0xLjMzLS40NzUgMS4wMDQgMS4wMDQgMCAwIDAtLjQ3OSAxLjMzMmMuMDg2LjE3OS4yMDguMzgyLjM1Mi42MTYuNDYzLjc0OSAxLjA5NiAxLjc3MiAxLjA5NCAzLjgxNCAwIC4zNzguMjIuNzMuNTYuODk3LjM0Ny4xNy43NS4xMjcgMS4wNTQtLjEwNy40NS0uMzU0IDIuNDY3LTQuNTYyIDIuNTc2LTUuNTU1LjEzNC0xLjIyNS0uMzM4LTIuMjk3LS43NTQtMy4yNDNhMTQgMTQgMCAwIDEtLjQxNy0xLjAxNWMtLjA3LS4yLS4xLS4zMjUtLjExMi0uMzk5bC0uMDMzLS4xODcuMTMzLS4xMzdjLjkxNi0uOTQ1IDEuMjQ3LTEuNDQ3IDEuOTg4LTIuODA1LjkwOC0xLjM5NSAyLjAwNS0yLjUzIDMuMDY4LTMuNjI5bC4xMTQtLjExOHEuMzk2LS40MS43NjMtLjgwMmMuNDQ0LS40NzkuOTc3LTEuNDc1Ljc2NS0yLjYxNy0uMDU4LS4zMTYtLjIxNS0xLjczLTEuOTc1LTEuODhaIi8+PHBhdGggY2xhc3M9InN0MCIgZD0iTTMyLjYyMSAzMi43MDRhMSAxIDAgMCAwLS44NTIuNDc2Yy0uMTg1LjI5Ny00LjU2IDcuMjctOS4wNDUgMTAuMzQ5YTEgMSAwIDAgMC0uNDE4LjY0IDEgMSAwIDAgMCAuMTU4Ljc0N2MuMy40NDIuOTUxLjU2MyAxLjM5LjI2MSA0LjktMy4zNjIgOS40MjUtMTAuNjM4IDkuNjE2LTEwLjk0NmExLjAwMiAxLjAwMiAwIDAgMC0uODQ5LTEuNTI3bTE5LjI1OSA1Ljc4NGMtLjEzLTEuOTMtMy40OC0yLjk4LTYuNjUtMi45OC0zLjE2IDAtNi41MSAxLjA1LTYuNjQgMi45OC0uMDEuMDQtLjAxLjA4LS4wMS4xMnYxMC4xOGMwIDIuMDEgMy40MyAzLjEgNi42NSAzLjEgMy4yMyAwIDYuNjYtMS4wOSA2LjY2LTMuMXYtMTAuMThjMC0uMDQgMC0uMDgtLjAxLS4xMm0tMS4yNCAxMC4zYzAgLjc1LTIuMTEgMS44NS01LjQxIDEuODVzLTUuNC0xLjEtNS40LTEuODV2LTEuNDNjLjk3LjU0IDIuNjYgMS4xMyA1LjQgMS4xMyAyLjc3IDAgNC40NS0uNTggNS40MS0xLjEyem0wLTIuOTRjLS40Mi4zNi0xLjkgMS4zOS01LjQxIDEuMzktMy40OCAwLTQuOTctMS4wMS01LjQtMS4zOHYtMS44OWMuOTcuNTQgMi42NiAxLjEzIDUuNCAxLjEzIDIuNzcgMCA0LjQ1LS41OCA1LjQxLTEuMTJ6bTAtMy4zOWMtLjQyLjM2LTEuOSAxLjM5LTUuNDEgMS4zOS0zLjQ4IDAtNC45Ny0xLjAxLTUuNC0xLjM4di0yYzEuMjguODIgMy4zOCAxLjI1IDUuNCAxLjI1czQuMTMtLjQzIDUuNDEtMS4yNXptLTUuNDEtMS45OWMtMy4zIDAtNS40LTEuMS01LjQtMS44NiAwLS43NSAyLjEtMS44NSA1LjQtMS44NXM1LjQxIDEuMSA1LjQxIDEuODVjMCAuNzYtMi4xMSAxLjg2LTUuNDEgMS44NiIvPjwvc3ZnPg==;" parent="1" vertex="1">
          <mxGeometry x="212.75" y="160" width="62" height="62" as="geometry" />
        </mxCell>
        <mxCell id="rqCqFIC3vXE1nPMB3eHS-8" value="" style="shape=image;verticalLabelPosition=bottom;labelBackgroundColor=default;verticalAlign=top;aspect=fixed;imageAspect=0;editableCssRules=.*;image=data:image/svg+xml,PHN2ZyB4bWxucz0iaHR0cDovL3d3dy53My5vcmcvMjAwMC9zdmciIHZpZXdCb3g9IjAgMCA2Mi4zNjIgNjIuMzYyIiB2ZXJzaW9uPSIxLjEiIGlkPSJFYmVuZV81Ij48ZGVmcz48c3R5bGU+LnN0MHtmaWxsOiNmZmZ9PC9zdHlsZT48L2RlZnM+PHBhdGggc3R5bGU9ImZpbGw6I2RhMjkxYyIgZD0iTTMxLjMxNSA2Mi4zNjRDMTMuNDgzIDYyLjM2NCAwIDQ3LjU5MiAwIDMxLjMxNiAwIDEyLjYzNSAxNS41NTcuMDAyIDMxLjA4LjAwMmMxOC42MDIgMCAzMS4yODIgMTUuMzQgMzEuMjgyIDMwLjk0NyAwIDE5LjA1LTE1LjY1NyAzMS40MTUtMzEuMDQ3IDMxLjQxNSIgaWQ9IkhpbnRlcmdydW5kIi8+PHBhdGggY2xhc3M9InN0MCIgZD0iTTIyLjA0OSAzNC4xM2MtLjE2NS4yNzItLjIzNy44OTUtLjA3MSAxLjI4NyAxLjMxNiAzLjExMSAyLjcyIDYuMjM0IDQuMDc3IDkuMjU0LjE2My4zNjEuNTc2Ljc4IDEuMjM0LjU0Ny41MDItLjE4LjY5Mi0uNTU4LjU4Mi0xLjE1NmEyLjQgMi40IDAgMCAwLS4xODctLjUxOGwtMS4xNDQtMi41N3EtLjgwNi0xLjgwOC0xLjYxLTMuNjIxYTEyIDEyIDAgMCAxLS4yOS0uNzVsLS4wNDMtLjExNmEuNTIuNTIgMCAwIDEgLjA0Mi0uMzk0LjQ1LjQ1IDAgMCAxIC4zMjctLjIwNmMyLjQyOS0uMjkyIDQuMzE2LTEuMzcgNS43Ny0zLjI5My4xNjUtLjIyMi41MjctLjMyMi43MzYtLjMwNCAyLjMxNi40MDQgNC4yNjMuMTQgNS45ODgtLjhsLjAxMy0uMDA0LjAxNi0uMDEuMDAyLjAwM2MuMTgzLS4wNi40LjAxNi40OC4xOWEuNC40IDAgMCAxIC4wNC4xNDdoLjAyYS40LjQgMCAwIDEtLjAzNS4xNTZsLS4zNzkuODQ0YTM1IDM1IDAgMCAxLS44OTYgMS45MmMtLjUwNS45ODItLjE0NiAxLjM0LjE2OSAxLjUyMy43MS40MTQgMS4yMjctLjEzMSAxLjQ3NS0uNDkzIDEuNDctMi4xMzggMi4wMTktNC4xNTIgMS43MjUtNi4zMzktLjA2Ny0uNDk3LS41MzUtMS4xNjItMS4wNjMtMS4zMDgtLjQ2NC0uMTIyLS44MzkuMDI2LTEuMTg1LjQ3MWE0IDQgMCAwIDEtLjQ4NC41MjVjLTEuMzY3IDEuMjE0LTMuMDI1IDEuNjY3LTQuOTMgMS4zNTMtLjE3My0uMDMtLjM2Mi0uMjQzLS4zNzEtLjQxOHEtLjAzMi0uNTQ3LS4wNTgtMS4wNzVjLS4wNDYtLjg4My0uMDk3LTEuODg2LS4yLTIuODQ3YS44NC44NCAwIDAgMC0uMzE2LS41OTcuNzQuNzQgMCAwIDAtLjU5Mi0uMTI3cS0uNjMyLjExMy0uODY0LjQ2OGMtLjE3Ni4yNy0uMTEuNTY2LS4wNDEuODhsLjAzLjE0MmMuMzk2IDEuOTc0LS4xOTMgMy45NDktMS41NjMgNS4zMzgtMS4zNzIgMS4zOS0zLjI1MyAxLjk4My01LjE2IDEuNjI4LS4wODctLjAxNy0uOTE1LS4yNy0xLjI0NC4yN20tMTQuMDMtNC40MjRjLS4zMiAwLS41ODYuMTYzLS43Ny40OC0uMzcyLjY0LS4wMjggMS4wNjIuMzI3IDEuMzA0IDMuMzc0IDIuMjg3IDYuNTA0IDIuMTI3IDkuMDczLS40NzguODMtLjg0MyAxLjU3LTEuNzk0IDIuMjg4LTIuNzEzcS4zODktLjUwMS43ODUtLjk5NWEuNS41IDAgMCAxIC4zMzctLjE2MmMuMjY1LjAyMi4zNjMuMTg2LjM5NC4yNTUuMTE1LjI1LjI0Mi41MjcuMzgzLjc5Ny4yMjYuNDM0LjUxNC43MTQuODM1LjgxLjIzOC4wNy41MDIuMDMzLjc1OC0uMTEuNjQ3LS4zNjYuNDMxLTEuMDczLjEzNy0xLjYwMy0uODY5LTEuNTYtMS4wMjYtMy4xMjItLjQ2OS00LjY0LjcxNC0xLjk0MyAyLjM4Ny0zLjM4NCA0LjQ3NS0zLjg1MyAyLjEwNS0uNDc0IDQuMjU1LjEyMSA1Ljc0OCAxLjU5Mi4xOTcuMTkyLjM4Ni4zOTMuNTc3LjU5NGwuMDY3LjA3MnEuMjQxLjI2LjQ4OC41MTFjMS4yNzMgMS4yODggMi45MSAyLjAwNSA0LjQyNSAxLjkxIDEuNDI1LS4wOSAyLjcwMi0uODYzIDMuNzk4LTIuMjk1cS4xMTQtLjE1MS4yMjctLjMwOGMuMTk2LS4yNy4zOTgtLjU0OC42NDEtLjc4OS40NjItLjQ1NyAxLjE1Ni0xLjE0NyAyLjA0NC0uNjg3Ljg1Mi40NCAxLjY5NC45NTUgMi40MzYgMS40MWwuMjM4LjE0NGMuNDEuMjE1Ljc5My40NS43MjQuODI5LjAwNi4zMjctLjU0OC40ODItLjk2NS41NjRsLS4xNzQuMDQ0Yy0xIC4yNDUtMS45OTguNDkxLTIuOTcyLjc2MS0uNTAyLjE0LS44MjguMzEyLS45Ny41MTItLjU2Ljc4OS0xLjAxNyAxLjY2LTEuNDAyIDIuNDE1LS4yLjM5NS0uMzE2Ljk0Ny4yNyAxLjMzNy41MjMuMzQ1Ljk4Ni4yNTQgMS4zOC0uMjcyLjM2NC0uNDkuNjQtLjkzMS44NDQtMS4zNDguMjgtLjU3My42NzYtLjg4NCAxLjI4NS0xLjAwOWE0MSA0MSAwIDAgMCAyLjM5OS0uNTkzbC42NjgtLjE3OGMuOTA2LS4yNCAxLjQ2LS44MjggMS42NDgtMS43NDguMjAyLS45ODgtLjIyMy0xLjk5Ny0xLjA4NS0yLjU3MmEzNyAzNyAwIDAgMC0zLjUyLTIuMDg2Yy0uODUtLjQzOC0uNzQtMS4wMi0uNTQ3LTEuNDguMTA0LS4yNDkuNDEzLS44NzYuNTc3LTEuMTE4YTEuMTYgMS4xNiAwIDAgMCAuMDYtLjg3My44NC44NCAwIDAgMC0uNDUtLjUxNmMtLjQ4LS4xOTUtMS4wMDYuMDU2LTEuMzQ4LjY2Ny0uMjkzLjUyNC0uNTMxIDEuMDc4LS44MDcgMS43MTgtLjE2LjM3MS0uMjkuNjc4LS40NCAxLjAxLS42MyAxLjU1OC0yLjE4OSAzLjA5LTIuODU1IDMuNzQzLS42ODMuNjcyLTIuMDczIDEuMDU1LTIuOTE2LjU1OC0uODYxLS41MDUtMS43NTgtMS4wNjMtMi40MS0xLjgyLTEuNDc1LTEuNzEyLTMuNTYzLTIuNjk5LTUuODc5LTIuNzc3LTIuNDA3LS4wODMtNC43Ny44MjYtNi4zMjMgMi40LS45Mi45MzEtMS40OCAyLjA5NC0yLjAyMiAzLjIxOS0uMTY4LjM0OC0uMzAyLjYyNi0uNDQzLjkwMi0xLjMwNSAyLjU1OC0yLjU0NSA0LjgyMi00LjUxIDYuNjE0LTEuNjYgMS41MTgtMy4zNTkgMS43MjgtNS4zNDYuNjU3YTkgOSAwIDAgMS0uNDktLjI5Yy0uMjIyLS4xMzYtLjQ0OC0uMjc2LS42ODgtLjM4NXEtLjI4Ny0uMTMtLjUzNi0uMTMiIGlkPSJJQ09OIi8+PHBhdGggY2xhc3M9InN0MCIgZD0iTTUxLjg4IDM4LjQ5Yy0uMTMtMS45My0zLjQ4LTIuOTgtNi42NS0yLjk4LTMuMTYgMC02LjUxIDEuMDUtNi42NCAyLjk4LS4wMS4wNC0uMDEuMDgtLjAxLjEydjEwLjE4YzAgMi4wMSAzLjQzIDMuMSA2LjY1IDMuMSAzLjIzIDAgNi42Ni0xLjA5IDYuNjYtMy4xVjM4LjYxYzAtLjA0IDAtLjA4LS4wMS0uMTJtLTEuMjQgMTAuM2MwIC43NS0yLjExIDEuODUtNS40MSAxLjg1cy01LjQtMS4xLTUuNC0xLjg1di0xLjQzYy45Ny41NCAyLjY2IDEuMTMgNS40IDEuMTMgMi43NyAwIDQuNDUtLjU4IDUuNDEtMS4xMnptMC0yLjk0Yy0uNDIuMzYtMS45IDEuMzktNS40MSAxLjM5LTMuNDggMC00Ljk3LTEuMDEtNS40LTEuMzh2LTEuODljLjk3LjU0IDIuNjYgMS4xMyA1LjQgMS4xMyAyLjc3IDAgNC40NS0uNTggNS40MS0xLjEyem0wLTMuMzljLS40Mi4zNi0xLjkgMS4zOS01LjQxIDEuMzktMy40OCAwLTQuOTctMS4wMS01LjQtMS4zOHYtMmMxLjI4LjgyIDMuMzggMS4yNSA1LjQgMS4yNXM0LjEzLS40MyA1LjQxLTEuMjV6bS01LjQxLTEuOTljLTMuMyAwLTUuNC0xLjEtNS40LTEuODYgMC0uNzUgMi4xLTEuODUgNS40LTEuODVzNS40MSAxLjEgNS40MSAxLjg1YzAgLjc2LTIuMTEgMS44Ni01LjQxIDEuODYiIGlkPSJUb25uZSIvPjwvc3ZnPg==;" parent="1" vertex="1">
          <mxGeometry x="291.75" y="160" width="62" height="62" as="geometry" />
        </mxCell>
        <mxCell id="rqCqFIC3vXE1nPMB3eHS-9" value="" style="shape=image;verticalLabelPosition=bottom;labelBackgroundColor=default;verticalAlign=top;aspect=fixed;imageAspect=0;editableCssRules=.*;image=data:image/svg+xml,PHN2ZyB4bWxucz0iaHR0cDovL3d3dy53My5vcmcvMjAwMC9zdmciIHZpZXdCb3g9IjAgMCA2Mi4zNjIgNjIuMzYyIiB2ZXJzaW9uPSIxLjEiIGlkPSJFYmVuZV81Ij48ZGVmcz48c3R5bGU+LnN0MHtmaWxsOiNmZmZ9PC9zdHlsZT48L2RlZnM+PHBhdGggc3R5bGU9ImZpbGw6I2RhMjkxYyIgZD0iTTMxLjMxNSA2Mi4zNjRDMTMuNDgzIDYyLjM2NCAwIDQ3LjU5MiAwIDMxLjMxNiAwIDEyLjYzNSAxNS41NTcuMDAyIDMxLjA4LjAwMmMxOC42MDIgMCAzMS4yODIgMTUuMzQgMzEuMjgyIDMwLjk0NyAwIDE5LjA1LTE1LjY1NyAzMS40MTUtMzEuMDQ3IDMxLjQxNSIgaWQ9IkhpbnRlcmdydW5kIi8+PHBhdGggY2xhc3M9InN0MCIgZD0iTTIzLjk3NiAzNC43MDlxMS4wNTkgMCAxLjkzLjQ5OGMuMjA4LjEyMS4zOTQuMzA0LjU4Mi40OTZsLjI3MS4yNzctLjI4Ni4yNjJjLS43MTMuNjUtMS4yMDMgMS4zNTYtMS40OTggMi4xNTUtLjQ2IDEuMjQ3LS4zMTMgMi42MDEuMzkzIDMuNjIuNjk0IDEuMDAxIDEuODU1IDEuNTgxIDMuMTg2IDEuNTkxaC4wMTNjLjYwNiAwIDEuMDQ1LS4zNSAxLjA5My0uODcuMDUxLS41NTQtLjMwMy0uOTY4LS45MjQtMS4wODJsLS4zMS0uMDVjLS4yNDEtLjAzOC0uNDk0LS4wNzYtLjcxLS4xNjItLjg3LS4zNTUtMS4yMTEtMS4xMDgtLjk2Mi0yLjEyLjIwNC0uODI4LjcxMS0xLjQ4NyAxLjU1LTIuMDE1IDEuMzg1LS44NyAyLjI2NC0xLjg5OCAyLjY5LTMuMTQ1YTcuMSA3LjEgMCAwIDAgLjI5My0zLjMzOSA5IDkgMCAwIDAtLjIxNy0uOTcxYy0uMTUtLjU2LS42NjUtLjkxMi0xLjE3Ni0uNzkzYS45OC45OCAwIDAgMC0uNjIyLjQ0NiAxLjEgMS4xIDAgMCAwLS4xMDcuODQzYy4yNTguOTkyLjI4NiAxLjg5Ny4wODYgMi43NjdhMy41IDMuNSAwIDAgMS0uNTggMS4yOThsLS4yODMuMzktLjMwOC0uMzY5YTQuNSA0LjUgMCAwIDAtMS43NzYtMS4yOGwtLjQ0OC0uMTgyLjI4Ni0uMzg4Yy4yLS4yNzMuNDA4LS41Ny41NzctLjg5Ni43MzItMS40MjIuNDMtMi45NTgtLjc3Mi0zLjkxMi0uNTI1LS40MTYtMS4xNi0uNjktMS45OTgtLjg2LTEuNy0uMzQ4LTMuMDcxLS45NjYtNC4xOS0xLjg5LTEuNTAzLTEuMjQtMi4xNDgtMi43NjgtMS45Ny00LjY3LjItMi4xNTUgMS41MTgtMy45MDUgMy41MjYtNC42ODIgMS44NjItLjcyMiA0LjQ2Ny0uMzkzIDYuMS4yMiAxLjEuNDEgMi4wNjIgMS4zMzggMy4wMzIgMi4zMzMuMzE1LjMyMyAxLjAwNSAxLjEzIDEuNjE1IDEuODRsLjIwNi4yNGMuMzYuNDIuNjc1Ljc4Ny44NTIuOTg0LjIxMS4yMzUuNDExLjM4My42MTQuNDU0LjQxNS4xNDYuODI1LS4wMDYgMS4wNy0uMzk4LjI0NC0uMzkuMjE4LS44MjUtLjA3LTEuMTZsLS40NTQtLjUzM2MtLjc2LS44OTUtMi4xNzQtMi41Ni0yLjgwNy0zLjE5Ny0xLjItMS4yMDgtMi41NTQtMi4wNTItNC4wMjYtMi41MDctMS4zMDEtLjQwMy0zLjIyMy0uNjEzLTQuNDcyLS40ODktMi45ODUuMjk4LTUuMzE2IDEuODYzLTYuNTYzIDQuNDEtLjc0IDEuNTA4LS44NTUgMy4yMTYtLjM0IDUuMDc3LjQ5MyAxLjc4IDEuNjYzIDMuMjE4IDMuNTc4IDQuMzk4IDEuMjk1LjggMi43NDMgMS4yMjggMy45ODkgMS41NDIuMzQuMDg2LjYzLjE4Ny44OS4zMS41OC4yNzguNzU4Ljg3Ny40NjQgMS41NjUtLjI2LjYwNi0uNjMxIDEuMDE1LTEuMTM3IDEuMjUtLjgxMy4zOC0xLjYzNi43NDctMi40NTggMS4xMWwtLjMwNS4xMzdxLS42NDcuMjg3LTEuMjkyLjU4bC0uNDIzLjE4OWMtLjg5Ni4zOTctMS44MTQuODA0LTIuNTI3IDEuNTc0YTMuODIgMy44MiAwIDAgMC0xLjAwNCAyLjE5NGMtLjEyIDEtLjAyOCAxLjc5Mi4yODkgMi40ODguNjY2IDEuNDc2IDIuMTE5IDIuMTggMy43MDggMS43ODQgMS4wODctLjI3IDEuODg2LS44MDcgMi4zNzEtMS41OS4yMzItLjM3NS4zMzEtLjgzMy40MDMtMS4yNzFhLjkxLjkxIDAgMCAwLS43NTMtMS4wNDdjLS41MTQtLjA5NC0uOTE4LjE3NC0xLjE1Ljc0NC0uMTEuMjczLS4yMTMuNTMtLjM2NS43MzctLjE3NC4yMzgtLjY1Ni40NTUtMS4xNDUuNTItLjM4NC4wNDctLjcwOC0uMDAyLS44NzEtLjEzN2ExLjM4IDEuMzggMCAwIDEtLjUxOS0uOTEyYy0uMjMzLTEuNTIyLjIyNy0yLjMxNCAxLjc2LTMuMDI3IDEuMTEtLjUxNiAyLjAzNy0uOTMxIDMuMDM2LTEuMTkyYTUuNCA1LjQgMCAwIDEgMS4zNjUtLjE4N20xMS43NDItMi43MjRjLjQzNC4zMjkuODc3LjY0NiAxLjMyLjk2NGwuMTYuMTE2Yy41NDYuMzkgMS4wOTIuNzgzIDEuNjIzIDEuMTg5LjQxOC4zMi43NDIuNjguOTkxIDEuMDdhOS44IDkuOCAwIDAgMSAxLjg5LS42NzEgNC4yIDQuMiAwIDAgMC0uNzAxLTEuMDA4Yy0uNTAzLS41MTctMS4wNzUtLjk2OC0xLjYyOC0xLjQwNWwtLjE0LS4xMXEtLjI0NC0uMTkzLS40ODQtLjM5YTEwIDEwIDAgMCAwLS43MzQtLjUzOGwtLjE4My0uMTI0LjAyLS4yMmMuMTYyLTEuNzUgMS42OTUtMy4zNjcgMy40MTctMy42MDQuODktLjEyMiAxLjc1My0uNDAxIDIuNTktLjY3MmwuMjA0LS4wNjVjMS4xODgtLjM4MyAyLjMxLS4yODQgMy4zMzcuMjkxLjgxNy40NTcgMS4xNzcgMS4yNTEgMS4xMDIgMi40My0uMDgzIDEuMzE4LS44ODQgMi40ODMtMS45NDYgMi44MzItLjc5OC4yNjktMS42MjcuMTItMi40LS40MjMtLjM2Ny0uMjU0LS40NjktLjY4NS0uMzExLTEuMzE2LjAzNC0uMTAxLjA1OC0uMTcyLjA3Mi0uMjQ0LjEwMi0uNDktLjE1LS45NjUtLjU5OC0xLjEzNS0uNDQyLS4xNzItLjk0LjAyMi0xLjE5LjQ1Ny0uMzY3LjYzMy0uNDU2IDEuNDQzLS4yNDQgMi4yMjIuMjEzLjc4NC43MSAxLjQ0NiAxLjM2NCAxLjgxNyAxLjQzNC44MSAyLjg0NC45NDMgNC4xOTQuMzk3IDEuMTk4LS40OSAyLjA4OC0xLjQzNCAyLjY0NS0yLjgwOS41MDctMS4yNS41NDgtMi41LjEyMi0zLjcxMy0uNDU1LTEuMjk0LTEuNDAzLTIuMTk0LTIuODE3LTIuNjczLTEuNDQ3LS40ODgtMi45NDYtLjQwNy00LjcyLjI1N3EtLjg5NS4zMzgtMS41OTUuMzJjLTEuMjA5LS4wMzEtMi4yMzktLjU5MS0zLjA1OC0xLjY2NWwtLjA5My0uMTI3YTMgMyAwIDAgMC0uMTk2LS4yNTZjLS4zNTgtLjM5Ny0uODY5LS40NTYtMS4zLS4xNi0uNDQuMzA0LS41NDkuODM0LS4yNjYgMS4yOS40ODYuNzggMS4wNDggMS4zODQgMS43MTcgMS44NDRsLjM4Ny4yNjUtLjM0NC4zMTlhNi41IDYuNSAwIDAgMC0xLjY0NyAyLjM2OWwtLjIyMy41NTEtLjQtLjQzOWMtLjE0Ni0uMTY1LS4yMjgtLjI3OC0uMzExLS4zOTFhOSA5IDAgMCAwLS4yNTQtLjM0Yy0uMzgzLS40ODItLjkyNy0uNTc4LTEuMzgtLjI0NS0uNDE3LjMwNC0uNTEuODc1LS4yMjQgMS4zNTkuNTEuODU1IDEuMjQgMS42MzUgMi4yMzIgMi4zODRtMS41ODcgOC4zOWEyLjI3IDIuMjcgMCAwIDEtMS40MjYtLjU4NmMtLjI4My0uMjUzLS40MTctLjU3OS0uMzY3LS44OTQuMDQ4LS4zMTMuMjc3LS41OC42MjYtLjczMy40LS4xNzguNzcxLS40MTMuOC0uOTM0YS45OC45OCAwIDAgMC0uMzgzLS44My45Ny45NyAwIDAgMC0uOTA1LS4xNTVjLTEuMTA2LjM2LTEuODEgMS4xMi0yLjAzNiAyLjE5Ny0uMjEyIDEuMDEuMDg2IDEuOTM0Ljg4NyAyLjc0Ni41NTYuNTY0IDEuMjkyLjk0IDIuMTI3IDEuMDkuMjIyLjA0LjQ1LjA0Ny42NzcuMDU1eiIgaWQ9IklDT04iLz48cGF0aCBjbGFzcz0ic3QwIiBkPSJNNTEuODggMzguNDljLS4xMy0xLjkzLTMuNDgtMi45OC02LjY1LTIuOTgtMy4xNiAwLTYuNTEgMS4wNS02LjY0IDIuOTgtLjAxLjA0LS4wMS4wOC0uMDEuMTJ2MTAuMThjMCAyLjAxIDMuNDMgMy4xIDYuNjUgMy4xIDMuMjMgMCA2LjY2LTEuMDkgNi42Ni0zLjFWMzguNjFjMC0uMDQgMC0uMDgtLjAxLS4xMm0tMS4yNCAxMC4zYzAgLjc1LTIuMTEgMS44NS01LjQxIDEuODVzLTUuNC0xLjEtNS40LTEuODV2LTEuNDNjLjk3LjU0IDIuNjYgMS4xMyA1LjQgMS4xMyAyLjc3IDAgNC40NS0uNTggNS40MS0xLjEyem0wLTIuOTRjLS40Mi4zNi0xLjkgMS4zOS01LjQxIDEuMzktMy40OCAwLTQuOTctMS4wMS01LjQtMS4zOHYtMS44OWMuOTcuNTQgMi42NiAxLjEzIDUuNCAxLjEzIDIuNzcgMCA0LjQ1LS41OCA1LjQxLTEuMTJ6bTAtMy4zOWMtLjQyLjM2LTEuOSAxLjM5LTUuNDEgMS4zOS0zLjQ4IDAtNC45Ny0xLjAxLTUuNC0xLjM4di0yYzEuMjguODIgMy4zOCAxLjI1IDUuNCAxLjI1czQuMTMtLjQzIDUuNDEtMS4yNXptLTUuNDEtMS45OWMtMy4zIDAtNS40LTEuMS01LjQtMS44NiAwLS43NSAyLjEtMS44NSA1LjQtMS44NXM1LjQxIDEuMSA1LjQxIDEuODVjMCAuNzYtMi4xMSAxLjg2LTUuNDEgMS44NiIgaWQ9IlRvbm5lIi8+PC9zdmc+;" parent="1" vertex="1">
          <mxGeometry x="370.75" y="160" width="62" height="62" as="geometry" />
        </mxCell>
        <mxCell id="rqCqFIC3vXE1nPMB3eHS-10" value="" style="shape=image;verticalLabelPosition=bottom;labelBackgroundColor=default;verticalAlign=top;aspect=fixed;imageAspect=0;editableCssRules=.*;image=data:image/svg+xml,PHN2ZyB4bWxucz0iaHR0cDovL3d3dy53My5vcmcvMjAwMC9zdmciIHZpZXdCb3g9IjAgMCA2Mi4zNjIgNjIuMzYyIj48ZGVmcz48c3R5bGU+LnN0MHtmaWxsOiNmZmZ9LnN0MXtmaWxsOiNkYTI5MWN9PC9zdHlsZT48L2RlZnM+PHBhdGggY2xhc3M9InN0MSIgZD0iTTMxLjMxNSA2Mi4zNjRDMTMuNDgzIDYyLjM2NCAwIDQ3LjU5MiAwIDMxLjMxNiAwIDEyLjYzNSAxNS41NTcuMDAyIDMxLjA4LjAwMmMxOC42MDIgMCAzMS4yODIgMTUuMzQgMzEuMjgyIDMwLjk0NyAwIDE5LjA1LTE1LjY1NyAzMS40MTUtMzEuMDQ3IDMxLjQxNSIgaWQ9IkhpbnRlcmdydW5kIi8+PGcgaWQ9IklDT04iPjxwYXRoIGNsYXNzPSJzdDAiIGQ9Ik0zMC40NjMgMTkuMTkxYy0uOTgxIDAtMS43MDguNjI1LTIuMDYgMS4wMnEtLjAwOS4wMTMtLjAyLjAyM2MtLjU4Ny41NjYtMy4xOTYgNS4zNDctMy40MjQgNy41NS0uMTUgMS40NDMuNjc4IDMuNDUxIDEuNDggNS4zOTQuNTAxIDEuMjE2Ljg4IDIuMTYzLjkwMyAyLjU1MWwuMDYyIDguMWMwIDEuMzE0LjY4NCAyLjUwOSAxLjgzIDMuMiAxLjMuNzgxIDMuMDc4LjgxOCA0LjQzLjA4M2wxMC45MzUtNi4zNDJjMy4yOS0yLjEwMiAzLjI2MS0zLjg4MSAzLjIyMy02LjEzM2wtLjAwOC0xMS4zNDRjMC0yLjcyNi0uMjA0LTQuNjI4LTIuOTMyLTYuMTc1bC05LjI4LTQuOTE1YTguMTggOC4xOCAwIDAgMC03Ljk0LS4wNGwtOC43MDcgNC45NjZjLTIuMzYzIDEuMzA2LTQuNDggMi43NTgtNC40OCA2LjE2NHYxMC41NDljMCAyLjkwOCAxLjQ1OCA1LjY1NCAzLjkwMSA3LjM0NC4wNjIuMDQ0LjYwNS4zODggMy41NTMgMi4yMTRhLjk5OS45OTkgMCAwIDAgMS41LTEuMDc4IDEgMSAwIDAgMC0uNDQ2LS42MmwtLjAwNy0uMDA1LS42Ni0uNDA5Yy0uOTU2LS41OTQtMi42Mi0xLjYyNS0yLjc5My0xLjc0LTEuOTExLTEuMzIxLTMuMDQ4LTMuNDUzLTMuMDQ4LTUuNzA2di0xMC41NWMwLTEuOTQ1Ljc3NS0yLjkzNyAzLjQ2LTQuNDE4bDguNzA2LTQuOTY2YTYuMTggNi4xOCAwIDAgMSA1Ljk5OS4wNDlsOS4yNzkgNC45MTVjMS42NDguOTM1IDEuODk1IDEuODI5IDEuODk1IDQuNDJ2MTAuNTVxMCAuNDMzLjAxLjgyN2MuMDM0IDIuMTIzLjA0NyAyLjkxNi0yLjI2NSA0LjM5M2wtMTAuODc1IDYuMzA2Yy0uNzM0LjQtMS43MDMuMzc3LTIuNDE4LS4wNTNhMS43MyAxLjczIDAgMCAxLS44NjItMS40ODNsLS4wMDItNi43ODctLjA2Mi0xLjRjLS4wMzEtLjcyMS0uNDItMS42OTYtMS4wNTItMy4yMjgtLjc1Ny0xLjgzNi0xLjQzLTMuNTU3LTEuMzQtNC40MjguMTc3LTEuNzEgMi40MDMtNS43NzMgMi43ODYtNi4yNzMuMjM4LS4zMDEuNDc5LS40NTIuNTg2LS40OTZhLjQuNCAwIDAgMSAuMTQyLS4wMjhsMS45MzItLjAwNGguMDAxcS4wNjMgMCAuMTIyLjAyYy4xMjUuMDQzLjI1LjE0Mi40NjMuMzM1LjAxNi4wMTQuMDg2LjA4LjEuMDk3LjQ4LjYxMiAyLjY4MiA0LjY2NiAyLjg1NiA2LjM1LjE1IDEuNDQ3LS44OTMgMy42NDQtMS4zMzkgNC41ODItLjEwMi4yMTItLjE4MS4zODEtLjIzLjQ5OGExIDEgMCAwIDAgLjUzIDEuMzEgMS4wMSAxLjAxIDAgMCAwIDEuMzEzLS41MzFjLjAzNy0uMDg4LjA5Ni0uMjE1LjE3LS4zNy41ODUtMS4yMjggMS43NTUtMy42ODUgMS41NDYtNS42OTctLjIzLTIuMjA1LTIuODM4LTYuOTgzLTMuNDI1LTcuNTQ4LS40MzQtLjQxNi0xLjA4NC0xLjA0Mi0yLjA4LTEuMDQyeiIgaWQ9Ikdyb3VwLWNvcHkiLz48L2c+PHBhdGggY2xhc3M9InN0MSIgZD0iTTQ1LjIzIDUzLjE2NWMtMy44MTcgMC03LjkyNS0xLjM3LTcuOTI1LTQuMzc1VjM4LjYxYzAtLjA1NiAwLS4xNTcuMDE4LS4yODMuMjYtMi44MTEgNC4yNjUtNC4wOTMgNy45MDctNC4wOTMgMy42NDggMCA3LjY1NyAxLjI4MSA3LjkxNiA0LjA5My4wMi4xMjYuMDIuMjI3LjAyLjI4M3YxMC4xOGMwIDMuMDA2LTQuMTE0IDQuMzc1LTcuOTM2IDQuMzc1IiBpZD0iVG9ubmVfT3V0bGluZSIvPjxwYXRoIGNsYXNzPSJzdDAiIGQ9Ik01MS44OCAzOC40OWMtLjEzLTEuOTMtMy40OC0yLjk4LTYuNjUtMi45OC0zLjE2IDAtNi41MSAxLjA1LTYuNjQgMi45OC0uMDEuMDQtLjAxLjA4LS4wMS4xMnYxMC4xOGMwIDIuMDEgMy40MyAzLjEgNi42NSAzLjEgMy4yMyAwIDYuNjYtMS4wOSA2LjY2LTMuMVYzOC42MWMwLS4wNCAwLS4wOC0uMDEtLjEybS0xLjI0IDEwLjNjMCAuNzUtMi4xMSAxLjg1LTUuNDEgMS44NXMtNS40LTEuMS01LjQtMS44NXYtMS40M2MuOTcuNTQgMi42NiAxLjEzIDUuNCAxLjEzIDIuNzcgMCA0LjQ1LS41OCA1LjQxLTEuMTJ6bTAtMi45NGMtLjQyLjM2LTEuOSAxLjM5LTUuNDEgMS4zOS0zLjQ4IDAtNC45Ny0xLjAxLTUuNC0xLjM4di0xLjg5Yy45Ny41NCAyLjY2IDEuMTMgNS40IDEuMTMgMi43NyAwIDQuNDUtLjU4IDUuNDEtMS4xMnptMC0zLjM5Yy0uNDIuMzYtMS45IDEuMzktNS40MSAxLjM5LTMuNDggMC00Ljk3LTEuMDEtNS40LTEuMzh2LTJjMS4yOC44MiAzLjM4IDEuMjUgNS40IDEuMjVzNC4xMy0uNDMgNS40MS0xLjI1em0tNS40MS0xLjk5Yy0zLjMgMC01LjQtMS4xLTUuNC0xLjg2IDAtLjc1IDIuMS0xLjg1IDUuNC0xLjg1czUuNDEgMS4xIDUuNDEgMS44NWMwIC43Ni0yLjExIDEuODYtNS40MSAxLjg2IiBpZD0iVG9ubmUiLz48L3N2Zz4=;" parent="1" vertex="1">
          <mxGeometry x="450.75" y="160" width="62" height="62" as="geometry" />
        </mxCell>
        <mxCell id="rqCqFIC3vXE1nPMB3eHS-11" value="" style="shape=image;verticalLabelPosition=bottom;labelBackgroundColor=default;verticalAlign=top;aspect=fixed;imageAspect=0;editableCssRules=.*;image=data:image/svg+xml,PHN2ZyB4bWxucz0iaHR0cDovL3d3dy53My5vcmcvMjAwMC9zdmciIHZpZXdCb3g9IjAgMCA2Mi4zNjIgNjIuMzYyIiB2ZXJzaW9uPSIxLjEiIGlkPSJFYmVuZV81Ij48ZGVmcz48c3R5bGU+LnN0MHtmaWxsOiNmZmZ9PC9zdHlsZT48L2RlZnM+PHBhdGggc3R5bGU9ImZpbGw6I2RhMjkxYyIgZD0iTTMxLjMxNSA2Mi4zNjRDMTMuNDgzIDYyLjM2NCAwIDQ3LjU5MiAwIDMxLjMxNiAwIDEyLjYzNSAxNS41NTcuMDAyIDMxLjA4LjAwMmMxOC42MDIgMCAzMS4yODIgMTUuMzQgMzEuMjgyIDMwLjk0NyAwIDE5LjA1LTE1LjY1NyAzMS40MTUtMzEuMDQ3IDMxLjQxNSIgaWQ9IkhpbnRlcmdydW5kIi8+PGcgaWQ9IklDT04iPjxwYXRoIGNsYXNzPSJzdDAiIGQ9Ik0yNC4yNjQgMTQuNTU4cS0uNTYxIDAtLjk5NC4zNmMtMS4yMzIgMS4wMzItLjU5OSAzLjY0NCAxLjAwMiA4LjEwNS4xMS4zMDYuMTkuNTMuMjQ0LjY5LjAyNS4wNzQuMDcyLjE0OC4xMjEuMjI0bC4xMTMuMTczLS4wODUuMTg4Yy00LjM3MyA5LjU3NC0xMC44MjUgMTcuOTE0LTEwLjg4OSAxNy45OTZhMSAxIDAgMCAwLS4yMDEuNzM3IDEgMSAwIDAgMCAuMzc4LjY2NWMuNDI2LjMzIDEuMDc1LjI0NyAxLjQwNC0uMTc1YTg3IDg3IDAgMCAwIDIuNTg1LTMuNTdsLjQ5Ni0uNzE5LjE4Ljg1NGMuMTg4Ljg5LjI3NyAxLjc4NS4yNzIgMi43NC0uMDAyLjU1LjQ0NCAxLjAwMS45OTUgMS4wMDQuNTU0IDAgMS4wMDItLjQ0NiAxLjAwNS0uOTk1LjAxNC0yLjkyLS43NjYtNC44NDUtMS4wMjMtNS40NzhsLS4wNzMtLjE4LjEwNi0uMTYzYTEwNyAxMDcgMCAwIDAgMi41Mi00LjA5M2wuMTA4LS4xODZoLjIyMWMxLjYgMCA0LjM3NC0uNDEgNS41MTItMy4xNDJhMSAxIDAgMCAwIC4wMDItLjc2NSAxIDEgMCAwIDAtLjU0LS41NDMuOTk0Ljk5NCAwIDAgMC0xLjMwOC41MzhjLS4zMjYuNzgzLS45NTcgMS4zMzgtMS44NzMgMS42NDhsLS45MDIuMzA0LjQ1Mi0uODM4YTc5IDc5IDAgMCAwIDIuOTU2LTYuMDU5bC4wODUtLjMyNGMtLjAwMyAwIC4yODktMS45NTQgMi4wODUtNC4xNTggMS45MTQtMi4zNDggMi40Ni0yLjUwNyA0LjQ5NC0xLjMxMiAxLjY4Ljk4NCAzLjA4Ljg2OSA0LjIuNzczLjkzMy0uMDggMS43MzgtLjE0NyAyLjczLjMzLjUyMy4zNS44NyAxLjU1OSAxLjMwNyAzLjU0LjM1MiAxLjU3NC42NTIgMi45MiAxLjMzMiAzLjcwNS4zNjkuNDI2Ljg0MS45MiAxLjMzIDEuNDMgMS4yNDcgMS4zIDEuOTk4IDIuMTEzIDIuMTQ1IDIuNDEybC4wNDYuMDkzLS4wMDguMTAyYy0uMDE1LjIwNC0uMTkyLjU1LS40OS43ODYtLjIyNC4xNzItLjQyMy4yNDItLjYwOC4yMS0uMjY4LS4wNjgtLjYwNC0uMzMtMS4yMi0uODU2LS44ODItLjc1LTIuMDg3LTEuNzc3LTMuNjg2LTEuOTA1LTEuMDQ3LS4wODMtMS45MDgtLjYzLTIuODE5LTEuMjEtMS4zMjUtLjg0My0zLjEyOS0xLjk5MS01LjA3NC0uMjU2LS4yLjE3Ny0uMzE3LjQyMi0uMzMyLjY4OXMuMDc0LjUyMy4yNTIuNzIyYTEuMDAzIDEuMDAzIDAgMCAwIDEuNDEyLjA4MWMuNzQtLjY2MiAxLjE2Ni0uNTA1IDIuNjY0LjQ0OC45NzcuNjIyIDIuMTkzIDEuMzk2IDMuNzM4IDEuNTIuOTUuMDc1IDEuNzU4Ljc2MiAyLjU0IDEuNDI2LjY5NS41OTQgMS40MDUgMS4yIDIuMjQ1IDEuMzIxLjg5LjEyOCAxLjc5Ny0uMjE5IDIuNDktLjk1My42ODMtLjcyMyAxLjAwOS0xLjY2My44NS0yLjQ1My0uMTc3LS44OS0xLjE0MS0xLjkzMy0yLjctMy41NmwtLjA3OC0uMDhjLS40MzQtLjQ1Ni0uODU1LS44OTYtMS4xODUtMS4yNzgtLjI5Ny0uMzQzLS41NDItMS4yNi0uODktMi44My0uNDYtMi4wNjYtLjkzNC00LjIwMi0yLjM4LTQuOS0xLjQ5My0uNzE4LTIuNzU4LS42MTMtMy43NzUtLjUyNy0uNDI4LjAzNy0uODguMDY4LTEuMzMxLjAzNWwtLjI1OC0uMDItMS41OS01LjM1YS45OS45OSAwIDAgMC0xLjI0Ni0uNjczYy0uNTI3LjE1Ny0uODMuNzE1LS42NzMgMS4yNDRsMS4zMjcgNC40NjQtNC41ODMtNS41NGExLjAwMyAxLjAwMyAwIDAgMC0xLjQwOC0uMTMyIDEgMSAwIDAgMC0uMTMyIDEuNDA4bDIuNzE4IDMuMjg2LS4zOTguMjE4Yy0uNDAyLjIyLS44Mi41NDQtMS4yOC45ODdsLS4yNC4yMzItLjI1Ny0uMjEyYy0uNjQ3LS41MjktMS41NC0xLjEyLTIuNzMtMS44MDVxLS43NzUtLjQ0OC0xLjQwMi0uNDQ4Wm0xLjQ5IDYuNjYzLS4yNzgtLjg1NWMtLjQwMy0xLjI0MS0uNjY4LTIuMjE2LS43ODgtMi44OThsLS4xNDItLjgxMS43MDUuNDI1Yy43NjUuNDYgMS4zNzguODc0IDEuODI0IDEuMjNsLjI3OC4yMi0uMjA2LjI5YTEzIDEzIDAgMCAwLS45ODEgMS42eiIvPjxwYXRoIGNsYXNzPSJzdDAiIGQ9Ik0yNS4xMiAzNS45MTRhMSAxIDAgMCAwLS44ODYuNTM0Yy0uNTY2IDEuMDc1LS42NiAyLjIwMy0uMjc1IDMuMjYuODg0IDIuNDIzIDMuOTIgMy43MTIgNC4yNjMgMy44NWwxLjE0LjQ2NS4yMjItMS4yMDhjLjY3OC0zLjY5OCAxLjg5My05LjI2NSAyLjQxLTEwLjEwMmwuMDYyLS4wNzVhLjk5Ny45OTcgMCAwIDAgLjAzOC0xLjQxMyAxIDEgMCAwIDAtLjY5OC0uMzEyYy0uMjYtLjAwMi0uNTIxLjA5LS43MTQuMjc0LS40MDUuMzgyLTEuMjkzIDIuMTA4LTIuNzEgOS4zOGwtLjExMi41NzMtLjQ3NC0uMzRjLS44MTEtLjU4LTEuMzMyLTEuMTgtMS41NS0xLjc4Mi0uMTktLjUyNS0uMTM2LTEuMDYuMTY3LTEuNjM4YTEgMSAwIDAgMC0uODgyLTEuNDY2Ii8+PC9nPjxwYXRoIGNsYXNzPSJzdDAiIGQ9Ik01MS44OCAzOC40OWMtLjEzLTEuOTMtMy40OC0yLjk4LTYuNjUtMi45OC0zLjE2IDAtNi41MSAxLjA1LTYuNjQgMi45OC0uMDEuMDQtLjAxLjA4LS4wMS4xMnYxMC4xOGMwIDIuMDEgMy40MyAzLjEgNi42NSAzLjEgMy4yMyAwIDYuNjYtMS4wOSA2LjY2LTMuMVYzOC42MWMwLS4wNCAwLS4wOC0uMDEtLjEybS0xLjI0IDEwLjNjMCAuNzUtMi4xMSAxLjg1LTUuNDEgMS44NXMtNS40LTEuMS01LjQtMS44NXYtMS40M2MuOTcuNTQgMi42NiAxLjEzIDUuNCAxLjEzIDIuNzcgMCA0LjQ1LS41OCA1LjQxLTEuMTJ6bTAtMi45NGMtLjQyLjM2LTEuOSAxLjM5LTUuNDEgMS4zOS0zLjQ4IDAtNC45Ny0xLjAxLTUuNC0xLjM4di0xLjg5Yy45Ny41NCAyLjY2IDEuMTMgNS40IDEuMTMgMi43NyAwIDQuNDUtLjU4IDUuNDEtMS4xMnptMC0zLjM5Yy0uNDIuMzYtMS45IDEuMzktNS40MSAxLjM5LTMuNDggMC00Ljk3LTEuMDEtNS40LTEuMzh2LTJjMS4yOC44MiAzLjM4IDEuMjUgNS40IDEuMjVzNC4xMy0uNDMgNS40MS0xLjI1em0tNS40MS0xLjk5Yy0zLjMgMC01LjQtMS4xLTUuNC0xLjg2IDAtLjc1IDIuMS0xLjg1IDUuNC0xLjg1czUuNDEgMS4xIDUuNDEgMS44NWMwIC43Ni0yLjExIDEuODYtNS40MSAxLjg2IiBpZD0iVG9ubmUiLz48L3N2Zz4=;" parent="1" vertex="1">
          <mxGeometry x="530.75" y="160" width="62" height="62" as="geometry" />
        </mxCell>
        <mxCell id="rqCqFIC3vXE1nPMB3eHS-12" value="&lt;font style=&quot;font-size: 16px;&quot; face=&quot;Roboto&quot;&gt;vpc&lt;/font&gt;" style="text;strokeColor=none;align=center;fillColor=none;html=1;verticalAlign=middle;whiteSpace=wrap;rounded=0;" parent="1" vertex="1">
          <mxGeometry x="443.25" y="110" width="80" height="30" as="geometry" />
        </mxCell>
        <mxCell id="rqCqFIC3vXE1nPMB3eHS-13" value="&lt;font style=&quot;font-size: 16px;&quot; face=&quot;Roboto&quot;&gt;network&lt;/font&gt;" style="text;strokeColor=none;align=center;fillColor=none;html=1;verticalAlign=middle;whiteSpace=wrap;rounded=0;" parent="1" vertex="1">
          <mxGeometry x="39.75" y="710" width="80" height="30" as="geometry" />
        </mxCell>
        <mxCell id="rqCqFIC3vXE1nPMB3eHS-14" value="&lt;font style=&quot;font-size: 16px;&quot; face=&quot;Roboto&quot;&gt;cdn&lt;/font&gt;" style="text;strokeColor=none;align=center;fillColor=none;html=1;verticalAlign=middle;whiteSpace=wrap;rounded=0;" parent="1" vertex="1">
          <mxGeometry x="122.75" y="350" width="80" height="30" as="geometry" />
        </mxCell>
        <mxCell id="rqCqFIC3vXE1nPMB3eHS-15" value="&lt;font style=&quot;font-size: 16px;&quot; face=&quot;Roboto&quot;&gt;dns&lt;/font&gt;" style="text;strokeColor=none;align=center;fillColor=none;html=1;verticalAlign=middle;whiteSpace=wrap;rounded=0;" parent="1" vertex="1">
          <mxGeometry x="42.75" y="350" width="80" height="30" as="geometry" />
        </mxCell>
        <mxCell id="rqCqFIC3vXE1nPMB3eHS-16" value="&lt;font style=&quot;font-size: 16px;&quot; face=&quot;Roboto&quot;&gt;secgrp&lt;/font&gt;" style="text;strokeColor=none;align=center;fillColor=none;html=1;verticalAlign=middle;whiteSpace=wrap;rounded=0;" parent="1" vertex="1">
          <mxGeometry x="364.25" y="470" width="80" height="30" as="geometry" />
        </mxCell>
        <mxCell id="rqCqFIC3vXE1nPMB3eHS-17" value="&lt;font style=&quot;font-size: 16px;&quot; face=&quot;Roboto&quot;&gt;postgresql&lt;/font&gt;" style="text;strokeColor=none;align=center;fillColor=none;html=1;verticalAlign=middle;whiteSpace=wrap;rounded=0;" parent="1" vertex="1">
          <mxGeometry x="122.75" y="230" width="80" height="30" as="geometry" />
        </mxCell>
        <mxCell id="rqCqFIC3vXE1nPMB3eHS-18" value="&lt;font style=&quot;font-size: 16px;&quot; face=&quot;Roboto&quot;&gt;mysql&lt;/font&gt;" style="text;strokeColor=none;align=center;fillColor=none;html=1;verticalAlign=middle;whiteSpace=wrap;rounded=0;" parent="1" vertex="1">
          <mxGeometry x="202.75" y="230" width="80" height="30" as="geometry" />
        </mxCell>
        <mxCell id="rqCqFIC3vXE1nPMB3eHS-19" value="&lt;font face=&quot;Roboto&quot;&gt;&lt;span style=&quot;font-size: 16px;&quot;&gt;kafka&lt;/span&gt;&lt;/font&gt;" style="text;strokeColor=none;align=center;fillColor=none;html=1;verticalAlign=middle;whiteSpace=wrap;rounded=0;" parent="1" vertex="1">
          <mxGeometry x="282.75" y="230" width="80" height="30" as="geometry" />
        </mxCell>
        <mxCell id="rqCqFIC3vXE1nPMB3eHS-20" value="&lt;font style=&quot;font-size: 16px;&quot; face=&quot;Roboto&quot;&gt;opensearch&lt;/font&gt;" style="text;strokeColor=none;align=center;fillColor=none;html=1;verticalAlign=middle;whiteSpace=wrap;rounded=0;" parent="1" vertex="1">
          <mxGeometry x="362.75" y="230" width="80" height="30" as="geometry" />
        </mxCell>
        <mxCell id="rqCqFIC3vXE1nPMB3eHS-21" value="&lt;font style=&quot;font-size: 16px;&quot; face=&quot;Roboto&quot;&gt;valkey&lt;/font&gt;" style="text;strokeColor=none;align=center;fillColor=none;html=1;verticalAlign=middle;whiteSpace=wrap;rounded=0;" parent="1" vertex="1">
          <mxGeometry x="442.75" y="230" width="80" height="30" as="geometry" />
        </mxCell>
        <mxCell id="rqCqFIC3vXE1nPMB3eHS-22" value="&lt;font style=&quot;font-size: 16px;&quot; face=&quot;Roboto&quot;&gt;grafana&lt;/font&gt;" style="text;strokeColor=none;align=center;fillColor=none;html=1;verticalAlign=middle;whiteSpace=wrap;rounded=0;" parent="1" vertex="1">
          <mxGeometry x="522.75" y="230" width="80" height="30" as="geometry" />
        </mxCell>
        <mxCell id="rqCqFIC3vXE1nPMB3eHS-23" value="" style="shape=image;verticalLabelPosition=bottom;labelBackgroundColor=default;verticalAlign=top;aspect=fixed;imageAspect=0;editableCssRules=.*;image=data:image/svg+xml,PHN2ZyB4bWxucz0iaHR0cDovL3d3dy53My5vcmcvMjAwMC9zdmciIHZpZXdCb3g9IjAgMCA2Mi4zNjIgNjIuMzYyIiB2ZXJzaW9uPSIxLjEiIGlkPSJFYmVuZV8yIj48ZGVmcz48c3R5bGU+LnN0MHtmaWxsOiNmZmZ9PC9zdHlsZT48L2RlZnM+PHBhdGggc3R5bGU9ImZpbGw6I2RhMjkxYyIgZD0iTTMxLjMxNSA2Mi4zNjJDMTMuNDgzIDYyLjM2MiAwIDQ3LjU5IDAgMzEuMzE1IDAgMTIuNjMzIDE1LjU1NyAwIDMxLjA4IDBjMTguNjAyIDAgMzEuMjgyIDE1LjM0IDMxLjI4MiAzMC45NDcgMCAxOS4wNS0xNS42NTcgMzEuNDE1LTMxLjA0NyAzMS40MTUiLz48cGF0aCBjbGFzcz0ic3QwIiBkPSJNNDIuMzI0IDQyLjg1SDIwLjAzOGE0Ljk3NiA0Ljk3NiAwIDAgMS00Ljk3LTQuOTdWMjEuOTA1YzAtMi43NCAyLjIzLTQuOTcgNC45Ny00Ljk3aDIyLjI4NmMyLjc0IDAgNC45NyAyLjIzIDQuOTcgNC45N1YzNy44OGMwIDIuNzQxLTIuMjMgNC45Ny00Ljk3IDQuOTdNMjAuMDM4IDE4LjkzNWEyLjk3NCAyLjk3NCAwIDAgMC0yLjk3IDIuOTdWMzcuODhhMi45NzQgMi45NzQgMCAwIDAgMi45NyAyLjk3aDIyLjI4NmEyLjk3NCAyLjk3NCAwIDAgMCAyLjk3LTIuOTdWMjEuOTA1YTIuOTczIDIuOTczIDAgMCAwLTIuOTctMi45N3ptMTYuMjQ4IDI3LjkxaC0xMC4yMWExIDEgMCAxIDEgMC0yaDEwLjIxYTEgMSAwIDEgMSAwIDIiLz48ZyBpZD0iU2hvcHBpbmctRS1Db21tZXJjZV9feDJGX19TaG9wcGluZy1CYWdzX194MkZfX3Nob3BwaW5nLWJhZy10YWctMSI+PGcgaWQ9Ikdyb3VwXzExMyI+PGcgaWQ9InNob3BwaW5nLWJhZy10YWctMSI+PHBhdGggY2xhc3M9InN0MCIgZD0iTTIzLjY4NCAzNy4xNmEyLjAzIDIuMDMgMCAwIDEtMS40NzctLjczIDIgMiAwIDAgMS0uNDM5LTEuNTU4bDEuODA4LTEwLjcwN2MuMDUtLjk1Mi44NjUtMS43NTMgMS44ODYtMS43OTZIMzYuOWExLjk3MyAxLjk3MyAwIDAgMSAxLjg5NSAxLjg2NGwxLjc5OCAxMC42MjJhMi4wMyAyLjAzIDAgMCAxLS40MzUgMS41NzRjLS4zNi40MzQtLjg4Ni43LTEuNDQ1Ljczem0xLjgwNC0xMy41NDFhLjcyLjcyIDAgMCAwLS42NzIuNjg2bC0xLjgxMyAxMC43NTlhLjc2Ljc2IDAgMCAwIC43MTQuODQ3bDE0Ljk2Mi0uMDAyYS43Ni43NiAwIDAgMCAuNTEzLS4yNzUuNzcuNzcgMCAwIDAgLjE2NC0uNTg4bC0xLjgwMi0xMC42NzNjLS4wMy0uNDQtLjMyMy0uNzMzLS42OTUtLjc1NHoiLz48cGF0aCBjbGFzcz0ic3QwIiBkPSJNMzEuMTg2IDI5LjIxYTQuMDMgNC4wMyAwIDAgMS0zLjk0Mi0zLjI2OC42MjQuNjI0IDAgMSAxIDEuMjI4LS4yMzQgMi43OCAyLjc4IDAgMCAwIDIuNzE0IDIuMjUyIDIuNzggMi43OCAwIDAgMCAyLjcwOS0yLjIzOC42My42MyAwIDAgMSAuNzMzLS40OTNjLjMzOS4wNjcuNTYuMzk1LjQ5My43MzRhNC4wMzQgNC4wMzQgMCAwIDEtMy45MzUgMy4yNDciLz48L2c+PC9nPjwvZz48L3N2Zz4=;" parent="1" vertex="1">
          <mxGeometry x="209.75" y="640" width="62" height="62" as="geometry" />
        </mxCell>
        <mxCell id="rqCqFIC3vXE1nPMB3eHS-24" value="" style="shape=image;verticalLabelPosition=bottom;labelBackgroundColor=default;verticalAlign=top;aspect=fixed;imageAspect=0;editableCssRules=.*;image=data:image/svg+xml,PHN2ZyB4bWxucz0iaHR0cDovL3d3dy53My5vcmcvMjAwMC9zdmciIHZpZXdCb3g9IjAgMCA2Mi4zNjIgNjIuMzYyIiB2ZXJzaW9uPSIxLjEiIGlkPSJwZmVpbGUiPjxkZWZzPjxzdHlsZT4uc3Qwe2ZpbGw6I2ZmZn08L3N0eWxlPjwvZGVmcz48cGF0aCBzdHlsZT0iZmlsbDojZGEyOTFjIiBkPSJNMzEuMzU3IDYyLjM0NUMxMy41MjUgNjIuMzQ1LjA0MiA0Ny41NzMuMDQyIDMxLjI5OC4wNDIgMTIuNjE2IDE1LjYtLjAxOCAzMS4xMjMtLjAxOGMxOC42MDIgMCAzMS4yODIgMTUuMzQgMzEuMjgyIDMwLjk0NyAwIDE5LjA1LTE1LjY1OCAzMS40MTUtMzEuMDQ4IDMxLjQxNSIvPjxnIGlkPSJTaG9wcGluZy1FLUNvbW1lcmNlX194MkZfX0NhcnRzX194MkZfX3Nob3BwaW5nLWNhcnQtYWRkIj48ZyBpZD0iR3JvdXBfMTQzIj48ZyBpZD0ic2hvcHBpbmctY2FydC1hZGQiPjxwYXRoIGNsYXNzPSJzdDAiIGQ9Ik0yMy42NDQgNDguNjcxYTEuMTI4IDEuMTI4IDAgMSAxIDAtMi4yNTYgMS4xMjggMS4xMjggMCAwIDEgMCAyLjI1NiIgaWQ9Ik92YWxfNTAiLz48cGF0aCBjbGFzcz0ic3QwIiBkPSJNMTguMjYgNDguNjcxYTEuMTI4IDEuMTI4IDAgMSAxIDAtMi4yNTYgMS4xMjggMS4xMjggMCAwIDEgMCAyLjI1NiIgaWQ9Ik92YWxfNTEiLz48L2c+PC9nPjwvZz48cGF0aCBjbGFzcz0ic3QwIiBkPSJNMjcuMDI1IDM5LjI4OGEuNjIuNjIgMCAwIDAtLjQ5OS0uMjUybC04LjI3Ny0uMDI0aC0uMDAyYS42MjUuNjI1IDAgMCAwLS4wMDIgMS4yNWw3LjI2NS4wMjFjLjA5IDAgLjE1My4wODYuMTI4LjE3MmwtMS4xMTggMy43ODhhLjI4LjI4IDAgMCAxLS4yNy4yMDdoLTYuNTFhLjI4LjI4IDAgMCAxLS4yNjktLjIwOGwtMS45NjktNy4yNjdhMS45OCAxLjk4IDAgMCAwLTEuOTEyLTEuNDY5aC0uNjI0YS42MjUuNjI1IDAgMCAwIDAgMS4yNWguNjI0Yy4zMyAwIC42Mi4yMjMuNzA1LjU0M2wxLjk3IDcuMjY3YTEuNTMgMS41MyAwIDAgMCAxLjQ3NCAxLjEzNGg2LjUxMmMuNjkgMCAxLjI5Ny0uNDY2IDEuNDcyLTEuMTE4bDEuNC00Ljc0NGEuNjIuNjIgMCAwIDAtLjA5OC0uNTUiLz48cGF0aCBjbGFzcz0ic3QwIiBkPSJNNDguNjA0IDIzLjAzYTQgNCAwIDAgMC0uMDY5LS44MTFjLS4wMi0uMDk3LS4wNTUtLjI3Ny0yLjQ4MS02Ljg1MmEyLjQzNSAyLjQzNSAwIDAgMC0yLjI4Ny0xLjY3NkgyMC4wOWMtMS4wMzIuMDIxLTEuOTQuNjk0LTIuMjUgMS42NDRsLTIuNDUgNi43MzVjLS4wOTEuMjUyLS4xMDkuNTMyLS4xMDkuOTYgMCAxLjc0My45MTkgMy4yNjggMi4yOTEgNC4xNHY1LjExYTEgMSAwIDEgMCAyIDB2LTQuMzk4Yy4yMDcuMDI2LjQxLjA2My42MjQuMDYzYTQuODggNC44OCAwIDAgMCAzLjQ3Ni0xLjQ0cS4yNC0uMjM4LjQ0LS41MDRhNC45MTIgNC45MTIgMCAwIDAgNy44My0uMDAyIDQuOTEgNC45MSAwIDAgMCA3LjgzIDAgNC45MSA0LjkxIDAgMCAwIDMuOTE1IDEuOTQ3Yy4yMTMgMCAuNDE3LS4wMzcuNjI0LS4wNjN2MTQuNjZjMCAuNjc4LS41NSAxLjIyOC0xLjIyOCAxLjIyOGgtMy43NzdzLS4xMTQgMC0uMTE0LS4xMmwuMDAxLS4yODVWMzMuMjY3YzAtMS4wOTgtLjg5LTEuOTg3LTEuOTg3LTEuOTg3SDMyLjFhMS45ODMgMS45ODMgMCAwIDAtMS45ODMgMS45ODN2OS4yMzlhMy4yNyAzLjI3IDAgMCAwIDMuMjY5IDMuMjY5aDkuNjk4YTMuMjI3IDMuMjI3IDAgMCAwIDMuMjI4LTMuMjI4VjI3LjIxYzAtLjAxMi0uMDA3LS4wMjItLjAwNy0uMDM0YTQuOSA0LjkgMCAwIDAgMi4yOTktNC4xNDVaTTM3LjE4MiA0My42MjVhLjE0Ny4xNDcgMCAwIDEtLjE0Ny4xNDdoLTMuNjQ5YTEuMjcgMS4yNyAwIDAgMS0xLjI2OS0xLjI2OXYtOS4wOGMwLS4wNzkuMDY0LS4xNDIuMTQyLS4xNDJsNC43ODQtLjAxM2MuMDg0IDAgLjE1Mi4wNjguMTUyLjE1MnptNC41NDUtMTguMzM3Yy0uNzEzLS40OTctLjk2My0xLjM3Ni0uOTU0LTIuMjQ2YTEgMSAwIDEgMC0yIC4wMDFjLjAxLjg3LS4yNCAxLjc0OC0uOTU0IDIuMjQ1LTIuMzQ3IDEuNjM1LTQuODc2LS4wMi00Ljg3Ni0yLjI1NmExIDEgMCAwIDAtMi0uMDE2Yy0uMDE1LjkyNi0uMzExIDEuODU2LTEuMDg3IDIuMzYyLTEuMzY3Ljg5LTIuOTEzLjY5Mi0zLjg5LS4yODVhMi45IDIuOSAwIDAgMS0uODUzLTIuMDYyIDEgMSAwIDAgMC0yIC4wMDF2LjA0MmMwIDEuMDctLjU3MSAyLjA5OC0xLjUzOSAyLjU1My0yLjE2MyAxLjAxNy00LjI5Mi0uNTQ1LTQuMjkyLTIuNTk2di0uMDM0Yy4wMS0uMzA2IDIuNDUtNy4wMDggMi40NS03LjAwOGEuNDIuNDIgMCAwIDEgLjM4LS4yOTdoMjMuNjRjLjE4My4wMDMuMzQ0LjEyMi40MTMuMzMzLjczNyAxLjk5NSAyLjM5IDYuNTA4IDIuNDE1IDYuNjE1LjAyMS4xMTguMDI0LjI2NC4wMjQuMzkyIDAgMi4yMzUtMi41MzEgMy44OTEtNC44NzcgMi4yNTYiLz48L3N2Zz4=;" parent="1" vertex="1">
          <mxGeometry x="290.75" y="640" width="62" height="62" as="geometry" />
        </mxCell>
        <mxCell id="rqCqFIC3vXE1nPMB3eHS-25" value="&lt;font face=&quot;Roboto&quot;&gt;&lt;span style=&quot;font-size: 16px;&quot;&gt;mkpl1&lt;/span&gt;&lt;/font&gt;" style="text;strokeColor=none;align=center;fillColor=none;html=1;verticalAlign=middle;whiteSpace=wrap;rounded=0;" parent="1" vertex="1">
          <mxGeometry x="198.75" y="710" width="80" height="30" as="geometry" />
        </mxCell>
        <mxCell id="rqCqFIC3vXE1nPMB3eHS-26" value="&lt;font face=&quot;Roboto&quot;&gt;&lt;span style=&quot;font-size: 16px;&quot;&gt;mkpl2&lt;/span&gt;&lt;/font&gt;" style="text;strokeColor=none;align=center;fillColor=none;html=1;verticalAlign=middle;whiteSpace=wrap;rounded=0;" parent="1" vertex="1">
          <mxGeometry x="279.75" y="710" width="80" height="30" as="geometry" />
        </mxCell>
        <mxCell id="rqCqFIC3vXE1nPMB3eHS-27" value="" style="shape=image;verticalLabelPosition=bottom;labelBackgroundColor=default;verticalAlign=top;aspect=fixed;imageAspect=0;editableCssRules=.*;image=data:image/svg+xml,PHN2ZyB4bWxucz0iaHR0cDovL3d3dy53My5vcmcvMjAwMC9zdmciIHZpZXdCb3g9IjAgMCA2Mi4zNjIgNjIuMzYyIiB2ZXJzaW9uPSIxLjEiIGlkPSJwZmVpbGUiPjxkZWZzPjxzdHlsZT4uc3Qwe2ZpbGw6I2ZmZn08L3N0eWxlPjwvZGVmcz48cGF0aCBzdHlsZT0iZmlsbDojZGEyOTFjIiBkPSJNMzEuMzE1IDYyLjM2MkMxMy40ODMgNjIuMzYyIDAgNDcuNTkgMCAzMS4zMTUgMCAxMi42MzMgMTUuNTU3IDAgMzEuMDggMGMxOC42MDIgMCAzMS4yODIgMTUuMzQgMzEuMjgyIDMwLjk0NyAwIDE5LjA1LTE1LjY1NyAzMS40MTUtMzEuMDQ3IDMxLjQxNSIvPjxwYXRoIGNsYXNzPSJzdDAiIGQ9Ik0zMS4xODEgMTUuMTE3YzguODU4IDAgMTYuMDY0IDcuMjA2IDE2LjA2NCAxNi4wNjRTNDAuMDM5IDQ3LjI0NSAzMS4xOCA0Ny4yNDUgMTUuMTE3IDQwLjAzOSAxNS4xMTcgMzEuMThzNy4yMDYtMTYuMDY0IDE2LjA2NC0xNi4wNjRtMC0yYy05Ljk3NiAwLTE4LjA2NCA4LjA4OC0xOC4wNjQgMTguMDY0czguMDg4IDE4LjA2NCAxOC4wNjQgMTguMDY0IDE4LjA2NC04LjA4NyAxOC4wNjQtMTguMDY0LTguMDg3LTE4LjA2NC0xOC4wNjQtMTguMDY0Ii8+PGNpcmNsZSBjbGFzcz0ic3QwIiByPSIxLjYzIiBjeT0iMzEuMTgxIiBjeD0iMzEuMTgxIi8+PHBhdGggY2xhc3M9InN0MCIgZD0ibTM5LjA1OSAzNy42MzkgMy4yMyAzLjIzLTEuNDEgMS40MS0zLjIzLTMuMjMuMDMgNC42Ni0xLjk3LTEuOTYuMDEtNi4wMyA2LjA0LS4wMiAxLjk2IDEuOTd6TTI0LjY4NyAxOC42NTdsLjAzIDQuNjYtMy4yMy0zLjIzLTEuNDEgMS40MSAzLjIzIDMuMjMtNC42Ni0uMDMgMS45NiAxLjk3IDYuMDQtLjAyLjAxLTYuMDN6bTE0LjM2OSA2LjA1NyAzLjIzLTMuMjItMS40Mi0xLjQyLTMuMjIgMy4yMy4wMi00LjY2LTEuOTcgMS45Ny4wMiA2LjAzIDYuMDMuMDEgMS45Ny0xLjk2ek0yNC42OTIgNDMuNzE5bC4wMy00LjY2LTMuMjMgMy4yMy0xLjQxLTEuNDIgMy4yMy0zLjIyLTQuNjYuMDIgMS45Ny0xLjk3IDYuMDIuMDIuMDIgNi4wM3oiLz48L3N2Zz4=;" parent="1" vertex="1">
          <mxGeometry x="212.75" y="280" width="62" height="62" as="geometry" />
        </mxCell>
        <mxCell id="rqCqFIC3vXE1nPMB3eHS-28" value="" style="shape=image;verticalLabelPosition=bottom;labelBackgroundColor=default;verticalAlign=top;aspect=fixed;imageAspect=0;editableCssRules=.*;image=data:image/svg+xml,PHN2ZyB4bWxucz0iaHR0cDovL3d3dy53My5vcmcvMjAwMC9zdmciIHZpZXdCb3g9IjAgMCA2Mi4zNjIgNjIuMzYyIiB2ZXJzaW9uPSIxLjEiIGlkPSJpY29uIj48ZGVmcz48c3R5bGU+LnN0MHtmaWxsOiNmZmZ9PC9zdHlsZT48L2RlZnM+PHBhdGggc3R5bGU9ImZpbGw6I2RhMjkxYyIgZD0iTTMxLjMxNSA2Mi4zNjJDMTMuNDgzIDYyLjM2MiAwIDQ3LjU5IDAgMzEuMzE1IDAgMTIuNjMzIDE1LjU1NyAwIDMxLjA4IDBjMTguNjAyIDAgMzEuMjgyIDE1LjM0IDMxLjI4MiAzMC45NDcgMCAxOS4wNS0xNS42NTcgMzEuNDE1LTMxLjA0NyAzMS40MTUiLz48Y2lyY2xlIGNsYXNzPSJzdDAiIHI9IjEuNjMiIGN5PSIxOS4xMSIgY3g9IjE5LjExIi8+PGNpcmNsZSBjbGFzcz0ic3QwIiByPSIxLjYzIiBjeT0iMTkuMTEiIGN4PSI0My4yNTIiLz48cGF0aCBjbGFzcz0ic3QwIiBkPSJNMjEuODE1IDE4LjE1N2MyLjY0LTEuOTA0IDUuODctMy4wNCA5LjM2Ni0zLjA0czYuNzI2IDEuMTM2IDkuMzY2IDMuMDRhMi44OCAyLjg4IDAgMCAxIDEuMjktMS41NCAxNy45NyAxNy45NyAwIDAgMC0yMS4zMTEgMCAyLjg4IDIuODggMCAwIDEgMS4yOSAxLjU0Ii8+PGNpcmNsZSBjbGFzcz0ic3QwIiByPSIxLjYzIiBjeT0iNDMuMzIxIiBjeD0iMTkuMTgiLz48Y2lyY2xlIGNsYXNzPSJzdDAiIHI9IjEuNjMiIGN5PSI0My4yODkiIGN4PSI0My4yMTQiLz48cGF0aCBjbGFzcz0ic3QwIiBkPSJNNDQuMTc2IDQwLjU4N2EyLjg4IDIuODggMCAwIDEgMS41MzUgMS4yOTQgMTcuOTYgMTcuOTYgMCAwIDAgMy41MzQtMTAuN2MwLTMuOTktMS4zMS03LjY2Ni0zLjUtMTAuNjU1YTIuODggMi44OCAwIDAgMS0xLjU0IDEuMjkgMTUuOTYgMTUuOTYgMCAwIDEgMy4wNCA5LjM2NWMwIDMuNTE0LTEuMTQ4IDYuNzU4LTMuMDcgOS40MDZtLTI1Ljk4NS4wMjNjLS42NS4yNC0xLjIuNzEtMS41MyAxLjMxLTIuMjMtMy0zLjU0LTYuNzEtMy41NC0xMC43NCAwLTMuOTkgMS4zMS03LjY2IDMuNS0xMC42NS4zNC41OS44OCAxLjA1IDEuNTQgMS4yOWExNS45IDE1LjkgMCAwIDAtMy4wNCA5LjM2YzAgMy41MiAxLjE0IDYuNzggMy4wNyA5LjQzbTIzLjYgNS4xN2ExNy45NiAxNy45NiAwIDAgMS0xMC42MSAzLjQ2Yy0zLjk1IDAtNy42LTEuMjctMTAuNTctMy40Mi41OS0uMzQgMS4wNi0uODkgMS4yOS0xLjU1IDIuNjIgMS44NyA1LjgyIDIuOTcgOS4yOCAyLjk3IDMuNDggMCA2LjY5LTEuMTIgOS4zMy0zIC4yMy42NS42OSAxLjIgMS4yOCAxLjU0Ii8+PC9zdmc+;" parent="1" vertex="1">
          <mxGeometry x="291.75" y="280" width="62" height="62" as="geometry" />
        </mxCell>
        <mxCell id="rqCqFIC3vXE1nPMB3eHS-29" value="&lt;font style=&quot;font-size: 16px;&quot; face=&quot;Roboto&quot;&gt;privcon&lt;/font&gt;" style="text;strokeColor=none;align=center;fillColor=none;html=1;verticalAlign=middle;whiteSpace=wrap;rounded=0;" parent="1" vertex="1">
          <mxGeometry x="202.75" y="350" width="80" height="30" as="geometry" />
        </mxCell>
        <mxCell id="rqCqFIC3vXE1nPMB3eHS-30" value="&lt;font style=&quot;font-size: 16px;&quot; face=&quot;Roboto&quot;&gt;privnet&lt;/font&gt;" style="text;strokeColor=none;align=center;fillColor=none;html=1;verticalAlign=middle;whiteSpace=wrap;rounded=0;" parent="1" vertex="1">
          <mxGeometry x="282.75" y="350" width="80" height="30" as="geometry" />
        </mxCell>
        <mxCell id="oxLn44EXc1-4_u-WEtHi-1" value="" style="shape=image;verticalLabelPosition=bottom;labelBackgroundColor=default;verticalAlign=top;aspect=fixed;imageAspect=0;editableCssRules=.*;image=data:image/svg+xml,PHN2ZyB4bWxucz0iaHR0cDovL3d3dy53My5vcmcvMjAwMC9zdmciIHZpZXdCb3g9IjAgMC4wMDIwMDAwMDAwOTQ5OTQ5MDI2IDYyLjM2MTk5OTUxMTcxODc1IDYyLjM2MjAwMzMyNjQxNjAxNiIgdmVyc2lvbj0iMS4xIiBpZD0iSGludGVyZ3J1bmQiIHdpZHRoPSI2Mi4zNjE5OTk1MTE3MTg3NSIgaGVpZ2h0PSI2Mi4zNjIwMDMzMjY0MTYwMTYiPjxkZWZzPjxzdHlsZT4uc3Qwe2ZpbGw6I2ZmZn08L3N0eWxlPjwvZGVmcz48cGF0aCBzdHlsZT0iZmlsbDojZGEyOTFjIiBkPSJNMzEuMzE1IDYyLjM2NEMxMy40ODMgNjIuMzY0IDAgNDcuNTkyIDAgMzEuMzE2IDAgMTIuNjM1IDE1LjU1Ny4wMDIgMzEuMDguMDAyYzE4LjYwMiAwIDMxLjI4MiAxNS4zNCAzMS4yODIgMzAuOTQ3IDAgMTkuMDUtMTUuNjU3IDMxLjQxNS0zMS4wNDcgMzEuNDE1Ii8+PHBhdGggY2xhc3M9InN0MCIgZD0iTTI1LjIzMyAzMi43MTVjLTEuMzg5IDEuNDQ0LTIuMTM4IDMuMjQ3LTIuMDc5IDUuMTA5bC0xLjg3MyAxLjg3M2E2LjIgNi4yIDAgMCAxLS4xNDctMS4zOTdjMC0yLjU2NyAxLjc1LTQuODE0IDQuMS01LjU4NW0yLjc1LTEuNTM0aC0uOThjLTMuODggMC03LjEyIDMuMjQtNy4xMiA3LjEyIDAgMS4yNzguMjc3IDIuNTM2IDEuMDAyIDMuNTU5bDMuNTYtMy41NmMtLjM0Mi0yLjYgMS4yNzgtNC44NiAzLjUzOC02LjEzOHptLTQuNzkxLTMuNzYxYy45NjUgMCAxLjg5LjIyMiAyLjcxLjY0Mi0yLjA0OS4wMzYtMy44My43ODgtNS4wOTYgMi4xNEgxOC4xNmE2LjIgNi4yIDAgMCAxIC44ODQtMS4wOTFjMS4wOS0xLjA5IDIuNTY0LTEuNjkxIDQuMTUtMS42OTFtMC0xLjI1Yy0xLjgzMSAwLTMuNjYzLjY4NS01LjAzNCAyLjA1Ny0uOTA0LjkwNC0xLjU5OCAxLjk5LTEuODA5IDMuMjI1aDUuMDM0YzEuMTQyLTEuNDg2IDIuODY4LTIuMTQxIDQuNjc0LTIuMTQxLjcyIDAgMS40NTUuMTA1IDIuMTY5LjMwM2wuNjkzLS42OTQtLjY5My0uNjkzYy0xLjM3Mi0xLjM3Mi0zLjIwMy0yLjA1Ny01LjAzNC0yLjA1N20uODY4LTUuMDM2YzIuNTY3IDAgNC44MTMgMS43NSA1LjU4NSA0LjA5OC0xLjM4NS0xLjMzMi0zLjEwMy0yLjA4Mi00Ljg5NC0yLjA4MnEtLjEwNyAwLS4yMTUuMDA0bC0xLjg3Mi0xLjg3M2E2LjIgNi4yIDAgMCAxIDEuMzk2LS4xNDdtMC0xLjI1Yy0xLjI3OSAwLTIuNTM3LjI3Ny0zLjU2IDEuMDAybDMuNTYgMy41NnEuMzUtLjA0Ni42OS0uMDQ2YzIuMzA3IDAgNC4yODUgMS41MjcgNS40NDkgMy41ODRoLjk4di0uOThjMC0zLjg4LTMuMjQtNy4xMi03LjEyLTcuMTJtOC4wOTktMS43MjRxLjU1NS4zNDYgMS4wOTEuODgzYzEuODE2IDEuODE1IDIuMTY2IDQuNjQyIDEuMDUxIDYuODQ3LS4wNC0yLjAwMy0uNzg0LTMuODA3LTIuMTQyLTUuMDgyem0tMS4yNS0xLjgwOXY1LjAzNGMyLjA4IDEuNTk4IDIuNTMyIDQuMzQxIDEuODM5IDYuODQzbC42OTMuNjkzLjY5My0uNjkzYzIuNzQzLTIuNzQzIDIuNzQzLTcuMzI1IDAtMTAuMDY4LS45MDQtLjkwNC0xLjk5LTEuNTk4LTMuMjI1LTEuODA5bTEwLjE3IDYuMzE0cS4xNDguNjQuMTQ4IDEuMzk3YzAgMi41NjgtMS43NSA0LjgxNC00LjA5OSA1LjU4NSAxLjM4OS0xLjQ0NCAyLjEzOC0zLjI0NyAyLjA3OS01LjEwOXptLjM5NS0yLjE2My0zLjU2IDMuNTZjLjM0MiAyLjYtMS4yNzggNC44Ni0zLjUzOCA2LjEzOXYuOThoLjk4YzMuODggMCA3LjEyLTMuMjQgNy4xMi03LjEyIDAtMS4yNzgtLjI3Ny0yLjUzNi0xLjAwMi0zLjU1OW0yLjcyOCAxMS42NThhNi4yIDYuMiAwIDAgMS0uODgzIDEuMDkxYy0xLjA5MSAxLjA5LTIuNTY1IDEuNjkyLTQuMTUgMS42OTItLjk2NiAwLTEuODktLjIyMy0yLjcxMS0uNjQzIDIuMDUtLjAzNiAzLjgzMS0uNzg4IDUuMDk2LTIuMTR6bTEuODA5LTEuMjVoLTUuMDM0Yy0xLjE0MiAxLjQ4Ni0yLjg2OCAyLjE0MS00LjY3MyAyLjE0MWE4LjIgOC4yIDAgMCAxLTIuMTctLjMwMmwtLjY5My42OTMuNjkzLjY5M2MxLjM3MiAxLjM3MiAzLjIwMyAyLjA1NyA1LjAzNCAyLjA1N3MzLjY2My0uNjg1IDUuMDM0LTIuMDU3Yy45MDUtLjkwNCAxLjU5OC0xLjk5IDEuODEtMy4yMjVabS0xMy4yOTYgNi4yMmMxLjM4NCAxLjMzMiAzLjEwMiAyLjA4MiA0Ljg5MyAyLjA4MnEuMTA4IDAgLjIxNS0uMDA0bDEuODczIDEuODczYTYuMiA2LjIgMCAwIDEtMS4zOTcuMTQ3Yy0yLjU2NyAwLTQuODEzLTEuNzUtNS41ODQtNC4wOThtLS41NTQtMi43NTJoLS45OHYuOThjMCAzLjg4IDMuMjM5IDcuMTIgNy4xMTggNy4xMiAxLjI4IDAgMi41MzctLjI3NyAzLjU2LTEuMDAybC0zLjU2LTMuNTZxLS4zNS4wNDYtLjY5LjA0NmMtMi4zMDcgMC00LjI4NC0xLjUyNy01LjQ0OC0zLjU4NG0tNC4xMDIgMi4wODZjLjAzOCAyLjAwNi43ODMgMy44MTQgMi4xNDIgNS4wOXYyLjY0OWE2LjIgNi4yIDAgMCAxLTEuMDkxLS44ODNjLTEuMDktMS4wOTEtMS42OTEtMi41NjUtMS42OTEtNC4xNSAwLS45NjQuMjIxLTEuODg2LjY0LTIuNzA2bS44Ni0zLjAyMi0uNjkzLjY5M2MtMi43NDMgMi43NDMtMi43NDMgNy4zMjUgMCAxMC4wNjguOTA0LjkwNSAxLjk5IDEuNTk4IDMuMjI1IDEuODA5di01LjAzNGMtMi4wOC0xLjU5OC0yLjUzMi00LjM0LTEuODM4LTYuODQzeiIvPjxwYXRoIGNsYXNzPSJzdDAiIGQ9Ik0zMS4xODEgMTIuNDcyYzEwLjMzMyAwIDE4LjcwOSA4LjM3NyAxOC43MDkgMTguNzFTNDEuNTE0IDQ5Ljg5IDMxLjE4IDQ5Ljg5cy0xOC43MDgtOC4zNzYtMTguNzA4LTE4LjcxIDguMzc3LTE4LjcwOSAxOC43MS0xOC43MDltMC0yYy0xMS40MiAwLTIwLjcxIDkuMjktMjAuNzEgMjAuNzFzOS4yOSAyMC43MDggMjAuNzEgMjAuNzA4UzUxLjg5IDQyLjYgNTEuODkgMzEuMTggNDIuNiAxMC40NzIgMzEuMTggMTAuNDcyIi8+PC9zdmc+;" parent="1" vertex="1">
          <mxGeometry x="530.75" y="40" width="62" height="62" as="geometry" />
        </mxCell>
        <mxCell id="oxLn44EXc1-4_u-WEtHi-2" value="" style="shape=image;verticalLabelPosition=bottom;labelBackgroundColor=default;verticalAlign=top;aspect=fixed;imageAspect=0;editableCssRules=.*;image=data:image/svg+xml,PHN2ZyB4bWxucz0iaHR0cDovL3d3dy53My5vcmcvMjAwMC9zdmciIHZpZXdCb3g9IjAgMCA2Mi4zNjE5OTk1MTE3MTg3NSA2Mi4zNjE5OTk1MTE3MTg3NSIgdmVyc2lvbj0iMS4xIiBpZD0icGZlaWxlIiB3aWR0aD0iNjIuMzYxOTk5NTExNzE4NzUiIGhlaWdodD0iNjIuMzYxOTk5NTExNzE4NzUiPjxkZWZzPjxzdHlsZT4uc3Qwe2ZpbGw6I2ZmZn08L3N0eWxlPjwvZGVmcz48cGF0aCBzdHlsZT0iZmlsbDojZGEyOTFjIiBkPSJNMzEuMzE1IDYyLjM2MkMxMy40ODMgNjIuMzYyIDAgNDcuNTkgMCAzMS4zMTUgMCAxMi42MzMgMTUuNTU3IDAgMzEuMDggMGMxOC42MDMgMCAzMS4yODIgMTUuMzQgMzEuMjgyIDMwLjk0NyAwIDE5LjA1LTE1LjY1NyAzMS40MTUtMzEuMDQ3IDMxLjQxNSIvPjxwYXRoIGNsYXNzPSJzdDAiIGQ9Ik0zMS4xODEgMTMuNjdjOC44NTggMCAxNi4wNjQgNy4yMDUgMTYuMDY0IDE2LjA2M3YzLjg5OGExIDEgMCAxIDAgMiAwdi0zLjg5OGMwLTkuOTc3LTguMDg3LTE4LjA2NC0xOC4wNjQtMTguMDY0cy0xOC4wNjQgOC4wODctMTguMDY0IDE4LjA2NHYzLjg5N2ExIDEgMCAxIDAgMiAwdi0zLjg5N2MwLTguODU4IDcuMjA3LTE2LjA2NCAxNi4wNjQtMTYuMDY0Ii8+PHBhdGggY2xhc3M9InN0MCIgZD0iTTE4Ljc0NyAyOC4xNTZjLS44OTYgMC0xLjYyNS43MjktMS42MjUgMS42MjV2OS42OTNjMCAuODk2LjcyOSAxLjYyNSAxLjYyNSAxLjYyNXMxLjYyNS0uNzMgMS42MjUtMS42MjVWMjkuNzhjMC0uODk2LS43My0xLjYyNS0xLjYyNS0xLjYyNU00NS4yNCAyOS43OHY5LjY5YzAgLjY3LS40MSAxLjI1LS45OSAxLjUtLjMzIDQuODUtNC4zNyA4LjY5LTkuMyA4LjY5YTEuNjIgMS42MiAwIDAgMS0xLjUgMS4wMSAxLjYzIDEuNjMgMCAwIDEgMC0zLjI2Yy42NyAwIDEuMjUuNDEgMS41IDEgNC4yNCAwIDcuNzItMy4yOCA4LjA0LTcuNDQtLjU5LS4yNS0xLS44My0xLTEuNXYtOS42OWMwLS45LjczLTEuNjIgMS42My0xLjYyLjg5IDAgMS42Mi43MiAxLjYyIDEuNjIiLz48L3N2Zz4=;" parent="1" vertex="1">
          <mxGeometry x="531.75" y="400" width="62" height="62" as="geometry" />
        </mxCell>
        <mxCell id="oxLn44EXc1-4_u-WEtHi-3" value="&lt;font style=&quot;font-size: 16px;&quot; face=&quot;Roboto&quot;&gt;support&lt;/font&gt;" style="text;strokeColor=none;align=center;fillColor=none;html=1;verticalAlign=middle;whiteSpace=wrap;rounded=0;" parent="1" vertex="1">
          <mxGeometry x="523.75" y="470" width="80" height="30" as="geometry" />
        </mxCell>
        <mxCell id="oxLn44EXc1-4_u-WEtHi-4" value="&lt;font style=&quot;font-size: 16px;&quot; face=&quot;Roboto&quot;&gt;gpu&lt;/font&gt;" style="text;strokeColor=none;align=center;fillColor=none;html=1;verticalAlign=middle;whiteSpace=wrap;rounded=0;" parent="1" vertex="1">
          <mxGeometry x="521.75" y="110" width="80" height="30" as="geometry" />
        </mxCell>
        <mxCell id="VBJ0osGM4a_MAeBudqhX-1" value="" style="shape=image;verticalLabelPosition=bottom;labelBackgroundColor=default;verticalAlign=top;aspect=fixed;imageAspect=0;editableCssRules=.*;image=data:image/svg+xml,PHN2ZyB4bWxucz0iaHR0cDovL3d3dy53My5vcmcvMjAwMC9zdmciIHZpZXdCb3g9IjAgMCA2Mi4zNjIyMDE2OTA2NzM4MyA2Mi4zNjIyMDE2OTA2NzM4MyIgdmVyc2lvbj0iMS4xIiBpZD0iSUNPTiIgd2lkdGg9IjYyLjM2MjIwMTY5MDY3MzgzIiBoZWlnaHQ9IjYyLjM2MjIwMTY5MDY3MzgzIj4mI3hhOyAgJiN4YTsgIDxkZWZzPiYjeGE7ICAgIDxzdHlsZT4mI3hhOyAgICAgIC5zdDAgeyYjeGE7ICAgICAgICBmaWxsOiAjZmZmOyYjeGE7ICAgICAgfSYjeGE7JiN4YTsgICAgICAuc3QxIHsmI3hhOyAgICAgICAgZmlsbDogI2RhMjkxYzsmI3hhOyAgICAgIH0mI3hhOyAgICA8L3N0eWxlPiYjeGE7ICA8L2RlZnM+JiN4YTsgIDxwYXRoIGQ9Ik0zMS4zMTQ5LDYyLjM2MjJDMTMuNDgyOCw2Mi4zNjIyLDAsNDcuNTkwNCwwLDMxLjMxNDgsMCwxMi42MzI5LDE1LjU1NzEsMCwzMS4wODA3LDAsNDkuNjgyMywwLDYyLjM2MjIsMTUuMzM5OSw2Mi4zNjIyLDMwLjk0NzJjMCwxOS4wNDk1LTE1LjY1NzUsMzEuNDE1LTMxLjA0NzMsMzEuNDE1aDBaIiBjbGFzcz0ic3QxIi8+JiN4YTsgIDxwYXRoIGQ9Ik0zNi4wMDYyLDIwLjE0OTVjLS4wMDY3LTMuMzkwMS01LjYxNjEtNS45NDU2LTEzLjA1NDEtNS45NDU2cy0xMy4wNDc5LDIuNTU1Ni0xMy4wNTQ2LDUuOTQ1N2MwLC4wMDExLS4wMDA2LjAwMi0uMDAwNi4wMDMxdjIwLjM0NTdjMCwzLjg2NjIsNi43MjY2LDUuOTUyMSwxMy4wNTUyLDUuOTUyMXMxMy4wNTQ3LTIuMDg1OSwxMy4wNTQ3LTUuOTUyMXYtMjAuMzQ1N2MwLS4wMDExLS4wMDA2LS4wMDItLjAwMDYtLjAwMzFaTTExLjg5NywzMC4wMDY2YzEuNzExNSwxLjA5MzQsNS4wNzQ3LDIuNDk5NSwxMS4wNTUyLDIuNDk5NSw1Ljk5MDMsMCw5LjM0OTgtMS40MTExLDExLjA1NDctMi41MDU2djUuMjM3MmMtMS4xMTA1LjkwMzMtNC4yNTE0LDIuODAyNi0xMS4wNTQ3LDIuODAyNi02Ljc3OTEsMC05LjkyOTgtMS44ODU4LTExLjA1NTItMi43OTM1di01LjI0MDJaTTM0LjAwNjksMjguNDUzNGMtMS4xMTA1LjkwMy00LjI1MTQsMi44MDIyLTExLjA1NDcsMi44MDIyLTYuNzc5NSwwLTkuOTI5OS0xLjg4NTktMTEuMDU1Mi0yLjc5MzJ2LTUuMDYxNmMyLjI2OTcsMS42NTA2LDYuMjgwOSwyLjcwNjgsMTEuMDU1MiwyLjcwNjhzOC43ODUtMS4wNTYyLDExLjA1NDctMi43MDY4djUuMDUyNVpNMjIuOTUyMiwxNi4yMDM4YzYuODQ4NiwwLDExLjA1NDcsMi4zMDE4LDExLjA1NDcsMy45NTE3cy00LjIwNjEsMy45NTIxLTExLjA1NDcsMy45NTIxLTExLjA1NTItMi4zMDE4LTExLjA1NTItMy45NTIxLDQuMjA1Ni0zLjk1MTcsMTEuMDU1Mi0zLjk1MTdaTTIyLjk1MjIsNDQuNDUwNGMtNi44NDk2LDAtMTEuMDU1Mi0yLjMwMTgtMTEuMDU1Mi0zLjk1MjF2LTMuNzA3NWMxLjcxMTUsMS4wOTM0LDUuMDc0NywyLjQ5OTUsMTEuMDU1MiwyLjQ5OTUsNS45OTAzLDAsOS4zNDk4LTEuNDEwOCwxMS4wNTQ3LTIuNTA1NHYzLjcxMzRjMCwxLjY1MDQtNC4yMDYxLDMuOTUyMS0xMS4wNTQ3LDMuOTUyMVoiIGNsYXNzPSJzdDAiLz4mI3hhOyAgPGc+JiN4YTsgICAgPHBhdGggZD0iTTQzLjgzODksMzEuMzQ0MmgtMy40NzM2Yy0uODgwOSwwLTEuNTk3Ny0uNzE2OC0xLjU5NzctMS41OTgxdi0zLjQ3NDFjMC0uODgxMy43MTY4LTEuNTk4MSwxLjU5NzctMS41OTgxaDMuNDczNmMuODgxOCwwLDEuNTk4Ni43MTY4LDEuNTk4NiwxLjU5ODF2My40NzQxYzAsLjg4MTMtLjcxNjgsMS41OTgxLTEuNTk4NiwxLjU5ODFaTTQwLjM2NTIsMjUuOTIzOGMtLjE5MTQsMC0uMzQ3Ny4xNTYyLS4zNDc3LjM0ODF2My40NzQxYzAsLjE5MTkuMTU2Mi4zNDgxLjM0NzcuMzQ4MWgzLjQ3MzZjLjE5MjQsMCwuMzQ4Ni0uMTU2Mi4zNDg2LS4zNDgxdi0zLjQ3NDFjMC0uMTkxOS0uMTU2Mi0uMzQ4MS0uMzQ4Ni0uMzQ4MWgtMy40NzM2WiIgY2xhc3M9InN0MCIvPiYjeGE7ICAgIDxwYXRoIGQ9Ik01My4yMTA5LDMxLjI3MDVoLTMuOTkzMmMtLjU3MzIsMC0xLjA4My0uMjk4My0xLjM2MzMtLjc5NzQtLjI4MDMtLjQ5OTUtLjI3MDUtMS4wODk4LjAyNzMtMS41NzkxbDEuOTk2MS0zLjI4MjdjLjI4NzEtLjQ3MDcuNzg2MS0uNzUxLDEuMzM1OS0uNzUxLjU1MDgsMCwxLjA0OTguMjgwMywxLjMzNjkuNzUwNWwxLjk5NjEsMy4yODM3Yy4yOTc5LjQ4ODguMzA3NiwxLjA3OTEuMDI3MywxLjU3ODYtLjI4MDMuNDk5LS43OS43OTc0LTEuMzYzMy43OTc0Wk01MS4yMTM5LDI2LjExMDRjLS4wNTI3LDAtLjE4NDYuMDE0Ni0uMjY3Ni4xNTA5bC0xLjk5NjEsMy4yODI3Yy0uMDg2OS4xNDE2LS4wMzMyLjI2ODYtLjAwNTkuMzE2OS4wMjczLjA0NzkuMTA3NC4xNTk3LjI3MzQuMTU5N2gzLjk5MzJjLjE2NiwwLC4yNDYxLS4xMTE4LjI3MzQtLjE1OTcuMDI3My0uMDQ4My4wODExLS4xNzUzLS4wMDU5LS4zMTY0bC0xLjk5NjEtMy4yODM3Yy0uMDgzLS4xMzU3LS4yMTQ4LS4xNTA0LS4yNjg2LS4xNTA0WiIgY2xhc3M9InN0MCIvPiYjeGE7ICAgIDxnPiYjeGE7ICAgICAgPHBhdGggZD0iTTUzLjkyNDgsMzQuNDM0NmgtNS40MTk5Yy0uMzQ0NywwLS42MjUtLjI4MDMtLjYyNS0uNjI1cy4yODAzLS42MjUuNjI1LS42MjVoNS40MTk5Yy4zNDQ3LDAsLjYyNS4yODAzLjYyNS42MjVzLS4yODAzLjYyNS0uNjI1LjYyNVoiIGNsYXNzPSJzdDAiLz4mI3hhOyAgICAgIDxwYXRoIGQ9Ik01My45MjQ4LDM5LjM5MzZoLTUuNDE5OWMtLjM0NDcsMC0uNjI1LS4yODAzLS42MjUtLjYyNXMuMjgwMy0uNjI1LjYyNS0uNjI1aDUuNDE5OWMuMzQ0NywwLC42MjUuMjgwMy42MjUuNjI1cy0uMjgwMy42MjUtLjYyNS42MjVaIiBjbGFzcz0ic3QwIi8+JiN4YTsgICAgICA8cGF0aCBkPSJNNTMuOTI0OCwzNi45MTQxaC01LjQxOTljLS4zNDQ3LDAtLjYyNS0uMjgwMy0uNjI1LS42MjVzLjI4MDMtLjYyNS42MjUtLjYyNWg1LjQxOTljLjM0NDcsMCwuNjI1LjI4MDMuNjI1LjYyNXMtLjI4MDMuNjI1LS42MjUuNjI1WiIgY2xhc3M9InN0MCIvPiYjeGE7ICAgIDwvZz4mI3hhOyAgICA8cGF0aCBkPSJNNDIuMTAyNSwzOS43MzQ0Yy0xLjgzODksMC0zLjMzNS0xLjQ5NjEtMy4zMzUtMy4zMzVzMS40OTYxLTMuMzM1LDMuMzM1LTMuMzM1LDMuMzM1LDEuNDk2MSwzLjMzNSwzLjMzNS0xLjQ5NjEsMy4zMzUtMy4zMzUsMy4zMzVaTTQyLjEwMjUsMzQuMzE0NWMtMS4xNDk0LDAtMi4wODUuOTM1NS0yLjA4NSwyLjA4NXMuOTM1NSwyLjA4NSwyLjA4NSwyLjA4NSwyLjA4NS0uOTM1NSwyLjA4NS0yLjA4NS0uOTM1NS0yLjA4NS0yLjA4NS0yLjA4NVoiIGNsYXNzPSJzdDAiLz4mI3hhOyAgPC9nPiYjeGE7PC9zdmc+;" parent="1" vertex="1">
          <mxGeometry x="289.75" y="520" width="62" height="62" as="geometry" />
        </mxCell>
        <mxCell id="VBJ0osGM4a_MAeBudqhX-2" value="" style="shape=image;verticalLabelPosition=bottom;labelBackgroundColor=default;verticalAlign=top;aspect=fixed;imageAspect=0;editableCssRules=.*;image=data:image/svg+xml,PHN2ZyB4bWxucz0iaHR0cDovL3d3dy53My5vcmcvMjAwMC9zdmciIHZpZXdCb3g9IjAgMCA2Mi4zNjIxOTc4NzU5NzY1NiA2Mi4zNjIyMDE2OTA2NzM4MyIgdmVyc2lvbj0iMS4xIiB3aWR0aD0iNjIuMzYyMTk3ODc1OTc2NTYiIGhlaWdodD0iNjIuMzYyMjAxNjkwNjczODMiPiYjeGE7ICAmI3hhOyAgPGRlZnM+JiN4YTsgICAgPHN0eWxlPiYjeGE7ICAgICAgLnN0MCB7JiN4YTsgICAgICAgIGZpbGw6ICNmZmY7JiN4YTsgICAgICB9JiN4YTsmI3hhOyAgICAgIC5zdDEgeyYjeGE7ICAgICAgICBmaWxsOiAjZGEyOTFjOyYjeGE7ICAgICAgfSYjeGE7ICAgIDwvc3R5bGU+JiN4YTsgIDwvZGVmcz4mI3hhOyAgPGcgaWQ9IkViZW5lXzIiPiYjeGE7ICAgIDxwYXRoIGQ9Ik0zMS4zMTQ5LDYyLjM2MjJDMTMuNDgyOCw2Mi4zNjIyLDAsNDcuNTkwNSwwLDMxLjMxNDgsMCwxMi42MzI5LDE1LjU1NzEsMCwzMS4wODA3LDBjMTguNjAxNiwwLDMxLjI4MTUsMTUuMzM5OSwzMS4yODE1LDMwLjk0NzIsMCwxOS4wNDk1LTE1LjY1NzUsMzEuNDE1LTMxLjA0NzMsMzEuNDE1aDBaIiBjbGFzcz0ic3QxIi8+JiN4YTsgIDwvZz4mI3hhOyAgPGcgaWQ9IkViZW5lXzMiPiYjeGE7ICAgIDxnPiYjeGE7ICAgICAgPHBhdGggZD0iTTQ3LjA3NTIsMjcuOTkyMmMtLjE2MDItLjE2MDItLjMxOTMtLjMxOTMtLjQ4NTQtLjQ5MTJsLTEyLjM0ODYtMTIuMzQ4MWMtLjY3NzctLjY3NzctMS42MTEzLTEuMDAxLTIuNTYxNS0uODgyOC0uOTUxNy4xMTYyLTEuNzg2Ni42NjI2LTIuMjkxLDEuNDk5LS43MjM2LDEuMjAxMi0uNTAyNCwyLjc2ODYuNTM3MSwzLjgxMWw2LjM3ODksNi40MDMzYy4yODMyLjI3MjkuMzk3NS42Nzg3LjI5NjksMS4wNTk2LS4wOTk2LjM4MDktLjM5NzUuNjc5Mi0uNzc5My43Nzg4LS4zNzk5LjA5OTYtLjc4NjEtLjAxNDYtMS4wNzEzLS4zMTAxbC01LjM0MDgtNS4zNDEzYy0xLjU4NTktMS42OTA5LTQuMzgyMy0yLjc0OTUtNi45NTI2LTIuNjI0LS45MDQuMDQyNC0xLjc1MTIuMjI1LTIuNTMzMy41MzMtLjQ0MDItMS4yNTc4LTEuNjU2Ni0yLjEyMjItMy4wMzE2LTIuMDY2Ny0xLjU1NDcuMDU5MS0yLjgyNzYsMS4yNzM0LTIuOTYxNCwyLjgyNDctLjExNzEsMS4zNzA4LjY5MSwyLjYzMTQsMS45MzE3LDMuMTI4Ny0xLjU4MTcsMy4zODI2LS4yOTExLDcuMTM4LDIuMjIzNiw5LjE2MzguODEwNS42NTMzLDEuNzE4MywxLjMwMzcsMi42Nzk3LDEuOTkxMiwyLjE0NzksMS41MzgxLDQuNTgyLDMuMjgwMyw2LjEwODksNS4yODkxLDIuMTEwOCwyLjYzMTgsMy41MzgxLDYuMzM0LDMuNTUyMiw2LjM3MTEuMTUxOS4zOTg0LjUzMTcuNjQzNi45MzQ2LjY0MzYuMTE4MiwwLC4yMzg4LS4wMjE1LjM1Ni0uMDY1NC41MTU2LS4xOTczLjc3NDQtLjc3NDQuNTc4MS0xLjI5MS0uMDYyNS0uMTYzMS0xLjU0OTMtNC4wMjczLTMuODQ0Ny02Ljg4OTYtMS42OTM0LTIuMjI3NS00LjI1ODMtNC4wNjM1LTYuNTIxLTUuNjgzNi0uOTM3NS0uNjcwOS0xLjgyMjgtMS4zMDQ3LTIuNTg4OS0xLjkyMjQtMi4xNDctMS43My0zLjA5NzctNS4xNTYyLS45NzIyLTcuODk2NSwxLjI4NzYtMS42NjAyLDIuOTg0OS0yLjA3NTcsNC4xODIxLTIuMTMxOCwyLjMxOTgtLjExMjgsNC40MjcyLjk1NzUsNS40MjI0LDIuMDE3MWw1LjM1MDYsNS4zNTE2Yy43NzU0LjgwMjcsMS45MjU4LDEuMTI4NCwzLjAwNDkuODQzMywxLjA3OTEtLjI4MjIsMS45MjQ4LTEuMTI3OSwyLjIwOC0yLjIwNjUuMjgyMi0xLjA4MDEtLjA0MS0yLjIzMTktLjgzMDEtMi45OTE3bC02LjM2NDctNi4zODk2Yy0uMzg0My0uMzg1Ny0uNDg1OC0uOTYwNC0uMjQwNy0xLjM2NzIuMjUyNC0uNDE4OS42MjI2LS41MjIuODIwMy0uNTQ1OS4zMzUtLjA0NDQuNjY2LjA3MjMuOTA1My4zMTE1bDEyLjMzNTksMTIuMzM1NGMuMTYyMS4xNjguMzMwMS4zMzU0LjQ5OS41MDQ0LjkzNTUuOTM1MSwxLjgxOTMsMS44MTg4LDEuODU1NSwyLjg1NiwwLDEuNDY2OC0xLjAzNjEsMi4zNDE4LTIuNzcwNSwyLjM0MThoLTQuMDg3OWMtLjc1MzksMC0xLjQ4MTQuMjczNC0yLjA0ODguNzcwNWwtMS44MjYyLDEuNjAwNmMtLjQxNS4zNjQzLS40NTcuOTk2MS0uMDkyOCwxLjQxMTEuMzYzMy40MTYuOTk3MS40NTUxLDEuNDExMS4wOTI4bDEuODI2Mi0xLjYwMDZjLjIwMjEtLjE3NjguNDYxOS0uMjc0NC43MzA1LS4yNzQ0aDQuMDg3OWMzLjI5NTksMCw0Ljc3MDUtMi4xODA3LDQuNzY5NS00LjM3Ni0uMDYzNS0xLjg1OTktMS4zMjcxLTMuMTIyNi0yLjQ0MTQtNC4yMzYzWk0xNi45Njg4LDIwLjAxMTdjLjU2MS0uMDI5OCwxLjAyOTMuMzcyNiwxLjExNzcuOTEzNi4wMTAyLjA2MjIuMDQzNS4xMTI1LjA2NDEuMTY5OC0uNDI4NS4zMzI2LS44MjQzLjcxNjYtMS4xODUsMS4xNTA5LS4wNjA3LS4wMjY0LS4xMTQxLS4wNjQzLS4xODEzLS4wNzg2LS41MzcxLS4xMTQzLS45MDY3LS42MTI4LS44NjA0LTEuMTU5Ny4wNDc0LS41NDY5LjQ5NjYtLjk3NTYsMS4wNDQ5LS45OTYxWiIgY2xhc3M9InN0MCIvPiYjeGE7ICAgICAgPHBhdGggZD0iTTQwLjcxMTksNDEuOTQxNGwtNS4wNjY0LjAwMWMtLjM2OTEsMC0uNjcyOS0uMjUtLjc5NjktLjYxOTEtLjAwNjgtLjAyNDQtLjY2ODktMi40MTExLTEuNTYyNS02LjI3MzQtMS4wNDk4LTQuNTM3MS01Ljk4OTMtNy4wNDY0LTkuMDAyOS03LjA0NjQtLjU1MjIsMC0xLC40NDc4LTEsMXMuNDQ3OCwxLDEsMWMyLjQxNDYsMCw2LjI2NjYsMi4wOTEzLDcuMDU0Miw1LjQ5NzYuOTA0OCwzLjkwOTIsMS41Nzc2LDYuMzM0LDEuNTk4MSw2LjQwNTMuNDEyMSwxLjIzNTQsMS40NzQ2LDIuMDM0MiwyLjcwOSwyLjAzNjFsNS4wNjc0LS4wMDFjLjI1LDAsLjQ4MTQuMTI0LjYyMDEuMzMzLjA4MDEuMTIxMS4xMjIxLjI2MTcuMTIyMS40MDgyLDAsLjQwOTItLjMzMy43NDIyLS43NDIyLjc0MjJoLTQuMzU0NWMtLjU1MjcsMC0xLC40NDczLTEsMXMuNDQ3MywxLDEsMWg0LjM1NDVjMS41MTE3LDAsMi43NDIyLTEuMjMwNSwyLjc0MjItMi43NDIyLDAtLjU0MS0uMTU3Mi0xLjA2NDUtLjQ1NTEtMS41MTI3LS41MDg4LS43Njk1LTEuMzY0My0xLjIyODUtMi4yODcxLTEuMjI4NVoiIGNsYXNzPSJzdDAiLz4mI3hhOyAgICA8L2c+JiN4YTsgICAgPHBhdGggZD0iTTI0LjYwOTQsNDMuOTQyNGgtNC4zNTQ1Yy0xLjUxMTcsMC0yLjc0MTctMS4yMjk1LTIuNzQxNy0yLjc0MTIsMC0uNTQxLjE1NzItMS4wNjQ1LjQ1NTEtMS41MTM3LjUwOTMtLjc2ODYsMS4zNjM4LTEuMjI4NSwyLjI4NjYtMS4yMjg1aDEuNzQxN2MuNTUyMiwwLDEsLjQ0NzMsMSwxcy0uNDQ3OCwxLTEsMWgtMS43NDM3Yy0uMjQ4NSwwLS40NzkuMTI1LS42MTcyLjMzMy0uMDgwNi4xMjExLS4xMjI2LjI2MjctLjEyMjYuNDA5MiwwLC40MDkyLjMzMjUuNzQxMi43NDE3Ljc0MTJoNC4zNTQ1Yy41NTIyLDAsMSwuNDQ3MywxLDFzLS40NDc4LDEtMSwxWiIgY2xhc3M9InN0MCIvPiYjeGE7ICAgIDxjaXJjbGUgcj0iMSIgY3k9IjMwLjg1MTciIGN4PSI0Mi4wMzI5IiBjbGFzcz0ic3QwIi8+JiN4YTsgIDwvZz4mI3hhOzwvc3ZnPg==;" parent="1" vertex="1">
          <mxGeometry x="368.75" y="640" width="62" height="62" as="geometry" />
        </mxCell>
        <mxCell id="VBJ0osGM4a_MAeBudqhX-3" value="" style="shape=image;verticalLabelPosition=bottom;labelBackgroundColor=default;verticalAlign=top;aspect=fixed;imageAspect=0;editableCssRules=.*;image=data:image/svg+xml,PHN2ZyB4bWxucz0iaHR0cDovL3d3dy53My5vcmcvMjAwMC9zdmciIHZpZXdCb3g9IjAgLTAuMDAwMjAwMDAwMDA5NDk5NDkwMjYgNjIuMzYyMjAxNjkwNjczODMgNjIuMzYyMTk3ODc1OTc2NTYiIHZlcnNpb249IjEuMSIgaWQ9IkViZW5lXzNfZmxhY2hfeDVGX3BmYWQiIHdpZHRoPSI2Mi4zNjIyMDE2OTA2NzM4MyIgaGVpZ2h0PSI2Mi4zNjIxOTc4NzU5NzY1NiI+JiN4YTsgICYjeGE7ICA8ZGVmcz4mI3hhOyAgICA8c3R5bGU+JiN4YTsgICAgICAuc3QwIHsmI3hhOyAgICAgICAgZmlsbDogI2ZmZjsmI3hhOyAgICAgIH0mI3hhOyYjeGE7ICAgICAgLnN0MSB7JiN4YTsgICAgICAgIGZpbGw6ICNkYTI5MWM7JiN4YTsgICAgICB9JiN4YTsgICAgPC9zdHlsZT4mI3hhOyAgPC9kZWZzPiYjeGE7ICA8cGF0aCBkPSJNMzEuMzE0OSw2Mi4zNjJDMTMuNDgyOCw2Mi4zNjIsMCw0Ny41OTAzLDAsMzEuMzE0NiwwLDEyLjYzMjcsMTUuNTU3MS0uMDAwMiwzMS4wODA3LS4wMDAyLDQ5LjY4MjMtLjAwMDIsNjIuMzYyMiwxNS4zMzk3LDYyLjM2MjIsMzAuOTQ3YzAsMTkuMDQ5NS0xNS42NTc1LDMxLjQxNS0zMS4wNDczLDMxLjQxNWgwWiIgY2xhc3M9InN0MSIvPiYjeGE7ICA8Zz4mI3hhOyAgICA8cGF0aCBkPSJNMjYuODU2LDM2LjQ1MDJjLS45NTU2LDAtMS44NjI4LS4xNDg0LTIuNzIyMi0uNDQ0My0uODU4OS0uMjk2OS0xLjYxOTEtLjc0MjItMi4yNzk4LTEuMzM1bDEuNjQ3LTEuOTcxN2MxLjA2NzQuODUzNSwyLjIyMTIsMS4yODEyLDMuNDYxOSwxLjI4MTIuMzk2NSwwLC42OTg3LS4wNjM1LjkwNzItLjE5MDRzLjMxMjUtLjMwNzYuMzEyNS0uNTQxdi0uMDMwM2MwLS4xMTEzLS4wMjU0LS4yMS0uMDc2Mi0uMjk2OS0uMDUwOC0uMDg1OS0uMTQ0NS0uMTY5OS0uMjgyMi0uMjUxLS4xMzcyLS4wODExLS4zMTk4LS4xNTkyLS41NDg4LS4yMzU0LS4yMjg1LS4wNzcxLS41MjU5LS4xNTUzLS44OTIxLS4yMzczLS41NjkzLS4xMzA5LTEuMDk4MS0uMjc2NC0xLjU4NTktLjQzMzYtLjQ4ODMtLjE1NzItLjkxMjYtLjM2MDQtMS4yNzM0LS42MDg5cy0uNjQ1NS0uNTU4MS0uODU0LS45Mjg3Yy0uMjA4NS0uMzcwMS0uMzEyNS0uODI5Ni0uMzEyNS0xLjM3NzR2LS4wMzAzYzAtLjQ5NzYuMDkzOC0uOTU0MS4yODIyLTEuMzcwMS4xODgtLjQxNi40NjI0LS43NzY0LjgyMzItMS4wODExcy43OTU0LS41NDA1LDEuMzAzNy0uNzA4Yy41MDgzLS4xNjcsMS4wODMtLjI1MSwxLjcyMzYtLjI1MS45MTUsMCwxLjczMDUuMTIwMSwyLjQ0NzMuMzYwOC43MTY4LjI0MDIsMS4zNjUyLjU5NTcsMS45NDQzLDEuMDY1OWwtMS40NzksMi4wOTU3Yy0uNDg3OC0uMzQ1Mi0uOTg4OC0uNjA3NC0xLjUwMi0uNzg1Mi0uNTEzNy0uMTc3Ny0xLjAwOTMtLjI2NzEtMS40ODczLS4yNjcxLS4zNTYsMC0uNjIyNi4wNjY0LS44MDAzLjE5ODItLjE3ODIuMTMxOC0uMjY3MS4yOTQ0LS4yNjcxLjQ4Njh2LjAzMDhjMCwuMTIxNi4wMjc4LjIyOC4wODQuMzE5My4wNTU3LjA5MTguMTUyMy4xNzUzLjI4OTYuMjUxNXMuMzI1Ny4xNTIzLjU2NDUuMjI4NS41NDE1LjE1NDguOTA3Mi4yMzU4Yy42MTA0LjEzMTgsMS4xNjE2LjI4NjYsMS42NTQ4LjQ2MzkuNDkzMi4xNzc3LjkxMjYuMzkzNiwxLjI1ODMuNjQ3NS4zNDUyLjI1MzQuNjA5OS41NjA1Ljc5My45MjA5LjE4MjYuMzYwOC4yNzQ0Ljc4OTYuMjc0NCwxLjI4NjZ2LjAzMDNjMCwuNTQ3OS0uMTA0NSwxLjAzNTItLjMxMjUsMS40NjE5LS4yMDg1LjQyNTgtLjUwMS43ODkxLS44NzcsMS4wODc5LS4zNzY1LjI5OTgtLjgyOTEuNTI4My0xLjM1NzQuNjg1NS0uNTI4OC4xNTcyLTEuMTE4Ny4yMzU0LTEuNzY5LjIzNTRaIiBjbGFzcz0ic3QwIi8+JiN4YTsgICAgPHBhdGggZD0iTTMyLjI5OTgsMzQuNTcxM2wuODYyMy0uNzQzMmMuNzU4OC45NTIxLDEuNzU1OSwxLjU0NjksMy4wODAxLDEuNTQ2OSwxLjM2ODIsMCwyLjM1MDYtLjc1ODgsMi4zNTA2LTEuOTM0NnYtLjAyOTNjMC0xLjE3NTgtMS4wMjY0LTEuODkwMS0yLjc4MjItMS44OTAxaC0xLjA3MTN2LTEuMDExMmgxLjEwMDZjMS40Mjg3LDAsMi40Njk3LS43MjksMi40Njk3LTEuOTE5NHYtLjAyOThjMC0xLjA0MTUtLjg3NzktMS44MTQ5LTIuMjMxNC0xLjgxNDktMS4xNjAyLDAtMS45Nzg1LjUzNTYtMi42OTI0LDEuNDg3OGwtLjg2MzMtLjYyNWMuODMzLTEuMTc1MywxLjkzNDYtMS45MzQxLDMuNTg1OS0xLjkzNDEsMS45OTMyLDAsMy4zOTE2LDEuMTc1MywzLjM5MTYsMi43ODIydi4wMjk4YzAsMS4zNjg3LS44OTI2LDIuMDgyNS0xLjgxNTQsMi40Mzk5LDEuMTkwNC4zODY3LDIuMDk3NywxLjE2MDYsMi4wOTc3LDIuNDg0OXYuMDI5M2MwLDEuNjY3LTEuNDI3NywzLjAwNTktMy41NzAzLDMuMDA1OS0xLjY4MDcsMC0zLjA0OTgtLjc4OTEtMy45MTIxLTEuODc1WiIgY2xhc3M9InN0MCIvPiYjeGE7ICA8L2c+JiN4YTsgIDxwYXRoIGQ9Ik0zMS4xODExLDE0Ljc2NjhjOS4wNjUzLDAsMTYuNDE0MSw3LjM0ODgsMTYuNDE0MSwxNi40MTQxcy03LjM0ODksMTYuNDE0MS0xNi40MTQxLDE2LjQxNDEtMTYuNDE0MS03LjM0ODktMTYuNDE0MS0xNi40MTQxLDcuMzQ4OC0xNi40MTQxLDE2LjQxNDEtMTYuNDE0MU0zMS4xODExLDEyLjc5MDJjLTEwLjE0MDcsMC0xOC4zOTA3LDguMjUtMTguMzkwNywxOC4zOTA3czguMjUsMTguMzkwNywxOC4zOTA3LDE4LjM5MDcsMTguMzkwNy04LjI1MDEsMTguMzkwNy0xOC4zOTA3LTguMjUwMS0xOC4zOTA3LTE4LjM5MDctMTguMzkwN2gwWiIgY2xhc3M9InN0MCIvPiYjeGE7ICA8cGF0aCBkPSJNMTguMTUyMyw0NS41ODk4Yy0uMTk1My0uMTk1My0uNTExNy0uMTk1My0uNzA3LDBsLS45ODk0Ljk4ODYtLjYzNTQtLjYzNTQuOTg5LS45ODljLjE5NTMtLjE5NTMuMTk1My0uNTExNywwLS43MDdzLS41MTE3LS4xOTUzLS43MDcsMGwtLjk4OS45ODktLjMxODEtLjMxODFjLS4xOTUzLS4xOTUzLS41MTE3LS4xOTUzLS43MDcsMGwtMS4wMDY4LDEuMDA2OGMtLjQ1MzEuNDUzMS0uNzAyNiwxLjA1NTctLjcwMjYsMS42OTYzLDAsLjQ3MS4xMzY5LjkxOTMuMzg3NywxLjMwNDJsLTEuNDA4NywxLjQwODdjLS4xOTUzLjE5NTMtLjE5NTMuNTExNywwLC43MDcuMDk3Ny4wOTc3LjIyNTYuMTQ2NS4zNTM1LjE0NjVzLjI1NTktLjA0ODguMzUzNS0uMTQ2NWwxLjQwODQtMS40MDg0Yy4zOTUzLjI1NjMuODQ5My4zODU5LDEuMzA0NS4zODU5LjYxMzgsMCwxLjIyOC0uMjMzNCwxLjY5NTgtLjcwMTJsMS4wMDczLTEuMDA2OGMuMDkzOC0uMDkzOC4xNDY1LS4yMjA3LjE0NjUtLjM1MzVzLS4wNTI3LS4yNTk4LS4xNDY1LS4zNTM1bC0uMzE4LS4zMTguOTg5NC0uOTg4NmMuMTk1My0uMTk1My4xOTUzLS41MTE3LDAtLjcwN1pNMTUuNzY2Niw0OC42MTA0Yy0uNTI3OC41MjgzLTEuNDQ5Mi41MjgzLTEuOTc4LDAtLjI2NDItLjI2NDYtLjQwOTctLjYxNTItLjQwOTctLjk4OTMsMC0uMzczLjE0NTUtLjcyNDYuNDA5Ny0uOTg5M2wuNjUzMy0uNjUzMy4zMTY5LjMxNjlzLjAwMDUuMDAxLjAwMS4wMDE1LjAwMS4wMDA1LjAwMTUuMDAxbDEuNjU5MiwxLjY1OTItLjY1MzguNjUzM1oiIGNsYXNzPSJzdDAiLz4mI3hhOyAgPHBhdGggZD0iTTE4LjExNTIsMTYuMTAyMWwtLjk4OTItLjk4ODguMzE3OC0uMzE3OGMuMTk1My0uMTk1My4xOTUzLS41MTE3LDAtLjcwN2wtMS4wMDY4LTEuMDA3M2MtLjgxNDEtLjgxMzMtMi4wNzEyLS45MTcyLTMuMDAwNS0uMzE1bC0xLjQwODYtMS40MDg2Yy0uMTk1My0uMTk1My0uNTExNy0uMTk1My0uNzA3LDBzLS4xOTUzLjUxMTcsMCwuNzA3bDEuNDA4NSwxLjQwODVjLS42MDI1LjkyOTQtLjQ5ODYsMi4xODcuMzE1MSwzLjAwMDdsMS4wMDczLDEuMDA2OGMuMDk3Ny4wOTc3LjIyNTYuMTQ2NS4zNTM1LjE0NjVzLjI1NTktLjA0ODguMzUzNS0uMTQ2NWwuMzE3Ni0uMzE3Ni45ODkuOTg5Yy4wOTc3LjA5NzcuMjI1Ni4xNDY1LjM1MzUuMTQ2NXMuMjU1OS0uMDQ4OC4zNTM1LS4xNDY1Yy4xOTUzLS4xOTUzLjE5NTMtLjUxMTcsMC0uNzA3bC0uOTg5LS45ODkuNjM1Ni0uNjM1Ni45ODkyLjk4ODhjLjA5NzcuMDk3Ny4yMjU2LjE0NjUuMzUzNS4xNDY1cy4yNTU5LS4wNDg4LjM1MzUtLjE0NjVjLjE5NTMtLjE5NTMuMTk1My0uNTExNywwLS43MDdaTTEzLjc1MTUsMTUuNzY2NmMtLjU0NTQtLjU0NTQtLjU0NTQtMS40MzMxLDAtMS45Nzg1LjI3MjUtLjI3MjUuNjMwOS0uNDA4Ny45ODkzLS40MDg3cy43MTY4LjEzNjIuOTg5My40MDg3bC42NTMzLjY1MzgtMS42NTkyLDEuNjU5MnMtLjAwMS4wMDA1LS4wMDE1LjAwMS0uMDAwNS4wMDEtLjAwMS4wMDE1bC0uMzE2NC4zMTY0LS42NTM4LS42NTMzWiIgY2xhc3M9InN0MCIvPiYjeGE7ICA8cGF0aCBkPSJNNTEuMDA0OSwxMS4zMjA4Yy0uMTk1My0uMTk1My0uNTExNy0uMTk1My0uNzA3LDBsLTEuNDEyNCwxLjQxMjRjLS45MjA3LS41NzY3LTIuMjEyLS40NzQtMi45OTY4LjMxMTJsLTEuMDA2OCwxLjAwNjhjLS4xOTUzLjE5NTMtLjE5NTMuNTExNywwLC43MDdsLjMxNzYuMzE3Ny0uOTg5NC45ODk0Yy0uMTk1My4xOTUzLS4xOTUzLjUxMTcsMCwuNzA3LjA5NzcuMDk3Ny4yMjU2LjE0NjUuMzUzNS4xNDY1cy4yNTU5LS4wNDg4LjM1MzUtLjE0NjVsLjk4OTMtLjk4OTMuNjM1Ni42MzU5LS45ODkyLjk4OTJjLS4xOTUzLjE5NTMtLjE5NTMuNTExNywwLC43MDcuMDk3Ny4wOTc3LjIyNTYuMTQ2NS4zNTM1LjE0NjVzLjI1NTktLjA0ODguMzUzNS0uMTQ2NWwuOTg5MS0uOTg5MS4zMTc2LjMxNzdjLjA5NzcuMDk3Ny4yMjU2LjE0NjUuMzUzNS4xNDY1cy4yNTU5LS4wNDg4LjM1MzUtLjE0NjVsMS4wMDc4LTEuMDA3M2MuNDUzMS0uNDUzMS43MDIxLTEuMDU1Mi43MDIxLTEuNjk2MywwLS40NzAzLS4xMzY2LS45MTg2LS4zODczLTEuMzAzNmwxLjQwODgtMS40MDg4Yy4xOTUzLS4xOTUzLjE5NTMtLjUxMTcsMC0uNzA3Wk00OC41NzQyLDE1LjcyOTVsLS42NTQzLjY1MzgtLjMxNjctLjMxNjlzLS4wMDA0LS4wMDA3LS4wMDA3LS4wMDEtLjAwMDctLjAwMDQtLjAwMS0uMDAwN2wtMS42NTkyLTEuNjYuNjUzMy0uNjUzM2MuNTI5My0uNTI3MywxLjQ0OTItLjUyODMsMS45Nzg1LDAsLjI2MzcuMjY0Mi40MDkyLjYxNTIuNDA5Mi45ODg4LDAsLjM3NC0uMTQ1NS43MjUxLS40MDkyLjk4OTNaIiBjbGFzcz0ic3QwIi8+JiN4YTsgIDxwYXRoIGQ9Ik01MS4wNDEsNTAuMjk2OWwtMS40MDg2LTEuNDA4NmMuMjUwOS0uMzg1LjM4ODEtLjgzMzMuMzg4MS0xLjMwNDMsMC0uNjQwNi0uMjUtMS4yNDIyLS43MDMxLTEuNjk1M2wtMS4wMDY4LTEuMDA3OGMtLjA5MzgtLjA5MzgtLjIyMDctLjE0NjUtLjM1MzUtLjE0NjVzLS4yNTk4LjA1MjctLjM1MzUuMTQ2NWwtLjMxNzkuMzE3OS0uOTg4OC0uOTg4OGMtLjE5NTMtLjE5NTMtLjUxMTctLjE5NTMtLjcwNywwcy0uMTk1My41MTE3LDAsLjcwN2wuOTg4OC45ODg4LS42MzU3LjYzNTctLjk4ODgtLjk4ODhjLS4xOTUzLS4xOTUzLS41MTE3LS4xOTUzLS43MDcsMHMtLjE5NTMuNTExNywwLC43MDdsLjk4ODguOTg4OC0uMzE3OS4zMTc5Yy0uMTk1My4xOTUzLS4xOTUzLjUxMTcsMCwuNzA3bDEuMDA2OCwxLjAwNjhjLjQ1MzEuNDUzMSwxLjA1NTcuNzAzMSwxLjY5NjMuNzAzMS40NzEsMCwuOTE5My0uMTM3MiwxLjMwNDMtLjM4ODFsMS40MDg2LDEuNDA4NmMuMDk3Ny4wOTc3LjIyNTYuMTQ2NS4zNTM1LjE0NjVzLjI1NTktLjA0ODguMzUzNS0uMTQ2NWMuMTk1My0uMTk1My4xOTUzLS41MTE3LDAtLjcwN1pNNDYuNjMxOCw0OC41NzMybC0uNjUzMy0uNjUzMy4zMTU0LS4zMTU0Yy4wMDA5LS4wMDA5LjAwMjEtLjAwMTEuMDAyOS0uMDAycy4wMDExLS4wMDIxLjAwMi0uMDAyOWwxLjMzNzktMS4zMzc5Yy4wMDA5LS4wMDA5LjAwMjEtLjAwMTEuMDAyOS0uMDAycy4wMDExLS4wMDIxLjAwMi0uMDAyOWwuMzE1NC0uMzE1NC42NTMzLjY1NDNjLjI2NDYuMjY0Ni40MTAyLjYxNTIuNDEwMi45ODgzLDAsLjM3NC0uMTQ1NS43MjQ2LS40MTAyLjk4OTMtLjUyODMuNTI5My0xLjQ0ODIuNTMwMy0xLjk3ODUsMFoiIGNsYXNzPSJzdDAiLz4mI3hhOzwvc3ZnPg==;" parent="1" vertex="1">
          <mxGeometry x="370.75" y="520" width="62" height="62" as="geometry" />
        </mxCell>
        <mxCell id="VBJ0osGM4a_MAeBudqhX-4" value="" style="shape=image;verticalLabelPosition=bottom;labelBackgroundColor=default;verticalAlign=top;aspect=fixed;imageAspect=0;editableCssRules=.*;image=data:image/svg+xml,PHN2ZyB4bWxucz0iaHR0cDovL3d3dy53My5vcmcvMjAwMC9zdmciIHZpZXdCb3g9IjAgMCA2Mi4zNjIxOTc4NzU5NzY1NiA2Mi4zNjIyMDE2OTA2NzM4MyIgdmVyc2lvbj0iMS4xIiBpZD0iRWJlbmVfMiIgd2lkdGg9IjYyLjM2MjE5Nzg3NTk3NjU2IiBoZWlnaHQ9IjYyLjM2MjIwMTY5MDY3MzgzIj4mI3hhOyAgJiN4YTsgIDxkZWZzPiYjeGE7ICAgIDxzdHlsZT4mI3hhOyAgICAgIC5zdDAgeyYjeGE7ICAgICAgICBmaWxsOiAjZmZmOyYjeGE7ICAgICAgfSYjeGE7JiN4YTsgICAgICAuc3QxIHsmI3hhOyAgICAgICAgZmlsbDogI2RhMjkxYzsmI3hhOyAgICAgIH0mI3hhOyAgICA8L3N0eWxlPiYjeGE7ICA8L2RlZnM+JiN4YTsgIDxwYXRoIGQ9Ik0zMS4zMTQ5LDYyLjM2MjJDMTMuNDgyOCw2Mi4zNjIyLDAsNDcuNTkwNSwwLDMxLjMxNDgsMCwxMi42MzI5LDE1LjU1NzEsMCwzMS4wODA3LDBjMTguNjAxNiwwLDMxLjI4MTUsMTUuMzM5OSwzMS4yODE1LDMwLjk0NzIsMCwxOS4wNDk1LTE1LjY1NzUsMzEuNDE1LTMxLjA0NzMsMzEuNDE1aDBaIiBjbGFzcz0ic3QxIi8+JiN4YTsgIDxwYXRoIGQ9Ik00OS4xNTgsMzguNjAyMmwtMi44Njg5LTIuNjczNmMtLjMxMTQtLjI5MDItLjc4ODEtLjI2MjMtMS4wODkzLjAzODUtMS43NTU5LDEuNzU0LTMuODYxNiwyLjY0NTktNi4zMTgyLDIuNjQ1OS0yLjg4NiwwLTUuMzEtMS4xNjkzLTYuODYwOC0zLjE0MzItLjM4OTMtLjQ5NTctLjAwMi0xLjIyNjQuNjI4My0xLjIyNjRoNy41ODZjLjQyNjgsMCwuNzcyOC0uMzQ2Ljc3MjgtLjc3Mjh2LTEuNzAyM2MwLS40MjY4LS4zNDYtLjc3MjgtLjc3MjgtLjc3MjhoLTkuOTc2Yy0uMDM4Ny0uMzQ3OS0uMDM4Ny0uNjk1OC0uMDM4Ny0xLjA0MzhzMC0uNjk2NC4wMzg3LTEuMDQ0M2g5Ljk3NmMuNDI2OCwwLC43NzI4LS4zNDYuNzcyOC0uNzcyOHYtMS43MDIzYzAtLjQyNjgtLjM0Ni0uNzcyOC0uNzcyOC0uNzcyOGgtNy41ODU5Yy0uNjMwMywwLTEuMDE3Ni0uNzMwOC0uNjI4Mi0xLjIyNjQsMS41NTA4LTEuOTczNCwzLjk3NDctMy4xNDI2LDYuODYwNi0zLjE0MjYsMi40NTY0LDAsNC41NjIxLjg5MTMsNi4zMTc5LDIuNjE2NS4zMDE4LjI5NjUuNzc1My4zMjIsMS4wODQ4LjAzMzVsMi44NzA0LTIuNjc1NWMuMzA3Ny0uMjg2Ny4zNDA5LS43NzguMDU0Mi0xLjA4NTctMi41NDQ3LTIuNzMxNi02LjIxNzEtNC4yMjQ4LTEwLjYzNy00LjIyNDgtNi42MzUzLDAtMTEuOTI2NywzLjYzNDktMTMuODYzMyw5LjE3ODItLjEwOS4zMTIxLS4zOTQzLjUyNjktLjcyNS41MjY5aC0zLjA0MzljLS40MjY4LDAtLjc3MjguMzQ2LS43NzI4Ljc3Mjh2MS4zOTc5YzIuNTUxOS4wMzA4LDQuNzE3MS45MDI4LDYuMjY0MiwyLjUzNTcuMjY2NS4yODEzLjQwNjYuNjUxNy4zOTQ0LDEuMDQzMS0uMDEyMi4zOTI1LS4xODM0Ljc3MDYtLjQ2OTgsMS4wMzc2bC0xLjQ3MDgsMS4zNzA4Yy0uMDI3OS4wMjYtLjExODIuMTAzOC0uMTI5MS4xMTM5LS4wNjMuMDU4MS0uMjY2OC4yNzc3LS4xNDYzLjU4OTguMDE1Ny4wNDA4LjA3ODUuMTg5Ny4wOTkyLjI0OSwxLjkzNjYsNS41NDMzLDcuMjI4LDkuMTc4MiwxMy44NjMzLDkuMTc4Miw0LjQyMzYsMCw4LjA5ODYtMS40OTQ4LDEwLjY0MzUtNC4yNjM1LjI4MzQtLjMwODMuMjQ4OS0uNzk3MS0uMDU3NC0xLjA4MjZaIiBjbGFzcz0ic3QwIi8+JiN4YTsgIDxnPiYjeGE7ICAgIDxwYXRoIGQ9Ik0yMC4wMTc2LDQ0LjM2NDNjLTMuNzM0OSwwLTYuNzY1MS0yLjAwNDktNy45MDg3LTUuMjMzNGwtMS41MTMyLjAxOTVjLS41MzIyLDAtLjk2NTMtLjQzMjYtLjk2NTMtLjk2NDh2LS44MTU0YzAtLjUzMjIuNDMzMS0uOTY0OC45NjUzLS45NjQ4aDEuMDQ4OHYtLjEyMTFoLTEuMDQ4OGMtLjUzMjIsMC0uOTY1My0uNDMzNi0uOTY1My0uOTY1OHYtLjgxMzVjMC0uNTMyMi40MzMxLS45NjU4Ljk2NTMtLjk2NThoMS41NTM3YzEuMTAzLTMuMjA4LDQuMTMzMy01LjIxMzksNy44NjgyLTUuMjEzOSwyLjQ3MTcsMCw0LjU1OTYuODI0Nyw2LjAzODYsMi4zODUzLjE3MzguMTgzNi4yNjU2LjQyNTguMjU3OC42ODI2LS4wMDgzLjI2MDMtLjEyMTEuNTExMi0uMzEwNS42ODhsLTEuNDcxNywxLjM3MjFjLS4xNzUzLjE2MzEtLjQwNDguMjUzOS0uNjQ1NS4yNTM5LS4yNTU5LDAtLjUwMDUtLjA5OTYtLjY4OC0uMjgxMi0uODU4NC0uODMwMS0xLjg0NDctMS4yMzM0LTMuMDE1MS0xLjIzMzQtMS4zMTc0LDAtMi40NjA0LjUtMy4yMTkyLDEuNDA3MmwzLjg5Ny0uMDYwNWMuNTMyMiwwLC45NjQ4LjQzMzYuOTY0OC45NjU4di44MTM1YzAsLjUzMjItLjQzMjYuOTY1OC0uOTY0OC45NjU4aC00LjgzMDF2LjEyMTFoNC44MzAxYy41MzIyLDAsLjk2NDguNDMyNi45NjQ4Ljk2NDh2LjgxNTRjMCwuNTMyMi0uNDMyNi45NjQ4LS45NjQ4Ljk2NDhoLTMuOTExMWMuNzcyOS44NDY3LDEuOTE2NSwxLjM0NjcsMy4yMzM0LDEuMzQ2NywxLjE3NDgsMCwyLjE1OTctLjQwNzIsMy4wMTE3LTEuMjQ2MS4xODgtLjE4NTUuNDM0Ni0uMjg3MS42OTM4LS4yODcxLjI0MTIsMCwuNDcwNy4wOTA4LjY0NjUuMjU0OWwxLjQ2OTcsMS4zNjkxYy4xODkuMTc2OC4zMDIyLjQyNjguMzExLjY4NTUuMDA4My4yNTU5LS4wODE1LjQ5OC0uMjUzOS42ODE2LTEuNDcyNywxLjU3NjItMy41NjMsMi40MDkyLTYuMDQ0NCwyLjQwOTJaIiBjbGFzcz0ic3QwIi8+JiN4YTsgICAgPHBhdGggZD0iTTIwLjAxNzYsMjguODI1MWMyLjM1MTUsMCw0LjMwOTcuNzg3NSw1LjY3NTYsMi4yMjkzLjE3NTguMTg1NS4xNTU2LjQ4NzEtLjAzMTMuNjYxNGwtMS40NzA5LDEuMzcwOWMtLjA4NzIuMDgxMi0uMTk1OC4xMjAyLS4zMDU0LjEyMDItLjEyMTksMC0uMjQ0OS0uMDQ4NC0uMzQwMi0uMTQwNi0uOTM2Ny0uOTA2MS0yLjA1NzEtMS4zNzQ0LTMuMzYyMS0xLjM3NDQtMS41MDA1LDAtMi43NjgyLjU4ODQtMy42MDM1LDEuNTg3OS0uMjQ5Ny4yOTg4LS4wMjAxLjc1OTYuMzY5My43NTk2aDMuOTExNGMuMjU2OSwwLC40NjUyLjIwODMuNDY1Mi40NjUydi44MTQxYzAsLjI1NjktLjIwODMuNDY1Mi0uNDY1Mi40NjUyaC01LjMwODljLS4wMjExLjE4NjktLjAyMTEuMzczOC0uMDIxMS41NjA3czAsLjM3MzguMDIxMS41NjA3aDUuMzA4OWMuMjU2OSwwLC40NjUyLjIwODMuNDY1Mi40NjUydi44MTVjMCwuMjU2OS0uMjA4My40NjUyLS40NjUyLjQ2NTJoLTMuOTExMWMtLjM4OTUsMC0uNjE5MS40NjA5LS4zNjkyLjc1OTcuODM1My45OTg4LDIuMTAyNywxLjU4NywzLjYwMzEsMS41ODcsMS4zMDUsMCwyLjQyNTUtLjQ2ODMsMy4zNjIyLTEuMzg5OC4wOTU3LS4wOTQyLjIyLS4xNDM2LjM0MzMtLjE0MzYuMTA5NCwwLC4yMTguMDM4OS4zMDUxLjEyMDFsMS40NywxLjM3Yy4xODYyLjE3MzUuMjA3LjQ3MzcuMDMzMi42NTk2LTEuMzY2MSwxLjQ2MTQtMy4zMjU4LDIuMjUwNC01LjY3OTUsMi4yNTA0LTMuNTUzMiwwLTYuMzg4NS0xLjkzOTUtNy40Mzc2LTQuOTAwNi0uMDY1Ni0uMTg1My0uMjM0Mi0uMzEyOS0uNDMwOC0uMzEyOWgtMS41NTM3Yy0uMjU2OSwwLS40NjUyLS4yMDgzLS40NjUyLS40NjUydi0uODE1YzAtLjI1NjkuMjA4My0uNDY1Mi40NjUyLS40NjUyaDEuNTcwM2MtLjAyMTItLjE4NjktLjAyMTItLjM3MzgtLjAyMTItLjU2MDdzMC0uMzczOC4wMjEyLS41NjA3aC0xLjU3MDNjLS4yNTY5LDAtLjQ2NTItLjIwODMtLjQ2NTItLjQ2NTJ2LS44MTQxYzAtLjI1NjkuMjA4My0uNDY1Mi40NjUyLS40NjUyaDEuNTUzN2MuMTk2NiwwLC4zNjUyLS4xMjc2LjQzMDgtLjMxMjksMS4wNDkxLTIuOTYxMSwzLjg4NDQtNC45MDE0LDcuNDM3Ni00LjkwMTRNMjAuMDE3NiwyNy44MjUxYy0zLjgxNTIsMC02LjkzOTUsMS45ODc2LTguMjQ2Miw1LjIxNDNoLTEuMTc1OWMtLjgwNzksMC0xLjQ2NTIuNjU3My0xLjQ2NTIsMS40NjUydi44MTQxYzAsLjM5OTEuMTYwMy43NjE0LjQyLDEuMDI1OS0uMjU5Ny4yNjQ1LS40Mi42MjY4LS40MiwxLjAyNTl2LjgxNWMwLC44MDc5LjY1NzMsMS40NjUyLDEuNDY1MiwxLjQ2NTJoMS4xNzU5YzEuMzA2NSwzLjIyNjIsNC40MzA5LDUuMjEzNCw4LjI0NjIsNS4yMTM0LDIuNjIzMywwLDQuODM5OS0uODg3OCw2LjQxLTIuNTY3NS4yNjM1LS4yODE4LjQwMTItLjY1MTYuMzg3OC0xLjA0MTMtLjAxMzUtLjM5MDctLjE4NDYtLjc2NzEtLjQ2OTctMS4wMzI4bC0xLjQ3LTEuMzdjLS4yNjg5LS4yNTA2LS42MTk0LS4zODg2LS45ODY5LS4zODg2LS4zOTEzLDAtLjc2MjIuMTUzLTEuMDQ0Ni40MzA3LS43NTQzLjc0Mi0xLjYyNDcsMS4xMDI3LTIuNjYwOSwxLjEwMjctLjYxMDEsMC0xLjE3NjYtLjExOTQtMS42NzMxLS4zNDY3aDIuMzUwNGMuODA3OSwwLDEuNDY1Mi0uNjU3MywxLjQ2NTItMS40NjUydi0uODE1YzAtLjM5OTEtLjE2MDMtLjc2MTQtLjQyLTEuMDI1OS4yNTk3LS4yNjQ1LjQyLS42MjY4LjQyLTEuMDI1OXYtLjgxNDFjMC0uODA3OS0uNjU3My0xLjQ2NTItMS40NjUyLTEuNDY1MmgtMi4zNTJjLjQ5NjgtLjIyNzgsMS4wNjQtLjM0NzUsMS42NzQ4LS4zNDc1LDEuMDM0MSwwLDEuOTA2NS4zNTc2LDIuNjY2OCwxLjA5MzIuMjgxMi4yNzIuNjQ5LjQyMTksMS4wMzU1LjQyMTkuMzY3NiwwLC43MTgyLS4xMzgxLjk4NzItLjM4ODdsMS40NzA4LTEuMzcwOGMuMjg2NC0uMjY2OS40NTc2LS42NDUxLjQ2OTktMS4wMzc2LjAxMjItLjM5MTMtLjEyNzktLjc2MTgtLjM5NDQtMS4wNDMxLTEuNTc1Mi0xLjY2MjctMy43ODg5LTIuNTQxNS02LjQwMTYtMi41NDE1aDBaIiBjbGFzcz0ic3QxIi8+JiN4YTsgIDwvZz4mI3hhOzwvc3ZnPg==;" parent="1" vertex="1">
          <mxGeometry x="531.75" y="640" width="62" height="62" as="geometry" />
        </mxCell>
        <mxCell id="VBJ0osGM4a_MAeBudqhX-5" value="" style="shape=image;verticalLabelPosition=bottom;labelBackgroundColor=default;verticalAlign=top;aspect=fixed;imageAspect=0;editableCssRules=.*;image=data:image/svg+xml,PHN2ZyB4bWxucz0iaHR0cDovL3d3dy53My5vcmcvMjAwMC9zdmciIHZpZXdCb3g9IjAgMCA2Mi4zNjIxOTc4NzU5NzY1NiA2Mi4zNjIyMDE2OTA2NzM4MyIgdmVyc2lvbj0iMS4xIiBpZD0iSUNPTiIgd2lkdGg9IjYyLjM2MjE5Nzg3NTk3NjU2IiBoZWlnaHQ9IjYyLjM2MjIwMTY5MDY3MzgzIj4mI3hhOyAgJiN4YTsgIDxkZWZzPiYjeGE7ICAgIDxzdHlsZT4mI3hhOyAgICAgIC5zdDAgeyYjeGE7ICAgICAgICBmaWxsOiAjZmZmOyYjeGE7ICAgICAgfSYjeGE7JiN4YTsgICAgICAuc3QxIHsmI3hhOyAgICAgICAgZmlsbDogI2RhMjkxYzsmI3hhOyAgICAgIH0mI3hhOyAgICA8L3N0eWxlPiYjeGE7ICA8L2RlZnM+JiN4YTsgIDxwYXRoIGQ9Ik0zMS4zMTQ5LDYyLjM2MjJDMTMuNDgyOCw2Mi4zNjIyLDAsNDcuNTkwNSwwLDMxLjMxNDgsMCwxMi42MzI5LDE1LjU1NzEsMCwzMS4wODA3LDBjMTguNjAxNiwwLDMxLjI4MTUsMTUuMzM5OSwzMS4yODE1LDMwLjk0NzIsMCwxOS4wNDk1LTE1LjY1NzUsMzEuNDE1LTMxLjA0NzMsMzEuNDE1aDBaIiBjbGFzcz0ic3QxIi8+JiN4YTsgIDxnPiYjeGE7ICAgIDxnPiYjeGE7ICAgICAgPGc+JiN4YTsgICAgICAgIDxwYXRoIGQ9Ik0yOC4xNzgyLDM1LjE4OTFsLTQuMTAxMSwxMS4zODkzYy0uMTAyNS4yOS0uMzEwOS41MjE5LS41ODg2LjY1MzZsLS42MDIyLjI4ODNjLS4zNDc0LjE2NTEtLjc2MzUuMDE3OS0uOTI4LS4zMjgybC0uMzE4MS0uNjY2MWMtLjExMjYtLjIzNTgtLjEyNjktLjUwNjctLjAzOTgtLjc1MzFsLjI5MTctLjgyNS0uNDI5Ni0uODk5OC44OTk4LS40Mjk2LjM4NjgtMS4wOTM4LS40My0uODk4OS44OTk4LS40Mjk2LjM4NjgtMS4wOTM4LS40Mjk2LS44OTk4LjM3ODgtLjE4MDljLjMzNTktLjE1ODguNTg4NC0uNDM5My43MTIxLS43ODkybDEuMjAxNi0zLjQwMDRjLjE0MTQtLjQuMDM1Mi0uODU2Ni0uMjkyNi0xLjEyNTktMS4zODYtMS4xMzg1LTIuMTQ5NC0yLjgyMzEtMi4wOTE2LTQuNjE1My4wNDk2LTEuNTQ2LjcwMjMtMi45NzU2LDEuODM4MS00LjAyNTcuODAyMi0uNzQyNCwxLjc3Ny0xLjIyMzEsMi44MjQ2LTEuNDE5Ny4wMTE1LS4wMTA2LjAyMTQtLjAyMjYuMDMzLS4wMzMyLjU3MjEtLjUyMTgsMS4yMjI4LS45Mzk4LDEuOTIxOS0xLjI1NzQtLjE4NjktLjAyNDgtLjM3NDEtLjA0NzUtLjU2My0uMDU2Mi0xLjg4MzYtLjA4NjYtMy42ODI5LjU2OTctNS4wNjU2LDEuODQ4OS0uODQ1MS43ODE1LTEuNDcwNCwxLjczNTUtMS44NDMxLDIuNzg5Mi0uMjM3Mi42NzA3LS4zNzE3LDEuMzgxOS0uMzk1NSwyLjExNDEtLjA2NTMsMi4wNTIxLjc1MjIsMy45ODgxLDIuMjUzNCw1LjM2NTQuMDkxNi4wODQuMTI2Ni4yMTIyLjA4NTIuMzI5NGwtMS4wODM5LDMuMDY3Ni0uMDcxOC4wNzk5LTEuMzc2Mi42NTg1Yy0uMDczMS4wMzUtLjEwNC4xMjI2LS4wNjkxLjE5NThsLjY4MjMsMS40MjYxLS4wNDE3LjExNzktMS40MzI0LjY4MzljLS4wNzA2LjAzMzctLjEwMDUuMTE4My0uMDY2OC4xODg5bC42ODQyLDEuNDMxNi0uMDQxNy4xMTc5LTEuNDIwOC42Nzg0Yy0uMDc3LjAzNjgtLjEwOTcuMTI5LS4wNzI5LjIwNjFsLjY3ODQsMS40MjA5LS4xMTk2LjMzODFjLS4xOTc4LjU1OTMtLjE2NTMsMS4xNzQ0LjA5MDMsMS43MDk4bC4zMTc1LjY2NDljLjQ2MzIuOTcwMiwxLjYyNTcsMS4zODA3LDIuNTk1NS45MTY0bC42MDU2LS4yODk5Yy41NzI4LS4yNzQyLDEuMDEzNC0uNzY0NSwxLjIyNTItMS4zNjMybDMuOTkxNi0xMS4wODNjLS4zNzQ5LS4yMDY3LS43Mjk4LS40NTE4LTEuMDY5LS43MjMxWiIgY2xhc3M9InN0MCIvPiYjeGE7ICAgICAgICA8cGF0aCBkPSJNNDMuNDg2MSw0NC45ODZsLTUuMzk2Mi0xMC44NjA3Yy0uMDQ4NC0uMDk3NC0uMDMwNS0uMjEyNi4wNDE4LS4yOTM5LDIuMjM2NC0yLjUxNzcsMi4zNTUyLTYuMzIwNC4yNDI0LTguOTc5Ny0uMDY3OS0uMDg1My0uMTQ0Ni0uMTYyMi0uMjE2NC0uMjQzOC0uMjA4MS4zODM2LS40NTEyLjc0My0uNzIwOSwxLjA4MDkuMjU0OC4zMjc2LjQ3MTcuNjczOC42NDQ3LDEuMDM2MiwxLjAxMjYsMi4xMjA4LjYzNjgsNC43MTk5LTEuMDYwNyw2LjQ2NTktLjMwNzQuMzE1MS0uMzg4MS43ODk3LS4yMDE1LDEuMTgwNWwuMjc5OS41NjQ2LS4wMDQ5LjAwMTgsNS4yNzY3LDEwLjYxMjdjLjEzOS4yNzQ0LjE2MjguNTg1My4wNjY1Ljg3NzFsLS4yMDczLjYzNDhjLS4xMjA0LjM2NTMtLjUxNDIuNTY0Ny0uODc4Mi40NDQ3bC0uNjk5NS0uMjI5MmMtLjI1MTYtLjA4MTctLjQ1NTEtLjI1NjctLjU3NDItLjQ5MTlsLS45ODYtMS42MTEtLjkzOTgtLjMzMjMuMzMyNS0uOTQwMS0uNDk5OS0xLjA0NjktLjkzOTctLjMzMTYuMzMyNS0uOTQwMS0uNDk5OS0xLjA0NjktLjk0MDEtLjMzMjUuMTQtLjM5NThjLjEyNTItLjM0OTguMTA1NC0uNzI2Ny0uMDU0NS0xLjA2MTVsLTEuNTU0OC0zLjI1NDFjLS4xODI5LS4zODI5LS41ODA5LS42MzA3LTEuMDAzMi0uNTg5My0xLjc4NS4xNzUxLTMuNTE2LS40NzY0LTQuNzQyMy0xLjc4NDUtMS4wNTgyLTEuMTI4My0xLjYwNzUtMi42MDA3LTEuNTQ2OS00LjE0NjMuMDU5OC0xLjU0NTIuNzIzMi0yLjk3MDcsMS44NjY4LTQuMDEzOSwxLjE0MTUtMS4wNDA3LDIuNzEyNi0xLjU2NDYsNC4zMTEtMS40Mzc3Ljc1ODcuMDYwMywxLjQ4NTkuMjY4NywyLjE0NjQuNTk1NS4yNTg4LS4zMjc1LjQ3MTctLjY4OTguNjQwNi0xLjA3ODgtLjgyNDItLjQyMTYtMS43MzcxLS42ODY4LTIuNjg4MS0uNzYyNC0xLjk0MTctLjE1NDUtMy44NTYuNDg2OC01LjI1MTQsMS43NTk2LTEuMzkzMSwxLjI3MDctMi4yMDE0LDMuMDA3MS0yLjI3NDUsNC44ODkzLS4wNDQ5LDEuMTUwMS4xODc0LDIuMjY2OS42NjksMy4yNzU1LjMwNjUuNjQyLjcxNDQsMS4yNCwxLjIxNTIsMS43NzQ2LDEuNDI1MiwxLjUxODgsMy40MDgzLDIuMzEwOSw1LjQ3NTYsMi4xOTYyLjA3MDYtLjAwMzkuMTM2NC4wMzM3LjE2NjkuMDk3NWwxLjQ0MDcsMy4wMTUxLjAwNTcuMTA3Mi0uNTA3NSwxLjQzODhjLS4wMjcuMDc2NS4wMTMxLjE2MDMuMDg5Ni4xODczbDEuNDkwOC41MjU5LjA1MzguMTEyOC0uNTI5MywxLjQ5NjdjLS4wMjYxLjA3MzcuMDEyNi4xNTQ3LjA4NjMuMTgwN2wxLjQ5NjIuNTI4NC4wNTM4LjExMjgtLjUyNSwxLjQ4NDRjLS4wMjg1LjA4MDUuMDEzNy4xNjg4LjA5NDIuMTk3M2wxLjQ4NDQuNTI1LjE3NjQuMDQ2NS41OTk2LDEuMTI0M2MuMjY4MS41Mjk0LjczNTQuOTMwNSwxLjI5OTMsMS4xMTUzbC43MDAyLjIyOTRjMS4wMjE3LjMzNDgsMi4xMjEzLS4yMjI3LDIuNDU0OS0xLjI0NDhsLjIwODQtLjYzODNjLjE5NzEtLjYwMzcuMTQ2Ny0xLjI2MDktLjE0MDItMS44Mjc1WiIgY2xhc3M9InN0MCIvPiYjeGE7ICAgICAgPC9nPiYjeGE7ICAgICAgPHBvbHlnb24gcG9pbnRzPSIzOS4wOTIyIDQ1LjE3NTMgMzkuMDkyMiA0NS4xNzUzIDM5LjA5MjUgNDUuMTc1NCAzOS4wOTIyIDQ1LjE3NTMiIGNsYXNzPSJzdDAiLz4mI3hhOyAgICA8L2c+JiN4YTsgICAgPHBhdGggZD0iTTM3Ljc2OTUsMTguMTk5OGMtLjc3NzMtMS42MjctMi4xNDE2LTIuODU0NS0zLjg0MTgtMy40NTU2LTEuNjk4Mi0uNjAwNi0zLjUzMjItLjUwMzktNS4xNTg3LjI3MjUtMS42MjcuNzc2OS0yLjg1NDUsMi4xNDExLTMuNDU1NiwzLjg0MDgtLjMzMzYuOTQyOS0uNDM3LDEuOTM1Mi0uMzM4MiwyLjkxNjQuMDI0NC4yODIuMDYwMS41NjA3LjEwMjMuODM5MS4zNzgyLS4yMTM1Ljc3Mi0uMzk0MSwxLjE3OTktLjUzOTMtLjAyNzgtLjI4OTctLjA1MTctLjUyMzktLjA2MjQtLjc1NDgtLjAxMzItLjM0MDguMDAwOS0uNjgxOC4wNDgyLTEuMDE5NS4wMDAyLS4wMDE4LjAwMDItLjAwMjkuMDAwNC0uMDA0Ni4wNDg2LS4zNDUuMTMwNC0uNjg2NC4yNDg1LTEuMDIwMS40ODk3LTEuMzg1MywxLjQ4OTctMi40OTY2LDIuODE1NC0zLjEyOTksMS4zMjcxLS42MzMzLDIuODE4OC0uNzExOSw0LjIwNDEtLjIyMTcsMS4zODQ4LjQ4OTcsMi40OTYxLDEuNDg5NywzLjEyOTksMi44MTU0LjYzMjgsMS4zMjYyLjcxMTksMi44MTkzLjIyMjcsNC4yMDQxLS41NTg3LDEuNTc4Mi0xLjgxODQsMi44MDg0LTMuMzc2OSwzLjM1Ni0uMTE3Mi0uMDkwMi0uMjQ1Ny0uMTY4Ny0uMzkyNi0uMjIwNy0uNzQ3MS0uMjY0Mi0xLjU2NjkuMTI3My0xLjgzMTEuODc0My0uMjY0Mi43NDY5LjEyNzIsMS41NjY4Ljg3NDIsMS44MzEuNzQ3MS4yNjQyLDEuNTY2OS0uMTI3MiwxLjgzMTEtLjg3NDMuMDU3Ni0uMTYyOS4wNzg3LS4zMjg4LjA3NzEtLjQ5MjEsMS44NDMzLS42OTY4LDMuMzI4OS0yLjE3MTcsMy45OTU5LTQuMDU3Mi42MDE2LTEuNzAwMi41MDQ5LTMuNTMyMi0uMjcyNS01LjE1OTdaIiBjbGFzcz0ic3QwIi8+JiN4YTsgIDwvZz4mI3hhOzwvc3ZnPg==;" parent="1" vertex="1">
          <mxGeometry x="449.75" y="640" width="62" height="62" as="geometry" />
        </mxCell>
        <mxCell id="VBJ0osGM4a_MAeBudqhX-6" value="" style="shape=image;verticalLabelPosition=bottom;labelBackgroundColor=default;verticalAlign=top;aspect=fixed;imageAspect=0;editableCssRules=.*;image=data:image/svg+xml,PHN2ZyB4bWxucz0iaHR0cDovL3d3dy53My5vcmcvMjAwMC9zdmciIHZpZXdCb3g9IjAgMCA2Mi4zNjIxOTc4NzU5NzY1NiA2Mi4zNjIyMDE2OTA2NzM4MyIgdmVyc2lvbj0iMS4xIiBpZD0iRWJlbmVfMiIgd2lkdGg9IjYyLjM2MjE5Nzg3NTk3NjU2IiBoZWlnaHQ9IjYyLjM2MjIwMTY5MDY3MzgzIj4mI3hhOyAgJiN4YTsgIDxkZWZzPiYjeGE7ICAgIDxzdHlsZT4mI3hhOyAgICAgIC5zdDAgeyYjeGE7ICAgICAgICBkaXNwbGF5OiBub25lOyYjeGE7ICAgICAgfSYjeGE7JiN4YTsgICAgICAuc3QwLCAuc3QxIHsmI3hhOyAgICAgICAgZmlsbDogI2ZmZjsmI3hhOyAgICAgIH0mI3hhOyYjeGE7ICAgICAgLnN0MiB7JiN4YTsgICAgICAgIGZpbGw6ICNkYTI5MWM7JiN4YTsgICAgICB9JiN4YTsgICAgPC9zdHlsZT4mI3hhOyAgPC9kZWZzPiYjeGE7ICA8cGF0aCBkPSJNMzEuMzE0OSw2Mi4zNjIyQzEzLjQ4MjgsNjIuMzYyMiwwLDQ3LjU5MDUsMCwzMS4zMTQ4LDAsMTIuNjMyOSwxNS41NTcxLDAsMzEuMDgwNywwYzE4LjYwMTYsMCwzMS4yODE1LDE1LjMzOTksMzEuMjgxNSwzMC45NDcyLDAsMTkuMDQ5NS0xNS42NTc1LDMxLjQxNS0zMS4wNDczLDMxLjQxNWgwWiIgY2xhc3M9InN0MiIvPiYjeGE7ICA8cGF0aCBkPSJNMTkuMTMzMyw0MS4xNDc1Yy0uMzU5NCwwLTMuNDI1My0uMDYzNS01LjUwNTktMi4xMTIzLTEuMjQxNy0xLjIyMzYtMS44NzE2LTIuODc0LTEuODcxNi00LjkwNTMsMC0uMjU5OC4wMTQyLS41MTk1LjA0MzUtLjc3ODMuMDI4My0uMjU2OC4wNzEzLS41MTI3LjEyODQtLjc2NjYuMDU3Ni0uMjU0OS4xMjg5LS41MDQ5LjIxMzQtLjc1LjA4NS0uMjQ2MS4xODM2LS40ODYzLjI5NTQtLjcyMTIuMTExMy0uMjM0OS4yMzU4LS40NjI5LjM3My0uNjg0Ni4xMzYyLS4yMTk3LjI4NTYtLjQzMzYuNDQ3My0uNjM4Ny4xNTk3LS4yMDMxLjMzMTEtLjM5ODQuNTEzNy0uNTg0LjE4MTItLjE4NDYuMzczLS4zNTg5LjU3NTItLjUyMzQuMjAxNy0uMTY0MS40MTE2LS4zMTY0LjYzMDQtLjQ1Ny4yMTczLS4xNDA2LjQ0MzgtLjI2ODYuNjc2OC0uMzg0My4yMzM0LS4xMTU3LjQ3MjItLjIxODMuNzE2My0uMzA3MS4yNDMyLS4wODg0LjQ5MTItLjE2MzYuNzQ0MS0uMjI1MS4yNTItLjA2MTUuNTA3My0uMTA4NC43NjU2LS4xNDExLjI1NzMtLjAzMzIuNTE3MS0uMDUxOC43NzczLS4wNTU3LjE0OTQtLjAwMS4zMDEzLjAwMDUuNDUxNy4wMDczLjA0NTktLjMxNC4xMDQ1LS42MjYuMTc0My0uOTM0MS4xNDctLjY1MDQuMzUxMS0xLjI5NjkuNjA2LTEuOTIwOS4yNTQ0LS42MjIxLjU2Mi0xLjIyNjYuOTE0Ni0xLjc5NjQuMzUwNi0uNTY4OC43NTI5LTEuMTE0MywxLjE5NTgtMS42MjA2LjQ0MDktLjUwNDQuOTI3Mi0uOTc1NiwxLjQ0NTgtMS40MDE5LjUyMDUtLjQyNjgsMS4wNzgxLS44MTIsMS42NTc3LTEuMTQ1LjU4Mi0uMzM1LDEuMTk1My0uNjIzLDEuODIyOC0uODU2LjYyODktLjIzNDQsMS4yODEyLS40MTc1LDEuOTM3NS0uNTQ0NC42NTg3LS4xMjcsMS4zMzE1LS4yMDA3LDIuMDAwNS0uMjE3OC42NjU1LS4wMjEsMS4zNDUyLjAyMSwyLjAwOTMuMTE0Ny42NjIxLjA5MjgsMS4zMjMyLjI0MjIsMS45NjM5LjQ0NDMuNjM4Ny4yMDEyLDEuMjY2Ni40NTcsMS44NjMzLjc2MTIuNTk0Ny4zMDE4LDEuMTcxOS42NTc3LDEuNzEzOSwxLjA1NzYuNTM4MS4zOTc5LDEuMDQ3OS44NDM4LDEuNTE1NiwxLjMyNTIuNDY0OC40Nzk1Ljg5NDUsMS4wMDI5LDEuMjc4MywxLjU1NjYuMjU4OC4zNzU1LjQ5OC43NjgxLjcxNTgsMS4xNzI0LjA4My4wMDI5LjE2Ni4wMDY4LjI0OS4wMTIyLjMwMzcuMDE5LjYwMjUuMDUyNy45MDE0LjEwMjEuMjk2OS4wNDg4LjU5MTguMTEzMy44ODI4LjE5MTkuMjkzLjA3OTYuNTgxMS4xNzI5Ljg2MzMuMjgxMi4yNzkzLjEwNjQuNTU1Ny4yMjguODI1Mi4zNjM4LjI3MDUuMTM2Mi41MzMyLjI4NDcuNzg3MS40NDY4LjI1NTkuMTYyMS41MDIuMzM2NC43MzkzLjUyMzkuMjM2My4xODYuNDYzOS4zODQzLjY4MTYuNTk0MnMuNDIzOC40MjkyLjYxOTEuNjYwMmMuMTk1My4yMzE5LjM3NzkuNDcxMi41NDg4LjcxODguMTcyOS4yNTEuMzMxMS41MDc4LjQ3NjYuNzczNC4xNDM2LjI2MzIuMjc1NC41MzQyLjM5MzYuODEyLjExODIuMjc5My4yMjE3LjU2MjUuMzEwNS44NDk2LjA4OTguMjkyLjE2NS41ODM1LjIyNDYuODc4OS4wNjA1LjI5NjQuMTA2NC41OTYyLjEzNTcuODk3OS4wMjkzLjI5OTguMDQ0OS42MDA2LjA0NDkuOTAxOSwwLDYuMjMzNC00LjU1MjcsOS4wMjM0LTkuMDY1NCw5LjAyMzRoLTIyLjQwNzdaTTE4Ljc3MSwyOS4xMTE4Yy0uMDI3MywwLS4wNTQ3LjAwMDUtLjA4Mi4wMDEtLjE4NzUuMDAyOS0uMzcyMS4wMTU2LS41NTU3LjAzOTEtLjE4NDYuMDIzOS0uMzY2Ny4wNTcxLS41NDY5LjEwMTEtLjE4MTIuMDQzOS0uMzU4OS4wOTc3LS41MzMyLjE2MTEtLjE3NTMuMDY0LS4zNDU3LjEzNzItLjUxMTcuMjE5Mi0uMTY1NS4wODItLjMyNjcuMTczOC0uNDgyNC4yNzM5LS4xNTcyLjEwMTEtLjMwNzYuMjEwNC0uNDUxNy4zMjc2LS4xNDM2LjExNjctLjI4MDguMjQxMi0uNDEwNi4zNzQtLjEzMTMuMTMzMy0uMjUzOS4yNzI1LS4zNjgyLjQxODUtLjExNjIuMTQ3LS4yMjE3LjI5ODMtLjMxODguNDU1Ni0uMDk5MS4xNTkyLS4xODc1LjMyMTgtLjI2NzEuNDg5My0uMDgwMS4xNjg1LS4xNTA0LjM0MDMtLjIxMDkuNTE2MS0uMDYxLjE3NTgtLjExMTguMzU1NS0uMTUzMy41MzcxLS4wNC4xNzg3LS4wNzEzLjM2MjMtLjA5MTMuNTQ2OS0uMDIxLjE4NjUtLjAzMTIuMzcyMS0uMDMxMi41NTc2LDAsMS40NzA3LjQyNTgsMi42Mzg3LDEuMjY2MSwzLjQ3MTcsMS41NjQ5LDEuNTUwOCw0LjE0MDEsMS41NDg4LDQuMTMwNCwxLjU0NTloMjIuMzg4N2MxLjE3OTcsMCw3LjA2NTQtLjMzODksNy4wNjU0LTcuMDIzNCwwLS4yMzU4LS4wMTE3LS40NzEyLS4wMzUyLS43MDU2LS4wMjM0LS4yMzM0LS4wNTc2LS40NjQ4LS4xMDQ1LS42OTQzLS4wNDc5LS4yMzI0LS4xMDU1LS40NjA0LS4xNzU4LS42ODYtLjA2OTMtLjIyMTctLjE0OTQtLjQ0MzQtLjI0MTItLjY2MDYtLjA5MTgtLjIxNDgtLjE5NDMtLjQyNzItLjMwNzYtLjYzMzgtLjExMzMtLjIwNy0uMjM2My0uNDA2Mi0uMzY5MS0uNTk5Ni0uMTMyOC0uMTkzOC0uMjc2NC0uMzgxMy0uNDI4Ny0uNTYxNS0uMTUwNC0uMTc3Mi0uMzExNS0uMzQ4Ni0uNDgwNS0uNTExN3MtLjM0NTctLjMxNzQtLjUzMDMtLjQ2MjljLS4xODU1LS4xNDYtLjM3Ny0uMjgxMi0uNTc0Mi0uNDA3Mi0uMTk5Mi0uMTI2LS40MDMzLS4yNDIyLS42MTMzLS4zNDc3LS4yMDktLjEwNS0uNDIyOS0uMTk5Mi0uNjQyNi0uMjgyNy0uMjIwNy0uMDg1NC0uNDQ0My0uMTU3Mi0uNjY5OS0uMjE4OC0uMjI1Ni0uMDYwNS0uNDU0MS0uMTEwNC0uNjg1NS0uMTQ4NC0uMjMzNC0uMDM4Ni0uNDY1OC0uMDY0OS0uNzAxMi0uMDc5Ni0uMjMxNC0uMDE1MS0uNDY0OC0uMDE4MS0uNzAyMS0uMDA4My0uNDA2Mi4wMTYxLS43NzE1LS4yMTA5LS45NDI0LS41NzM3LS4yNDAyLS41MDk4LS41MjM0LTEuMDAxNS0uODQwOC0xLjQ2MTQtLjMyMDMtLjQ2MjQtLjY4MDctLjkwMDktMS4wNjg0LTEuMzAxOC0uMzkwNi0uNDAyMy0uODE3NC0uNzc1OS0xLjI2NzYtMS4xMDg0LS40NTMxLS4zMzQtLjkzNTUtLjYzMTMtMS40MzI2LS44ODM4LS40OTktLjI1NDQtMS4wMjM0LS40NjgzLTEuNTU3Ni0uNjM2Mi0uNTM2MS0uMTY4OS0xLjA4NzktLjI5MzktMS42NDA2LS4zNzE2LS41NTU3LS4wNzc2LTEuMTIyMS0uMTEwNC0xLjY4MDctLjA5NjItLjU1ODYuMDE0Ni0xLjEyMTYuMDc2Mi0xLjY3MjkuMTgyNi0uNTQ3OS4xMDU1LTEuMDkyMy4yNTg4LTEuNjE5MS40NTUxLS41MjQ0LjE5NDgtMS4wMzY2LjQzNTUtMS41MjM0LjcxNTMtLjQ4NDQuMjc4My0uOTUwMi42MDA2LTEuMzg1My45NTctLjQzMzYuMzU2LS44NDAzLjc1MDUtMS4yMDksMS4xNzI0LS4zNzA2LjQyMzMtLjcwNjUuODc5NC0xLDEuMzU0NS0uMjk0OS40Nzc1LS41NTIyLjk4MjktLjc2NTEsMS41MDI5LS4yMTI5LjUyMTUtLjM4MzMsMS4wNjI1LS41MDY4LDEuNjA2NC0uMTI0LjU0NzQtLjIwMzYsMS4xMDg5LS4yMzYzLDEuNjY5OS0uMDE3MS4yOTA1LS4xNjAyLjU1OTEtLjM5MTYuNzM1OC0uMjMxLjE3NzctLjUyNzguMjQ1Ni0uODEzLjE4NDEtLjE4MTYtLjAzODEtLjM2NTItLjA2NTktLjU1MDMtLjA4NC0uMTU1My0uMDE0Ni0uMzEyNS0uMDIyNS0uNDcwMi0uMDIyNVoiIGNsYXNzPSJzdDEiLz4mI3hhOyAgPGc+JiN4YTsgICAgPHBhdGggZD0iTTIzLjczMTEsMzcuMjA5MmMtLjM0MjksMC0uNjIwOS0uMjc3Ny0uNjIwOS0uNjIwOXYtNi44ODU0YzAtLjM0MjkuMjc4LS42MjA5LjYyMDktLjYyMDlzLjYyMDkuMjc4LjYyMDkuNjIwOXY2Ljg4NTRjMCwuMzQzMi0uMjc4LjYyMDktLjYyMDkuNjIwOVoiIGNsYXNzPSJzdDEiLz4mI3hhOyAgICA8cGF0aCBkPSJNMjYuMjE0NiwzNy4yMDkyYy0uMzQyOSwwLS42MjA5LS4yNzc3LS42MjA5LS42MjA5di03Ljg0MDljMC0uMzQyOS4yNzgtLjYyMDkuNjIwOS0uNjIwOXMuNjIwOS4yNzguNjIwOS42MjA5djcuODQwOWMwLC4zNDMyLS4yNzguNjIwOS0uNjIwOS42MjA5WiIgY2xhc3M9InN0MSIvPiYjeGE7ICAgIDxwYXRoIGQ9Ik0yOC42OTgsMzcuMjA5MmMtLjM0MjksMC0uNjIwOS0uMjc3Ny0uNjIwOS0uNjIwOXYtOC44MTI4YzAtLjM0MjkuMjc4LS42MjA5LjYyMDktLjYyMDlzLjYyMDkuMjc4LjYyMDkuNjIwOXY4LjgxMjhjMCwuMzQzMi0uMjc4LjYyMDktLjYyMDkuNjIwOVoiIGNsYXNzPSJzdDEiLz4mI3hhOyAgICA8cGF0aCBkPSJNMzEuMTgxNCwzNy4yMDkyYy0uMzQyOSwwLS42MjA5LS4yNzc3LS42MjA5LS42MjA5di03LjgzNzljMC0uMzQyOS4yNzgtLjYyMDkuNjIwOS0uNjIwOXMuNjIwOS4yNzguNjIwOS42MjA5djcuODM3OWMwLC4zNDMyLS4yNzguNjIwOS0uNjIwOS42MjA5WiIgY2xhc3M9InN0MSIvPiYjeGE7ICAgIDxwYXRoIGQ9Ik0zMy42NjQ4LDM3LjIwOTJjLS4zNDMyLDAtLjYyMDktLjI3NzctLjYyMDktLjYyMDl2LTYuODg1NGMwLS4zNDI5LjI3NzctLjYyMDkuNjIwOS0uNjIwOXMuNjIwOS4yNzguNjIwOS42MjA5djYuODg1NGMwLC4zNDMyLS4yNzc3LjYyMDktLjYyMDkuNjIwOVoiIGNsYXNzPSJzdDEiLz4mI3hhOyAgICA8cGF0aCBkPSJNMzYuMTQ4MiwzNy4yMDkyYy0uMzQzMiwwLS42MjA5LS4yNzc3LS42MjA5LS42MjA5di01Ljk5MmMwLS4zNDI5LjI3NzctLjYyMDkuNjIwOS0uNjIwOXMuNjIwOS4yNzguNjIwOS42MjA5djUuOTkyYzAsLjM0MzItLjI3NzcuNjIwOS0uNjIwOS42MjA5WiIgY2xhc3M9InN0MSIvPiYjeGE7ICAgIDxwYXRoIGQ9Ik0zOC42MzE3LDM3LjIwOTJjLS4zNDMyLDAtLjYyMDktLjI3NzctLjYyMDktLjYyMDl2LTYuODg1NGMwLS4zNDI5LjI3NzctLjYyMDkuNjIwOS0uNjIwOXMuNjIwOS4yNzguNjIwOS42MjA5djYuODg1NGMwLC4zNDMyLS4yNzc3LjYyMDktLjYyMDkuNjIwOVoiIGNsYXNzPSJzdDEiLz4mI3hhOyAgICA8cGF0aCBkPSJNNDEuMTE1MSwzNy4yMDkyYy0uMzQzMiwwLS42MjA5LS4yNzc3LS42MjA5LS42MjA5di04LjgxMjhjMC0uMzQyOS4yNzc3LS42MjA5LjYyMDktLjYyMDlzLjYyMDkuMjc4LjYyMDkuNjIwOXY4LjgxMjhjMCwuMzQzMi0uMjc3Ny42MjA5LS42MjA5LjYyMDlaIiBjbGFzcz0ic3QxIi8+JiN4YTsgICAgPHBhdGggZD0iTTIxLjI0NzEsMzcuMjA5MmMtLjM0MjksMC0uNjIwOS0uMjc3Ny0uNjIwOS0uNjIwOXYtNC45Njg4YzAtLjM0MjkuMjc4LS42MjA5LjYyMDktLjYyMDlzLjYyMDkuMjc4LjYyMDkuNjIwOXY0Ljk2ODhjMCwuMzQzMi0uMjc4LjYyMDktLjYyMDkuNjIwOVoiIGNsYXNzPSJzdDEiLz4mI3hhOyAgPC9nPiYjeGE7ICA8cmVjdCBoZWlnaHQ9Ii45NTU1IiB3aWR0aD0iMi40ODQiIHk9IjI5LjIxOCIgeD0iMjEuMjQiIGNsYXNzPSJzdDAiLz4mI3hhOyAgPHJlY3QgaGVpZ2h0PSIuOTU1NSIgd2lkdGg9IjIuNDg0IiB5PSIzMC4xNzE5IiB4PSIyMS4yNCIgY2xhc3M9InN0MCIvPiYjeGE7PC9zdmc+;" parent="1" vertex="1">
          <mxGeometry x="210.75" y="520" width="62" height="62" as="geometry" />
        </mxCell>
        <mxCell id="VBJ0osGM4a_MAeBudqhX-8" value="" style="shape=image;verticalLabelPosition=bottom;labelBackgroundColor=default;verticalAlign=top;aspect=fixed;imageAspect=0;editableCssRules=.*;image=data:image/svg+xml,PHN2ZyB4bWxucz0iaHR0cDovL3d3dy53My5vcmcvMjAwMC9zdmciIHZpZXdCb3g9IjAgMCA2Mi4zNjIxOTc4NzU5NzY1NiA2Mi4zNjIyMDE2OTA2NzM4MyIgdmVyc2lvbj0iMS4xIiBpZD0iRWJlbmVfMiIgd2lkdGg9IjYyLjM2MjE5Nzg3NTk3NjU2IiBoZWlnaHQ9IjYyLjM2MjIwMTY5MDY3MzgzIj4mI3hhOyAgJiN4YTsgIDxkZWZzPiYjeGE7ICAgIDxzdHlsZT4mI3hhOyAgICAgIC5zdDAgeyYjeGE7ICAgICAgICBmaWxsOiAjZmZmOyYjeGE7ICAgICAgfSYjeGE7JiN4YTsgICAgICAuc3QxIHsmI3hhOyAgICAgICAgZmlsbDogI2RhMjkxYzsmI3hhOyAgICAgIH0mI3hhOyAgICA8L3N0eWxlPiYjeGE7ICA8L2RlZnM+JiN4YTsgIDxwYXRoIGQ9Ik0zMS4zMTQ5LDYyLjM2MjJDMTMuNDgyOCw2Mi4zNjIyLDAsNDcuNTkwNSwwLDMxLjMxNDgsMCwxMi42MzI5LDE1LjU1NzEsMCwzMS4wODA3LDBjMTguNjAxNiwwLDMxLjI4MTUsMTUuMzM5OSwzMS4yODE1LDMwLjk0NzIsMCwxOS4wNDk1LTE1LjY1NzUsMzEuNDE1LTMxLjA0NzMsMzEuNDE1aDBaIiBjbGFzcz0ic3QxIi8+JiN4YTsgIDxwYXRoIGQ9Ik0zOS41MzQ5LDQ0LjAyNmgtOS4yNDIyYy0uNTUyMiwwLTEtLjQ0NzMtMS0xcy40NDc4LTEsMS0xaDkuMjQyMmMuNTUyNywwLDEsLjQ0NzMsMSwxcy0uNDQ3MywxLTEsMVoiIGNsYXNzPSJzdDAiLz4mI3hhOyAgPGc+JiN4YTsgICAgPGc+JiN4YTsgICAgICA8Zz4mI3hhOyAgICAgICAgPHBhdGggZD0iTTI0LjI1NDYsNDAuMDMxOWguNjMzOXYtMmgtLjYzMzljLTEuNTM1MywwLTIuNzg3NS0xLjE3NTktMi45Mzk5LTIuNjcxOGgtMi4wMDAxYy4xNTgsMi41OTk3LDIuMzAxNiw0LjY3MTgsNC45NCw0LjY3MThaIiBjbGFzcz0ic3QwIi8+JiN4YTsgICAgICAgIDxwYXRoIGQ9Ik00Ni41NDA3LDE0LjExNjNoLTIyLjI4NjFjLTIuNzQwNywwLTQuOTcwMiwyLjIyOTUtNC45NzAyLDQuOTcwMnYxMy43NTM0aDJ2LTEzLjc1MzRjMC0xLjYzNzcsMS4zMzI1LTIuOTcwMiwyLjk3MDItMi45NzAyaDIyLjI4NjFjMS42Mzc3LDAsMi45Njk3LDEuMzMyNSwyLjk2OTcsMi45NzAydjE1Ljk3NDZjMCwxLjYzNzctMS4zMzIsMi45NzA3LTIuOTY5NywyLjk3MDdoLTE5LjEzMjF2MmgxOS4xMzIxYzIuNzQwMiwwLDQuOTY5Ny0yLjIyOTUsNC45Njk3LTQuOTcwN3YtMTUuOTc0NmMwLTIuNzQwNy0yLjIyOTUtNC45NzAyLTQuOTY5Ny00Ljk3MDJaIiBjbGFzcz0ic3QwIi8+JiN4YTsgICAgICA8L2c+JiN4YTsgICAgICA8cGF0aCBkPSJNMjQuMjIyOSwzMy40NjVoLTEwLjgxMDNjLTEuNDEyMSwwLTIuNTYwOSwxLjE0ODgtMi41NjA5LDIuNTYwOXY3Ljc0ODhjMCwxLjQxMjIsMS4xNDg4LDIuNTYxMSwyLjU2MDksMi41NjExaDEwLjgxMDNjMS40MTIsMCwyLjU2MDctMS4xNDg5LDIuNTYwNy0yLjU2MTF2LTcuNzQ4OGMwLTEuNDEyMS0xLjE0ODctMi41NjA5LTIuNTYwNy0yLjU2MDloMFpNMTMuNDEyNiw0NS4wNjU2Yy0uNzExNywwLTEuMjkwOC0uNTc5MS0xLjI5MDgtMS4yOTF2LTcuNzQ4OGMwLS43MTE3LjU3OS0xLjI5MDgsMS4yOTA4LTEuMjkwOGgxMC44MTAzYy43MTE2LDAsMS4yOTA1LjU3OSwxLjI5MDUsMS4yOTA4djcuNzQ4OGMwLC43MTE5LS41Nzg5LDEuMjkxLTEuMjkwNSwxLjI5MWgtMTAuODEwM1oiIGNsYXNzPSJzdDAiLz4mI3hhOyAgICA8L2c+JiN4YTsgICAgPGc+JiN4YTsgICAgICA8cGF0aCBkPSJNMTYuMzQxMyw0OC41ODU1Yy0uNTIyNSwwLS45NDczLS40MjQ4LS45NDczLS45NDczcy40MjQ4LS45NDczLjk0NzMtLjk0NzNoNC45NTI2Yy41MjI1LDAsLjk0NzguNDI0OC45NDc4Ljk0NzNzLS40MjUzLjk0NzMtLjk0NzguOTQ3M2gtNC45NTI2WiIgY2xhc3M9InN0MCIvPiYjeGE7ICAgICAgPHBhdGggZD0iTTIxLjI5NCw0Ny4wMDMxYy4zNTAyLDAsLjYzNTEuMjg0OS42MzUxLjYzNTFzLS4yODQ5LjYzNTEtLjYzNTEuNjM1MWgtNC45NTI1Yy0uMzUwMiwwLS42MzUxLS4yODQ5LS42MzUxLS42MzUxcy4yODQ5LS42MzUxLjYzNTEtLjYzNTFoNC45NTI1TTIxLjI5NCw0Ni4zNzgxaC00Ljk1MjVjLS42OTQ4LDAtMS4yNjAxLjU2NTMtMS4yNjAxLDEuMjYwMXMuNTY1MywxLjI2MDEsMS4yNjAxLDEuMjYwMWg0Ljk1MjVjLjY5NDgsMCwxLjI2MDEtLjU2NTMsMS4yNjAxLTEuMjYwMXMtLjU2NTMtMS4yNjAxLTEuMjYwMS0xLjI2MDFoMFoiIGNsYXNzPSJzdDEiLz4mI3hhOyAgICA8L2c+JiN4YTsgIDwvZz4mI3hhOzwvc3ZnPg==;" parent="1" vertex="1">
          <mxGeometry x="528.75" y="520" width="62" height="62" as="geometry" />
        </mxCell>
        <mxCell id="VBJ0osGM4a_MAeBudqhX-9" value="&lt;font style=&quot;font-size: 16px;&quot; face=&quot;Roboto&quot;&gt;scale&lt;/font&gt;" style="text;strokeColor=none;align=center;fillColor=none;html=1;verticalAlign=middle;whiteSpace=wrap;rounded=0;" parent="1" vertex="1">
          <mxGeometry x="520.75" y="590" width="80" height="30" as="geometry" />
        </mxCell>
        <mxCell id="VBJ0osGM4a_MAeBudqhX-10" value="&lt;font style=&quot;font-size: 16px;&quot; face=&quot;Roboto&quot;&gt;license&lt;/font&gt;" style="text;strokeColor=none;align=center;fillColor=none;html=1;verticalAlign=middle;whiteSpace=wrap;rounded=0;" parent="1" vertex="1">
          <mxGeometry x="443.75" y="710" width="80" height="30" as="geometry" />
        </mxCell>
        <mxCell id="VBJ0osGM4a_MAeBudqhX-11" value="&lt;font face=&quot;Roboto&quot;&gt;&lt;span style=&quot;font-size: 16px;&quot;&gt;cn1&lt;/span&gt;&lt;/font&gt;" style="text;strokeColor=none;align=center;fillColor=none;html=1;verticalAlign=middle;whiteSpace=wrap;rounded=0;" parent="1" vertex="1">
          <mxGeometry x="119.75" y="590" width="80" height="30" as="geometry" />
        </mxCell>
        <mxCell id="VBJ0osGM4a_MAeBudqhX-12" value="&lt;font style=&quot;font-size: 16px;&quot; face=&quot;Roboto&quot;&gt;cn2&lt;/font&gt;" style="text;strokeColor=none;align=center;fillColor=none;html=1;verticalAlign=middle;whiteSpace=wrap;rounded=0;" parent="1" vertex="1">
          <mxGeometry x="200.75" y="590" width="80" height="30" as="geometry" />
        </mxCell>
        <mxCell id="VBJ0osGM4a_MAeBudqhX-13" value="&lt;font style=&quot;font-size: 16px;&quot; face=&quot;Roboto&quot;&gt;storage&lt;/font&gt;" style="text;strokeColor=none;align=center;fillColor=none;html=1;verticalAlign=middle;whiteSpace=wrap;rounded=0;" parent="1" vertex="1">
          <mxGeometry x="280.75" y="590" width="80" height="30" as="geometry" />
        </mxCell>
        <mxCell id="VBJ0osGM4a_MAeBudqhX-14" value="&lt;font style=&quot;font-size: 16px;&quot; face=&quot;Roboto&quot;&gt;s3c&lt;/font&gt;" style="text;strokeColor=none;align=center;fillColor=none;html=1;verticalAlign=middle;whiteSpace=wrap;rounded=0;" parent="1" vertex="1">
          <mxGeometry x="360.75" y="590" width="80" height="30" as="geometry" />
        </mxCell>
        <mxCell id="VBJ0osGM4a_MAeBudqhX-15" value="&lt;font style=&quot;font-size: 16px;&quot; face=&quot;Roboto&quot;&gt;logo&lt;/font&gt;" style="text;strokeColor=none;align=center;fillColor=none;html=1;verticalAlign=middle;whiteSpace=wrap;rounded=0;" parent="1" vertex="1">
          <mxGeometry x="200.75" y="830" width="80" height="30" as="geometry" />
        </mxCell>
        <mxCell id="VBJ0osGM4a_MAeBudqhX-16" value="&lt;font style=&quot;font-size: 16px;&quot; face=&quot;Roboto&quot;&gt;price&lt;/font&gt;" style="text;strokeColor=none;align=center;fillColor=none;html=1;verticalAlign=middle;whiteSpace=wrap;rounded=0;" parent="1" vertex="1">
          <mxGeometry x="525.75" y="710" width="80" height="30" as="geometry" />
        </mxCell>
        <mxCell id="Dn8jgMw15Q1ra8HeODYf-1" value="" style="shape=image;verticalLabelPosition=bottom;labelBackgroundColor=default;verticalAlign=top;aspect=fixed;imageAspect=0;editableCssRules=.*;image=data:image/svg+xml,PHN2ZyB4bWxucz0iaHR0cDovL3d3dy53My5vcmcvMjAwMC9zdmciIHZpZXdCb3g9IjAgMCA2Mi4zNjE5OTk1MTE3MTg3NSA2Mi4zNjE5OTk1MTE3MTg3NSIgdmVyc2lvbj0iMS4xIiBpZD0iRWJlbmVfM19mbGFjaF94NUZfcGZhZCIgd2lkdGg9IjYyLjM2MTk5OTUxMTcxODc1IiBoZWlnaHQ9IjYyLjM2MTk5OTUxMTcxODc1Ij48ZGVmcz48c3R5bGU+LnN0MHtmaWxsOiNmZmZ9PC9zdHlsZT48L2RlZnM+PHBhdGggc3R5bGU9ImZpbGw6I2RhMjkxYyIgZD0iTTMxLjMxNSA2Mi4zNjJDMTMuNDgzIDYyLjM2MiAwIDQ3LjU5IDAgMzEuMzE1IDAgMTIuNjMzIDE1LjU1NyAwIDMxLjA4IDBjMTguNjAyIDAgMzEuMjgyIDE1LjM0IDMxLjI4MiAzMC45NDcgMCAxOS4wNS0xNS42NTcgMzEuNDE1LTMxLjA0NyAzMS40MTUiLz48cGF0aCBjbGFzcz0ic3QwIiBkPSJNMzEuMTgxIDM4LjQxNWMtMy40NzMgMC02LjMtMi44MjYtNi4zLTYuM3MyLjgyNy02LjMgNi4zLTYuMyA2LjMgMi44MjcgNi4zIDYuMy0yLjgyNyA2LjMtNi4zIDYuM20wLTExLjM1Yy0yLjc4NSAwLTUuMDUgMi4yNjUtNS4wNSA1LjA1czIuMjY1IDUuMDUgNS4wNSA1LjA1IDUuMDUtMi4yNjYgNS4wNS01LjA1LTIuMjY1LTUuMDUtNS4wNS01LjA1Ii8+PHBhdGggY2xhc3M9InN0MCIgZD0iTTQ0LjI2OCA0My4wNEgxOC4wOTVhMy41MSAzLjUxIDAgMCAxLTMuNTA1LTMuNTA0VjIzLjQ2MWEzLjUxIDMuNTEgMCAwIDEgMy41MDUtMy41MDRoMjYuMTczYTMuNTEgMy41MSAwIDAgMSAzLjUwNCAzLjUwNHYxNi4wNzVhMy41MSAzLjUxIDAgMCAxLTMuNTA0IDMuNTA0TTE4LjA5NSAyMS45NTdjLS44MyAwLTEuNTA1LjY3NC0xLjUwNSAxLjUwNHYxNi4wNzVjMCAuODMuNjc1IDEuNTA0IDEuNTA1IDEuNTA0aDI2LjE3M2MuODI5IDAgMS41MDQtLjY3NSAxLjUwNC0xLjUwNFYyMy40NjFjMC0uODMtLjY3NS0xLjUwNC0xLjUwNC0xLjUwNHptNi42OTgtM2gtNC4xMmExIDEgMCAwIDEgMC0yaDQuMTJhMSAxIDAgMCAxIDAgMiIvPjxwYXRoIGNsYXNzPSJzdDAiIGQ9Ik00Mi43NzMgMjUuOTMyaC00LjExOWExIDEgMCAxIDEgMC0yaDQuMTJhMSAxIDAgMSAxIDAgMiIvPjwvc3ZnPg==;" parent="1" vertex="1">
          <mxGeometry x="449.75" y="520" width="62" height="62" as="geometry" />
        </mxCell>
        <mxCell id="Dn8jgMw15Q1ra8HeODYf-2" value="&lt;font style=&quot;font-size: 16px;&quot; face=&quot;Roboto&quot;&gt;snapshot&lt;/font&gt;" style="text;strokeColor=none;align=center;fillColor=none;html=1;verticalAlign=middle;whiteSpace=wrap;rounded=0;" parent="1" vertex="1">
          <mxGeometry x="440.75" y="590" width="80" height="30" as="geometry" />
        </mxCell>
        <mxCell id="ek9lxg4U_0Xfv4WVR0UB-6" value="" style="shape=image;verticalLabelPosition=bottom;labelBackgroundColor=default;verticalAlign=top;aspect=fixed;imageAspect=0;editableCssRules=.*;image=data:image/svg+xml,PHN2ZyB4bWxucz0iaHR0cDovL3d3dy53My5vcmcvMjAwMC9zdmciIHZpZXdCb3g9IjAgMCA2Mi4zNjIxOTc4NzU5NzY1NiA2Mi4zNjIyMDE2OTA2NzM4MyIgdmVyc2lvbj0iMS4xIiBpZD0iSUNPTiIgd2lkdGg9IjYyLjM2MjE5Nzg3NTk3NjU2IiBoZWlnaHQ9IjYyLjM2MjIwMTY5MDY3MzgzIj4mI3hhOyAgJiN4YTsgIDxkZWZzPiYjeGE7ICAgIDxzdHlsZT4mI3hhOyAgICAgIC5zdDAgeyYjeGE7ICAgICAgICBmaWxsOiAjZmZmOyYjeGE7ICAgICAgfSYjeGE7JiN4YTsgICAgICAuc3QxIHsmI3hhOyAgICAgICAgZmlsbDogI2RhMjkxYzsmI3hhOyAgICAgIH0mI3hhOyAgICA8L3N0eWxlPiYjeGE7ICA8L2RlZnM+JiN4YTsgIDxwYXRoIGQ9Ik0zMS4zMTQ5LDYyLjM2MjJDMTMuNDgyOCw2Mi4zNjIyLDAsNDcuNTkwNSwwLDMxLjMxNDgsMCwxMi42MzI5LDE1LjU1NzEsMCwzMS4wODA3LDBjMTguNjAxNiwwLDMxLjI4MTUsMTUuMzM5OSwzMS4yODE1LDMwLjk0NzIsMCwxOS4wNDk1LTE1LjY1NzUsMzEuNDE1LTMxLjA0NzMsMzEuNDE1aDBaIiBjbGFzcz0ic3QxIi8+JiN4YTsgIDxnPiYjeGE7ICAgIDxwYXRoIGQ9Ik0xOS4xMzMzLDQxLjE0NzVjLS4zNTk0LDAtMy40MjUzLS4wNjM1LTUuNTA1OS0yLjExMjMtMS4yNDE3LTEuMjIzNi0xLjg3MTYtMi44NzQtMS44NzE2LTQuOTA1MywwLS4yNTk4LjAxNDItLjUxOTUuMDQzNS0uNzc4My4wMjgzLS4yNTY4LjA3MTMtLjUxMjcuMTI4NC0uNzY2Ni4wNTc2LS4yNTQ5LjEyODktLjUwNDkuMjEzNC0uNzUuMDg1LS4yNDYxLjE4MzYtLjQ4NjMuMjk1NC0uNzIxMi4xMTEzLS4yMzQ5LjIzNTgtLjQ2MjkuMzczLS42ODQ2LjEzNjItLjIxOTcuMjg1Ni0uNDMzNi40NDczLS42Mzg3LjE1OTctLjIwMzEuMzMxMS0uMzk4NC41MTM3LS41ODQuMTgxMi0uMTg0Ni4zNzMtLjM1ODkuNTc1Mi0uNTIzNC4yMDE3LS4xNjQxLjQxMTYtLjMxNjQuNjMwNC0uNDU3LjIxNzMtLjE0MDYuNDQzOC0uMjY4Ni42NzY4LS4zODQzLjIzMzQtLjExNTcuNDcyMi0uMjE4My43MTYzLS4zMDcxLjI0MzItLjA4ODQuNDkxMi0uMTYzNi43NDQxLS4yMjUxLjI1Mi0uMDYxNS41MDczLS4xMDg0Ljc2NTYtLjE0MTEuMjU3My0uMDMzMi41MTcxLS4wNTE4Ljc3NzMtLjA1NTcuMTQ5NC0uMDAxLjMwMTMuMDAwNS40NTE3LjAwNzMuMDQ1OS0uMzE0LjEwNDUtLjYyNi4xNzQzLS45MzQxLjE0Ny0uNjUwNC4zNTExLTEuMjk2OS42MDYtMS45MjA5LjI1NDQtLjYyMjEuNTYyLTEuMjI2Ni45MTQ2LTEuNzk2NC4zNTA2LS41Njg4Ljc1MjktMS4xMTQzLDEuMTk1OC0xLjYyMDYuNDQwOS0uNTA0NC45MjcyLS45NzU2LDEuNDQ1OC0xLjQwMTkuNTIwNS0uNDI2OCwxLjA3ODEtLjgxMiwxLjY1NzctMS4xNDUuNTgyLS4zMzUsMS4xOTUzLS42MjMsMS44MjI4LS44NTYuNjI4OS0uMjM0NCwxLjI4MTItLjQxNzUsMS45Mzc1LS41NDQ0LjY1ODctLjEyNywxLjMzMTUtLjIwMDcsMi4wMDA1LS4yMTc4LjY2NTUtLjAyMSwxLjM0NTIuMDIxLDIuMDA5My4xMTQ3LjY2MjEuMDkyOCwxLjMyMzIuMjQyMiwxLjk2MzkuNDQ0My42Mzg3LjIwMTIsMS4yNjY2LjQ1NywxLjg2MzMuNzYxMi41OTQ3LjMwMTgsMS4xNzE5LjY1NzcsMS43MTM5LDEuMDU3Ni41MzgxLjM5NzksMS4wNDc5Ljg0MzgsMS41MTU2LDEuMzI1Mi40NjQ4LjQ3OTUuODk0NSwxLjAwMjksMS4yNzgzLDEuNTU2Ni4yNTg4LjM3NTUuNDk4Ljc2ODEuNzE1OCwxLjE3MjQuMDgzLjAwMjkuMTY2LjAwNjguMjQ5LjAxMjIuMzAzNy4wMTkuNjAyNS4wNTI3LjkwMTQuMTAyMS4yOTY5LjA0ODguNTkxOC4xMTMzLjg4MjguMTkxOS4yOTMuMDc5Ni41ODExLjE3MjkuODYzMy4yODEyLjI3OTMuMTA2NC41NTU3LjIyOC44MjUyLjM2MzguMjcwNS4xMzYyLjUzMzIuMjg0Ny43ODcxLjQ0NjguMjU1OS4xNjIxLjUwMi4zMzY0LjczOTMuNTIzOS4yMzYzLjE4Ni40NjM5LjM4NDMuNjgxNi41OTQycy40MjM4LjQyOTIuNjE5MS42NjAyYy4xOTUzLjIzMTkuMzc3OS40NzEyLjU0ODguNzE4OC4xNzI5LjI1MS4zMzExLjUwNzguNDc2Ni43NzM0LjE0MzYuMjYzMi4yNzU0LjUzNDIuMzkzNi44MTIuMTE4Mi4yNzkzLjIyMTcuNTYyNS4zMTA1Ljg0OTYuMDg5OC4yOTIuMTY1LjU4MzUuMjI0Ni44Nzg5LjA2MDUuMjk2NC4xMDY0LjU5NjIuMTM1Ny44OTc5LjAyOTMuMjk5OC4wNDQ5LjYwMDYuMDQ0OS45MDE5LDAsNi4yMzM0LTQuNTUyNyw5LjAyMzQtOS4wNjU0LDkuMDIzNGgtMjIuNDA3N1pNMTguNzcxLDI5LjExMThjLS4wMjczLDAtLjA1NDcuMDAwNS0uMDgyLjAwMS0uMTg3NS4wMDI5LS4zNzIxLjAxNTYtLjU1NTcuMDM5MS0uMTg0Ni4wMjM5LS4zNjY3LjA1NzEtLjU0NjkuMTAxMS0uMTgxMi4wNDM5LS4zNTg5LjA5NzctLjUzMzIuMTYxMS0uMTc1My4wNjQtLjM0NTcuMTM3Mi0uNTExNy4yMTkyLS4xNjU1LjA4Mi0uMzI2Ny4xNzM4LS40ODI0LjI3MzktLjE1NzIuMTAxMS0uMzA3Ni4yMTA0LS40NTE3LjMyNzYtLjE0MzYuMTE2Ny0uMjgwOC4yNDEyLS40MTA2LjM3NC0uMTMxMy4xMzMzLS4yNTM5LjI3MjUtLjM2ODIuNDE4NS0uMTE2Mi4xNDctLjIyMTcuMjk4My0uMzE4OC40NTU2LS4wOTkxLjE1OTItLjE4NzUuMzIxOC0uMjY3MS40ODkzLS4wODAxLjE2ODUtLjE1MDQuMzQwMy0uMjEwOS41MTYxLS4wNjEuMTc1OC0uMTExOC4zNTU1LS4xNTMzLjUzNzEtLjA0LjE3ODctLjA3MTMuMzYyMy0uMDkxMy41NDY5LS4wMjEuMTg2NS0uMDMxMi4zNzIxLS4wMzEyLjU1NzYsMCwxLjQ3MDcuNDI1OCwyLjYzODcsMS4yNjYxLDMuNDcxNywxLjU2NDksMS41NTA4LDQuMTQwMSwxLjU0ODgsNC4xMzA0LDEuNTQ1OWgyMi4zODg3YzEuMTc5NywwLDcuMDY1NC0uMzM4OSw3LjA2NTQtNy4wMjM0LDAtLjIzNTgtLjAxMTctLjQ3MTItLjAzNTItLjcwNTYtLjAyMzQtLjIzMzQtLjA1NzYtLjQ2NDgtLjEwNDUtLjY5NDMtLjA0NzktLjIzMjQtLjEwNTUtLjQ2MDQtLjE3NTgtLjY4Ni0uMDY5My0uMjIxNy0uMTQ5NC0uNDQzNC0uMjQxMi0uNjYwNi0uMDkxOC0uMjE0OC0uMTk0My0uNDI3Mi0uMzA3Ni0uNjMzOC0uMTEzMy0uMjA3LS4yMzYzLS40MDYyLS4zNjkxLS41OTk2LS4xMzI4LS4xOTM4LS4yNzY0LS4zODEzLS40Mjg3LS41NjE1LS4xNTA0LS4xNzcyLS4zMTE1LS4zNDg2LS40ODA1LS41MTE3cy0uMzQ1Ny0uMzE3NC0uNTMwMy0uNDYyOWMtLjE4NTUtLjE0Ni0uMzc3LS4yODEyLS41NzQyLS40MDcyLS4xOTkyLS4xMjYtLjQwMzMtLjI0MjItLjYxMzMtLjM0NzctLjIwOS0uMTA1LS40MjI5LS4xOTkyLS42NDI2LS4yODI3LS4yMjA3LS4wODU0LS40NDQzLS4xNTcyLS42Njk5LS4yMTg4LS4yMjU2LS4wNjA1LS40NTQxLS4xMTA0LS42ODU1LS4xNDg0LS4yMzM0LS4wMzg2LS40NjU4LS4wNjQ5LS43MDEyLS4wNzk2LS4yMzE0LS4wMTUxLS40NjQ4LS4wMTgxLS43MDIxLS4wMDgzLS40MDYyLjAxNjEtLjc3MTUtLjIxMDktLjk0MjQtLjU3MzctLjI0MDItLjUwOTgtLjUyMzQtMS4wMDE1LS44NDA4LTEuNDYxNC0uMzIwMy0uNDYyNC0uNjgwNy0uOTAwOS0xLjA2ODQtMS4zMDE4LS4zOTA2LS40MDIzLS44MTc0LS43NzU5LTEuMjY3Ni0xLjEwODQtLjQ1MzEtLjMzNC0uOTM1NS0uNjMxMy0xLjQzMjYtLjg4MzgtLjQ5OS0uMjU0NC0xLjAyMzQtLjQ2ODMtMS41NTc2LS42MzYyLS41MzYxLS4xNjg5LTEuMDg3OS0uMjkzOS0xLjY0MDYtLjM3MTYtLjU1NTctLjA3NzYtMS4xMjIxLS4xMTA0LTEuNjgwNy0uMDk2Mi0uNTU4Ni4wMTQ2LTEuMTIxNi4wNzYyLTEuNjcyOS4xODI2LS41NDc5LjEwNTUtMS4wOTIzLjI1ODgtMS42MTkxLjQ1NTEtLjUyNDQuMTk0OC0xLjAzNjYuNDM1NS0xLjUyMzQuNzE1My0uNDg0NC4yNzgzLS45NTAyLjYwMDYtMS4zODUzLjk1Ny0uNDMzNi4zNTYtLjg0MDMuNzUwNS0xLjIwOSwxLjE3MjQtLjM3MDYuNDIzMy0uNzA2NS44Nzk0LTEsMS4zNTQ1LS4yOTQ5LjQ3NzUtLjU1MjIuOTgyOS0uNzY1MSwxLjUwMjktLjIxMjkuNTIxNS0uMzgzMywxLjA2MjUtLjUwNjgsMS42MDY0LS4xMjQuNTQ3NC0uMjAzNiwxLjEwODktLjIzNjMsMS42Njk5LS4wMTcxLjI5MDUtLjE2MDIuNTU5MS0uMzkxNi43MzU4LS4yMzEuMTc3Ny0uNTI3OC4yNDU2LS44MTMuMTg0MS0uMTgxNi0uMDM4MS0uMzY1Mi0uMDY1OS0uNTUwMy0uMDg0LS4xNTUzLS4wMTQ2LS4zMTI1LS4wMjI1LS40NzAyLS4wMjI1WiIgY2xhc3M9InN0MCIvPiYjeGE7ICAgIDxnPiYjeGE7ICAgICAgPHBhdGggZD0iTTM0LjM5NjUsMzUuNjc2OGgtMTAuMjUzOWMtLjE5NzMsMC0uMzgyMy0uMDc3MS0uNTIwNS0uMjE3OC0uMTQyMS0uMTQ3NS0uMjE5Ny0uMzQ4Ni0uMjE0OC0uNTU0Ny4wNTc2LTIuMTg2NSwxLjM2ODItNC4xOTQzLDMuMzQ4MS01LjE0MTEtLjY4Ni0uNjY5NC0xLjA3OTEtMS42MDExLTEuMDc5MS0yLjU2ODgsMC0uOTY4OC4zNzk5LTEuODc3OSwxLjA3MDgtMi41NTkxLjY3NjMtLjY2NywxLjU2NTktMS4wMzQyLDIuNTA0NC0xLjAzNDJoLjA2OThjMS45MTcuMDI4MywzLjUwNDksMS42MDk5LDMuNTQxLDMuNTI1OS4wMTc2Ljk5NDYtLjM3NCwxLjk1MDItMS4wNzcxLDIuNjM2NywxLjk3OTUuOTQ3OCwzLjI4OTEsMi45NTUxLDMuMzQ1Nyw1LjE0MDYuMDA1OS4yMDctLjA3MjMuNDA5Mi0uMjEzOS41NTM3LS4xMzg3LjE0MTYtLjMyMzIuMjE4OC0uNTIwNS4yMTg4Wk0zMS43MTgzLDI5LjgyNzFsLS4wMDE1LjAwMTUuMDAxNS0uMDAxNVpNMjkuMjcxNSwyNC44NDIzYy0uNjIyNiwwLTEuMjA5NS4yNDA3LTEuNjUzMy42NzY4LS43OTU0Ljc4NDItLjkyNTMsMS45NjczLS4zMzExLDMuMDEzNy4yNDI3LjQyNjguNzEwOS42NzI0LDEuMDkyMy44Mzg0LjI0NDYuMTA2OS4zOTM2LjM1NzQuMzcwNi42MjM1LS4wMjQ0LjI3MTUtLjIxODguNDkzMi0uNDgzOS41NTE4LTEuNzg2MS4zOTU1LTMuMjEwNCwxLjg3NzQtMy41NDQ0LDMuNjg3LS4wMDkzLjA1MDguMDAyNC4wOTk2LjAzMzIuMTM2Ny4wMzUyLjA0Mi4wODk4LjA2NjQuMTQ5OS4wNjY0aDguNzIyMmMuMTczOCwwLC4xOTM0LS4xMzI4LjE5NDMtLjE5MTQtLjAwMi0uMDAxLS4wMTg2LS4wODk4LS4wMjgzLS4xMzU3LS4zNzctMS43NzQ0LTEuNzU4OC0zLjE3MjktMy41MTk1LTMuNTYzLS4yNjYxLS4wNTg2LS40NjA5LS4yODAzLS40ODQ0LS41NTE4LS4wMjM5LS4yNzE1LjEyOTQtLjUyMzQuMzgwOS0uNjI3LjMyNjctLjEzNjcuNTkyMy0uMzIwOC43ODkxLS41NDU5LjY3MzMtLjc2OS44NDMzLTEuNjk1OC40NjYzLTIuNTQzNS0uMzc3LS44NDU3LTEuMjI5LTEuNDIyOS0yLjEyMTEtMS40MzU1bC0uMDMyNy0uMDAwNVoiIGNsYXNzPSJzdDAiLz4mI3hhOyAgICAgIDxwYXRoIGQ9Ik0zOC45MzU1LDMzLjYxNzJoLTEuNzc5M2MtLjM0MTgsMC0uNjE5MS0uMjc3My0uNjE5MS0uNjE5MXMuMjc3My0uNjE5MS42MTkxLS42MTkxaC45OTYxYy4wMjkzLDAsLjA1MDgtLjAwODguMDYzNS0uMDI0NC4wMTM3LS4wMTY2LjAxNzYtLjA0Mi4wMTE3LS4wNjg0LS4wMDQ5LS4wMjI1LS4wMTE3LS4wNDQ5LS4wMTY2LS4wNjE1bC0uMDA1OS0uMDIzNGMtLjI3NTQtLjkyNTMtMS4wNDY5LTEuNjM1My0yLjAxMTctMS44NDkxLS4yNjQ2LS4wNTkxLS40NTktLjI4MDMtLjQ4NDQtLjU0OTgtLjAyMzQtLjI3MTUuMTI4OS0uNTIzNC4zNzk5LS42Mjc0LjQ3NjYtLjE5ODIuNzg0Mi0uNjU4Ny43ODQyLTEuMTcyOSwwLS43MDAyLS41NjkzLTEuMjctMS4yNjk1LTEuMjctLjA3MjMsMC0uMTQwNi4wMDU5LS4yMDguMDE4MS0uMTU4Mi4wMjczLS4zMjIzLS4wMDY4LS40NTktLjEwMTEtLjEzNzctLjA5NTItLjIzMDUtLjIzODMtLjI1OTgtLjQwMTktLjAyODMtLjE2MjYuMDA4OC0uMzI3MS4xMDQ1LS40NjM0LjA5NDctLjEzNTMuMjM2My0uMjI1Ni40MDA0LS4yNTQ0LjEzNzctLjAyMzkuMjc5My0uMDM2MS40MjE5LS4wMzYxLDEuMzgzOCwwLDIuNTA4OCwxLjEyNTUsMi41MDg4LDIuNTA4OCwwLC41NzI4LS4xOTQzLDEuMTI1NS0uNTQ5OCwxLjU2ODgsMS4yMTg4LjcwNDEsMS45OTcxLDIuMDQyLDEuOTkyMiwzLjQzOCwwLC4zMzU5LS4yNzczLjYwODQtLjYxOTEuNjA4NFoiIGNsYXNzPSJzdDAiLz4mI3hhOyAgICA8L2c+JiN4YTsgIDwvZz4mI3hhOzwvc3ZnPg==;" parent="1" vertex="1">
          <mxGeometry x="130.75" y="520" width="62" height="62" as="geometry" />
        </mxCell>
      </root>
    </mxGraphModel>
  </diagram>
</mxfile>
